<?xml version="1.0" encoding="UTF-8"?>
<svg version="1.1" xmlns="http://www.w3.org/2000/svg" width="580" height="528">
<path d="M0 0 C191.4 0 382.8 0 580 0 C580 174.24 580 348.48 580 528 C388.6 528 197.2 528 0 528 C0 353.76 0 179.52 0 0 Z " fill="#FDFEFE" transform="translate(0,0)"/>
<path d="M0 0 C1.2065625 0.0309375 1.2065625 0.0309375 2.4375 0.0625 C3.78384355 3.89394465 4.86670231 7.71468427 5.78173828 11.67089844 C7.59949058 19.49917477 10.01952322 26.76151559 13.4375 34.0625 C13.87449219 35.20138672 13.87449219 35.20138672 14.3203125 36.36328125 C15.28981016 38.26766631 15.28981016 38.26766631 17.390625 38.49609375 C18.52757812 38.49802734 18.52757812 38.49802734 19.6875 38.5 C23.60596452 38.80819384 26.24275251 39.47974192 29.18505859 42.32543945 C35.21109705 50.68319065 37.20118571 63.8432522 40.15844727 73.69311523 C40.79764934 75.81720727 41.44688559 77.93802215 42.09765625 80.05859375 C42.47543213 81.30825928 42.85320801 82.5579248 43.24243164 83.84545898 C44.33634601 86.79020047 45.49824991 88.64551941 47.4375 91.0625 C47.4375 91.7225 47.4375 92.3825 47.4375 93.0625 C42.8480366 94.73590894 38.25818142 96.40823728 33.66796875 98.07958984 C32.10829172 98.64765629 30.54871988 99.21601167 28.98925781 99.78466797 C26.74051438 100.60461209 24.49138769 101.42349728 22.2421875 102.2421875 C21.5513205 102.49435028 20.86045349 102.74651306 20.14865112 103.00631714 C16.26104329 104.42007358 12.36366785 105.75377738 8.4375 107.0625 C13.3875 108.7125 18.3375 110.3625 23.4375 112.0625 C21.47563952 115.98622096 20.04293614 117.5596199 16.8125 120.375 C15.90757812 121.1690625 15.00265625 121.963125 14.0703125 122.78125 C13.20148438 123.5340625 12.33265625 124.286875 11.4375 125.0625 C10.79554688 125.6296875 10.15359375 126.196875 9.4921875 126.78125 C6.43823541 129.47824665 3.35319356 132.13727283 0.25 134.77734375 C-5.50514653 139.67824205 -11.21160476 144.60428271 -16.75 149.75 C-20.39663376 153.13774373 -24.11867401 156.38147796 -28 159.5 C-33.42158343 163.86390459 -38.49092117 168.5467153 -43.578125 173.2890625 C-48.20808998 177.60478951 -52.99666182 181.72554543 -57.80859375 185.8359375 C-59.0182858 186.8697254 -60.2279196 187.90358147 -61.4375 188.9375 C-62.04625977 189.45739502 -62.65501953 189.97729004 -63.28222656 190.51293945 C-66.81931159 193.54181717 -70.30668008 196.61421743 -73.75 199.75 C-78.03690164 203.64910627 -82.49930133 207.28694106 -87.0234375 210.90625 C-89.9172687 213.36378049 -92.41170857 216.02535217 -94.83203125 218.9453125 C-96.5625 220.0625 -96.5625 220.0625 -99.23046875 220.06640625 C-103.71295158 218.71588094 -107.1773455 216.44452298 -111.0625 213.875 C-112.75645438 212.77986124 -114.45046719 211.68481285 -116.14453125 210.58984375 C-117.02834473 210.01347168 -117.9121582 209.43709961 -118.82275391 208.84326172 C-124.36609572 205.24023773 -129.95437591 201.70692877 -135.54077148 198.17114258 C-139.8352393 195.4499523 -144.11031267 192.70995251 -148.3359375 189.8828125 C-149.42998901 189.16375732 -149.42998901 189.16375732 -150.54614258 188.43017578 C-151.89176171 187.54489588 -153.22832046 186.64562152 -154.5534668 185.72998047 C-157.1992809 184.00834718 -158.8406129 182.95170404 -162.03125 183.44140625 C-165.57877319 185.71335397 -168.77783288 188.29144966 -172 191 C-173.43667271 192.18850075 -174.87418713 193.37598469 -176.3125 194.5625 C-177.02921875 195.15546875 -177.7459375 195.7484375 -178.484375 196.359375 C-181.45060979 198.79034938 -184.47135014 201.14761213 -187.5 203.5 C-192.7607668 207.60093648 -197.92503573 211.80830696 -203.0625 216.0625 C-208.75118092 220.77314042 -214.49027854 225.40213869 -220.31542969 229.94262695 C-226.23472746 234.56527626 -232.05009344 239.31321306 -237.87109375 244.05859375 C-241.63096262 247.12286299 -245.41107648 250.16036052 -249.22265625 253.16015625 C-250.89336331 254.51847735 -252.52244963 255.92865302 -254.12109375 257.37109375 C-261.06911548 263.51237856 -267.70927158 266.45981479 -276.5625 269.0625 C-277.531875 269.36929687 -278.50125 269.67609375 -279.5 269.9921875 C-287.77045944 272.57670608 -295.85076833 274.26873977 -304.5625 273.0625 C-308.00835741 270.84930703 -309.28069397 267.90791808 -310.5625 264.0625 C-310.6662822 262.19727839 -310.71751251 260.32892868 -310.73828125 258.4609375 C-311.20531203 232.89008311 -318.16571518 211.9139594 -326.5625 188.0625 C-340.55514271 148.30978165 -340.55514271 148.30978165 -332.5625 131.0625 C-325.18142193 118.58176799 -313.79971333 112.90814994 -300.1875 109.375 C-290.05997432 106.88328454 -279.94410158 105.79973446 -269.5625 105.0625 C-267.99399292 104.93657471 -267.99399292 104.93657471 -266.39379883 104.80810547 C-260.19662274 104.32625349 -254.02348292 103.98835846 -247.80859375 103.8515625 C-245.87983398 103.80902344 -245.87983398 103.80902344 -243.91210938 103.765625 C-241.93750516 103.72619207 -239.96286545 103.68701334 -237.98803711 103.66113281 C-236.03216104 103.63351484 -234.07658852 103.58654037 -232.12109375 103.5390625 C-230.40877563 103.5093335 -230.40877563 103.5093335 -228.66186523 103.47900391 C-225.13075466 103.0044805 -223.30057839 102.34337694 -220.5625 100.0625 C-218.63070677 95.92464436 -218.345176 92.37346398 -218.47265625 87.8515625 C-218.49263672 86.68882813 -218.51261719 85.52609375 -218.53320312 84.328125 C-218.59420675 81.9087473 -218.65928491 79.48946876 -218.72851562 77.0703125 C-218.8604983 68.84187568 -218.31147433 63.27720154 -213.73828125 56.265625 C-211.26191517 53.75813762 -208.88610041 52.40671792 -205.75 50.8125 C-200.52802906 47.90647 -197.4831586 45.01025291 -194.08984375 40.1484375 C-191.55144807 36.68167716 -188.42361851 33.99305926 -184.5625 32.0625 C-179.66809637 31.37728349 -176.47366375 31.47797986 -172.25 34.1875 C-169.5625 37.0625 -169.5625 37.0625 -167.5625 40.1875 C-165.12280293 43.69456454 -163.61143979 44.7128534 -159.5625 46.0625 C-153.38934416 46.6548671 -153.38934416 46.6548671 -147.5625 45.0625 C-147.51413722 43.16728364 -147.52591654 41.27048033 -147.5625 39.375 C-147.19869495 33.15599288 -145.44973489 29.41265117 -141.875 24.5 C-141.45283203 23.91710205 -141.03066406 23.3342041 -140.59570312 22.73364258 C-135.39290258 16.00354933 -129.9385967 13.50121732 -121.6875 12.3125 C-120.90375 12.18746094 -120.12 12.06242188 -119.3125 11.93359375 C-117.3978754 11.6300557 -115.48042661 11.3444224 -113.5625 11.0625 C-113.42070312 10.43859375 -113.27890625 9.8146875 -113.1328125 9.171875 C-112.4156722 6.51943826 -111.85937297 5.59374865 -109.5625 4.0625 C-102.55171532 2.86917495 -96.85775747 6.28911999 -90.5625 9.0625 C-85.23923047 11.24052683 -80.25661514 13.15413949 -74.5 13.6875 C-70.5625 14.0625 -70.5625 14.0625 -68.5625 16.0625 C-68.47884681 18.99036171 -69.14327887 20.59395874 -71.08984375 22.76953125 C-72.335566 23.97838223 -73.585676 25.1827259 -74.83984375 26.3828125 C-78.38961706 29.84404271 -79.73777286 32.59143566 -80 37.5 C-79.7203022 44.01911034 -76.29076123 47.52272319 -71.75 51.875 C-68.91944512 54.41064234 -66.33217228 56.2575617 -62.82615662 57.66331482 C-58.51229299 59.49230345 -54.6156119 61.41630104 -51.5625 65.0625 C-48.85998298 71.95505438 -49.82184118 79.9131331 -50.09765625 87.16015625 C-50.12566088 89.321982 -50.14699977 91.48390347 -50.16197205 93.64585876 C-50.21903896 99.31528186 -50.36616302 104.97886786 -50.53253174 110.64599609 C-50.68645111 116.43702208 -50.75458357 122.22899914 -50.83007812 128.02148438 C-50.99057762 139.37104377 -51.24630099 150.71628518 -51.5625 162.0625 C-48.86930638 159.87923091 -46.19024783 157.6859191 -43.54029846 155.45007324 C-40.5625 153.0625 -40.5625 153.0625 -38.07481384 151.63684082 C-35.40082565 149.97820283 -34.13575763 148.81589245 -32.5625 146.0625 C-31.34482712 140.24994314 -31.66271242 134.21638282 -31.80655098 128.31312561 C-31.87981074 125.24334939 -31.90186402 122.17691957 -31.91062927 119.10632324 C-31.94235513 111.4854494 -32.05655865 103.86630468 -32.17773438 96.24639893 C-32.27817325 89.79962757 -32.34259239 83.35455594 -32.35706902 76.90699768 C-32.37859053 73.88803748 -32.45319139 70.87334648 -32.5294342 67.85534668 C-32.68179124 54.69555034 -32.68179124 54.69555034 -29.69386292 50.33615112 C-27.38640265 48.49142677 -25.25721228 47.25365109 -22.5625 46.0625 C-21.57741455 45.47227051 -20.5923291 44.88204102 -19.57739258 44.27392578 C-18.77454834 43.8148584 -17.9717041 43.35579102 -17.14453125 42.8828125 C-13.14032502 40.10286658 -11.82693963 38.15447233 -10.88671875 33.3671875 C-10.63443238 31.22830263 -10.42350881 29.08421181 -10.25 26.9375 C-9.98724019 24.70444684 -9.71388382 22.47261382 -9.4296875 20.2421875 C-9.2965918 19.17709961 -9.16349609 18.11201172 -9.02636719 17.01464844 C-6.37731841 0.15554435 -6.37731841 0.15554435 0 0 Z " fill="#1044A3" transform="translate(391.5625,0.9375)"/>
<path d="M0 0 C18.74796179 4.68699045 24.35220409 12.51208287 34 28 C37.82059646 34.39949907 39.63862236 39.53152869 40 47 C40.9075 46.896875 41.815 46.79375 42.75 46.6875 C52.84570786 46.74868611 62.01013696 53.28170258 69 60 C80.80051395 72.49590138 86.61505502 87.32613054 86.40869141 104.38085938 C85.95713816 116.83642049 80.57279562 124.36510671 73.14453125 133.91796875 C57.34706873 154.26311326 43.57584949 177.51879266 38.15234375 202.85546875 C36.74367321 206.69946801 35.53232492 207.96061904 32 210 C28.58203125 210.65234375 28.58203125 210.65234375 24.8125 210.9375 C15.60522454 211.85710334 9.02367795 215.04051568 2 221 C-1.78687544 222.26229181 -5.09749034 222.87875661 -9 222 C-12.00056245 219.97720704 -14.49670041 217.60318187 -17 215 C-18.06933752 213.74576241 -18.06933752 213.74576241 -20.5 213.5 C-25.16280767 214.16611538 -27.50448597 216.38898054 -31.046875 219.37109375 C-34.25308229 222.04507063 -36.57160896 222.27502017 -40.73828125 222.22265625 C-43.87150227 221.91420444 -46.57044033 220.93866713 -49.51171875 219.8515625 C-52.33124191 218.88663935 -55.15812479 218.22740099 -58.0625 217.5625 C-65.77265235 215.66688293 -71.37627517 213.69766742 -76 207 C-77.38033947 204.13997044 -78.54171177 201.210577 -79.6875 198.25 C-81.29308244 193.26291967 -81.29308244 193.26291967 -84 189 C-85.60288726 188.89489264 -87.20751842 188.8157972 -88.8125 188.75 C-93.72340472 188.32688533 -93.72340472 188.32688533 -96.0625 185.5625 C-96.701875 184.716875 -97.34125 183.87125 -98 183 C-100.12407224 182.35001736 -100.12407224 182.35001736 -102.5 182 C-106.10676996 181.389988 -106.78451671 181.22653371 -109.4375 178.4375 C-109.953125 177.633125 -110.46875 176.82875 -111 176 C-113.51849735 174.74075133 -115.59172757 174.98600285 -118.35571289 175.06616211 C-134.46482219 175.50818594 -146.98893349 168.63412722 -161 161.375 C-170.69661066 156.53756531 -180.27765833 153.03867823 -191.0703125 151.87109375 C-191.83725433 151.78743561 -192.60419617 151.70377747 -193.39437866 151.61758423 C-203.45407469 150.62951453 -213.52908256 150.78476667 -223.625 150.875 C-225.61457875 150.88506478 -227.60416252 150.89418435 -229.59375 150.90234375 C-234.39596071 150.92404595 -239.19792236 150.95837644 -244 151 C-237.8618244 143.64734246 -237.8618244 143.64734246 -234.16796875 140.57421875 C-228.96039507 136.13942176 -224.04337054 131.4136722 -219.09179688 126.69726562 C-217.68649927 125.3654642 -216.27426857 124.04092617 -214.85400391 122.72509766 C-213.32887759 121.3060112 -211.83725864 119.85099857 -210.35546875 118.38671875 C-208 117 -208 117 -205.3359375 117.38671875 C-200.64034126 119.65753988 -196.13632137 122.19732969 -191.625 124.8125 C-183.19630908 129.63783205 -174.72893321 134.3769074 -166.1875 139 C-164.73174561 139.79047729 -164.73174561 139.79047729 -163.24658203 140.59692383 C-157.22138188 143.85186322 -151.13209615 146.95187354 -145 150 C-136.12143632 141.14466167 -127.24561636 132.28658328 -118.37323666 123.42504883 C-114.25284184 119.30986058 -110.131527 115.1956028 -106.00805664 111.08349609 C-102.02472251 107.11107014 -98.04387449 103.13616808 -94.06469917 99.15957642 C-92.55023048 97.64694771 -91.03488557 96.13519574 -89.51862907 94.62435913 C-87.3862755 92.49932135 -85.25712988 90.37111641 -83.12866211 88.2421875 C-82.50862808 87.62574875 -81.88859406 87.00931 -81.24977112 86.37419128 C-77.55089437 82.66669928 -74.06636383 78.82845317 -70.64118099 74.8674469 C-68.39560765 72.31228145 -66.0234975 69.90384483 -63.61547852 67.50195312 C-63.1267778 67.01310638 -62.63807709 66.52425964 -62.13456726 66.02059937 C-60.5517108 64.43842811 -58.96536526 62.85980815 -57.37890625 61.28125 C-56.26767877 60.17189167 -55.15667488 59.06230933 -54.04588318 57.95251465 C-51.14655629 55.05697384 -48.24423728 52.16445093 -45.34124756 49.27258301 C-42.36953694 46.31117136 -39.40071733 43.34686446 -36.43164062 40.3828125 C-30.6238918 34.5857319 -24.81297327 28.7918418 -19 23 C-17 25 -17 25 -12 35 C-6.06 17.675 -6.06 17.675 0 0 Z " fill="#1044A3" transform="translate(440,95)"/>
<path d="M0 0 C13.53 0 27.06 0 41 0 C41 40.92 41 81.84 41 124 C35.89351537 121.95740615 31.54373742 119.40086073 26.98044968 116.40091991 C23.02102722 113.81718418 19.06575736 111.49257033 14.82086182 109.40681458 C1.6563113 102.57718859 1.6563113 102.57718859 -1.11100769 96.60052109 C-2.79154929 89.83609245 -2.2995268 82.97516368 -1.953125 76.07421875 C-1.91575807 73.87332595 -1.8873191 71.67226522 -1.86737061 69.47114563 C-1.79147756 63.71422005 -1.5955493 57.96760707 -1.37329102 52.21472168 C-1.1675996 46.33011444 -1.0771272 40.44381661 -0.9765625 34.55664062 C-0.76290886 23.03252962 -0.41162107 11.5187406 0 0 Z " fill="#4BACD4" transform="translate(234,71)"/>
<path d="M0 0 C6.33230478 5.09890405 11.0621596 11.9778064 12.625 20.0625 C13.49435986 29.65396211 12.33365111 37.89661859 6.63671875 45.83203125 C2.24151976 51.01669604 -1.94512206 54.77750205 -8.375 57.0625 C-9.48875 57.475 -10.6025 57.8875 -11.75 58.3125 C-20.71094843 60.16648933 -29.56201644 59.47581775 -37.5703125 54.7734375 C-45.37178423 49.22638345 -50.33201057 42.93437355 -53.0625 33.75 C-54.23086494 23.70206156 -53.34716251 14.77228981 -47.3125 6.375 C-34.65041733 -8.72312818 -16.05058535 -11.4604733 0 0 Z " fill="#1244A3" transform="translate(275.375,406.9375)"/>
<path d="M0 0 C5.28 0 10.56 0 16 0 C19.62966821 3.88145601 21.23633279 6.08358532 23.375 10.6875 C23.90609375 11.69490234 24.4371875 12.70230469 24.984375 13.74023438 C27.23818854 18.07339112 29.22651366 22.44948608 31 27 C35.3863071 23.26697268 37.79392525 18.45429165 40.5625 13.5 C41.51977044 11.80074886 42.47933055 10.10278514 43.44140625 8.40625 C43.86107666 7.65666016 44.28074707 6.90707031 44.71313477 6.13476562 C46.00107363 3.99821898 47.50316918 1.99577443 49 0 C54.28 0 59.56 0 65 0 C65 21.12 65 42.24 65 64 C59.72 64 54.44 64 49 64 C48.67 53.11 48.34 42.22 48 31 C43.92619892 38.22870679 43.92619892 38.22870679 39.89379883 45.48046875 C39.37841553 46.37378906 38.86303223 47.26710938 38.33203125 48.1875 C37.81358643 49.10917969 37.2951416 50.03085937 36.76098633 50.98046875 C35 53 35 53 32.41845703 53.45654297 C30 53 30 53 27.97265625 50.5078125 C27.34230469 49.39148438 26.71195312 48.27515625 26.0625 47.125 C25.43472656 46.03445313 24.80695313 44.94390625 24.16015625 43.8203125 C23.44730469 42.55960937 22.73445313 41.29890625 22 40 C20.02 36.7 18.04 33.4 16 30 C15.67 41.22 15.34 52.44 15 64 C10.05 64 5.1 64 0 64 C0 42.88 0 21.76 0 0 Z " fill="#0F42A2" transform="translate(352,401)"/>
<path d="M0 0 C7.858125 -0.185625 7.858125 -0.185625 15.875 -0.375 C17.50679199 -0.42962402 19.13858398 -0.48424805 20.81982422 -0.54052734 C29.48515935 -0.63927458 36.26683469 -0.04019879 43 6 C47.88715017 11.82711773 48.73346891 17.38597373 48.42578125 24.90234375 C47.67176102 30.38801387 45.89187511 34.31833323 41.75 38 C40.88375 38.495 40.88375 38.495 40 39 C41.5224367 44.49477154 44.17543321 48.93320045 47.125 53.75 C48.04820031 55.26323468 48.96767062 56.77875335 49.8828125 58.296875 C50.28902832 58.96041992 50.69524414 59.62396484 51.11376953 60.30761719 C52 62 52 62 52 64 C46.06 64 40.12 64 34 64 C33.29875 62.56785156 32.5975 61.13570313 31.875 59.66015625 C30.91821051 57.79347871 29.95979152 55.92763576 29 54.0625 C28.54238281 53.11697266 28.08476562 52.17144531 27.61328125 51.19726562 C27.14277344 50.29814453 26.67226563 49.39902344 26.1875 48.47265625 C25.76855469 47.64000244 25.34960938 46.80734863 24.91796875 45.94946289 C22.50989909 43.0986827 22.50989909 43.0986827 15 43 C15 49.93 15 56.86 15 64 C10.05 64 5.1 64 0 64 C0 42.88 0 21.76 0 0 Z " fill="#1041A2" transform="translate(295,401)"/>
<path d="M0 0 C16 0 16 0 19.6875 3.515625 C20.92578125 5.8125 20.92578125 5.8125 22 8.25 C22.78763663 9.7989309 23.57939947 11.34576961 24.375 12.890625 C25.24125 14.57671875 26.1075 16.2628125 27 18 C30.96 23.94 30.96 23.94 35 30 C35.33 20.1 35.66 10.2 36 0 C41.28 0 46.56 0 52 0 C52 21.12 52 42.24 52 64 C38 64 38 64 34.83203125 61.09765625 C33.77124023 59.17236328 33.77124023 59.17236328 32.8125 57.0625 C32.03172138 55.60121712 31.24774558 54.141639 30.4609375 52.68359375 C30.06874023 51.91901855 29.67654297 51.15444336 29.27246094 50.36669922 C27.08125079 46.29118288 24.49416773 42.47763236 21.9375 38.625 C17.15614923 31.31229846 17.15614923 31.31229846 16 29 C15.67 40.55 15.34 52.1 15 64 C10.05 64 5.1 64 0 64 C0 42.88 0 21.76 0 0 Z " fill="#1042A2" transform="translate(456,401)"/>
<path d="M0 0 C3.22865794 2.45903599 6.15641147 5.10726303 9 8 C7.52202738 11.67056937 5.52384523 13.41085783 2.375 15.75 C1.55773437 16.36359375 0.74046875 16.9771875 -0.1015625 17.609375 C-0.72804688 18.06828125 -1.35453125 18.5271875 -2 19 C-2.78310547 18.3503125 -2.78310547 18.3503125 -3.58203125 17.6875 C-8.86054113 13.69395137 -12.7646702 12.13204218 -19.41796875 12.55078125 C-24.04398754 13.35561054 -27.14482049 14.86875211 -30.3125 18.5078125 C-33.37608783 23.08191933 -33.90510869 27.6247627 -33 33 C-31.63589034 37.33756218 -29.71109618 40.28890382 -26.5 43.5 C-20.2079547 46.19659084 -13.68971145 46.00294325 -7.3125 43.625 C-4.905742 42.20705855 -4.905742 42.20705855 -4 40 C-8.95 40 -13.9 40 -19 40 C-19 35.05 -19 30.1 -19 25 C-7.45 25 4.1 25 16 25 C16 36.32883215 15.16443744 44.74681867 7 53 C-1.98035571 60.33395717 -10.42685449 63.10220433 -22 62 C-30.43652884 60.38792443 -38.02746227 55.8457326 -43.375 49.125 C-49.26782412 40.40034651 -49.85159189 32.50680264 -49 22 C-47.22139309 13.63539215 -41.69432446 6.18659372 -35 1 C-23.66473436 -5.52885054 -11.63588317 -6.30277005 0 0 Z " fill="#1244A3" transform="translate(564,404)"/>
<path d="M0 0 C12.87 0 25.74 0 39 0 C35.78068911 3.21931089 33.57435558 4.80504942 29.72743797 6.91767025 C25.79252707 9.23083807 21.93953972 11.57784083 20.23155975 15.98106003 C19.27787432 20.84226648 19.45881449 25.72093441 19.70136642 30.64793205 C19.83855185 33.45585456 19.8872494 36.25382513 19.91494751 39.06483459 C19.98982812 45.02546602 20.17730571 50.97987148 20.375 56.9375 C20.5954209 63.84443971 20.76836053 70.74797126 20.84556961 77.65808296 C20.89738685 80.4090645 21.02292936 83.14994795 21.15292358 85.8981781 C21.497403 98.67189037 21.497403 98.67189037 17.44219971 103.58425903 C13.3846233 107.69380369 8.67056496 111.51907911 3 113 C2.01 112.34 1.02 111.68 0 111 C-0.36914349 109.02037621 -0.36914349 109.02037621 -0.36076355 106.54550171 C-0.36488754 105.60878128 -0.36901154 104.67206085 -0.3732605 103.70695496 C-0.36247467 102.67621353 -0.35168884 101.64547211 -0.34057617 100.58349609 C-0.34101425 99.50055771 -0.34145233 98.41761932 -0.34190369 97.30186462 C-0.33980736 93.70887456 -0.31643613 90.11634643 -0.29296875 86.5234375 C-0.28737581 84.03765111 -0.28310429 81.55186143 -0.28010559 79.06607056 C-0.26980681 73.18346433 -0.24614324 67.30102967 -0.21605712 61.41849387 C-0.17926488 54.06548388 -0.16312887 46.71245343 -0.14648438 39.359375 C-0.11427781 26.23948197 -0.06149014 13.11978851 0 0 Z " fill="#FEFEFE" transform="translate(287,93)"/>
<path d="M0 0 C5.61 0 11.22 0 17 0 C21.6325046 10.76744313 25.62850665 21.73437364 29.625 32.75 C30.6299021 35.51178821 31.63557904 38.27329316 32.64144897 41.034729 C33.2621677 42.73965853 33.88219049 44.44484166 34.50137329 46.15032959 C34.78531952 46.93184387 35.06926575 47.71335815 35.36181641 48.51855469 C35.76874725 49.64167053 35.76874725 49.64167053 36.18389893 50.78747559 C36.73479886 52.28101552 37.29992385 53.7693744 37.87811279 55.25256348 C40 60.70281293 40 60.70281293 40 64 C34.72 64 29.44 64 24 64 C22.68 60.7 21.36 57.4 20 54 C12.41 53.67 4.82 53.34 -3 53 C-3.33 54.98 -3.66 56.96 -4 59 C-4.99 61.475 -4.99 61.475 -6 64 C-11.61 64 -17.22 64 -23 64 C-20.27226645 54.25951148 -16.70834278 44.84916747 -13.1875 35.375 C-12.57720176 33.72536109 -11.96717405 32.07562208 -11.35742188 30.42578125 C-7.60163003 20.27256225 -3.80751033 10.13392488 0 0 Z " fill="#1144A3" transform="translate(23,401)"/>
<path d="M0 0 C12.87 0 25.74 0 39 0 C35.22318177 3.77681823 32.17353197 6.43584413 27.8125 9.3125 C26.76707031 10.00988281 25.72164063 10.70726563 24.64453125 11.42578125 C22 13 22 13 20 13 C20 45.01 20 77.02 20 110 C17.36 108.68 14.72 107.36 12 106 C10.88953308 105.55136597 9.77906616 105.10273193 8.63494873 104.64050293 C4.90003529 102.80844982 2.65385112 101.23340971 0 98 C-2.20450743 90.92423318 -1.39147891 83.08820308 -1.171875 75.78125 C-1.1494759 73.59554716 -1.13240265 71.4097838 -1.12042236 69.22399902 C-1.07473846 63.4881573 -0.9569935 57.75599884 -0.82397461 52.02160645 C-0.70091647 46.1633487 -0.64634838 40.3044919 -0.5859375 34.4453125 C-0.45747765 22.96166799 -0.24652443 11.48171737 0 0 Z " fill="#FDFDFE" transform="translate(234,72)"/>
<path d="M0 0 C4.95 0 9.9 0 15 0 C15.0093457 1.31194336 15.01869141 2.62388672 15.02832031 3.97558594 C15.06819661 8.84376971 15.13394913 13.71131995 15.20751953 18.57910156 C15.23574279 20.6857896 15.25695056 22.7925838 15.27099609 24.89941406 C15.29240661 27.9282878 15.3390476 30.95588331 15.390625 33.984375 C15.39185364 34.92617615 15.39308228 35.86797729 15.39434814 36.83831787 C15.45482454 42.0740772 15.45482454 42.0740772 17.91308594 46.56347656 C21.76477565 49.21478006 24.3033245 49.31841868 29 49 C31.8391284 48.28912223 31.8391284 48.28912223 34 46 C34.78865449 42.56520416 34.72097064 39.15613244 34.70703125 35.64453125 C34.72215256 34.62775803 34.73727386 33.6109848 34.75285339 32.56340027 C34.7958733 29.3128771 34.80458239 26.06327999 34.8125 22.8125 C34.83563311 20.61000117 34.86099596 18.40752455 34.88867188 16.20507812 C34.95166581 10.80330304 34.98388939 5.40211019 35 0 C40.28 0 45.56 0 51 0 C51.12430166 6.51034714 51.21467094 13.01999201 51.2746582 19.53125 C51.29968484 21.74263555 51.3337169 23.95393937 51.37719727 26.16503906 C51.43837176 29.35762791 51.46632914 32.54911613 51.48828125 35.7421875 C51.51408768 36.71864227 51.5398941 37.69509705 51.56648254 38.70114136 C51.56966348 46.62048329 49.48901901 53.4986523 43.7890625 59.21875 C35.31752323 64.23439058 27.42556492 66.44150445 17.60546875 64.53515625 C10.61721717 62.52320648 5.51875147 58.9406276 1.92407227 52.58081055 C-0.63767426 47.34854867 -0.50789575 42.44819843 -0.390625 36.71875 C-0.38496521 35.66465942 -0.37930542 34.61056885 -0.37347412 33.52453613 C-0.35121734 30.18254746 -0.30103977 26.84166053 -0.25 23.5 C-0.22992123 21.2239739 -0.21167288 18.94793087 -0.1953125 16.671875 C-0.15138742 11.11416367 -0.08243323 5.55726815 0 0 Z " fill="#1243A3" transform="translate(63,401)"/>
<path d="M0 0 C3.95879564 2.52726686 8.01431542 5.75219018 9.44140625 10.33984375 C9.59416016 11.21962891 9.59416016 11.21962891 9.75 12.1171875 C8.33833114 13.10354587 6.92043816 14.08100005 5.5 15.0546875 C4.71109375 15.59996094 3.9221875 16.14523437 3.109375 16.70703125 C0.8890089 18.03410437 -0.6752058 18.8989846 -3.25 19.1171875 C-4.36375 17.910625 -4.36375 17.910625 -5.5 16.6796875 C-8.4488691 13.93187766 -8.80708858 13.7649477 -12.5625 13.8046875 C-13.779375 13.9078125 -14.99625 14.0109375 -16.25 14.1171875 C-16.58 15.7671875 -16.91 17.4171875 -17.25 19.1171875 C-12.63015181 21.51595483 -8.04090301 23.60577048 -3.1875 25.4921875 C2.56445453 27.85550637 7.49875613 30.59251275 10.91015625 35.93359375 C13.0161672 41.40922223 12.41559222 48.0834335 10.625 53.5546875 C6.1442181 59.67842277 1.10852925 62.60045361 -6.25 64.1171875 C-15.56805265 65.04176947 -23.13081339 63.69854317 -30.48046875 57.76953125 C-33.03544993 55.38375412 -34.65469663 53.23843322 -36.25 50.1171875 C-35.25 47.1171875 -35.25 47.1171875 -32.52734375 45.51171875 C-30.87412109 44.72861328 -30.87412109 44.72861328 -29.1875 43.9296875 C-28.08277344 43.39988281 -26.97804687 42.87007813 -25.83984375 42.32421875 C-24.98519531 41.92589844 -24.13054687 41.52757812 -23.25 41.1171875 C-22.04557292 42.64713542 -20.84114583 44.17708333 -19.63671875 45.70703125 C-17.28768471 48.09576727 -15.07306938 48.12683826 -11.8125 48.3046875 C-8.55493264 48.13323659 -6.9394209 47.83841688 -4.25 46.1171875 C-4.40282492 43.6718205 -4.40282492 43.6718205 -5.25 41.1171875 C-7.19413036 39.78053746 -7.19413036 39.78053746 -9.6875 39.0546875 C-10.58726562 38.73371094 -11.48703125 38.41273438 -12.4140625 38.08203125 C-13.81785156 37.60443359 -13.81785156 37.60443359 -15.25 37.1171875 C-27.70396777 32.54116188 -27.70396777 32.54116188 -32.0625 26.6796875 C-34.10365543 20.55622122 -34.82856245 13.67175188 -32.1484375 7.63671875 C-24.7527078 -2.9031848 -11.73035106 -5.30899509 0 0 Z " fill="#1143A3" transform="translate(156.25,401.8828125)"/>
<path d="M0 0 C0.25549595 11.56131007 0.45063281 23.12194285 0.56993389 34.68550682 C0.62721082 40.05584179 0.70481841 45.42423795 0.82983398 50.79345703 C0.94985072 55.98077894 1.01522608 61.1662433 1.04364967 66.35484695 C1.06388868 68.32855084 1.10341514 70.30215922 1.16303062 72.27506638 C1.63461348 88.53660752 1.63461348 88.53660752 -2.37924194 93.37384033 C-5.13162294 95.8983664 -7.88303297 97.95408243 -11 100 C-12.37128896 101.18886643 -13.72841265 102.39453353 -15.0625 103.625 C-18 106 -18 106 -20 106 C-20.20870824 94.12592605 -20.36853443 82.25228968 -20.46630955 70.37675381 C-20.51324243 64.86208157 -20.57687708 59.34866583 -20.67895508 53.8347168 C-20.7768866 48.5113145 -20.83058698 43.18911901 -20.85389519 37.86488533 C-20.87050034 35.83577538 -20.90292891 33.80673012 -20.95157051 31.7781353 C-21.31799567 15.86049605 -21.31799567 15.86049605 -18.0430603 11.23756409 C-15.75431471 9.43237447 -13.64382211 8.20244163 -11 7 C-9.9996875 6.26910156 -8.999375 5.53820313 -7.96875 4.78515625 C-7.1540625 4.21667969 -6.339375 3.64820313 -5.5 3.0625 C-4.24703125 2.18271484 -4.24703125 2.18271484 -2.96875 1.28515625 C-1 0 -1 0 0 0 Z " fill="#46ADD4" transform="translate(380,40)"/>
<path d="M0 0 C13.53 0 27.06 0 41 0 C41 4.95 41 9.9 41 15 C32.75 15 24.5 15 16 15 C16 18.3 16 21.6 16 25 C23.92 25 31.84 25 40 25 C40 29.95 40 34.9 40 40 C32.08 40 24.16 40 16 40 C16 47.92 16 55.84 16 64 C10.72 64 5.44 64 0 64 C0 42.88 0 21.76 0 0 Z " fill="#1848A5" transform="translate(176,401)"/>
<path d="M0 0 C13.2 0 26.4 0 40 0 C40.48130571 20.52234078 40.48130571 20.52234078 40.5859375 29.32226562 C40.65747132 35.3099855 40.74174752 41.29548789 40.90527344 47.28149414 C41.03640305 52.11226185 41.10755768 56.94065079 41.13852692 61.77306175 C41.1605715 63.60925933 41.20362527 65.44533751 41.26876068 67.28051186 C41.78149173 82.33590641 41.78149173 82.33590641 37.52990723 87.4390564 C34.61744442 90.3666968 31.40318782 92.67099568 28 95 C26.41444514 96.22629968 24.83070786 97.4549588 23.25 98.6875 C21.64125 99.8321875 21.64125 99.8321875 20 101 C19.79124178 89.90825317 19.63144114 78.81697539 19.53369045 67.72366238 C19.48676781 62.57214796 19.42315412 57.42197979 19.32104492 52.27124023 C19.22307348 47.29795731 19.16940531 42.32596689 19.14610481 37.35179329 C19.12950651 35.45664178 19.0970909 33.56155914 19.04842949 31.66695976 C18.68478363 16.91873319 18.68478363 16.91873319 21.74710083 12.45120239 C24.08878029 10.57948201 26.32675572 9.3588293 29 8 C31.97 6.02 34.94 4.04 38 2 C25.46 1.67 12.92 1.34 0 1 C0 0.67 0 0.34 0 0 Z " fill="#49ACD4" transform="translate(287,92)"/>
<path d="M0 0 C12.87 0 25.74 0 39 0 C34 5 34 5 30.68554688 6.63305664 C26.73170757 8.58853646 23.49765244 10.28622035 21 14 C18.6917998 22.45400518 20.17438723 32.02552047 20.69384766 40.65942383 C21.63524696 58.40629292 21.63524696 58.40629292 18.78320312 62.92999268 C15.37778076 66.54838951 11.35554197 68.70063573 7 71 C5.33246803 72.33225099 3.6655667 73.66529288 2 75 C1.34 75 0.68 75 0 75 C0 50.25 0 25.5 0 0 Z " fill="#FBFCFD" transform="translate(181,130)"/>
<path d="M0 0 C5.28 0 10.56 0 16 0 C16 21.12 16 42.24 16 64 C10.72 64 5.44 64 0 64 C0 42.88 0 21.76 0 0 Z " fill="#1346A4" transform="translate(428,401)"/>
<path d="M0 0 C2.10388569 -0.05402274 4.20816714 -0.09280256 6.3125 -0.125 C8.07013672 -0.15980469 8.07013672 -0.15980469 9.86328125 -0.1953125 C13 0 13 0 16 2 C16 1.34 16 0.68 16 0 C17.65 0 19.3 0 21 0 C21.33 3.3 21.66 6.6 22 10 C23.65 10 25.3 10 27 10 C27 7.69 27 5.38 27 3 C26.34 2.67 25.68 2.34 25 2 C25 1.34 25 0.68 25 0 C26.65 0 28.3 0 30 0 C30 3.63 30 7.26 30 11 C31.98 11 33.96 11 36 11 C35.855625 9.741875 35.71125 8.48375 35.5625 7.1875 C35.48128906 6.47980469 35.40007812 5.77210938 35.31640625 5.04296875 C35.02829265 2.80603607 35.02829265 2.80603607 34 0 C37.93725326 -0.11594584 41.87406923 -0.18716464 45.8125 -0.25 C46.93205078 -0.28351563 48.05160156 -0.31703125 49.20507812 -0.3515625 C50.27822266 -0.36445313 51.35136719 -0.37734375 52.45703125 -0.390625 C53.9416687 -0.4220459 53.9416687 -0.4220459 55.45629883 -0.45410156 C58 0 58 0 59.8581543 1.79785156 C61.57094867 5.10112401 60.849962 7.46938861 60 11 C58 13 58 13 54.375 13.125 C53.26125 13.08375 52.1475 13.0425 51 13 C50.67 13.99 50.34 14.98 50 16 C50.66 16 51.32 16 52 16 C52 16.99 52 17.98 52 19 C46.91044277 20.02998073 42.04100989 20.14548542 36.875 20.1328125 C35.57731689 20.13424759 35.57731689 20.13424759 34.25341797 20.13571167 C32.43131436 20.13638966 30.60920829 20.13456205 28.78710938 20.13037109 C26.00905903 20.12501746 23.23117035 20.13032905 20.453125 20.13671875 C18.67708298 20.1360579 16.90104106 20.1347766 15.125 20.1328125 C14.29983887 20.13483673 13.47467773 20.13686096 12.62451172 20.13894653 C8.30398108 20.12150886 4.25502611 19.86109552 0 19 C0 18.01 0 17.02 0 16 C0.66 16 1.32 16 2 16 C2 11.38 2 6.76 2 2 C1.34 2 0.68 2 0 2 C0 1.34 0 0.68 0 0 Z " fill="#F3F5F9" transform="translate(301,508)"/>
<path d="M0 0 C4.96281572 2.25582533 8.87532302 5.92789878 11 11 C11.86981458 16.63488574 11.80460791 21.33118359 9.3125 26.5 C2.59412173 33.76311164 2.59412173 33.76311164 -2.609375 34.23828125 C-13.14881343 34.48734758 -13.14881343 34.48734758 -18 30 C-22.83106777 24.51608524 -23.35024743 21.19460601 -23.28125 13.984375 C-22.77938024 8.65897925 -20.24614624 6.0977955 -16.375 2.6875 C-11.24836184 -0.95511132 -6.13675015 -0.5630046 0 0 Z " fill="#FBFCFD" transform="translate(261,416)"/>
<path d="M0 0 C0.34854032 6.20669876 0.60115603 12.40761116 0.76904297 18.62182617 C0.83906051 20.73025772 0.93432291 22.83801876 1.05615234 24.9440918 C2.01337892 41.92883063 2.01337892 41.92883063 -1.32263184 47.01751709 C-4.5017423 50.39088425 -8.15395899 52.80406884 -12.20648193 55.01229858 C-14.92142316 56.5074334 -17.43931026 58.25639995 -20 60 C-20.38313125 53.65229998 -20.64405504 47.30760594 -20.82397461 40.95092773 C-20.89901249 38.79387096 -21.00109592 36.63756731 -21.1315918 34.4831543 C-22.16045639 17.04894284 -22.16045639 17.04894284 -18.54376221 11.94488525 C-15.04205037 8.50981193 -11.07817208 6.09691056 -6.71731567 3.89712524 C-4.62448023 2.80382857 -2.3161781 0 0 0 Z " fill="#46ADD4" transform="translate(221,130)"/>
<path d="M0 0 C6.72 0.72 6.72 0.72 8 2 C17.045652 2.60083774 17.045652 2.60083774 25.875 1 C29.78265114 -0.25044836 32.91436637 -0.14335557 37 0 C38.88209716 6.60628735 37.00413739 13.92590424 34 20 C31.00842465 23.31908442 27.72894919 25.58458717 24 28 C23.45730469 28.56074219 22.91460937 29.12148438 22.35546875 29.69921875 C21 31 21 31 18.375 31.0625 C12.5845704 29.23958698 7.38847447 26.08271171 4 21 C3.65689531 19.59490461 3.36924746 18.17560761 3.125 16.75 C2.46789053 13.46445267 1.59493237 11.02346628 -0.1875 8.1875 C-2 5 -2 5 -1.8125 2.625 C-1 1 -1 1 0 0 Z " fill="#1345A3" transform="translate(424,336)"/>
<path d="M0 0 C14.33035714 -0.66964286 14.33035714 -0.66964286 17.4375 2.0625 C19 5 19 5 19.0625 8.625 C17.8699707 12.41303424 17.40328001 13.14518454 14 15 C9.30257317 15.39853734 4.72350556 15.13120849 0 15 C0 10.05 0 5.1 0 0 Z " fill="#EAEDF5" transform="translate(310,415)"/>
<path d="M0 0 C3.93725326 -0.11594584 7.87406923 -0.18716464 11.8125 -0.25 C12.93205078 -0.28351563 14.05160156 -0.31703125 15.20507812 -0.3515625 C16.27822266 -0.36445313 17.35136719 -0.37734375 18.45703125 -0.390625 C19.9416687 -0.4220459 19.9416687 -0.4220459 21.45629883 -0.45410156 C24 0 24 0 25.8581543 1.79785156 C27.57094867 5.10112401 26.849962 7.46938861 26 11 C24 13 24 13 20.375 13.125 C19.26125 13.08375 18.1475 13.0425 17 13 C16.67 13.99 16.34 14.98 16 16 C16.66 16 17.32 16 18 16 C18 16.66 18 17.32 18 18 C16.02 18 14.04 18 12 18 C12.33 12.72 12.66 7.44 13 2 C11.35 2.66 9.7 3.32 8 4 C8 3.34 8 2.68 8 2 C7.01 2.33 6.02 2.66 5 3 C4.67 5.64 4.34 8.28 4 11 C4.66 11 5.32 11 6 11 C6 11.66 6 12.32 6 13 C4.02 13 2.04 13 0 13 C0 12.34 0 11.68 0 11 C0.66 11 1.32 11 2 11 C1.855625 9.741875 1.71125 8.48375 1.5625 7.1875 C1.48128906 6.47980469 1.40007812 5.77210938 1.31640625 5.04296875 C1.02829265 2.80603607 1.02829265 2.80603607 0 0 Z " fill="#1536A0" transform="translate(335,508)"/>
<path d="M0 0 C5.28 0 10.56 0 16 0 C16 21.12 16 42.24 16 64 C10.72 64 5.44 64 0 64 C0 52.45 0 40.9 0 29 C0.33 29 0.66 29 1 29 C1 39.89 1 50.78 1 62 C5.29 62 9.58 62 14 62 C14 42.2 14 22.4 14 2 C9.05 2.33 4.1 2.66 -1 3 C-0.67 2.01 -0.34 1.02 0 0 Z " fill="#294EA9" transform="translate(401,401)"/>
<path d="M0 0 C5.28 0 10.56 0 16 0 C16 21.12 16 42.24 16 64 C11.38 64 6.76 64 2 64 C2 63.34 2 62.68 2 62 C5.96 62 9.92 62 14 62 C14 42.2 14 22.4 14 2 C9.71 2 5.42 2 1 2 C1 11.9 1 21.8 1 32 C0.67 32 0.34 32 0 32 C0 21.44 0 10.88 0 0 Z " fill="#3055AC" transform="translate(492,401)"/>
<path d="M0 0 C0 9.24 0 18.48 0 28 C-9 25 -9 25 -11 23 C-10.66392567 20.6474797 -9.84522821 18.55632087 -9.0625 16.3125 C-8.20359282 13.63473057 -7.6037693 11.12194169 -7.0625 8.375 C-5.25474283 0 -5.25474283 0 0 0 Z " fill="#1747A5" transform="translate(166,66)"/>
<path d="M0 0 C2.10304477 -0.1080023 4.20766909 -0.18558987 6.3125 -0.25 C8.07013672 -0.31960938 8.07013672 -0.31960938 9.86328125 -0.390625 C13 0 13 0 14.9296875 1.7890625 C16.53444194 5.10399321 15.84300241 7.49829768 15 11 C13 13 13 13 11.0546875 13.1953125 C9.03645833 13.13020833 7.01822917 13.06510417 5 13 C5 13.99 5 14.98 5 16 C5.66 16 6.32 16 7 16 C7 16.66 7 17.32 7 18 C5.02 18 3.04 18 1 18 C1.33 12.72 1.66 7.44 2 2 C1.34 2 0.68 2 0 2 C0 1.34 0 0.68 0 0 Z " fill="#173EA3" transform="translate(301,508)"/>
<path d="M0 0 C0 0.66 0 1.32 0 2 C-0.99 2.495 -0.99 2.495 -2 3 C-1.79375 3.78375 -1.5875 4.5675 -1.375 5.375 C-1.25125 6.24125 -1.1275 7.1075 -1 8 C-3.76223278 10.76223278 -6.20706617 10.57856291 -10 11 C-10 11.33 -10 11.66 -10 12 C-8.081875 12.185625 -8.081875 12.185625 -6.125 12.375 C-2.25 12.75 -2.25 12.75 0 15 C-0.53571429 18.53571429 -0.53571429 18.53571429 -2 20 C-3.68608966 20.07205511 -5.37500659 20.08386068 -7.0625 20.0625 C-7.98160156 20.05347656 -8.90070313 20.04445313 -9.84765625 20.03515625 C-10.55792969 20.02355469 -11.26820313 20.01195312 -12 20 C-13.09583341 16.44073308 -13.16655685 13.08612704 -13.1875 9.375 C-13.20167969 8.22773437 -13.21585937 7.08046875 -13.23046875 5.8984375 C-13 3 -13 3 -11 1 C-7.25676478 0.40583568 -3.78305096 0 0 0 Z " fill="#1134A0" transform="translate(294,507)"/>
<path d="M0 0 C6.93 0 13.86 0 21 0 C22.20272819 2.40545638 22.10071472 3.94996953 22.0625 6.625 C22.05347656 7.44226563 22.04445312 8.25953125 22.03515625 9.1015625 C22.02355469 9.72804688 22.01195312 10.35453125 22 11 C22.66 11 23.32 11 24 11 C24 11.66 24 12.32 24 13 C22.35 13 20.7 13 19 13 C19 9.37 19 5.74 19 2 C17.02 2.33 15.04 2.66 13 3 C13 5.64 13 8.28 13 11 C13.99 11 14.98 11 16 11 C16 11.66 16 12.32 16 13 C14.02 13 12.04 13 10 13 C10 9.37 10 5.74 10 2 C8.68 2.33 7.36 2.66 6 3 C5.67 5.64 5.34 8.28 5 11 C5.66 11 6.32 11 7 11 C7 11.66 7 12.32 7 13 C4.69 13 2.38 13 0 13 C0 12.34 0 11.68 0 11 C0.66 11 1.32 11 2 11 C2 8.03 2 5.06 2 2 C1.34 2 0.68 2 0 2 C0 1.34 0 0.68 0 0 Z " fill="#2244A6" transform="translate(230,508)"/>
<path d="M0 0 C1.87890625 0.37890625 1.87890625 0.37890625 3.94140625 1.94140625 C5.27165398 5.40005035 4.7349765 7.82292215 3.87890625 11.37890625 C1.87890625 13.37890625 1.87890625 13.37890625 -2.05859375 13.69140625 C-4.60545184 13.61282805 -5.87814348 13.51556578 -8.12109375 12.25390625 C-9.60658466 9.46861079 -9.50160088 7.48638114 -9.12109375 4.37890625 C-7.23646002 -0.09709886 -4.45833072 -0.25452717 0 0 Z " fill="#0E36A0" transform="translate(372.12109375,507.62109375)"/>
<path d="M0 0 C1.9375 1.0625 1.9375 1.0625 3 3 C3.36528977 6.4093712 3.6140629 8.88023824 1.9375 11.9375 C-1.08637476 13.5957539 -3.62386983 13.30144019 -7 13 C-7.99 12.34 -8.98 11.68 -10 11 C-10.64608076 4.21615202 -10.64608076 4.21615202 -8.9375 1 C-5.86784865 -0.58433618 -3.38318857 -0.36248449 0 0 Z " fill="#05299B" transform="translate(213,508)"/>
<path d="M0 0 C2 2 2 2 2 7 C-1.3 7 -4.6 7 -8 7 C-7.01 8.485 -7.01 8.485 -6 10 C-4.02252878 10.36297936 -4.02252878 10.36297936 -1.875 10.1875 C-0.59625 10.125625 0.6825 10.06375 2 10 C1.67 10.99 1.34 11.98 1 13 C-0.45792884 13.05399736 -1.91642712 13.09279177 -3.375 13.125 C-4.18710937 13.14820313 -4.99921875 13.17140625 -5.8359375 13.1953125 C-8 13 -8 13 -10 11 C-10.30078125 8.90625 -10.30078125 8.90625 -10.3125 6.5 C-10.32925781 5.7059375 -10.34601563 4.911875 -10.36328125 4.09375 C-10.18345703 3.05734375 -10.18345703 3.05734375 -10 2 C-6.32653229 -0.44897847 -4.33643601 -0.31537716 0 0 Z " fill="#012F9C" transform="translate(401,508)"/>
<path d="M0 0 C6.0546875 -0.1953125 6.0546875 -0.1953125 8 0 C10 2 10 2 10.1953125 4.1640625 C10.17210937 4.97617187 10.14890625 5.78828125 10.125 6.625 C10.10695312 7.44226563 10.08890625 8.25953125 10.0703125 9.1015625 C10.03550781 10.04128906 10.03550781 10.04128906 10 11 C10.66 11 11.32 11 12 11 C12 11.66 12 12.32 12 13 C8.04 13 4.08 13 0 13 C-0.33 11.35 -0.66 9.7 -1 8 C2.22791555 5.8480563 3.28400809 5.79913557 7 6 C7 4.68 7 3.36 7 2 C4.36 2.33 1.72 2.66 -1 3 C-0.67 2.01 -0.34 1.02 0 0 Z " fill="#1035A0" transform="translate(148,508)"/>
<path d="M0 0 C2.31 0 4.62 0 7 0 C7.33 2.64 7.66 5.28 8 8 C10.5654594 5.4345406 10.54046087 3.52313332 11 0 C12.98 0 14.96 0 17 0 C15.71319131 2.6274838 14.42082322 5.25196683 13.125 7.875 C12.76019531 8.62136719 12.39539063 9.36773438 12.01953125 10.13671875 C11.66503906 10.85214844 11.31054688 11.56757812 10.9453125 12.3046875 C10.62062988 12.96452637 10.29594727 13.62436523 9.96142578 14.30419922 C9 16 9 16 7 18 C4.375 17.625 4.375 17.625 2 17 C2 16.34 2 15.68 2 15 C3.32 14.67 4.64 14.34 6 14 C5.39294514 9.87202695 4.06000669 6.62561178 2 3 C1.34 2.67 0.68 2.34 0 2 C0 1.34 0 0.68 0 0 Z " fill="#2146A6" transform="translate(448,508)"/>
<path d="M0 0 C1.65 0 3.3 0 5 0 C5 3.63 5 7.26 5 11 C6.65 10.67 8.3 10.34 10 10 C10.33 7.36 10.66 4.72 11 2 C10.34 2 9.68 2 9 2 C9 1.34 9 0.68 9 0 C10.65 0 12.3 0 14 0 C14 3.63 14 7.26 14 11 C14.66 11 15.32 11 16 11 C16 11.66 16 12.32 16 13 C15.113125 12.979375 14.22625 12.95875 13.3125 12.9375 C10.07269686 12.87187289 10.07269686 12.87187289 7.3125 13.6875 C5 14 5 14 3.3671875 12.8125 C1.61461048 10.4890836 1.68750771 9.18732262 1.8125 6.3125 C1.83957031 5.50425781 1.86664063 4.69601562 1.89453125 3.86328125 C1.92933594 3.24839844 1.96414063 2.63351562 2 2 C1.34 2 0.68 2 0 2 C0 1.34 0 0.68 0 0 Z " fill="#2949A8" transform="translate(416,508)"/>
<path d="M0 0 C4.29 0 8.58 0 13 0 C14.20272819 2.40545638 14.10071472 3.94996953 14.0625 6.625 C14.05347656 7.44226563 14.04445312 8.25953125 14.03515625 9.1015625 C14.02355469 9.72804688 14.01195312 10.35453125 14 11 C14.66 11 15.32 11 16 11 C16 11.66 16 12.32 16 13 C14.35 13 12.7 13 11 13 C11 9.37 11 5.74 11 2 C9.02 2.33 7.04 2.66 5 3 C5 5.64 5 8.28 5 11 C5.66 11 6.32 11 7 11 C7 11.66 7 12.32 7 13 C5.02 13 3.04 13 1 13 C1.33 9.37 1.66 5.74 2 2 C1.34 2 0.68 2 0 2 C0 1.34 0 0.68 0 0 Z " fill="#284CA9" transform="translate(161,508)"/>
<path d="M0 0 C4.95 0 9.9 0 15 0 C15.33 1.65 15.66 3.3 16 5 C15.01 5 14.02 5 13 5 C13 3.68 13 2.36 13 1 C11.68 1 10.36 1 9 1 C9 5.95 9 10.9 9 16 C9.66 16 10.32 16 11 16 C11 16.66 11 17.32 11 18 C8.69 18 6.38 18 4 18 C4 17.34 4 16.68 4 16 C4.66 16 5.32 16 6 16 C6 11.05 6 6.1 6 1 C4.68 1 3.36 1 2 1 C1.67 2.32 1.34 3.64 1 5 C0.34 5 -0.32 5 -1 5 C-0.67 3.35 -0.34 1.7 0 0 Z " fill="#09359F" transform="translate(118,503)"/>
<path d="M0 0 C4.29 0 8.58 0 13 0 C14.20272819 2.40545638 14.10071472 3.94996953 14.0625 6.625 C14.05347656 7.44226563 14.04445313 8.25953125 14.03515625 9.1015625 C14.02355469 9.72804688 14.01195312 10.35453125 14 11 C14.66 11 15.32 11 16 11 C16 11.66 16 12.32 16 13 C14.35 13 12.7 13 11 13 C11 9.37 11 5.74 11 2 C9.02 2.33 7.04 2.66 5 3 C5 5.64 5 8.28 5 11 C5.66 11 6.32 11 7 11 C7 11.66 7 12.32 7 13 C5.02 13 3.04 13 1 13 C1 12.34 1 11.68 1 11 C1.66 11 2.32 11 3 11 C2.87625 9.700625 2.7525 8.40125 2.625 7.0625 C2.55539062 6.33160156 2.48578125 5.60070312 2.4140625 4.84765625 C2.27742188 4.23792969 2.14078125 3.62820313 2 3 C1.34 2.67 0.68 2.34 0 2 C0 1.34 0 0.68 0 0 Z " fill="#1941A3" transform="translate(263,508)"/>
<path d="M0 0 C2.91308822 1.45654411 3.05452316 3.35387648 4.125 6.375 C4.47820313 7.35210937 4.83140625 8.32921875 5.1953125 9.3359375 C6 12 6 12 6 15 C2.7 15 -0.6 15 -4 15 C-3.43179252 9.54520815 -2.05362055 5.08940744 0 0 Z " fill="#F3F5FA" transform="translate(31,424)"/>
<path d="M0 0 C1.65 0 3.3 0 5 0 C5.33 3.3 5.66 6.6 6 10 C7.65 10 9.3 10 11 10 C11 7.69 11 5.38 11 3 C10.34 2.67 9.68 2.34 9 2 C9 1.34 9 0.68 9 0 C10.65 0 12.3 0 14 0 C14 3.63 14 7.26 14 11 C14.66 11 15.32 11 16 11 C16 11.66 16 12.32 16 13 C14.39773045 13.22245393 12.79303233 13.42746669 11.1875 13.625 C10.29417969 13.74101563 9.40085937 13.85703125 8.48046875 13.9765625 C6 14 6 14 3 12 C2.70703125 9.6171875 2.70703125 9.6171875 2.8125 6.875 C2.83957031 5.96492187 2.86664063 5.05484375 2.89453125 4.1171875 C2.92933594 3.41851562 2.96414063 2.71984375 3 2 C2.01 2 1.02 2 0 2 C0 1.34 0 0.68 0 0 Z " fill="#092F9D" transform="translate(317,508)"/>
<path d="M0 0 C1.2065625 0.0309375 1.2065625 0.0309375 2.4375 0.0625 C2.7675 1.3825 3.0975 2.7025 3.4375 4.0625 C2.7775 4.0625 2.1175 4.0625 1.4375 4.0625 C1.4375 3.4025 1.4375 2.7425 1.4375 2.0625 C0.4475 2.0625 -0.5425 2.0625 -1.5625 2.0625 C-1.5625 3.3825 -1.5625 4.7025 -1.5625 6.0625 C-0.5725 6.0625 0.4175 6.0625 1.4375 6.0625 C1.4375 6.7225 1.4375 7.3825 1.4375 8.0625 C0.4475 8.0625 -0.5425 8.0625 -1.5625 8.0625 C-1.5625 11.0325 -1.5625 14.0025 -1.5625 17.0625 C-0.9025 17.0625 -0.2425 17.0625 0.4375 17.0625 C0.4375 17.7225 0.4375 18.3825 0.4375 19.0625 C-1.8725 19.0625 -4.1825 19.0625 -6.5625 19.0625 C-6.5625 18.4025 -6.5625 17.7425 -6.5625 17.0625 C-5.9025 17.0625 -5.2425 17.0625 -4.5625 17.0625 C-4.5625 14.0925 -4.5625 11.1225 -4.5625 8.0625 C-5.2225 8.0625 -5.8825 8.0625 -6.5625 8.0625 C-6.5625 7.4025 -6.5625 6.7425 -6.5625 6.0625 C-5.9025 6.0625 -5.2425 6.0625 -4.5625 6.0625 C-4.418125 5.258125 -4.27375 4.45375 -4.125 3.625 C-3.347189 0.08163876 -3.347189 0.08163876 0 0 Z " fill="#2144A6" transform="translate(411.5625,501.9375)"/>
<path d="M0 0 C1.2065625 0.0309375 1.2065625 0.0309375 2.4375 0.0625 C2.7675 1.3825 3.0975 2.7025 3.4375 4.0625 C2.7775 4.0625 2.1175 4.0625 1.4375 4.0625 C1.4375 3.4025 1.4375 2.7425 1.4375 2.0625 C0.4475 2.0625 -0.5425 2.0625 -1.5625 2.0625 C-1.5625 3.3825 -1.5625 4.7025 -1.5625 6.0625 C-0.5725 6.0625 0.4175 6.0625 1.4375 6.0625 C1.4375 6.7225 1.4375 7.3825 1.4375 8.0625 C0.4475 8.0625 -0.5425 8.0625 -1.5625 8.0625 C-1.5625 11.0325 -1.5625 14.0025 -1.5625 17.0625 C-0.9025 17.0625 -0.2425 17.0625 0.4375 17.0625 C0.4375 17.7225 0.4375 18.3825 0.4375 19.0625 C-1.8725 19.0625 -4.1825 19.0625 -6.5625 19.0625 C-6.5625 18.4025 -6.5625 17.7425 -6.5625 17.0625 C-5.9025 17.0625 -5.2425 17.0625 -4.5625 17.0625 C-4.5625 14.0925 -4.5625 11.1225 -4.5625 8.0625 C-5.2225 8.0625 -5.8825 8.0625 -6.5625 8.0625 C-6.5625 7.4025 -6.5625 6.7425 -6.5625 6.0625 C-5.9025 6.0625 -5.2425 6.0625 -4.5625 6.0625 C-4.418125 5.258125 -4.27375 4.45375 -4.125 3.625 C-3.347189 0.08163876 -3.347189 0.08163876 0 0 Z " fill="#1843A4" transform="translate(197.5625,501.9375)"/>
<path d="M0 0 C1.5625 1.0625 1.5625 1.0625 3 3 C2.66666667 9.33333333 2.66666667 9.33333333 0 12 C-3.625 12.125 -3.625 12.125 -7 12 C-7.33 12.99 -7.66 13.98 -8 15 C-7.34 15 -6.68 15 -6 15 C-6 15.66 -6 16.32 -6 17 C-7.98 17 -9.96 17 -12 17 C-12 16.34 -12 15.68 -12 15 C-11.34 15 -10.68 15 -10 15 C-10 10.71 -10 6.42 -10 2 C-9.34 2 -8.68 2 -8 2 C-7.67 4.31 -7.34 6.62 -7 9 C-5.35 9.33 -3.7 9.66 -2 10 C-1.855625 8.906875 -1.71125 7.81375 -1.5625 6.6875 C-1 3 -1 3 0 0 Z " fill="#02269A" transform="translate(359,509)"/>
<path d="M0 0 C2.01822917 0.06510417 4.03645833 0.13020833 6.0546875 0.1953125 C6.3846875 1.5153125 6.7146875 2.8353125 7.0546875 4.1953125 C6.3946875 4.1953125 5.7346875 4.1953125 5.0546875 4.1953125 C4.7246875 3.5353125 4.3946875 2.8753125 4.0546875 2.1953125 C2.03005495 1.54317958 2.03005495 1.54317958 0.0546875 1.1953125 C0.3846875 2.1853125 0.7146875 3.1753125 1.0546875 4.1953125 C2.0446875 4.6696875 3.0346875 5.1440625 4.0546875 5.6328125 C7.0546875 7.1953125 7.0546875 7.1953125 8.0546875 9.2578125 C8.0546875 9.8971875 8.0546875 10.5365625 8.0546875 11.1953125 C6.0546875 13.1953125 6.0546875 13.1953125 3.890625 13.390625 C2.67246094 13.35582031 2.67246094 13.35582031 1.4296875 13.3203125 C0.61242187 13.30226563 -0.20484375 13.28421875 -1.046875 13.265625 C-1.67335937 13.24242187 -2.29984375 13.21921875 -2.9453125 13.1953125 C-3.2753125 12.2053125 -3.6053125 11.2153125 -3.9453125 10.1953125 C-2.9553125 9.8653125 -1.9653125 9.5353125 -0.9453125 9.1953125 C-0.9453125 10.1853125 -0.9453125 11.1753125 -0.9453125 12.1953125 C0.7046875 11.8653125 2.3546875 11.5353125 4.0546875 11.1953125 C4.0546875 10.5353125 4.0546875 9.8753125 4.0546875 9.1953125 C3.1059375 8.7828125 2.1571875 8.3703125 1.1796875 7.9453125 C-1.95247874 6.1912994 -2.81031856 5.48679493 -3.9453125 2.1953125 C-1.9453125 0.1953125 -1.9453125 0.1953125 0 0 Z " fill="#1F45A6" transform="translate(181.9453125,507.8046875)"/>
<path d="M0 0 C0.33 0.66 0.66 1.32 1 2 C1.66 2 2.32 2 3 2 C3 4.97 3 7.94 3 11 C2.34 11 1.68 11 1 11 C0.67 11.66 0.34 12.32 0 13 C-0.33 12.34 -0.66 11.68 -1 11 C-3.64 11 -6.28 11 -9 11 C-9.66 9.68 -10.32 8.36 -11 7 C-7.7 7 -4.4 7 -1 7 C-0.67 4.69 -0.34 2.38 0 0 Z " fill="#F0F3F9" transform="translate(404,508)"/>
<path d="M0 0 C2.05078125 0.03255208 4.1015625 0.06510417 6.15234375 0.09765625 C6.48234375 1.41765625 6.81234375 2.73765625 7.15234375 4.09765625 C6.49234375 4.09765625 5.83234375 4.09765625 5.15234375 4.09765625 C4.82234375 3.43765625 4.49234375 2.77765625 4.15234375 2.09765625 C2.83234375 2.09765625 1.51234375 2.09765625 0.15234375 2.09765625 C0.15234375 2.75765625 0.15234375 3.41765625 0.15234375 4.09765625 C1.12171875 4.48953125 2.09109375 4.88140625 3.08984375 5.28515625 C6.15234375 7.09765625 6.15234375 7.09765625 7.08984375 9.72265625 C7.11046875 10.50640625 7.13109375 11.29015625 7.15234375 12.09765625 C6.15234375 13.09765625 6.15234375 13.09765625 4.0859375 13.1953125 C3.26222656 13.18371094 2.43851562 13.17210937 1.58984375 13.16015625 C0.76355469 13.15113281 -0.06273437 13.14210938 -0.9140625 13.1328125 C-1.55214844 13.12121094 -2.19023437 13.10960937 -2.84765625 13.09765625 C-3.17765625 11.77765625 -3.50765625 10.45765625 -3.84765625 9.09765625 C-2.85765625 9.09765625 -1.86765625 9.09765625 -0.84765625 9.09765625 C-0.84765625 10.08765625 -0.84765625 11.07765625 -0.84765625 12.09765625 C0.80234375 11.76765625 2.45234375 11.43765625 4.15234375 11.09765625 C4.15234375 10.43765625 4.15234375 9.77765625 4.15234375 9.09765625 C1.51234375 7.77765625 -1.12765625 6.45765625 -3.84765625 5.09765625 C-2.6076991 0.13782765 -2.6076991 0.13782765 0 0 Z " fill="#09279B" transform="translate(381.84765625,507.90234375)"/>
<path d="M0 0 C1.2375 0.1546875 1.2375 0.1546875 2.5 0.3125 C4.5 3.3125 4.5 3.3125 4.25 5.875 C3.5 8.3125 3.5 8.3125 1.5 10.3125 C-1.43453261 9.94568342 -2.36437246 9.44812754 -4.5 7.3125 C-4.75 4.8125 -4.75 4.8125 -4.5 2.3125 C-2.5 0.3125 -2.5 0.3125 0 0 Z " fill="#EBEFF6" transform="translate(209.5,509.6875)"/>
<path d="M0 0 C1.65 0 3.3 0 5 0 C5.33 6.27 5.66 12.54 6 19 C4.02 19 2.04 19 0 19 C0 18.34 0 17.68 0 17 C0.66 17 1.32 17 2 17 C2 12.38 2 7.76 2 3 C1.34 3 0.68 3 0 3 C0 2.01 0 1.02 0 0 Z " fill="#2443A6" transform="translate(433,502)"/>
<path d="M0 0 C4.55555556 0.55555556 4.55555556 0.55555556 6 2 C5.71269945 4.33944736 5.38063221 6.6739143 5 9 C2.625 9.625 2.625 9.625 0 10 C-2 8 -2 8 -2.25 5 C-2 2 -2 2 0 0 Z " fill="#F2F4F9" transform="translate(353,510)"/>
<path d="M0 0 C2.375 -0.125 2.375 -0.125 5 0 C5.66 0.66 6.32 1.32 7 2 C6.625 5.625 6.625 5.625 6 9 C4.1875 9.625 4.1875 9.625 2 10 C1.01 9.34 0.02 8.68 -1 8 C-1.25660094 4.92078868 -1.39431504 2.78863007 0 0 Z " fill="#F4F6FA" transform="translate(367,510)"/>
<path d="M0 0 C4.55555556 0.55555556 4.55555556 0.55555556 6 2 C5.71269945 4.33944736 5.38063221 6.6739143 5 9 C2.625 9.625 2.625 9.625 0 10 C-2 8 -2 8 -2.25 5 C-2 2 -2 2 0 0 Z " fill="#F2F4F9" transform="translate(308,510)"/>
<path d="M0 0 C3.63 0 7.26 0 11 0 C11 1.32 11 2.64 11 4 C10.34 4 9.68 4 9 4 C9 3.34 9 2.68 9 2 C8.01 2.33 7.02 2.66 6 3 C5.67 5.64 5.34 8.28 5 11 C5.66 11 6.32 11 7 11 C7 11.66 7 12.32 7 13 C5.02 13 3.04 13 1 13 C1.33 9.37 1.66 5.74 2 2 C1.34 2 0.68 2 0 2 C0 1.34 0 0.68 0 0 Z " fill="#284AA8" transform="translate(134,508)"/>
<path d="M0 0 C1.49080078 0.02707031 1.49080078 0.02707031 3.01171875 0.0546875 C3.77097656 0.07789063 4.53023438 0.10109375 5.3125 0.125 C4.9825 1.115 4.6525 2.105 4.3125 3.125 C1.9140625 4.07421875 1.9140625 4.07421875 -1.0625 4.8125 C-2.03960937 5.06386719 -3.01671875 5.31523437 -4.0234375 5.57421875 C-6.6875 6.125 -6.6875 6.125 -9.6875 6.125 C-9.375 4.25 -9.375 4.25 -8.6875 2.125 C-5.26655758 -0.15562828 -4.00562778 -0.09425007 0 0 Z " fill="#0C37A0" transform="translate(263.6875,3.875)"/>
<path d="M0 0 C2.475 0.495 2.475 0.495 5 1 C5 1.66 5 2.32 5 3 C5.99 3 6.98 3 8 3 C8 2.34 8 1.68 8 1 C8.99 1 9.98 1 11 1 C11 3.97 11 6.94 11 10 C10.01 10.33 9.02 10.66 8 11 C7.690625 9.8553125 7.690625 9.8553125 7.375 8.6875 C5.57929296 5.17770897 3.56863688 4.47400219 0 3 C0 2.01 0 1.02 0 0 Z " fill="#FFFFFF" transform="translate(182,509)"/>
<path d="M0 0 C3.3 0 6.6 0 10 0 C10 1.32 10 2.64 10 4 C9.34 4 8.68 4 8 4 C8 3.34 8 2.68 8 2 C7.01 2.33 6.02 2.66 5 3 C4.67 5.64 4.34 8.28 4 11 C4.66 11 5.32 11 6 11 C6 11.66 6 12.32 6 13 C4.02 13 2.04 13 0 13 C0 12.34 0 11.68 0 11 C0.66 11 1.32 11 2 11 C1.855625 9.741875 1.71125 8.48375 1.5625 7.1875 C1.48128906 6.47980469 1.40007812 5.77210938 1.31640625 5.04296875 C1.02829265 2.80603607 1.02829265 2.80603607 0 0 Z " fill="#012298" transform="translate(218,508)"/>
<path d="M0 0 C2 2 2 2 2.125 4.625 C2.08375 5.40875 2.0425 6.1925 2 7 C1.67 6.34 1.34 5.68 1 5 C0.06027344 5.05220703 0.06027344 5.05220703 -0.8984375 5.10546875 C-1.71570313 5.13253906 -2.53296875 5.15960937 -3.375 5.1875 C-4.18710937 5.22230469 -4.99921875 5.25710938 -5.8359375 5.29296875 C-6.55007813 5.19628906 -7.26421875 5.09960938 -8 5 C-8.66 4.01 -9.32 3.02 -10 2 C-6.32653229 -0.44897847 -4.33643601 -0.31537716 0 0 Z " fill="#10329F" transform="translate(401,508)"/>
<path d="M0 0 C1.32 0 2.64 0 4 0 C4 5.61 4 11.22 4 17 C4.66 17 5.32 17 6 17 C6 17.66 6 18.32 6 19 C4.02 19 2.04 19 0 19 C0 18.34 0 17.68 0 17 C0.66 17 1.32 17 2 17 C2 12.38 2 7.76 2 3 C1.34 3 0.68 3 0 3 C0 2.01 0 1.02 0 0 Z " fill="#0A2C9D" transform="translate(441,502)"/>
<path d="M0 0 C0.66 0 1.32 0 2 0 C2.33 2.31 2.66 4.62 3 7 C4.98 7.66 6.96 8.32 9 9 C9 9.33 9 9.66 9 10 C6.69 10 4.38 10 2 10 C2 10.99 2 11.98 2 13 C2.66 13 3.32 13 4 13 C4 13.66 4 14.32 4 15 C2.02 15 0.04 15 -2 15 C-2 14.34 -2 13.68 -2 13 C-1.34 13 -0.68 13 0 13 C0 8.71 0 4.42 0 0 Z " fill="#06339E" transform="translate(304,511)"/>
<path d="M0 0 C1.65 0.33 3.3 0.66 5 1 C5 1.66 5 2.32 5 3 C6.32 3 7.64 3 9 3 C8.67 5.31 8.34 7.62 8 10 C7.2575 9.21625 6.515 8.4325 5.75 7.625 C3.45566682 5.43495469 1.87841142 4.17268614 -1 3 C-0.67 2.01 -0.34 1.02 0 0 Z " fill="#DBE1EF" transform="translate(382,509)"/>
<path d="M0 0 C0.99 0 1.98 0 3 0 C3 2.97 3 5.94 3 9 C3.66 9 4.32 9 5 9 C5 9.66 5 10.32 5 11 C2.69 11 0.38 11 -2 11 C-2 10.34 -2 9.68 -2 9 C-1.34 9 -0.68 9 0 9 C0 6.03 0 3.06 0 0 Z " fill="#01319D" transform="translate(193,510)"/>
<path d="M0 0 C0.33 0.99 0.66 1.98 1 3 C1.99 3.33 2.98 3.66 4 4 C4 4.66 4 5.32 4 6 C-3.42857143 6.28571429 -3.42857143 6.28571429 -7 4 C-6.67 3.01 -6.34 2.02 -6 1 C-3 0 -3 0 0 0 Z " fill="#778BC7" transform="translate(156,515)"/>
<path d="M0 0 C1.32 0 2.64 0 4 0 C4 3.63 4 7.26 4 11 C4.66 11 5.32 11 6 11 C6 11.66 6 12.32 6 13 C4.02 13 2.04 13 0 13 C0 12.34 0 11.68 0 11 C0.66 11 1.32 11 2 11 C1.855625 9.741875 1.71125 8.48375 1.5625 7.1875 C1.48128906 6.47980469 1.40007812 5.77210938 1.31640625 5.04296875 C1.02829265 2.80603607 1.02829265 2.80603607 0 0 Z " fill="#032599" transform="translate(256,508)"/>
<path d="M0 0 C0.99 0.66 1.98 1.32 3 2 C3 2.66 3 3.32 3 4 C-2.94 4 -8.88 4 -15 4 C-15 3.34 -15 2.68 -15 2 C-10.05 2 -5.1 2 0 2 C0 1.34 0 0.68 0 0 Z " fill="#1E4CA7" transform="translate(344,461)"/>
<path d="M0 0 C0 0.66 0 1.32 0 2 C-1.98 2.66 -3.96 3.32 -6 4 C-6.15149298 7.62885324 -6.15149298 7.62885324 -5 11 C-5.99 11.33 -6.98 11.66 -8 12 C-9 11 -9 11 -9.25 7.125 C-9.20377533 4.54566338 -9.15273457 3.27152813 -7.875 1 C-5.21065116 -0.42098605 -2.96508915 -0.19767261 0 0 Z " fill="#0A309E" transform="translate(212,508)"/>
<path d="M0 0 C0.66 0.33 1.32 0.66 2 1 C2 3.97 2 6.94 2 10 C2.66 10 3.32 10 4 10 C4 10.66 4 11.32 4 12 C2.35 12 0.7 12 -1 12 C-1.02687279 10.18757948 -1.04633715 8.37504767 -1.0625 6.5625 C-1.07410156 5.55316406 -1.08570313 4.54382813 -1.09765625 3.50390625 C-1 1 -1 1 0 0 Z " fill="#07359E" transform="translate(173,509)"/>
<path d="M0 0 C0.66 0.33 1.32 0.66 2 1 C2 3.97 2 6.94 2 10 C2.66 10 3.32 10 4 10 C4 10.66 4 11.32 4 12 C2.35 12 0.7 12 -1 12 C-1.02687279 10.18757948 -1.04633715 8.37504767 -1.0625 6.5625 C-1.07410156 5.55316406 -1.08570313 4.54382813 -1.09765625 3.50390625 C-1 1 -1 1 0 0 Z " fill="#08359E" transform="translate(250,509)"/>
<path d="M0 0 C-0.33 0.99 -0.66 1.98 -1 3 C-2.175625 2.9690625 -2.175625 2.9690625 -3.375 2.9375 C-5.98114961 2.81315937 -5.98114961 2.81315937 -8 4 C-8.66 3.67 -9.32 3.34 -10 3 C-10 7.29 -10 11.58 -10 16 C-10.33 16 -10.66 16 -11 16 C-11 11.05 -11 6.1 -11 1 C-7.1273408 0.0318352 -3.96388638 -0.07622858 0 0 Z " fill="#3659AE" transform="translate(359,508)"/>
<path d="M0 0 C0 0.66 0 1.32 0 2 C-0.99 2.495 -0.99 2.495 -2 3 C-1.67 4.65 -1.34 6.3 -1 8 C-4 10 -4 10 -6.6875 9.625 C-7.450625 9.41875 -8.21375 9.2125 -9 9 C-9 8.67 -9 8.34 -9 8 C-7.35 8 -5.7 8 -4 8 C-4.19471111 6.05000871 -4.19471111 6.05000871 -5 4 C-6.9837767 2.71563266 -6.9837767 2.71563266 -9 2 C-3.375 0 -3.375 0 0 0 Z " fill="#2548A7" transform="translate(294,507)"/>
<path d="M0 0 C0.33 1.32 0.66 2.64 1 4 C-4.61 4 -10.22 4 -16 4 C-15.67 3.01 -15.34 2.02 -15 1 C-10.05 1.33 -5.1 1.66 0 2 C0 1.34 0 0.68 0 0 Z " fill="#1F4CA7" transform="translate(16,461)"/>
<path d="M0 0 C6.0546875 -0.1953125 6.0546875 -0.1953125 8 0 C8.66 0.66 9.32 1.32 10 2 C7.625 3.0625 7.625 3.0625 5 4 C4.34 3.67 3.68 3.34 3 3 C3 7.29 3 11.58 3 16 C2.67 16 2.34 16 2 16 C2 11.38 2 6.76 2 2 C1.34 2 0.68 2 0 2 C0 1.34 0 0.68 0 0 Z " fill="#1B48A6" transform="translate(301,508)"/>
<path d="M0 0 C1.01560704 2.58518155 1.14715729 3.6468225 0.0625 6.25 C-2.28195053 8.23923075 -3.07693078 8.32350554 -6.0625 8.4375 C-7.361875 8.293125 -8.66125 8.14875 -10 8 C-10.66 7.01 -11.32 6.02 -12 5 C-11.34 4.34 -10.68 3.68 -10 3 C-9.5875 3.495 -9.175 3.99 -8.75 4.5 C-6.87797662 6.43386092 -6.87797662 6.43386092 -3 6 C-2.67 4.68 -2.34 3.36 -2 2 C-1.34 2 -0.68 2 0 2 C0 1.34 0 0.68 0 0 Z " fill="#09289C" transform="translate(376,513)"/>
<path d="M0 0 C1.98 0 3.96 0 6 0 C4.02 3.63 2.04 7.26 0 11 C-0.33 11 -0.66 11 -1 11 C-0.67 7.37 -0.34 3.74 0 0 Z " fill="#1235A0" transform="translate(459,508)"/>
<path d="M0 0 C0.66 0 1.32 0 2 0 C2 2.97 2 5.94 2 9 C2.99 9 3.98 9 5 9 C5 9.66 5 10.32 5 11 C2.69 11 0.38 11 -2 11 C-2 10.34 -2 9.68 -2 9 C-1.34 9 -0.68 9 0 9 C0 6.03 0 3.06 0 0 Z " fill="#012299" transform="translate(407,510)"/>
<path d="M0 0 C1.2065625 0.0309375 1.2065625 0.0309375 2.4375 0.0625 C2.7675 1.7125 3.0975 3.3625 3.4375 5.0625 C1.4575 5.0625 -0.5225 5.0625 -2.5625 5.0625 C-3.125 3.125 -3.125 3.125 -3.5625 1.0625 C-2.5625 0.0625 -2.5625 0.0625 0 0 Z " fill="#F6F8FB" transform="translate(286.5625,509.9375)"/>
<path d="M0 0 C0 0.33 0 0.66 0 1 C-1.155 1.165 -2.31 1.33 -3.5 1.5 C-9.12178351 2.84521248 -12.30928009 6.7792299 -16 11 C-16 6.83510175 -13.79682902 4.82107898 -11 2 C-7.53571026 -0.54047914 -4.18972863 -0.16114341 0 0 Z " fill="#082F9D" transform="translate(268,15)"/>
<path d="M0 0 C1.65 0 3.3 0 5 0 C5 3.63 5 7.26 5 11 C4.01 10.67 3.02 10.34 2 10 C2 7.69 2 5.38 2 3 C1.34 2.67 0.68 2.34 0 2 C0 1.34 0 0.68 0 0 Z " fill="#082D9C" transform="translate(326,508)"/>
<path d="M0 0 C0.66 0.33 1.32 0.66 2 1 C2 3.64 2 6.28 2 9 C2.66 9 3.32 9 4 9 C4 9.66 4 10.32 4 11 C2.02 11 0.04 11 -2 11 C-2 10.34 -2 9.68 -2 9 C-1.34 9 -0.68 9 0 9 C0 6.03 0 3.06 0 0 Z " fill="#012498" transform="translate(337,510)"/>
<path d="M0 0 C1.4836107 0.09000378 2.96348907 0.24646818 4.4375 0.4375 C7.709892 0.85914317 7.709892 0.85914317 11 1 C10.67 1.99 10.34 2.98 10 4 C8.54257537 4.08096803 7.08387193 4.13917774 5.625 4.1875 C4.81289063 4.22230469 4.00078125 4.25710938 3.1640625 4.29296875 C2.44992187 4.19628906 1.73578125 4.09960938 1 4 C0.34 3.01 -0.32 2.02 -1 1 C-0.67 0.67 -0.34 0.34 0 0 Z " fill="#193CA3" transform="translate(392,517)"/>
<path d="M0 0 C0.66 0 1.32 0 2 0 C2 2.64 2 5.28 2 8 C2.66 8 3.32 8 4 8 C4 8.66 4 9.32 4 10 C2.02 10 0.04 10 -2 10 C-2 9.34 -2 8.68 -2 8 C-1.34 8 -0.68 8 0 8 C0 5.36 0 2.72 0 0 Z " fill="#012499" transform="translate(137,511)"/>
<path d="M0 0 C0.66 0 1.32 0 2 0 C2 2.64 2 5.28 2 8 C2.66 8 3.32 8 4 8 C4 8.66 4 9.32 4 10 C2.02 10 0.04 10 -2 10 C-2 9.34 -2 8.68 -2 8 C-1.34 8 -0.68 8 0 8 C0 5.36 0 2.72 0 0 Z " fill="#012499" transform="translate(164,511)"/>
<path d="M0 0 C0.66 0 1.32 0 2 0 C2 2.64 2 5.28 2 8 C2.66 8 3.32 8 4 8 C4 8.66 4 9.32 4 10 C2.02 10 0.04 10 -2 10 C-2 9.34 -2 8.68 -2 8 C-1.34 8 -0.68 8 0 8 C0 5.36 0 2.72 0 0 Z " fill="#012399" transform="translate(266,511)"/>
<path d="M0 0 C3.3 0 6.6 0 10 0 C10 1.32 10 2.64 10 4 C9.34 4 8.68 4 8 4 C8 3.34 8 2.68 8 2 C5.69 2.33 3.38 2.66 1 3 C0.67 2.01 0.34 1.02 0 0 Z " fill="#0D309E" transform="translate(218,508)"/>
<path d="M0 0 C0 1.32 0 2.64 0 4 C-1.65 4 -3.3 4 -5 4 C-5 3.01 -5 2.02 -5 1 C-5.66 0.67 -6.32 0.34 -7 0 C-4.3333581 -1.33332095 -2.83319697 -0.67102033 0 0 Z " fill="#DBE1EF" transform="translate(386,516)"/>
<path d="M0 0 C0 1.32 0 2.64 0 4 C-1.65 4 -3.3 4 -5 4 C-5 3.01 -5 2.02 -5 1 C-5.66 0.67 -6.32 0.34 -7 0 C-4.3333581 -1.33332095 -2.83319697 -0.67102033 0 0 Z " fill="#E3E7F2" transform="translate(186,516)"/>
<path d="M0 0 C1.5625 1.0625 1.5625 1.0625 3 3 C2.6875 6.6875 2.6875 6.6875 2 10 C1.01 9.67 0.02 9.34 -1 9 C-1.09765625 2.84765625 -1.09765625 2.84765625 -1 1 C-0.67 0.67 -0.34 0.34 0 0 Z " fill="#0F36A0" transform="translate(359,509)"/>
<path d="M0 0 C0.66 0 1.32 0 2 0 C2 2.64 2 5.28 2 8 C2.99 8 3.98 8 5 8 C5 8.66 5 9.32 5 10 C3.35 10 1.7 10 0 10 C0 6.7 0 3.4 0 0 Z " fill="#01259A" transform="translate(241,511)"/>
<path d="M0 0 C1.32 0 2.64 0 4 0 C4 3.63 4 7.26 4 11 C3.34 11 2.68 11 2 11 C2 8.03 2 5.06 2 2 C1.34 2 0.68 2 0 2 C0 1.34 0 0.68 0 0 Z " fill="#01279A" transform="translate(425,508)"/>
<path d="M0 0 C-2 2 -2 2 -5 3 C-5 3.66 -5 4.32 -5 5 C-4.01 5.66 -3.02 6.32 -2 7 C-3.65 7 -5.3 7 -7 7 C-7.33 5.35 -7.66 3.7 -8 2 C-4.77208445 -0.1519437 -3.71599191 -0.20086443 0 0 Z " fill="#042299" transform="translate(155,514)"/>
<path d="M0 0 C3.3 0 6.6 0 10 0 C10 0.66 10 1.32 10 2 C6.7 2.33 3.4 2.66 0 3 C0 2.01 0 1.02 0 0 Z " fill="#223CA3" transform="translate(323,519)"/>
<path d="M0 0 C2 0.8125 2 0.8125 3.3125 2.75 C3.539375 3.430625 3.76625 4.11125 4 4.8125 C3.67 5.4725 3.34 6.1325 3 6.8125 C2.34 6.8125 1.68 6.8125 1 6.8125 C0.731875 6.19375 0.46375 5.575 0.1875 4.9375 C-0.95556848 2.5129767 -0.95556848 2.5129767 -4 0.8125 C-2 -0.1875 -2 -0.1875 0 0 Z " fill="#1843A5" transform="translate(373,508.1875)"/>
<path d="M0 0 C1.9375 0.3125 1.9375 0.3125 4 1 C4.33 1.99 4.66 2.98 5 4 C2.36 4 -0.28 4 -3 4 C-2.01 2.68 -1.02 1.36 0 0 Z " fill="#E4E8F3" transform="translate(396,509)"/>
<path d="M0 0 C2.475 0.495 2.475 0.495 5 1 C5 1.66 5 2.32 5 3 C5.66 3.33 6.32 3.66 7 4 C5.1875 4.625 5.1875 4.625 3 5 C2.01 4.34 1.02 3.68 0 3 C0 2.01 0 1.02 0 0 Z " fill="#E1E6F2" transform="translate(182,509)"/>
<path d="M0 0 C2.31 0 4.62 0 7 0 C7 0.99 7 1.98 7 3 C5.02 3 3.04 3 1 3 C0.67 2.01 0.34 1.02 0 0 Z " fill="#FAFBFD" transform="translate(283,522)"/>
<path d="M0 0 C0.66 0 1.32 0 2 0 C2 0.99 2 1.98 2 3 C5.93075644 2.42547254 5.93075644 2.42547254 9 0 C9.33 0.99 9.66 1.98 10 3 C9 4 9 4 6.93359375 4.09765625 C6.10988281 4.08605469 5.28617188 4.07445312 4.4375 4.0625 C3.61121094 4.05347656 2.78492188 4.04445313 1.93359375 4.03515625 C1.29550781 4.02355469 0.65742188 4.01195312 0 4 C-0.33 3.01 -0.66 2.02 -1 1 C-0.67 0.67 -0.34 0.34 0 0 Z " fill="#061F99" transform="translate(179,517)"/>
<path d="M0 0 C0.33 0 0.66 0 1 0 C1 2.31 1 4.62 1 7 C1.66 7 2.32 7 3 7 C3 7.66 3 8.32 3 9 C1.68 9 0.36 9 -1 9 C-1.09765625 2.84765625 -1.09765625 2.84765625 -1 1 C-0.67 0.67 -0.34 0.34 0 0 Z " fill="#002E9C" transform="translate(276,512)"/>
<path d="M0 0 C1.32 0 2.64 0 4 0 C4 2.64 4 5.28 4 8 C3.01 8.495 3.01 8.495 2 9 C2 6.69 2 4.38 2 2 C1.34 2 0.68 2 0 2 C0 1.34 0 0.68 0 0 Z " fill="#002E9C" transform="translate(416,508)"/>
<path d="M0 0 C2.64 0 5.28 0 8 0 C8.33 1.32 8.66 2.64 9 4 C8.34 4 7.68 4 7 4 C6.67 3.34 6.34 2.68 6 2 C4.68 2 3.36 2 2 2 C1.34 2.66 0.68 3.32 0 4 C0 2.68 0 1.36 0 0 Z " fill="#022299" transform="translate(380,508)"/>
<path d="M0 0 C1.2065625 0.0309375 1.2065625 0.0309375 2.4375 0.0625 C2.7675 1.3825 3.0975 2.7025 3.4375 4.0625 C2.7775 4.0625 2.1175 4.0625 1.4375 4.0625 C1.4375 3.4025 1.4375 2.7425 1.4375 2.0625 C-1.84023504 2.81400023 -1.84023504 2.81400023 -3.5625 6.0625 C-3.605221 4.39638095 -3.60313832 2.72867115 -3.5625 1.0625 C-2.5625 0.0625 -2.5625 0.0625 0 0 Z " fill="#0C319E" transform="translate(197.5625,501.9375)"/>
<path d="M0 0 C0.94875 0.04125 1.8975 0.0825 2.875 0.125 C2.276875 0.351875 1.67875 0.57875 1.0625 0.8125 C-1.68393949 2.46036369 -2.59672214 4.35954483 -4.125 7.125 C-4.455 7.125 -4.785 7.125 -5.125 7.125 C-5.25 4.75 -5.25 4.75 -5.125 2.125 C-3.125 0.125 -3.125 0.125 0 0 Z " fill="#01249A" transform="translate(286.125,507.875)"/>
<path d="M0 0 C0 0.66 0 1.32 0 2 C-2.64 2.66 -5.28 3.32 -8 4 C-8 3.01 -8 2.02 -8 1 C-5.29120665 -0.35439668 -2.99066732 -0.06501451 0 0 Z " fill="#1138A0" transform="translate(212,508)"/>
<path d="M0 0 C3.465 1.485 3.465 1.485 7 3 C6.67 3.99 6.34 4.98 6 6 C4.02 5.01 2.04 4.02 0 3 C0 2.01 0 1.02 0 0 Z " fill="#173EA3" transform="translate(378,510)"/>
<path d="M0 0 C1.32 0 2.64 0 4 0 C3.67 2.31 3.34 4.62 3 7 C0 3.375 0 3.375 0 0 Z " fill="#C3CDE5" transform="translate(387,512)"/>
<path d="M0 0 C0.33 0 0.66 0 1 0 C1 3.96 1 7.92 1 12 C0.01 11.67 -0.98 11.34 -2 11 C-1.34 7.37 -0.68 3.74 0 0 Z " fill="#1041A3" transform="translate(420,508)"/>
<path d="M0 0 C2.64 0 5.28 0 8 0 C8.33 1.32 8.66 2.64 9 4 C8.34 4 7.68 4 7 4 C6.67 3.34 6.34 2.68 6 2 C4.02 2 2.04 2 0 2 C0 1.34 0 0.68 0 0 Z " fill="#021E98" transform="translate(180,508)"/>
<path d="M0 0 C1.98 0 3.96 0 6 0 C6.33 1.65 6.66 3.3 7 5 C6.01 5 5.02 5 4 5 C4 3.68 4 2.36 4 1 C2.68 0.67 1.36 0.34 0 0 Z " fill="#213BA4" transform="translate(127,503)"/>
<path d="M0 0 C0.66 0.33 1.32 0.66 2 1 C-0.31 3.31 -2.62 5.62 -5 8 C-5 5 -5 5 -2.5 2.3125 C-1.675 1.549375 -0.85 0.78625 0 0 Z " fill="#E5EAF4" transform="translate(538,418)"/>
</svg>
