<svg xmlns="http://www.w3.org/2000/svg" width="580" height="528" viewBox="0 0 580 528" version="1.1"><path d="M 384.584 1.907 C 382.513 4.196, 380.457 13.102, 379.483 24 C 378.248 37.831, 377.919 38.452, 368.639 44.439 C 355.676 52.801, 356.696 47.869, 356.920 101.117 C 357.101 144.131, 357.003 146.984, 355.306 148.487 C 348.385 154.615, 341.823 159.121, 342.326 157.398 C 342.631 156.354, 343.020 135.616, 343.191 111.313 L 343.500 67.126 340 63.499 C 338.075 61.505, 333.664 58.518, 330.199 56.861 C 319.278 51.641, 314 45.484, 314 37.966 C 314 33.951, 315.314 31.542, 320.640 25.793 C 327.788 18.075, 326.202 14.013, 315.269 12.042 C 311.841 11.424, 304.866 9.196, 299.769 7.091 C 294.671 4.986, 288.770 2.951, 286.655 2.569 C 283.087 1.924, 282.537 2.161, 279.006 5.873 C 276.364 8.651, 274.027 10.075, 271.351 10.538 C 261.147 12.306, 257.225 14.052, 252.777 18.807 C 246.263 25.771, 242.818 32.236, 242.110 38.827 L 241.500 44.500 237.112 44.814 C 231.530 45.214, 227.830 43.676, 225.700 40.070 C 222.887 35.307, 217.599 31.351, 213.080 30.629 C 207.215 29.691, 203.065 31.934, 196.188 39.758 C 193.060 43.317, 187.350 48.315, 183.500 50.865 C 177.687 54.714, 176.014 56.471, 173.638 61.224 C 170.879 66.742, 170.770 67.515, 170.638 82.563 C 170.508 97.274, 170.375 98.278, 168.338 99.927 C 166.522 101.398, 163.166 101.779, 147.338 102.309 C 124.153 103.085, 101.850 105.358, 91.391 108.011 C 70.095 113.411, 56.085 126.482, 51.829 144.922 C 50.364 151.266, 52.487 160.537, 60.547 183 C 72.203 215.486, 76.501 232.892, 77.964 253.530 C 78.879 266.444, 79.935 269.753, 84.494 274 C 86.911 276.252, 87.937 276.485, 94.839 276.346 C 107.288 276.097, 123.928 270.512, 133.695 263.306 C 138.342 259.876, 172.263 232.665, 212.500 200.088 C 220.750 193.408, 228.606 187.659, 229.957 187.311 C 232.941 186.544, 234.173 187.214, 257 202.012 C 283.804 219.388, 290.032 223, 293.192 223 C 295.372 223, 297.683 221.433, 302.782 216.497 C 306.477 212.920, 317.176 203.357, 326.557 195.247 C 374.198 154.060, 414.652 118.041, 415.901 115.697 C 417.684 112.350, 416.230 110.321, 411.400 109.415 C 409.530 109.064, 408 108.463, 408 108.080 C 408 107.696, 410.137 106.676, 412.750 105.814 C 415.363 104.951, 421.861 102.645, 427.190 100.688 L 436.880 97.130 432.270 110.480 L 427.660 123.831 424.824 119.916 C 423.264 117.762, 421.653 115.986, 421.244 115.969 C 420.835 115.953, 392.298 144.415, 357.830 179.219 L 295.159 242.500 283.439 236.543 C 276.993 233.267, 266.270 227.491, 259.609 223.709 C 243.973 214.828, 234.436 210, 232.530 210 C 230.986 210, 213.112 225.842, 200.656 238.250 C 195.349 243.536, 194.059 245.366, 194.913 246.395 C 195.755 247.409, 202.319 247.859, 222.757 248.301 C 256.595 249.034, 259.103 249.551, 282 260.501 C 301.457 269.806, 308.478 272, 318.800 272 C 325.300 272, 326.105 272.246, 329.856 275.379 C 332.080 277.238, 335.545 279.067, 337.554 279.444 C 339.632 279.834, 342.181 281.261, 343.464 282.753 C 345.114 284.671, 347.014 285.528, 350.527 285.939 L 355.332 286.500 358.416 294.056 C 362.172 303.258, 364.908 307.162, 369.661 310.099 C 372.750 312.009, 384.845 315.969, 396.750 318.970 C 401.287 320.114, 405.619 318.871, 411.850 314.636 C 418.385 310.196, 420.764 310.093, 424.563 314.089 C 431.027 320.888, 436.503 321.392, 445.009 315.973 C 452.136 311.433, 458.004 309.198, 464.803 308.436 C 475.988 307.182, 478.552 304.237, 483.900 286.498 C 489.247 268.762, 498.684 251.521, 515.160 229.389 C 519.300 223.828, 523.658 217.273, 524.843 214.823 C 529.339 205.536, 529.810 195.203, 526.357 181.580 C 522.996 168.316, 513.878 155.478, 501.791 146.989 C 495.248 142.394, 492.149 141.031, 484.921 139.569 C 482.761 139.132, 482.078 138.101, 480.725 133.236 C 478.730 126.059, 470.677 113.425, 463.155 105.670 C 457.631 99.975, 452.056 96.432, 445 94.132 C 440.349 92.616, 438.019 88.338, 434.033 74 C 428.363 53.600, 425.906 46.962, 422.652 43.256 C 419.326 39.468, 414.593 37, 410.655 37 C 407.564 37, 405.020 31.400, 399.979 13.500 L 396.318 0.500 391.355 0.205 C 387.421 -0.030, 386.018 0.323, 384.584 1.907 M 257.037 2.772 C 252.649 5.010, 251.133 7.416, 252.639 9.750 C 254.915 13.276, 267.681 11.132, 270.391 6.769 C 272.947 2.654, 263.066 -0.303, 257.037 2.772 M 385.490 4.370 C 384.715 6.224, 383.341 13.537, 382.436 20.620 C 380.119 38.758, 379.711 39.695, 371.978 44.654 C 368.415 46.939, 363.985 50.216, 362.134 51.936 L 358.768 55.064 359.134 101.104 L 359.500 147.143 355.809 150.321 C 353.779 152.070, 349.392 155.673, 346.059 158.330 L 340 163.159 340.042 158.330 C 340.066 155.673, 340.475 135.374, 340.953 113.219 C 341.502 87.765, 341.469 71.659, 340.862 69.463 C 339.645 65.054, 336.955 62.512, 329.806 59.013 C 322.354 55.366, 315.581 49.743, 313.593 45.555 C 311.480 41.101, 311.562 34.143, 313.766 31 C 314.730 29.625, 317.202 26.780, 319.259 24.679 C 325.421 18.385, 324.314 16.015, 314.321 14.107 C 310.922 13.458, 303.872 11.144, 298.655 8.964 C 292.836 6.532, 287.584 5, 285.068 5 C 281.369 5, 280.805 5.341, 279.304 8.488 C 277.982 11.261, 276.908 12.094, 274.070 12.549 C 259.620 14.863, 256.384 16.347, 251.615 22.844 C 246.532 29.767, 244.047 35.756, 244.022 41.143 C 243.996 46.564, 243.344 47, 235.262 47 L 229.688 47 223 40 C 216.335 33.024, 216.294 33, 210.906 32.995 L 205.500 32.990 198 40.888 C 193.875 45.231, 188.025 50.354, 185 52.272 C 174.554 58.897, 173.852 60.656, 173.075 82.160 C 172.249 105.010, 172.295 104.971, 146.500 105.014 C 122.007 105.056, 94.660 108.478, 82.795 112.986 C 70.391 117.699, 61.036 126.445, 56.632 137.447 C 51.944 149.157, 52.754 154.341, 64.457 187.500 C 75.397 218.496, 79.035 233.948, 80.847 257.119 C 81.523 265.765, 82.106 268.340, 83.987 270.982 L 86.297 274.226 95.398 273.797 C 106.692 273.265, 122.607 268.415, 130.455 263.114 C 135.989 259.375, 145.894 251.501, 193.500 212.993 C 223.885 188.415, 229.670 184, 231.495 184 C 232.623 184, 237.267 186.898, 270 208.030 C 291.803 222.105, 294.172 222.961, 298.171 218.208 C 299.464 216.673, 303.694 212.735, 307.573 209.458 C 311.452 206.181, 323.561 195.625, 334.482 186 C 345.402 176.375, 358.263 165.125, 363.061 161 C 378.567 147.668, 403.369 125.798, 408.325 121.087 C 416.111 113.686, 416.104 113.471, 408.004 110.862 C 404.152 109.621, 401.008 108.357, 401.018 108.053 C 401.028 107.749, 409.240 104.627, 419.268 101.117 C 429.296 97.606, 437.916 94.355, 438.423 93.893 C 438.974 93.392, 438.306 91.124, 436.770 88.277 C 435.353 85.649, 432.763 78.325, 431.014 72 C 426.538 55.807, 424.994 51.035, 422.853 46.771 C 420.825 42.733, 416.640 40, 412.484 40 C 411.045 40, 409.044 39.559, 408.035 39.019 C 405.875 37.863, 400.850 26.215, 398.536 17 C 397.638 13.425, 396.214 8.363, 395.371 5.750 C 393.933 1.290, 393.627 1, 390.369 1 C 387.373 1, 386.705 1.461, 385.490 4.370 M 256 6 C 252.707 9.293, 253.460 10.346, 258.604 9.641 C 263.886 8.917, 268.168 7.065, 268.759 5.250 C 269.052 4.351, 267.600 4, 263.583 4 C 259.333 4, 257.522 4.478, 256 6 M 159.741 65.750 C 158.402 67.244, 157.271 70.949, 153.323 86.785 C 152.573 89.796, 155.081 92.484, 160.611 94.596 C 167.551 97.246, 168 96.364, 168 80.078 C 168 70.773, 167.616 66.016, 166.800 65.200 C 165.057 63.457, 161.552 63.730, 159.741 65.750 M 161.238 67.250 C 160.684 67.938, 159.916 70.075, 159.531 72 C 159.146 73.925, 157.938 78.581, 156.845 82.346 C 155.752 86.111, 155.064 89.397, 155.315 89.649 C 155.567 89.900, 158.074 90.980, 160.886 92.049 L 166 93.992 166 79.996 C 166 66.971, 165.870 66, 164.122 66 C 163.090 66, 161.792 66.563, 161.238 67.250 M 233.613 87.750 C 233.275 96.412, 232.886 117.977, 232.749 135.671 C 232.457 173.374, 231.741 170.835, 244.606 177.731 C 248.948 180.059, 252.838 181.971, 253.250 181.981 C 253.662 181.992, 254 160.175, 254 133.500 C 254 89.422, 254.148 85, 255.623 85 C 257.435 85, 268.450 77.405, 271.405 74.119 L 273.310 72 253.769 72 L 234.228 72 233.613 87.750 M 287 148.378 C 287 194.860, 287.227 203.943, 288.413 204.927 C 290.523 206.679, 295.954 204.056, 302.114 198.310 L 307.270 193.500 306.767 152.019 C 306.465 127.048, 306.643 109.455, 307.213 107.818 C 307.855 105.976, 310.801 103.420, 316.331 99.905 C 323.286 95.484, 324.203 94.595, 322.500 93.926 C 321.400 93.494, 312.962 93.109, 303.750 93.070 L 287 93 287 148.378 M 439.512 96.181 C 439.248 96.906, 437.037 103.350, 434.597 110.500 C 432.157 117.650, 429.646 124.842, 429.017 126.482 L 427.873 129.464 425.187 124.550 C 423.709 121.847, 422.012 119.480, 421.416 119.290 C 420.363 118.954, 394.553 144.598, 327.700 212.402 L 295.260 245.305 283.380 239.024 C 276.846 235.570, 263.625 228.338, 254 222.953 C 244.375 217.569, 235.375 212.882, 234 212.539 C 231.863 212.005, 229.976 213.316, 221 221.570 C 215.225 226.880, 207.179 234.437, 203.121 238.363 L 195.741 245.500 224.121 246.119 C 245.761 246.591, 254.044 247.135, 259 248.410 C 262.575 249.329, 273.375 253.870, 283 258.500 C 301.941 267.612, 309.626 269.962, 320.554 269.985 C 327.294 269.999, 327.758 270.155, 331 273.500 C 333.448 276.026, 335.260 277, 337.509 277 C 339.664 277, 341.509 277.922, 343.489 279.989 C 345.588 282.179, 347.637 283.148, 351.159 283.615 C 353.802 283.966, 356.378 284.759, 356.883 285.377 C 357.388 285.994, 359.218 290.185, 360.950 294.690 C 365.650 306.913, 368.263 308.766, 388.795 314.434 C 402.575 318.238, 402.847 318.198, 413.907 310.755 C 418.077 307.949, 421.266 308.553, 426.124 313.066 C 430.347 316.990, 430.700 317.119, 436.236 316.753 C 440.345 316.482, 442.616 315.770, 444.239 314.245 C 447.967 310.743, 457.079 307.123, 464.993 306.001 C 474.044 304.717, 476.466 302.765, 478.586 295.046 C 484.776 272.514, 495.607 251.915, 513.835 228 C 523.083 215.869, 525.312 210.555, 525.813 199.455 C 526.295 188.764, 524.627 181.058, 519.465 170.129 C 512.892 156.213, 497.042 143.383, 484.993 142.225 C 480.173 141.762, 480.130 141.726, 479.478 137.629 C 478.546 131.769, 474.912 124.145, 468.911 115.465 C 462.558 106.275, 458.393 102.528, 450.547 98.941 C 442.198 95.123, 440.087 94.595, 439.512 96.181 M 181 167.500 C 181 198.685, 181.232 205, 182.378 205 C 183.135 205, 184.343 204.292, 185.061 203.427 C 185.779 202.562, 188.071 200.984, 190.155 199.921 C 192.239 198.858, 195.577 196.554, 197.572 194.803 L 201.199 191.618 200.479 169.029 L 199.760 146.439 202.485 143.200 C 203.985 141.418, 208.314 137.953, 212.106 135.500 C 215.898 133.047, 219 130.806, 219 130.520 C 219 130.234, 210.450 130, 200 130 L 181 130 181 167.500 M 421.730 335.746 C 419.479 338.233, 419.543 340.596, 421.992 345.500 C 423.091 347.700, 424.461 351.416, 425.036 353.757 C 426.705 360.556, 436.895 369.078, 443.210 368.956 C 446.553 368.891, 459.140 358.155, 461.366 353.470 C 462.392 351.310, 463.467 346.938, 463.756 343.755 C 464.187 339.004, 463.942 337.591, 462.390 335.862 C 460.638 333.910, 459.918 333.816, 452.500 334.564 C 443.241 335.498, 433.233 335.477, 427.480 334.510 C 424.235 333.964, 423.127 334.202, 421.730 335.746 M 422.449 338.346 C 422.005 340.117, 422.456 342.001, 423.872 344.293 C 425.013 346.138, 426.442 349.960, 427.048 352.786 C 428.251 358.397, 432.437 363.031, 438.645 365.625 C 443.074 367.475, 444.079 367.376, 447.478 364.750 C 456.418 357.842, 458.735 355.007, 460.458 348.865 C 461.531 345.041, 461.928 341.429, 461.516 339.235 L 460.858 335.724 454.179 336.558 C 445.666 337.621, 431.588 337.628, 426.800 336.571 C 423.359 335.812, 423.054 335.936, 422.449 338.346 M 135.748 398.427 C 127.728 401.289, 121.171 408.305, 120.275 414.983 C 119.226 422.810, 120.754 427.757, 125.823 432.944 C 129.685 436.895, 132.101 438.295, 139.687 440.979 C 149.282 444.373, 151.783 446.514, 147.428 447.607 C 143.228 448.662, 138.789 447.171, 135.930 443.747 L 133.236 440.520 127.009 443.495 C 120.695 446.513, 118 449.092, 118 452.114 C 118 455.122, 126.648 463.599, 132.221 466.055 C 139.940 469.456, 150.677 469.341, 157.500 465.785 C 167.550 460.546, 172.050 452.490, 170.543 442.435 C 169.494 435.440, 164.719 430.850, 152.316 424.912 C 146.642 422.196, 142 419.529, 142 418.987 C 142 417.048, 146.901 418.046, 149.941 420.604 C 153.662 423.735, 155.714 423.422, 162.622 418.671 C 169.273 414.097, 169.314 412.270, 162.917 405.506 C 158.967 401.329, 156.475 399.625, 152.668 398.494 C 146.529 396.671, 140.732 396.648, 135.748 398.427 M 249.434 397.918 C 239.519 399.546, 227.977 408.243, 223.134 417.737 C 218.725 426.380, 218.613 439.400, 222.875 447.754 C 226.459 454.780, 234.337 462.429, 241.127 465.476 C 249.727 469.336, 260.226 469.417, 268.375 465.686 C 276.300 462.058, 284.128 454.335, 287.502 446.815 C 291.507 437.892, 291.565 427.718, 287.657 419.731 C 282.121 408.416, 271.599 400.321, 259.526 398.089 C 256.285 397.490, 253.603 397.056, 253.566 397.125 C 253.530 397.194, 251.670 397.551, 249.434 397.918 M 541.270 398.043 C 533.859 399.525, 528.657 402.547, 522.706 408.828 C 514.644 417.338, 512.555 422.329, 512.593 433 C 512.617 440.163, 513.070 442.491, 515.470 447.800 C 518.814 455.196, 525.305 461.534, 533.785 465.683 C 547.895 472.587, 568.199 466.217, 577.168 452.074 C 579.282 448.741, 579.975 446.453, 579.900 443.054 L 579.799 438.500 578.912 442.266 C 575.647 456.126, 564.120 464.985, 548.270 465.817 C 540.515 466.224, 539.526 466.041, 533.543 463.096 C 525.406 459.090, 518.595 451.743, 516.510 444.721 C 515.679 441.925, 515.004 436.231, 515.010 432.068 C 515.021 423.123, 517.413 417.107, 523.827 409.889 C 534.680 397.677, 556.268 396.671, 568.225 407.821 C 573.717 412.942, 573.600 413.736, 566.481 419.569 C 562.371 422.937, 561.803 423.136, 560.230 421.757 C 551.707 414.287, 536.934 415.495, 532.798 424 C 529.430 430.925, 530.992 440.968, 536.180 445.744 C 541.079 450.256, 554.542 450.374, 558.554 445.941 C 560.278 444.036, 560.169 444, 552.655 444 L 545 444 545 436.500 L 545 429 562.500 429 C 573.500 429, 580 428.629, 580 428 C 580 426.479, 545.730 426.670, 544.200 428.200 C 542.558 429.842, 542.602 443.425, 544.254 444.796 C 544.944 445.368, 547.081 446.026, 549.004 446.258 C 552.093 446.631, 551.964 446.699, 547.899 446.840 C 540.735 447.089, 537.408 445.475, 535.050 440.604 C 531.132 432.509, 533.184 423.074, 539.432 420.464 C 545.058 418.113, 550.651 418.612, 556.654 422 C 559.578 423.650, 562.235 425, 562.559 425 C 563.766 425, 575 413.647, 575 412.428 C 575 410.152, 564.206 401.467, 559.287 399.785 C 552.982 397.630, 546.483 397.001, 541.270 398.043 M 300.525 398.686 C 297.789 398.929, 294.977 399.604, 294.275 400.186 C 292.489 401.669, 292.417 464.017, 294.200 465.800 C 294.908 466.508, 298.311 467, 302.500 467 C 306.689 467, 310.092 466.508, 310.800 465.800 C 311.563 465.037, 312 461.176, 312 455.192 L 312 445.783 314.750 446.466 C 316.262 446.841, 317.630 447.452, 317.789 447.824 C 317.947 448.196, 320.197 452.550, 322.789 457.500 L 327.500 466.500 336.851 466.789 C 350.694 467.216, 351.476 465.992, 344.508 454.795 C 342.037 450.825, 339.531 446.109, 338.939 444.315 C 337.969 441.376, 338.158 440.680, 340.849 437.277 C 349.955 425.759, 346.308 409.029, 333.081 401.642 C 328.045 398.830, 326.878 398.603, 316.581 398.430 C 310.486 398.328, 303.261 398.443, 300.525 398.686 M 21.304 400.216 C 19.196 402.929, 0.722 454.729, 0.339 459 C 0.020 462.565, 0.956 460.696, 4.844 450 C 7.543 442.575, 12.674 428.625, 16.246 419 L 22.740 401.500 31.340 401.211 L 39.941 400.923 41.567 404.711 C 45.024 412.769, 63 462.128, 63 463.565 C 63 464.819, 61.597 465.031, 54.877 464.790 L 46.753 464.500 45.002 460 L 43.251 455.500 36.876 454.867 C 33.369 454.519, 28.203 454.181, 25.395 454.117 L 20.289 454 18.888 459.250 L 17.487 464.500 8.744 464.789 C -2.751 465.169, -2.640 467, 8.878 467 C 18.682 467, 19.124 466.763, 20.978 460.500 L 22.162 456.500 31.903 456.813 L 41.643 457.125 42.949 460.813 C 45.053 466.758, 45.506 467, 54.500 467 C 65.290 467, 66.578 465.487, 63.442 456.500 C 63.034 455.332, 64.076 456.061, 65.946 458.251 C 70.095 463.113, 77.101 467.175, 82.896 468.080 C 92.387 469.562, 105.596 465.075, 110.320 458.765 C 116.482 450.533, 116.500 450.437, 116.500 425.403 C 116.500 407.296, 116.203 401.949, 115.128 400.653 C 113.367 398.533, 98.868 398.250, 97.164 400.303 C 96.509 401.092, 95.808 410.554, 95.385 424.323 L 94.687 447.040 92.337 447.630 C 88.841 448.508, 83.147 447.153, 82.149 445.207 C 81.668 444.268, 80.984 434.092, 80.629 422.593 C 80.230 409.629, 79.561 401.176, 78.870 400.343 C 77.154 398.276, 63.652 398.510, 61.886 400.638 C 60.827 401.914, 60.523 407.400, 60.513 425.438 L 60.500 448.601 52.454 427.050 C 41.025 396.436, 43.329 399.555, 31.890 399.216 C 24.984 399.011, 22.023 399.291, 21.304 400.216 M 136.014 400.959 C 128.941 403.400, 123.586 408.935, 122.653 414.768 C 121.874 419.640, 123.298 426.999, 125.741 430.727 C 127.475 433.374, 135.238 437.338, 144.818 440.468 C 151.181 442.547, 153.764 446.237, 150.519 448.610 C 149.473 449.374, 146.680 450, 144.312 450 C 140.824 450, 139.293 449.357, 136.253 446.614 L 132.500 443.229 127.657 445.569 C 118.618 449.938, 118.244 451.046, 123.750 457.154 C 129.013 462.992, 135.863 465.979, 144 465.985 C 153.092 465.991, 157.137 464.606, 162.672 459.595 L 167.474 455.248 167.836 447.272 C 168.192 439.435, 168.140 439.229, 164.849 435.475 C 162.479 432.771, 158.213 430.109, 150.250 426.365 C 144.063 423.456, 139 420.645, 139 420.120 C 139 415.221, 145.854 414.324, 150.891 418.562 C 153.823 421.029, 154.059 421.066, 157.218 419.559 C 159.023 418.698, 161.794 416.958, 163.376 415.691 C 166.223 413.411, 166.235 413.355, 164.590 410.174 C 162.311 405.768, 155.900 401.359, 149.900 400.072 C 143.356 398.669, 142.489 398.724, 136.014 400.959 M 175.200 400.200 C 173.484 401.916, 173.484 464.084, 175.200 465.800 C 175.923 466.523, 179.422 467, 184 467 C 188.578 467, 192.077 466.523, 192.800 465.800 C 193.585 465.015, 194 460.867, 194 453.800 L 194 443 204.800 443 C 211.867 443, 216.015 442.585, 216.800 441.800 C 218.393 440.207, 218.393 426.793, 216.800 425.200 C 216.015 424.415, 211.867 424, 204.800 424 L 194 424 194 421 L 194 418 205.300 418 C 212.756 418, 217.008 417.592, 217.800 416.800 C 218.508 416.092, 219 412.689, 219 408.500 C 219 404.311, 218.508 400.908, 217.800 400.200 C 216.104 398.504, 176.896 398.504, 175.200 400.200 M 351.200 400.200 C 349.484 401.916, 349.484 464.084, 351.200 465.800 C 353.094 467.694, 366.443 467.376, 368.086 465.397 C 368.978 464.321, 369.552 459.696, 369.831 451.339 L 370.245 438.883 374.873 446.665 C 377.418 450.945, 380.717 455.124, 382.204 455.953 C 384.693 457.339, 385.127 457.296, 387.652 455.410 C 389.162 454.283, 391.995 450.468, 393.948 446.931 L 397.500 440.500 398.085 452.198 C 398.448 459.465, 399.157 464.485, 399.957 465.448 C 401.567 467.388, 415.929 467.671, 417.800 465.800 C 419.516 464.084, 419.516 401.916, 417.800 400.200 C 417.060 399.460, 413.424 399, 408.306 399 L 400.013 399 397.256 402.933 C 395.740 405.096, 392.288 410.721, 389.585 415.433 C 386.882 420.145, 384.407 423.982, 384.085 423.960 C 383.763 423.938, 381.731 420.099, 379.569 415.429 C 377.408 410.759, 374.110 405.152, 372.242 402.969 L 368.844 399 360.622 399 C 355.560 399, 351.939 399.461, 351.200 400.200 M 427.200 400.200 C 425.484 401.916, 425.484 464.084, 427.200 465.800 C 427.923 466.523, 431.422 467, 436 467 C 440.578 467, 444.077 466.523, 444.800 465.800 C 446.516 464.084, 446.516 401.916, 444.800 400.200 C 443.197 398.597, 428.803 398.597, 427.200 400.200 M 455.200 400.200 C 453.484 401.916, 453.484 464.084, 455.200 465.800 C 457.058 467.658, 470.440 467.379, 472.043 465.449 C 472.885 464.434, 473.493 459.406, 473.799 450.911 L 474.268 437.925 477.457 442.712 C 479.211 445.346, 482.550 450.974, 484.876 455.219 C 490.538 465.551, 492.513 467, 500.935 467 C 504.786 467, 508.107 466.493, 508.800 465.800 C 510.516 464.084, 510.516 401.916, 508.800 400.200 C 506.866 398.266, 492.562 398.617, 490.884 400.640 C 489.979 401.731, 489.397 405.943, 489.148 413.202 C 488.720 425.707, 488.784 425.715, 482.054 412.228 C 479.859 407.830, 476.665 403.054, 474.955 401.616 C 472.190 399.289, 470.993 399, 464.123 399 C 459.450 399, 455.926 399.474, 455.200 400.200 M 242.802 402.330 C 234.148 405.982, 229.472 410.336, 224.900 419 C 222.887 422.815, 222.524 424.946, 222.513 433 C 222.498 444.190, 224.353 448.853, 231.889 456.565 C 237.936 462.754, 243.621 465.232, 253 465.767 C 263.838 466.386, 270.577 463.710, 278.531 455.628 C 285.596 448.449, 288.005 442.466, 287.990 432.135 C 287.978 424.133, 285.129 417.265, 279.112 410.738 C 270.097 400.957, 254.573 397.362, 242.802 402.330 M 63 425.040 C 63 452.381, 63.299 453.676, 71.162 460.407 C 76.461 464.942, 81.649 466.383, 90.152 465.682 C 101.676 464.731, 110.097 458.906, 112.824 450 C 114.232 445.399, 114.383 442.028, 114.175 419.750 L 114 401 106.068 401 L 98.135 401 97.818 423.958 C 97.519 445.547, 97.381 447.007, 95.500 448.427 C 92.933 450.364, 86.706 450.416, 83.059 448.530 C 78.656 446.254, 78 442.663, 78 420.851 L 78 401 70.500 401 L 63 401 63 425.040 M 176 433 L 176 465 184 465 L 192 465 192 453 L 192 441 204 441 L 216 441 216 433.500 L 216 426 204 426 L 192 426 192 421 L 192 416 204.500 416 L 217 416 217 408.500 L 217 401 196.500 401 L 176 401 176 433 M 295 432.917 L 295 465 302.500 465 L 310 465 310 454.500 L 310 444 312.918 444 C 317.973 444, 318.989 445.015, 324.064 455.128 L 329.018 465 338.009 465 C 343.995 465, 347 464.624, 347 463.877 C 347 463.259, 344.973 459.415, 342.496 455.334 C 340.018 451.253, 337.307 446.278, 336.472 444.279 C 334.982 440.712, 335.009 440.586, 337.915 437.572 C 341.908 433.431, 343.003 430.107, 342.984 422.185 C 342.963 413.987, 340.453 408.969, 334.158 404.542 L 329.834 401.500 312.417 401.167 L 295 400.835 295 432.917 M 352 433 L 352 465 359.500 465 L 367 465 367.106 457.250 C 367.164 452.988, 367.502 445.450, 367.856 440.500 L 368.500 431.500 373.906 441 C 380.442 452.485, 381.677 454, 384.500 454 C 387.318 454, 388.619 452.401, 394.585 441.608 L 399.500 432.715 400.144 441.608 C 400.498 446.498, 400.836 453.762, 400.894 457.750 L 401 465 409 465 L 417 465 417 433 L 417 401 409.155 401 C 399.994 401, 400.425 400.671, 393.447 413 C 390.801 417.675, 387.415 422.925, 385.922 424.666 L 383.209 427.832 378.035 417.166 C 375.189 411.300, 371.682 405.262, 370.243 403.750 C 367.824 401.208, 367.035 401, 359.813 401 L 352 401 352 433 M 428 433 L 428 465 436 465 L 444 465 444 433 L 444 401 436 401 L 428 401 428 433 M 456 433 L 456 465 463.372 465 L 470.744 465 471.474 447.936 L 472.203 430.872 477.889 439.686 C 481.016 444.534, 485.325 451.650, 487.464 455.500 C 489.603 459.350, 492.062 463.048, 492.927 463.718 C 493.796 464.391, 497.521 464.951, 501.250 464.968 L 508 465 508 433 L 508 401 500.143 401 L 492.285 401 491.393 415.680 L 490.500 430.359 486.828 424.812 C 484.808 421.761, 481.341 415.657, 479.124 411.247 C 474.489 402.027, 472.807 401, 462.351 401 L 456 401 456 433 M 310 422.500 L 310 430 317.427 430 C 324.260 430, 325.021 429.789, 326.927 427.365 C 329.551 424.030, 329.582 419.582, 327 417 C 325.356 415.356, 323.667 415, 317.500 415 L 310 415 310 422.500 M 246.457 417.863 C 244.784 418.883, 242.196 421.166, 240.707 422.936 C 238.424 425.650, 238 427.091, 238 432.142 C 238 439.006, 238.838 441.037, 243.821 446.250 C 247.336 449.927, 247.551 450, 254.859 450 C 261.221 450, 262.780 449.643, 265.515 447.556 C 269.911 444.203, 272 439.325, 272 432.411 C 272 425.883, 269.870 421.820, 264.528 418.160 C 260.376 415.314, 250.892 415.159, 246.457 417.863 M 30.718 424.663 C 29.925 425.972, 27 436.212, 27 437.682 C 27 438.597, 28.528 439, 32 439 C 37.806 439, 38.069 438.319, 35.191 430.742 C 33.255 425.643, 31.538 423.310, 30.718 424.663 M 192.595 502.168 C 191.718 503.420, 191 505.068, 191 505.829 C 191 506.739, 190.400 506.982, 189.250 506.537 C 184.877 504.845, 181.916 504.825, 179.405 506.470 C 177.510 507.712, 176.484 507.884, 175.693 507.093 C 175.092 506.492, 171.630 506, 168 506 C 164.370 506, 160.908 506.492, 160.307 507.093 C 159.516 507.884, 158.493 507.714, 156.609 506.479 C 154.988 505.417, 152.964 504.978, 151.252 505.316 C 146.545 506.245, 145.630 506.320, 140.987 506.158 C 137.349 506.031, 136.283 505.564, 135.487 503.750 C 134.602 501.732, 133.689 501.470, 126.628 501.206 C 120.334 500.970, 118.379 501.252, 116.878 502.611 C 114.608 504.665, 114.460 507.307, 116.519 509.016 C 117.762 510.047, 118.397 509.950, 120.019 508.483 C 121.971 506.717, 122 506.771, 122 512.145 C 122 515.145, 121.479 518.121, 120.842 518.758 C 119.026 520.574, 121.690 523, 125.500 523 C 129.310 523, 131.974 520.574, 130.158 518.758 C 129.521 518.121, 129 515.414, 129 512.743 C 129 507.938, 129.023 507.903, 131.202 509.429 C 133.014 510.698, 133.354 511.780, 133.123 515.538 C 132.797 520.852, 134.178 523, 137.922 523 C 141.775 523, 142.866 521.421, 142.240 516.754 C 141.838 513.755, 142.008 512.887, 142.892 513.433 C 143.549 513.840, 144.743 513.628, 145.544 512.964 C 146.482 512.185, 147 512.134, 147 512.819 C 147 513.403, 146.550 514.160, 146 514.500 C 144.533 515.407, 144.781 520.573, 146.355 521.880 C 148.043 523.281, 166.986 523.180, 168.750 521.761 C 169.591 521.084, 170.410 521.095, 171.252 521.794 C 172.396 522.743, 177.717 523.261, 184.750 523.106 C 186.262 523.073, 189.804 523.040, 192.619 523.033 C 198.204 523.019, 201.357 520.957, 199.158 518.758 C 197.493 517.093, 197.733 512.467, 199.563 510.948 C 200.932 509.811, 201.043 509.982, 200.454 512.325 C 199.412 516.477, 200.752 519.878, 204.277 522.027 C 208.102 524.360, 210.537 524.490, 214.233 522.562 C 215.820 521.734, 217.208 521.527, 217.542 522.068 C 218.337 523.354, 223.359 523.241, 224.692 521.908 C 225.324 521.276, 225.555 519.101, 225.240 516.754 C 224.838 513.755, 225.008 512.887, 225.892 513.433 C 226.549 513.840, 227.743 513.628, 228.544 512.964 C 229.762 511.952, 230 512.232, 230 514.678 C 230 516.285, 229.479 518.121, 228.842 518.758 C 227.966 519.634, 227.995 520.289, 228.965 521.458 C 230.436 523.230, 236.076 523.524, 237.687 521.913 C 238.470 521.130, 238.962 521.130, 239.446 521.913 C 240.305 523.303, 245.676 523.333, 246.530 521.951 C 246.936 521.295, 247.612 521.250, 248.339 521.831 C 249.953 523.121, 269.202 523.046, 270.792 521.743 C 271.708 520.993, 272.422 521.022, 273.242 521.842 C 273.879 522.479, 275.328 523, 276.463 523 C 277.643 523, 278.948 523.963, 279.513 525.250 C 280.364 527.189, 281.375 527.541, 286.837 527.800 C 290.649 527.980, 293.738 527.633, 294.587 526.928 C 296.479 525.358, 296.374 522.071, 294.362 519.847 C 293.222 518.588, 293.028 517.651, 293.723 516.769 C 295.312 514.752, 296.060 507.777, 294.845 506.313 C 293.113 504.227, 284.704 504.658, 281.745 506.986 C 279.535 508.724, 279.067 508.786, 277.988 507.486 C 276.564 505.770, 263.524 505.343, 262.513 506.980 C 262.131 507.596, 261.184 507.507, 259.954 506.739 C 258.404 505.771, 257.570 505.787, 255.922 506.817 C 254.445 507.739, 253.475 507.809, 252.571 507.059 C 250.989 505.746, 218.265 505.762, 217.453 507.076 C 217.136 507.589, 215.530 507.291, 213.805 506.399 C 210.291 504.582, 205.630 505.120, 202.816 507.667 C 200.711 509.572, 200.461 508.837, 202.243 505.983 C 204.056 503.079, 202.105 500.569, 197.744 500.195 C 194.972 499.958, 193.839 500.392, 192.595 502.168 M 407.180 501.283 C 406.595 501.988, 405.641 503.815, 405.060 505.341 C 404.058 507.978, 403.894 508.039, 401.780 506.558 C 399.020 504.626, 396.311 504.589, 392.767 506.438 C 391.180 507.266, 389.792 507.473, 389.458 506.932 C 388.627 505.588, 379.616 505.784, 378.224 507.176 C 377.322 508.078, 376.615 507.962, 375.195 506.676 C 372.730 504.446, 367.777 504.550, 364.883 506.894 C 362.589 508.752, 362.500 508.752, 360.138 506.894 C 358.153 505.332, 356.042 505.001, 348.115 505.006 C 341.459 505.010, 337.601 505.481, 335.579 506.535 C 333.577 507.580, 332.335 507.735, 331.629 507.029 C 330.251 505.651, 326.677 505.723, 325.242 507.158 C 324.366 508.034, 323.743 508.032, 322.678 507.148 C 321.904 506.505, 319.747 505.980, 317.885 505.981 C 316.023 505.981, 311.789 505.726, 308.475 505.413 C 303.276 504.923, 302.200 505.121, 300.627 506.860 C 299.596 507.999, 299.131 509.403, 299.557 510.092 C 299.971 510.762, 300.209 514.419, 300.086 518.219 C 299.834 525.989, 300.844 528, 305 528 C 307.968 528, 310.572 525.735, 309.534 524.055 C 309.147 523.430, 309.536 523.268, 310.520 523.646 C 311.435 523.997, 313.333 523.391, 314.865 522.258 C 317.532 520.286, 317.632 520.283, 319.904 522.123 C 322.318 524.078, 332.354 524.854, 333.397 523.167 C 333.680 522.708, 335.286 522.535, 336.965 522.782 C 341.367 523.428, 342.908 521.729, 342.265 516.941 C 341.810 513.548, 341.973 513.052, 343.366 513.587 C 344.613 514.066, 345 515.561, 345 519.907 C 345 526.231, 346.110 528, 350.078 528 C 352.820 528, 355.579 525.745, 354.658 524.256 C 354.375 523.799, 355.304 523.328, 356.721 523.211 C 358.138 523.094, 359.886 522.509, 360.606 521.912 C 361.567 521.115, 362.516 521.248, 364.180 522.413 C 367.094 524.455, 371.924 524.442, 374.862 522.384 C 376.559 521.195, 377.463 521.063, 378.284 521.884 C 379.664 523.264, 388.656 523.366, 389.493 522.011 C 389.868 521.404, 391.036 521.633, 392.519 522.605 C 394.353 523.806, 395.965 523.996, 399.217 523.393 C 401.573 522.956, 405.330 522.723, 407.566 522.874 C 412.152 523.184, 415.281 520.881, 413.158 518.758 C 411.517 517.117, 411.722 512.476, 413.500 511 C 415.251 509.547, 415.141 509.331, 415.403 514.727 C 415.544 517.637, 416.370 519.765, 418.054 521.560 C 420.319 523.973, 420.906 524.113, 426 523.445 C 429.025 523.049, 434.953 522.761, 439.174 522.807 C 444.822 522.867, 447.173 522.496, 448.081 521.402 C 449.016 520.276, 449.034 519.634, 448.158 518.758 C 447.521 518.121, 447.014 516.227, 447.032 514.550 C 447.062 511.612, 447.119 511.573, 448.575 513.500 C 451.087 516.823, 451.406 519.893, 449.464 522.040 C 447.765 523.917, 447.766 524.084, 449.500 526 C 453.682 530.621, 457.613 527.850, 463.447 516.168 C 466.344 510.366, 466.863 508.539, 465.932 507.418 C 464.513 505.708, 459.850 505.550, 458.242 507.158 C 457.366 508.034, 456.714 508.008, 455.556 507.047 C 454.708 506.343, 452.484 505.958, 450.560 506.183 C 447.499 506.540, 447.058 506.302, 446.797 504.145 C 446.390 500.793, 443.604 499.141, 441.050 500.737 C 439.818 501.506, 438.868 501.596, 438.487 500.980 C 437.541 499.449, 433.386 499.830, 431.933 501.581 C 430.903 502.821, 430.877 503.573, 431.810 505.068 C 432.465 506.116, 432.919 509.566, 432.820 512.736 L 432.640 518.500 432.256 513.525 C 432.045 510.789, 431.396 507.977, 430.814 507.275 C 429.478 505.666, 425.776 505.624, 424.200 507.200 C 423.267 508.133, 422.733 508.133, 421.800 507.200 C 421.140 506.540, 419.790 506, 418.800 506 C 417.810 506, 417 505.395, 417 504.655 C 417 500.993, 409.545 498.433, 407.180 501.283 M 193.529 504.740 C 193.151 506.247, 192.315 507.856, 191.671 508.316 C 190.787 508.947, 190.807 509.277, 191.750 509.659 C 193.243 510.265, 193.476 519, 192 519 C 191.450 519, 191 519.450, 191 520 C 191 520.550, 192.575 521, 194.500 521 C 196.425 521, 198 520.550, 198 520 C 198 519.450, 197.550 519, 197 519 C 196.450 519, 196 516.975, 196 514.500 C 196 511.167, 196.389 510, 197.500 510 C 198.325 510, 199 509.550, 199 509 C 199 508.450, 198.325 508, 197.500 508 C 195.757 508, 195.479 505.440, 197.112 504.431 C 197.723 504.053, 198.599 504.351, 199.057 505.093 C 200.132 506.831, 201.432 505.569, 200.655 503.543 C 200.308 502.639, 198.852 502, 197.140 502 C 194.788 502, 194.083 502.535, 193.529 504.740 M 407.749 504.750 C 407.084 506.262, 406.082 507.872, 405.520 508.326 C 404.846 508.872, 404.924 509.324, 405.750 509.659 C 407.243 510.265, 407.476 519, 406 519 C 405.450 519, 405 519.450, 405 520 C 405 520.550, 406.575 521, 408.500 521 C 410.425 521, 412 520.550, 412 520 C 412 519.450, 411.550 519, 411 519 C 410.450 519, 410 516.975, 410 514.500 C 410 511.167, 410.389 510, 411.500 510 C 412.325 510, 413 509.550, 413 509 C 413 508.450, 412.325 508, 411.500 508 C 410.667 508, 410 507.111, 410 506 C 410 503.817, 412.559 503.232, 413.280 505.250 C 413.525 505.938, 414.023 506.227, 414.387 505.893 C 415.745 504.645, 413.697 502, 411.372 502 C 409.697 502, 408.587 502.843, 407.749 504.750 M 433 503.500 C 433 504.325, 433.450 505, 434 505 C 434.571 505, 435 508, 435 512 C 435 516, 434.571 519, 434 519 C 433.450 519, 433 519.450, 433 520 C 433 520.550, 434.414 521, 436.142 521 L 439.285 521 438.642 514.853 C 438.289 511.473, 438 507.198, 438 505.353 C 438 502.443, 437.670 502, 435.500 502 C 433.944 502, 433 502.567, 433 503.500 M 441 503.500 C 441 504.325, 441.450 505, 442 505 C 442.571 505, 443 508, 443 512 C 443 516, 442.571 519, 442 519 C 441.450 519, 441 519.450, 441 520 C 441 520.550, 442.350 521, 444 521 C 445.650 521, 447 520.550, 447 520 C 447 519.450, 446.550 519, 446 519 C 445.412 519, 445 515.500, 445 510.500 C 445 502.667, 444.843 502, 443 502 C 441.889 502, 441 502.667, 441 503.500 M 117.607 504.582 C 116.743 506.832, 116.855 508, 117.933 508 C 118.446 508, 119.151 507.100, 119.500 506 C 119.849 504.900, 121.004 504, 122.067 504 C 123.806 504, 124 504.754, 124 511.500 C 124 515.833, 123.578 519, 123 519 C 122.450 519, 122 519.450, 122 520 C 122 520.550, 123.575 521, 125.500 521 C 127.425 521, 129 520.550, 129 520 C 129 519.450, 128.550 519, 128 519 C 127.422 519, 127 515.833, 127 511.500 C 127 504.667, 127.178 504, 129 504 C 130.333 504, 131 504.667, 131 506 C 131 507.100, 131.482 508, 132.071 508 C 134.889 508, 136.183 511.031, 135.497 516.020 L 134.812 521 137.906 521 C 139.608 521, 141 520.550, 141 520 C 141 519.450, 140.500 519, 139.889 519 C 139.149 519, 139.008 517.747, 139.467 515.250 C 140.228 511.104, 141.958 508.703, 142.708 510.750 C 143.431 512.721, 145 512.207, 145 510 C 145 508.247, 144.333 508, 139.608 508 C 134.691 508, 134.162 507.780, 133.589 505.500 C 132.991 503.116, 132.620 503, 125.588 503 C 119.786 503, 118.085 503.337, 117.607 504.582 M 284.500 507.875 C 281.553 508.502, 281.495 508.636, 281.199 515.486 C 280.736 526.226, 281.119 527, 286.897 527 C 295.758 527, 296.465 521.659, 287.907 519.373 C 285.409 518.706, 284.455 518.154, 285.703 518.098 C 286.915 518.044, 289.090 517.460, 290.537 516.801 C 292.671 515.829, 293.090 515.064, 292.751 512.757 C 292.521 511.192, 292.708 509.680, 293.167 509.397 C 296.485 507.346, 291.281 506.432, 284.500 507.875 M 304.750 507.810 C 302.688 507.981, 301 508.544, 301 509.060 C 301 509.577, 301.497 510, 302.104 510 C 302.877 510, 302.995 512.403, 302.500 518 L 301.792 526 304.896 526 C 306.603 526, 308 525.550, 308 525 C 308 524.450, 307.550 524, 307 524 C 306.450 524, 306 523.325, 306 522.500 C 306 521.436, 307.090 520.996, 309.750 520.985 C 314.714 520.964, 315.959 520.030, 316.644 515.806 C 317.733 509.098, 314.604 506.995, 304.750 507.810 M 343.893 507.742 L 335.286 508.074 336.229 513.258 C 336.886 516.877, 336.843 518.552, 336.086 518.805 C 333.848 519.551, 335.111 521, 338 521 C 340.889 521, 342.152 519.551, 339.913 518.804 C 338.387 518.296, 339.829 511.280, 341.598 510.601 C 342.369 510.305, 343 510.488, 343 511.007 C 343 511.586, 344.005 511.568, 345.605 510.960 L 348.211 509.969 347.501 517.985 L 346.792 526 349.896 526 C 351.603 526, 353 525.550, 353 525 C 353 524.450, 352.564 524, 352.031 524 C 351.499 524, 351.322 523.325, 351.638 522.500 C 352.012 521.525, 353.565 521, 356.072 521 C 358.862 521, 360.216 520.465, 360.965 519.066 C 362.169 516.816, 362.305 512.028, 361.214 510.313 C 360.338 508.934, 355.419 506.905, 353.685 507.206 C 353.033 507.319, 348.627 507.560, 343.893 507.742 M 368 507.689 C 363.086 509.564, 361.034 517.123, 364.629 520.107 C 367.008 522.082, 374.050 521.651, 375.673 519.433 C 377.347 517.143, 377.389 511.892, 375.750 509.746 C 374.344 507.905, 370.268 506.823, 368 507.689 M 147.667 508.667 C 145.961 510.372, 147.323 511.121, 151 510.500 C 154.605 509.891, 155 510.030, 155 511.912 C 155 513.519, 154.367 514.004, 152.250 514.015 C 148.385 514.037, 146.770 515.337, 147.163 518.113 C 147.472 520.300, 148.024 520.525, 153.750 520.798 C 157.629 520.983, 160 520.698, 160 520.048 C 160 519.471, 159.550 519, 159 519 C 158.450 519, 158 517.065, 158 514.700 C 158 512.335, 157.460 509.860, 156.800 509.200 C 155.530 507.930, 148.796 507.537, 147.667 508.667 M 161 508.954 C 161 509.529, 161.502 510, 162.115 510 C 162.884 510, 163.017 511.710, 162.543 515.500 L 161.856 521 164.928 521 C 166.618 521, 168 520.550, 168 520 C 168 519.450, 167.550 519, 167 519 C 165.856 519, 165.606 511.007, 166.750 510.986 C 167.162 510.979, 168.512 510.701, 169.750 510.370 C 171.888 509.797, 172 510.047, 172 515.383 C 172 520.708, 172.130 521, 174.500 521 C 175.875 521, 177 520.550, 177 520 C 177 519.450, 176.574 519, 176.052 519 C 175.531 519, 174.969 516.638, 174.802 513.750 L 174.500 508.500 167.750 508.204 C 163.532 508.020, 161 508.301, 161 508.954 M 179.151 509.318 C 177.667 511.106, 180.125 514.564, 183.477 515.405 C 186.295 516.112, 186.849 518.460, 184.418 519.393 C 181.916 520.353, 181 520.114, 181 518.500 C 181 517.675, 180.292 517, 179.427 517 C 178.468 517, 177.983 517.684, 178.186 518.750 C 178.602 520.941, 187.835 521.886, 189.083 519.865 C 190.176 518.096, 188.460 515.333, 185.316 513.801 C 183.848 513.085, 182.464 511.938, 182.241 511.250 C 181.722 509.658, 185.207 509.607, 186.783 511.183 C 188.257 512.657, 189.449 511.613, 188.655 509.543 C 187.910 507.602, 180.716 507.432, 179.151 509.318 M 203.893 509.629 C 202.163 511.714, 202.323 518.957, 204.125 520.098 C 206.159 521.387, 213.416 521.184, 214.800 519.800 C 215.460 519.140, 216 516.755, 216 514.500 C 216 512.245, 215.460 509.860, 214.800 509.200 C 212.998 507.398, 205.500 507.693, 203.893 509.629 M 218.379 509.750 C 219.810 514.620, 220.156 519, 219.111 519 C 218.500 519, 218 519.450, 218 520 C 218 520.550, 219.350 521, 221 521 C 223.889 521, 225.152 519.551, 222.913 518.804 C 221.387 518.296, 222.829 511.280, 224.598 510.601 C 225.369 510.305, 226 510.499, 226 511.031 C 226 511.564, 226.450 512, 227 512 C 227.550 512, 228 511.100, 228 510 C 228 508.263, 227.333 508, 222.933 508 C 218.577 508, 217.937 508.246, 218.379 509.750 M 230 508.966 C 230 509.535, 230.450 510, 231 510 C 231.550 510, 232 512.025, 232 514.500 C 232 516.975, 231.550 519, 231 519 C 230.450 519, 230 519.450, 230 520 C 230 520.550, 231.575 521, 233.500 521 C 235.425 521, 237 520.550, 237 520 C 237 519.450, 236.500 519, 235.889 519 C 234.450 519, 235.722 511.799, 237.342 510.768 C 239.594 509.335, 240 510.058, 240 515.500 C 240 520.944, 240.030 521, 243 521 C 244.650 521, 246 520.550, 246 520 C 246 519.450, 245.325 519, 244.500 519 C 243.417 519, 243 517.889, 243 515 C 243 512.800, 243.338 510.994, 243.750 510.986 C 244.162 510.979, 245.512 510.701, 246.750 510.370 C 248.888 509.797, 249 510.047, 249 515.383 C 249 520.708, 249.130 521, 251.500 521 C 252.875 521, 254 520.550, 254 520 C 254 519.450, 253.574 519, 253.052 519 C 252.531 519, 251.969 516.638, 251.802 513.750 L 251.500 508.500 240.750 508.216 C 233.832 508.034, 230 508.301, 230 508.966 M 256.379 509.750 C 257.810 514.620, 258.156 519, 257.111 519 C 256.500 519, 256 519.450, 256 520 C 256 520.550, 257.350 521, 259 521 C 260.650 521, 262 520.550, 262 520 C 262 519.450, 261.550 519, 261 519 C 260.450 519, 260 516.525, 260 513.500 C 260 508.607, 259.772 508, 257.933 508 C 256.435 508, 256.007 508.482, 256.379 509.750 M 263.032 508.704 C 263.049 509.142, 263.724 510.374, 264.532 511.441 C 266.192 513.636, 266.524 519, 265 519 C 264.450 519, 264 519.450, 264 520 C 264 520.550, 265.350 521, 267 521 C 268.650 521, 270 520.550, 270 520 C 270 519.450, 269.550 519, 269 519 C 267.856 519, 267.606 511.007, 268.750 510.986 C 269.163 510.979, 270.512 510.701, 271.750 510.370 C 273.888 509.797, 274 510.047, 274 515.383 C 274 520.708, 274.130 521, 276.500 521 C 277.875 521, 279 520.550, 279 520 C 279 519.450, 278.574 519, 278.052 519 C 277.531 519, 276.969 516.638, 276.802 513.750 L 276.500 508.500 269.750 508.204 C 266.038 508.042, 263.014 508.267, 263.032 508.704 M 317 509 C 317 509.550, 317.675 510, 318.500 510 C 319.628 510, 320 511.209, 320 514.878 C 320 521.059, 321.507 522.428, 327.557 521.746 C 332.244 521.218, 334.442 520.063, 332.250 519.280 C 331.459 518.997, 331 516.845, 331 513.417 C 331 508.306, 330.859 508, 328.500 508 C 325.975 508, 325.158 509.361, 327 510.500 C 327.550 510.840, 328 512.666, 328 514.559 C 328 517.527, 327.669 518, 325.594 518 C 323.465 518, 323.108 517.424, 322.500 513 C 321.892 508.576, 321.535 508, 319.406 508 C 318.083 508, 317 508.450, 317 509 M 379.011 509.487 C 377.196 511.673, 378.402 513.654, 382.435 515.113 C 386.735 516.668, 387.462 520, 383.500 520 C 381.944 520, 381 519.433, 381 518.500 C 381 517.675, 380.325 517, 379.500 517 C 377.821 517, 377.626 517.863, 378.864 519.815 C 379.909 521.462, 388.173 521.021, 388.743 519.288 C 388.962 518.621, 387.535 516.468, 385.571 514.504 C 383.607 512.540, 382 510.723, 382 510.467 C 382 509.501, 385.648 510.048, 386.783 511.183 C 388.257 512.657, 389.449 511.613, 388.655 509.543 C 387.871 507.501, 380.693 507.460, 379.011 509.487 M 392.192 508.834 C 391.312 509.410, 390.985 511.456, 391.192 515.095 L 391.500 520.500 396.917 520.500 C 403.466 520.500, 404.891 518.517, 398.917 517.716 C 392.322 516.831, 391.611 515, 397.863 515 L 403.127 515 402.813 511.750 C 402.515 508.657, 402.283 508.487, 398 508.239 C 395.525 508.096, 392.912 508.364, 392.192 508.834 M 416 509 C 416 509.550, 416.450 510, 417 510 C 417.550 510, 418 512.234, 418 514.965 C 418 518.675, 418.442 520.163, 419.750 520.853 C 421.824 521.947, 432 521.133, 432 519.873 C 432 519.393, 431.550 519, 431 519 C 430.450 519, 430 516.525, 430 513.500 C 430 508.300, 429.864 508, 427.500 508 C 426.125 508, 425 508.450, 425 509 C 425 509.550, 425.500 510, 426.111 510 C 427.550 510, 426.278 517.201, 424.658 518.232 C 421.832 520.031, 421 518.955, 421 513.500 C 421 508.300, 420.864 508, 418.500 508 C 417.125 508, 416 508.450, 416 509 M 448 508.941 C 448 509.459, 448.497 510.189, 449.104 510.564 C 450.329 511.321, 453.944 518.825, 453.978 520.683 C 453.990 521.333, 453.100 522.151, 452 522.500 C 449.368 523.335, 449.458 524.625, 452.198 525.342 C 455.279 526.147, 456.621 524.710, 461.098 515.806 L 465.022 508 462.091 508 C 459.649 508, 459.049 508.499, 458.503 510.989 C 457.547 515.338, 456.199 515.576, 455.439 511.528 C 454.837 508.315, 454.475 508, 451.389 508 C 449.525 508, 448 508.423, 448 508.941 M 394.500 511 C 392.717 512.970, 392.753 513, 396.880 513 C 400.760 513, 400.991 512.852, 400 511 C 399.411 509.900, 398.340 509, 397.620 509 C 396.899 509, 395.495 509.900, 394.500 511 M 208.750 511.198 C 205.190 512.452, 204.842 517.310, 208.183 519.098 C 210.042 520.093, 210.636 519.933, 212.183 518.022 C 214.323 515.380, 214.453 513.953, 212.750 511.806 C 211.776 510.578, 210.893 510.444, 208.750 511.198 M 284.667 510.667 C 284.300 511.033, 284 512.158, 284 513.167 C 284 514.551, 284.761 515, 287.107 515 C 289.529 515, 290.080 514.651, 289.607 513.418 C 289.273 512.548, 289 511.423, 289 510.918 C 289 509.863, 285.664 509.669, 284.667 510.667 M 308.225 511.095 C 306.343 511.806, 306.067 512.432, 306.629 514.727 C 308.230 521.266, 313.909 520.153, 313.986 513.285 C 314.008 511.375, 310.757 510.139, 308.225 511.095 M 366.667 510.667 C 365.562 511.772, 365.917 516.517, 367.200 517.800 C 369.354 519.954, 372.721 519.240, 373.241 516.519 C 374.051 512.284, 369.288 508.045, 366.667 510.667 M 423.232 513 C 423.232 514.925, 423.438 515.712, 423.689 514.750 C 423.941 513.788, 423.941 512.212, 423.689 511.250 C 423.438 510.288, 423.232 511.075, 423.232 513 M 254.252 514.500 C 254.263 516.700, 254.468 517.482, 254.707 516.238 C 254.946 514.994, 254.937 513.194, 254.687 512.238 C 254.437 511.282, 254.241 512.300, 254.252 514.500 M 333.252 514.500 C 333.263 516.700, 333.468 517.482, 333.707 516.238 C 333.946 514.994, 333.937 513.194, 333.687 512.238 C 333.437 511.282, 333.241 512.300, 333.252 514.500 M 351.667 511.667 C 350.511 512.823, 350.944 517.708, 352.302 518.836 C 353.018 519.430, 354.593 519.658, 355.802 519.342 C 357.590 518.874, 358 518.042, 358 514.883 C 358 511.286, 357.791 511, 355.167 511 C 353.608 511, 352.033 511.300, 351.667 511.667 M 189.446 513.087 C 189.077 513.685, 189.275 514.675, 189.887 515.287 C 190.704 516.104, 191 515.815, 191 514.200 C 191 511.785, 190.481 511.413, 189.446 513.087 M 262.232 515 C 262.232 516.925, 262.438 517.712, 262.689 516.750 C 262.941 515.788, 262.941 514.212, 262.689 513.250 C 262.438 512.288, 262.232 513.075, 262.232 515 M 168 515.441 C 168 516.784, 168.450 518.160, 169 518.500 C 169.583 518.861, 170 517.844, 170 516.059 C 170 514.377, 169.550 513, 169 513 C 168.450 513, 168 514.098, 168 515.441 M 245 514.941 C 245 516.009, 245.450 517.160, 246 517.500 C 246.567 517.851, 247 517.010, 247 515.559 C 247 514.152, 246.550 513, 246 513 C 245.450 513, 245 513.873, 245 514.941 M 270 515.441 C 270 516.784, 270.450 518.160, 271 518.500 C 271.583 518.861, 272 517.844, 272 516.059 C 272 514.377, 271.550 513, 271 513 C 270.450 513, 270 514.098, 270 515.441 M 283.638 523.500 C 283.966 524.355, 285.458 525, 287.107 525 C 289.012 525, 290 524.488, 290 523.500 C 290 522.455, 288.948 522, 286.531 522 C 283.859 522, 283.195 522.344, 283.638 523.500" stroke="none" fill="#f2f4f8" fill-rule="evenodd"/><path d="M 385.490 4.370 C 384.715 6.224, 383.341 13.537, 382.436 20.620 C 380.119 38.758, 379.711 39.695, 371.978 44.654 C 368.415 46.939, 363.985 50.216, 362.134 51.936 L 358.768 55.064 359.134 101.104 L 359.500 147.143 355.809 150.321 C 353.779 152.070, 349.392 155.673, 346.059 158.330 L 340 163.159 340.042 158.330 C 340.066 155.673, 340.475 135.374, 340.953 113.219 C 341.502 87.765, 341.469 71.659, 340.862 69.463 C 339.645 65.054, 336.955 62.512, 329.806 59.013 C 322.354 55.366, 315.581 49.743, 313.593 45.555 C 311.480 41.101, 311.562 34.143, 313.766 31 C 314.730 29.625, 317.202 26.780, 319.259 24.679 C 325.421 18.385, 324.314 16.015, 314.321 14.107 C 310.922 13.458, 303.872 11.144, 298.655 8.964 C 292.836 6.532, 287.584 5, 285.068 5 C 281.369 5, 280.805 5.341, 279.304 8.488 C 277.982 11.261, 276.908 12.094, 274.070 12.549 C 259.620 14.863, 256.384 16.347, 251.615 22.844 C 246.532 29.767, 244.047 35.756, 244.022 41.143 C 243.996 46.564, 243.344 47, 235.262 47 L 229.688 47 223 40 C 216.335 33.024, 216.294 33, 210.906 32.995 L 205.500 32.990 198 40.888 C 193.875 45.231, 188.025 50.354, 185 52.272 C 174.554 58.897, 173.852 60.656, 173.075 82.160 C 172.249 105.010, 172.295 104.971, 146.500 105.014 C 122.007 105.056, 94.660 108.478, 82.795 112.986 C 70.391 117.699, 61.036 126.445, 56.632 137.447 C 51.944 149.157, 52.754 154.341, 64.457 187.500 C 75.397 218.496, 79.035 233.948, 80.847 257.119 C 81.523 265.765, 82.106 268.340, 83.987 270.982 L 86.297 274.226 95.398 273.797 C 106.692 273.265, 122.607 268.415, 130.455 263.114 C 135.989 259.375, 145.894 251.501, 193.500 212.993 C 223.885 188.415, 229.670 184, 231.495 184 C 232.623 184, 237.267 186.898, 270 208.030 C 291.803 222.105, 294.172 222.961, 298.171 218.208 C 299.464 216.673, 303.694 212.735, 307.573 209.458 C 311.452 206.181, 323.561 195.625, 334.482 186 C 345.402 176.375, 358.263 165.125, 363.061 161 C 378.567 147.668, 403.369 125.798, 408.325 121.087 C 416.111 113.686, 416.104 113.471, 408.004 110.862 C 404.152 109.621, 401.008 108.357, 401.018 108.053 C 401.028 107.749, 409.240 104.627, 419.268 101.117 C 429.296 97.606, 437.916 94.355, 438.423 93.893 C 438.974 93.392, 438.306 91.124, 436.770 88.277 C 435.353 85.649, 432.763 78.325, 431.014 72 C 426.538 55.807, 424.994 51.035, 422.853 46.771 C 420.825 42.733, 416.640 40, 412.484 40 C 411.045 40, 409.044 39.559, 408.035 39.019 C 405.875 37.863, 400.850 26.215, 398.536 17 C 397.638 13.425, 396.214 8.363, 395.371 5.750 C 393.933 1.290, 393.627 1, 390.369 1 C 387.373 1, 386.705 1.461, 385.490 4.370 M 256 6 C 252.707 9.293, 253.460 10.346, 258.604 9.641 C 263.886 8.917, 268.168 7.065, 268.759 5.250 C 269.052 4.351, 267.600 4, 263.583 4 C 259.333 4, 257.522 4.478, 256 6 M 161.238 67.250 C 160.684 67.938, 159.916 70.075, 159.531 72 C 159.146 73.925, 157.938 78.581, 156.845 82.346 C 155.752 86.111, 155.064 89.397, 155.315 89.649 C 155.567 89.900, 158.074 90.980, 160.886 92.049 L 166 93.992 166 79.996 C 166 66.971, 165.870 66, 164.122 66 C 163.090 66, 161.792 66.563, 161.238 67.250 M 233.613 87.750 C 233.275 96.412, 232.886 117.977, 232.749 135.671 C 232.457 173.374, 231.741 170.835, 244.606 177.731 C 248.948 180.059, 252.838 181.971, 253.250 181.981 C 253.662 181.992, 254 160.175, 254 133.500 C 254 89.422, 254.148 85, 255.623 85 C 257.435 85, 268.450 77.405, 271.405 74.119 L 273.310 72 253.769 72 L 234.228 72 233.613 87.750 M 287 148.378 C 287 194.860, 287.227 203.943, 288.413 204.927 C 290.523 206.679, 295.954 204.056, 302.114 198.310 L 307.270 193.500 306.767 152.019 C 306.465 127.048, 306.643 109.455, 307.213 107.818 C 307.855 105.976, 310.801 103.420, 316.331 99.905 C 323.286 95.484, 324.203 94.595, 322.500 93.926 C 321.400 93.494, 312.962 93.109, 303.750 93.070 L 287 93 287 148.378 M 439.512 96.181 C 439.248 96.906, 437.037 103.350, 434.597 110.500 C 432.157 117.650, 429.646 124.842, 429.017 126.482 L 427.873 129.464 425.187 124.550 C 423.709 121.847, 422.012 119.480, 421.416 119.290 C 420.363 118.954, 394.553 144.598, 327.700 212.402 L 295.260 245.305 283.380 239.024 C 276.846 235.570, 263.625 228.338, 254 222.953 C 244.375 217.569, 235.375 212.882, 234 212.539 C 231.863 212.005, 229.976 213.316, 221 221.570 C 215.225 226.880, 207.179 234.437, 203.121 238.363 L 195.741 245.500 224.121 246.119 C 245.761 246.591, 254.044 247.135, 259 248.410 C 262.575 249.329, 273.375 253.870, 283 258.500 C 301.941 267.612, 309.626 269.962, 320.554 269.985 C 327.294 269.999, 327.758 270.155, 331 273.500 C 333.448 276.026, 335.260 277, 337.509 277 C 339.664 277, 341.509 277.922, 343.489 279.989 C 345.588 282.179, 347.637 283.148, 351.159 283.615 C 353.802 283.966, 356.378 284.759, 356.883 285.377 C 357.388 285.994, 359.218 290.185, 360.950 294.690 C 365.650 306.913, 368.263 308.766, 388.795 314.434 C 402.575 318.238, 402.847 318.198, 413.907 310.755 C 418.077 307.949, 421.266 308.553, 426.124 313.066 C 430.347 316.990, 430.700 317.119, 436.236 316.753 C 440.345 316.482, 442.616 315.770, 444.239 314.245 C 447.967 310.743, 457.079 307.123, 464.993 306.001 C 474.044 304.717, 476.466 302.765, 478.586 295.046 C 484.776 272.514, 495.607 251.915, 513.835 228 C 523.083 215.869, 525.312 210.555, 525.813 199.455 C 526.295 188.764, 524.627 181.058, 519.465 170.129 C 512.892 156.213, 497.042 143.383, 484.993 142.225 C 480.173 141.762, 480.130 141.726, 479.478 137.629 C 478.546 131.769, 474.912 124.145, 468.911 115.465 C 462.558 106.275, 458.393 102.528, 450.547 98.941 C 442.198 95.123, 440.087 94.595, 439.512 96.181 M 181 167.500 C 181 198.685, 181.232 205, 182.378 205 C 183.135 205, 184.343 204.292, 185.061 203.427 C 185.779 202.562, 188.071 200.984, 190.155 199.921 C 192.239 198.858, 195.577 196.554, 197.572 194.803 L 201.199 191.618 200.479 169.029 L 199.760 146.439 202.485 143.200 C 203.985 141.418, 208.314 137.953, 212.106 135.500 C 215.898 133.047, 219 130.806, 219 130.520 C 219 130.234, 210.450 130, 200 130 L 181 130 181 167.500 M 422.449 338.346 C 422.005 340.117, 422.456 342.001, 423.872 344.293 C 425.013 346.138, 426.442 349.960, 427.048 352.786 C 428.251 358.397, 432.437 363.031, 438.645 365.625 C 443.074 367.475, 444.079 367.376, 447.478 364.750 C 456.418 357.842, 458.735 355.007, 460.458 348.865 C 461.531 345.041, 461.928 341.429, 461.516 339.235 L 460.858 335.724 454.179 336.558 C 445.666 337.621, 431.588 337.628, 426.800 336.571 C 423.359 335.812, 423.054 335.936, 422.449 338.346 M 136.014 400.959 C 128.941 403.400, 123.586 408.935, 122.653 414.768 C 121.874 419.640, 123.298 426.999, 125.741 430.727 C 127.475 433.374, 135.238 437.338, 144.818 440.468 C 151.181 442.547, 153.764 446.237, 150.519 448.610 C 149.473 449.374, 146.680 450, 144.312 450 C 140.824 450, 139.293 449.357, 136.253 446.614 L 132.500 443.229 127.657 445.569 C 118.618 449.938, 118.244 451.046, 123.750 457.154 C 129.013 462.992, 135.863 465.979, 144 465.985 C 153.092 465.991, 157.137 464.606, 162.672 459.595 L 167.474 455.248 167.836 447.272 C 168.192 439.435, 168.140 439.229, 164.849 435.475 C 162.479 432.771, 158.213 430.109, 150.250 426.365 C 144.063 423.456, 139 420.645, 139 420.120 C 139 415.221, 145.854 414.324, 150.891 418.562 C 153.823 421.029, 154.059 421.066, 157.218 419.559 C 159.023 418.698, 161.794 416.958, 163.376 415.691 C 166.223 413.411, 166.235 413.355, 164.590 410.174 C 162.311 405.768, 155.900 401.359, 149.900 400.072 C 143.356 398.669, 142.489 398.724, 136.014 400.959 M 242.802 402.330 C 234.148 405.982, 229.472 410.336, 224.900 419 C 222.887 422.815, 222.524 424.946, 222.513 433 C 222.498 444.190, 224.353 448.853, 231.889 456.565 C 237.936 462.754, 243.621 465.232, 253 465.767 C 263.838 466.386, 270.577 463.710, 278.531 455.628 C 285.596 448.449, 288.005 442.466, 287.990 432.135 C 287.978 424.133, 285.129 417.265, 279.112 410.738 C 270.097 400.957, 254.573 397.362, 242.802 402.330 M 536.372 401.838 C 533.552 402.812, 530.111 404.353, 528.726 405.260 C 525.131 407.616, 519.414 414.866, 517.059 420.057 C 514.570 425.545, 514.308 437.306, 516.510 444.721 C 518.595 451.743, 525.406 459.090, 533.543 463.096 C 539.526 466.041, 540.515 466.224, 548.270 465.817 C 566.626 464.853, 578.208 453.838, 579.711 435.912 L 580.290 429 562.645 429 L 545 429 545 436.500 L 545 444 552.655 444 C 560.169 444, 560.278 444.036, 558.554 445.941 C 554.542 450.374, 541.079 450.256, 536.180 445.744 C 530.992 440.968, 529.430 430.925, 532.798 424 C 536.934 415.495, 551.707 414.287, 560.230 421.757 C 561.803 423.136, 562.371 422.937, 566.481 419.569 C 573.445 413.863, 573.607 413.012, 568.660 408.157 C 560.944 400.584, 547.571 397.967, 536.372 401.838 M 22.113 403.250 C 7.968 441.264, -0 463.415, -0 464.727 C -0 464.920, 3.935 464.948, 8.744 464.789 L 17.487 464.500 18.888 459.250 L 20.289 454 25.395 454.117 C 28.203 454.181, 33.369 454.519, 36.876 454.867 L 43.251 455.500 45.002 460 L 46.753 464.500 54.877 464.790 C 61.597 465.031, 63 464.819, 63 463.565 C 63 462.132, 45.025 412.769, 41.583 404.750 L 39.973 401 31.462 401 C 23.550 401, 22.892 401.158, 22.113 403.250 M 63 425.040 C 63 452.381, 63.299 453.676, 71.162 460.407 C 76.461 464.942, 81.649 466.383, 90.152 465.682 C 101.676 464.731, 110.097 458.906, 112.824 450 C 114.232 445.399, 114.383 442.028, 114.175 419.750 L 114 401 106.068 401 L 98.135 401 97.818 423.958 C 97.519 445.547, 97.381 447.007, 95.500 448.427 C 92.933 450.364, 86.706 450.416, 83.059 448.530 C 78.656 446.254, 78 442.663, 78 420.851 L 78 401 70.500 401 L 63 401 63 425.040 M 176 433 L 176 465 184 465 L 192 465 192 453 L 192 441 204 441 L 216 441 216 433.500 L 216 426 204 426 L 192 426 192 421 L 192 416 204.500 416 L 217 416 217 408.500 L 217 401 196.500 401 L 176 401 176 433 M 295 432.917 L 295 465 302.500 465 L 310 465 310 454.500 L 310 444 312.918 444 C 317.973 444, 318.989 445.015, 324.064 455.128 L 329.018 465 338.009 465 C 343.995 465, 347 464.624, 347 463.877 C 347 463.259, 344.973 459.415, 342.496 455.334 C 340.018 451.253, 337.307 446.278, 336.472 444.279 C 334.982 440.712, 335.009 440.586, 337.915 437.572 C 341.908 433.431, 343.003 430.107, 342.984 422.185 C 342.963 413.987, 340.453 408.969, 334.158 404.542 L 329.834 401.500 312.417 401.167 L 295 400.835 295 432.917 M 352 433 L 352 465 359.500 465 L 367 465 367.106 457.250 C 367.164 452.988, 367.502 445.450, 367.856 440.500 L 368.500 431.500 373.906 441 C 380.442 452.485, 381.677 454, 384.500 454 C 387.318 454, 388.619 452.401, 394.585 441.608 L 399.500 432.715 400.144 441.608 C 400.498 446.498, 400.836 453.762, 400.894 457.750 L 401 465 409 465 L 417 465 417 433 L 417 401 409.155 401 C 399.994 401, 400.425 400.671, 393.447 413 C 390.801 417.675, 387.415 422.925, 385.922 424.666 L 383.209 427.832 378.035 417.166 C 375.189 411.300, 371.682 405.262, 370.243 403.750 C 367.824 401.208, 367.035 401, 359.813 401 L 352 401 352 433 M 428 433 L 428 465 436 465 L 444 465 444 433 L 444 401 436 401 L 428 401 428 433 M 456 433 L 456 465 463.372 465 L 470.744 465 471.474 447.936 L 472.203 430.872 477.889 439.686 C 481.016 444.534, 485.325 451.650, 487.464 455.500 C 489.603 459.350, 492.062 463.048, 492.927 463.718 C 493.796 464.391, 497.521 464.951, 501.250 464.968 L 508 465 508 433 L 508 401 500.143 401 L 492.285 401 491.393 415.680 L 490.500 430.359 486.828 424.812 C 484.808 421.761, 481.341 415.657, 479.124 411.247 C 474.489 402.027, 472.807 401, 462.351 401 L 456 401 456 433 M 310 422.500 L 310 430 317.427 430 C 324.260 430, 325.021 429.789, 326.927 427.365 C 329.551 424.030, 329.582 419.582, 327 417 C 325.356 415.356, 323.667 415, 317.500 415 L 310 415 310 422.500 M 246.457 417.863 C 244.784 418.883, 242.196 421.166, 240.707 422.936 C 238.424 425.650, 238 427.091, 238 432.142 C 238 439.006, 238.838 441.037, 243.821 446.250 C 247.336 449.927, 247.551 450, 254.859 450 C 261.221 450, 262.780 449.643, 265.515 447.556 C 269.911 444.203, 272 439.325, 272 432.411 C 272 425.883, 269.870 421.820, 264.528 418.160 C 260.376 415.314, 250.892 415.159, 246.457 417.863 M 30.718 424.663 C 29.925 425.972, 27 436.212, 27 437.682 C 27 438.597, 28.528 439, 32 439 C 37.806 439, 38.069 438.319, 35.191 430.742 C 33.255 425.643, 31.538 423.310, 30.718 424.663 M 193.529 504.740 C 193.151 506.247, 192.315 507.856, 191.671 508.316 C 190.787 508.947, 190.807 509.277, 191.750 509.659 C 193.243 510.265, 193.476 519, 192 519 C 191.450 519, 191 519.450, 191 520 C 191 520.550, 192.575 521, 194.500 521 C 196.425 521, 198 520.550, 198 520 C 198 519.450, 197.550 519, 197 519 C 196.450 519, 196 516.975, 196 514.500 C 196 511.167, 196.389 510, 197.500 510 C 198.325 510, 199 509.550, 199 509 C 199 508.450, 198.325 508, 197.500 508 C 195.757 508, 195.479 505.440, 197.112 504.431 C 197.723 504.053, 198.599 504.351, 199.057 505.093 C 200.132 506.831, 201.432 505.569, 200.655 503.543 C 200.308 502.639, 198.852 502, 197.140 502 C 194.788 502, 194.083 502.535, 193.529 504.740 M 407.749 504.750 C 407.084 506.262, 406.082 507.872, 405.520 508.326 C 404.846 508.872, 404.924 509.324, 405.750 509.659 C 407.243 510.265, 407.476 519, 406 519 C 405.450 519, 405 519.450, 405 520 C 405 520.550, 406.575 521, 408.500 521 C 410.425 521, 412 520.550, 412 520 C 412 519.450, 411.550 519, 411 519 C 410.450 519, 410 516.975, 410 514.500 C 410 511.167, 410.389 510, 411.500 510 C 412.325 510, 413 509.550, 413 509 C 413 508.450, 412.325 508, 411.500 508 C 410.667 508, 410 507.111, 410 506 C 410 503.817, 412.559 503.232, 413.280 505.250 C 413.525 505.938, 414.023 506.227, 414.387 505.893 C 415.745 504.645, 413.697 502, 411.372 502 C 409.697 502, 408.587 502.843, 407.749 504.750 M 433 503.500 C 433 504.325, 433.450 505, 434 505 C 434.571 505, 435 508, 435 512 C 435 516, 434.571 519, 434 519 C 433.450 519, 433 519.450, 433 520 C 433 520.550, 434.414 521, 436.142 521 L 439.285 521 438.642 514.853 C 438.289 511.473, 438 507.198, 438 505.353 C 438 502.443, 437.670 502, 435.500 502 C 433.944 502, 433 502.567, 433 503.500 M 441 503.500 C 441 504.325, 441.450 505, 442 505 C 442.571 505, 443 508, 443 512 C 443 516, 442.571 519, 442 519 C 441.450 519, 441 519.450, 441 520 C 441 520.550, 442.350 521, 444 521 C 445.650 521, 447 520.550, 447 520 C 447 519.450, 446.550 519, 446 519 C 445.412 519, 445 515.500, 445 510.500 C 445 502.667, 444.843 502, 443 502 C 441.889 502, 441 502.667, 441 503.500 M 117.607 504.582 C 116.743 506.832, 116.855 508, 117.933 508 C 118.446 508, 119.151 507.100, 119.500 506 C 119.849 504.900, 121.004 504, 122.067 504 C 123.806 504, 124 504.754, 124 511.500 C 124 515.833, 123.578 519, 123 519 C 122.450 519, 122 519.450, 122 520 C 122 520.550, 123.575 521, 125.500 521 C 127.425 521, 129 520.550, 129 520 C 129 519.450, 128.550 519, 128 519 C 127.422 519, 127 515.833, 127 511.500 C 127 504.667, 127.178 504, 129 504 C 130.333 504, 131 504.667, 131 506 C 131 507.100, 131.482 508, 132.071 508 C 134.889 508, 136.183 511.031, 135.497 516.020 L 134.812 521 137.906 521 C 139.608 521, 141 520.550, 141 520 C 141 519.450, 140.500 519, 139.889 519 C 139.149 519, 139.008 517.747, 139.467 515.250 C 140.228 511.104, 141.958 508.703, 142.708 510.750 C 143.431 512.721, 145 512.207, 145 510 C 145 508.247, 144.333 508, 139.608 508 C 134.691 508, 134.162 507.780, 133.589 505.500 C 132.991 503.116, 132.620 503, 125.588 503 C 119.786 503, 118.085 503.337, 117.607 504.582 M 284.500 507.875 C 281.553 508.502, 281.495 508.636, 281.199 515.486 C 280.736 526.226, 281.119 527, 286.897 527 C 295.758 527, 296.465 521.659, 287.907 519.373 C 285.409 518.706, 284.455 518.154, 285.703 518.098 C 286.915 518.044, 289.090 517.460, 290.537 516.801 C 292.671 515.829, 293.090 515.064, 292.751 512.757 C 292.521 511.192, 292.708 509.680, 293.167 509.397 C 296.485 507.346, 291.281 506.432, 284.500 507.875 M 304.750 507.810 C 302.688 507.981, 301 508.544, 301 509.060 C 301 509.577, 301.497 510, 302.104 510 C 302.877 510, 302.995 512.403, 302.500 518 L 301.792 526 304.896 526 C 306.603 526, 308 525.550, 308 525 C 308 524.450, 307.550 524, 307 524 C 306.450 524, 306 523.325, 306 522.500 C 306 521.436, 307.090 520.996, 309.750 520.985 C 314.714 520.964, 315.959 520.030, 316.644 515.806 C 317.733 509.098, 314.604 506.995, 304.750 507.810 M 343.893 507.742 L 335.286 508.074 336.229 513.258 C 336.886 516.877, 336.843 518.552, 336.086 518.805 C 333.848 519.551, 335.111 521, 338 521 C 340.889 521, 342.152 519.551, 339.913 518.804 C 338.387 518.296, 339.829 511.280, 341.598 510.601 C 342.369 510.305, 343 510.488, 343 511.007 C 343 511.586, 344.005 511.568, 345.605 510.960 L 348.211 509.969 347.501 517.985 L 346.792 526 349.896 526 C 351.603 526, 353 525.550, 353 525 C 353 524.450, 352.564 524, 352.031 524 C 351.499 524, 351.322 523.325, 351.638 522.500 C 352.012 521.525, 353.565 521, 356.072 521 C 358.862 521, 360.216 520.465, 360.965 519.066 C 362.169 516.816, 362.305 512.028, 361.214 510.313 C 360.338 508.934, 355.419 506.905, 353.685 507.206 C 353.033 507.319, 348.627 507.560, 343.893 507.742 M 368 507.689 C 363.086 509.564, 361.034 517.123, 364.629 520.107 C 367.008 522.082, 374.050 521.651, 375.673 519.433 C 377.347 517.143, 377.389 511.892, 375.750 509.746 C 374.344 507.905, 370.268 506.823, 368 507.689 M 147.667 508.667 C 145.961 510.372, 147.323 511.121, 151 510.500 C 154.605 509.891, 155 510.030, 155 511.912 C 155 513.519, 154.367 514.004, 152.250 514.015 C 148.385 514.037, 146.770 515.337, 147.163 518.113 C 147.472 520.300, 148.024 520.525, 153.750 520.798 C 157.629 520.983, 160 520.698, 160 520.048 C 160 519.471, 159.550 519, 159 519 C 158.450 519, 158 517.065, 158 514.700 C 158 512.335, 157.460 509.860, 156.800 509.200 C 155.530 507.930, 148.796 507.537, 147.667 508.667 M 161 508.954 C 161 509.529, 161.502 510, 162.115 510 C 162.884 510, 163.017 511.710, 162.543 515.500 L 161.856 521 164.928 521 C 166.618 521, 168 520.550, 168 520 C 168 519.450, 167.550 519, 167 519 C 165.856 519, 165.606 511.007, 166.750 510.986 C 167.162 510.979, 168.512 510.701, 169.750 510.370 C 171.888 509.797, 172 510.047, 172 515.383 C 172 520.708, 172.130 521, 174.500 521 C 175.875 521, 177 520.550, 177 520 C 177 519.450, 176.574 519, 176.052 519 C 175.531 519, 174.969 516.638, 174.802 513.750 L 174.500 508.500 167.750 508.204 C 163.532 508.020, 161 508.301, 161 508.954 M 179.151 509.318 C 177.667 511.106, 180.125 514.564, 183.477 515.405 C 186.295 516.112, 186.849 518.460, 184.418 519.393 C 181.916 520.353, 181 520.114, 181 518.500 C 181 517.675, 180.292 517, 179.427 517 C 178.468 517, 177.983 517.684, 178.186 518.750 C 178.602 520.941, 187.835 521.886, 189.083 519.865 C 190.176 518.096, 188.460 515.333, 185.316 513.801 C 183.848 513.085, 182.464 511.938, 182.241 511.250 C 181.722 509.658, 185.207 509.607, 186.783 511.183 C 188.257 512.657, 189.449 511.613, 188.655 509.543 C 187.910 507.602, 180.716 507.432, 179.151 509.318 M 203.893 509.629 C 202.163 511.714, 202.323 518.957, 204.125 520.098 C 206.159 521.387, 213.416 521.184, 214.800 519.800 C 215.460 519.140, 216 516.755, 216 514.500 C 216 512.245, 215.460 509.860, 214.800 509.200 C 212.998 507.398, 205.500 507.693, 203.893 509.629 M 218.379 509.750 C 219.810 514.620, 220.156 519, 219.111 519 C 218.500 519, 218 519.450, 218 520 C 218 520.550, 219.350 521, 221 521 C 223.889 521, 225.152 519.551, 222.913 518.804 C 221.387 518.296, 222.829 511.280, 224.598 510.601 C 225.369 510.305, 226 510.499, 226 511.031 C 226 511.564, 226.450 512, 227 512 C 227.550 512, 228 511.100, 228 510 C 228 508.263, 227.333 508, 222.933 508 C 218.577 508, 217.937 508.246, 218.379 509.750 M 230 508.966 C 230 509.535, 230.450 510, 231 510 C 231.550 510, 232 512.025, 232 514.500 C 232 516.975, 231.550 519, 231 519 C 230.450 519, 230 519.450, 230 520 C 230 520.550, 231.575 521, 233.500 521 C 235.425 521, 237 520.550, 237 520 C 237 519.450, 236.500 519, 235.889 519 C 234.450 519, 235.722 511.799, 237.342 510.768 C 239.594 509.335, 240 510.058, 240 515.500 C 240 520.944, 240.030 521, 243 521 C 244.650 521, 246 520.550, 246 520 C 246 519.450, 245.325 519, 244.500 519 C 243.417 519, 243 517.889, 243 515 C 243 512.800, 243.338 510.994, 243.750 510.986 C 244.162 510.979, 245.512 510.701, 246.750 510.370 C 248.888 509.797, 249 510.047, 249 515.383 C 249 520.708, 249.130 521, 251.500 521 C 252.875 521, 254 520.550, 254 520 C 254 519.450, 253.574 519, 253.052 519 C 252.531 519, 251.969 516.638, 251.802 513.750 L 251.500 508.500 240.750 508.216 C 233.832 508.034, 230 508.301, 230 508.966 M 256.379 509.750 C 257.810 514.620, 258.156 519, 257.111 519 C 256.500 519, 256 519.450, 256 520 C 256 520.550, 257.350 521, 259 521 C 260.650 521, 262 520.550, 262 520 C 262 519.450, 261.550 519, 261 519 C 260.450 519, 260 516.525, 260 513.500 C 260 508.607, 259.772 508, 257.933 508 C 256.435 508, 256.007 508.482, 256.379 509.750 M 263.032 508.704 C 263.049 509.142, 263.724 510.374, 264.532 511.441 C 266.192 513.636, 266.524 519, 265 519 C 264.450 519, 264 519.450, 264 520 C 264 520.550, 265.350 521, 267 521 C 268.650 521, 270 520.550, 270 520 C 270 519.450, 269.550 519, 269 519 C 267.856 519, 267.606 511.007, 268.750 510.986 C 269.163 510.979, 270.512 510.701, 271.750 510.370 C 273.888 509.797, 274 510.047, 274 515.383 C 274 520.708, 274.130 521, 276.500 521 C 277.875 521, 279 520.550, 279 520 C 279 519.450, 278.574 519, 278.052 519 C 277.531 519, 276.969 516.638, 276.802 513.750 L 276.500 508.500 269.750 508.204 C 266.038 508.042, 263.014 508.267, 263.032 508.704 M 317 509 C 317 509.550, 317.675 510, 318.500 510 C 319.628 510, 320 511.209, 320 514.878 C 320 521.059, 321.507 522.428, 327.557 521.746 C 332.244 521.218, 334.442 520.063, 332.250 519.280 C 331.459 518.997, 331 516.845, 331 513.417 C 331 508.306, 330.859 508, 328.500 508 C 325.975 508, 325.158 509.361, 327 510.500 C 327.550 510.840, 328 512.666, 328 514.559 C 328 517.527, 327.669 518, 325.594 518 C 323.465 518, 323.108 517.424, 322.500 513 C 321.892 508.576, 321.535 508, 319.406 508 C 318.083 508, 317 508.450, 317 509 M 379.011 509.487 C 377.196 511.673, 378.402 513.654, 382.435 515.113 C 386.735 516.668, 387.462 520, 383.500 520 C 381.944 520, 381 519.433, 381 518.500 C 381 517.675, 380.325 517, 379.500 517 C 377.821 517, 377.626 517.863, 378.864 519.815 C 379.909 521.462, 388.173 521.021, 388.743 519.288 C 388.962 518.621, 387.535 516.468, 385.571 514.504 C 383.607 512.540, 382 510.723, 382 510.467 C 382 509.501, 385.648 510.048, 386.783 511.183 C 388.257 512.657, 389.449 511.613, 388.655 509.543 C 387.871 507.501, 380.693 507.460, 379.011 509.487 M 392.192 508.834 C 391.312 509.410, 390.985 511.456, 391.192 515.095 L 391.500 520.500 396.917 520.500 C 403.466 520.500, 404.891 518.517, 398.917 517.716 C 392.322 516.831, 391.611 515, 397.863 515 L 403.127 515 402.813 511.750 C 402.515 508.657, 402.283 508.487, 398 508.239 C 395.525 508.096, 392.912 508.364, 392.192 508.834 M 416 509 C 416 509.550, 416.450 510, 417 510 C 417.550 510, 418 512.234, 418 514.965 C 418 518.675, 418.442 520.163, 419.750 520.853 C 421.824 521.947, 432 521.133, 432 519.873 C 432 519.393, 431.550 519, 431 519 C 430.450 519, 430 516.525, 430 513.500 C 430 508.300, 429.864 508, 427.500 508 C 426.125 508, 425 508.450, 425 509 C 425 509.550, 425.500 510, 426.111 510 C 427.550 510, 426.278 517.201, 424.658 518.232 C 421.832 520.031, 421 518.955, 421 513.500 C 421 508.300, 420.864 508, 418.500 508 C 417.125 508, 416 508.450, 416 509 M 448 508.941 C 448 509.459, 448.497 510.189, 449.104 510.564 C 450.329 511.321, 453.944 518.825, 453.978 520.683 C 453.990 521.333, 453.100 522.151, 452 522.500 C 449.368 523.335, 449.458 524.625, 452.198 525.342 C 455.279 526.147, 456.621 524.710, 461.098 515.806 L 465.022 508 462.091 508 C 459.649 508, 459.049 508.499, 458.503 510.989 C 457.547 515.338, 456.199 515.576, 455.439 511.528 C 454.837 508.315, 454.475 508, 451.389 508 C 449.525 508, 448 508.423, 448 508.941 M 394.500 511 C 392.717 512.970, 392.753 513, 396.880 513 C 400.760 513, 400.991 512.852, 400 511 C 399.411 509.900, 398.340 509, 397.620 509 C 396.899 509, 395.495 509.900, 394.500 511 M 208.750 511.198 C 205.190 512.452, 204.842 517.310, 208.183 519.098 C 210.042 520.093, 210.636 519.933, 212.183 518.022 C 214.323 515.380, 214.453 513.953, 212.750 511.806 C 211.776 510.578, 210.893 510.444, 208.750 511.198 M 284.667 510.667 C 284.300 511.033, 284 512.158, 284 513.167 C 284 514.551, 284.761 515, 287.107 515 C 289.529 515, 290.080 514.651, 289.607 513.418 C 289.273 512.548, 289 511.423, 289 510.918 C 289 509.863, 285.664 509.669, 284.667 510.667 M 308.225 511.095 C 306.343 511.806, 306.067 512.432, 306.629 514.727 C 308.230 521.266, 313.909 520.153, 313.986 513.285 C 314.008 511.375, 310.757 510.139, 308.225 511.095 M 366.667 510.667 C 365.562 511.772, 365.917 516.517, 367.200 517.800 C 369.354 519.954, 372.721 519.240, 373.241 516.519 C 374.051 512.284, 369.288 508.045, 366.667 510.667 M 351.667 511.667 C 350.511 512.823, 350.944 517.708, 352.302 518.836 C 353.018 519.430, 354.593 519.658, 355.802 519.342 C 357.590 518.874, 358 518.042, 358 514.883 C 358 511.286, 357.791 511, 355.167 511 C 353.608 511, 352.033 511.300, 351.667 511.667 M 283.638 523.500 C 283.966 524.355, 285.458 525, 287.107 525 C 289.012 525, 290 524.488, 290 523.500 C 290 522.455, 288.948 522, 286.531 522 C 283.859 522, 283.195 522.344, 283.638 523.500" stroke="none" fill="#1545a4" fill-rule="evenodd"/></svg>