<?xml version="1.0" encoding="UTF-8"?>
<svg width="135px" height="43px" viewBox="0 0 135 43" version="1.1" xmlns="http://www.w3.org/2000/svg" xmlns:xlink="http://www.w3.org/1999/xlink">
    <title>2360E434-8F49-4A90-A3E2-63D2EF70E40E</title>
    <g id="Final-pages" stroke="none" stroke-width="1" fill="none" fill-rule="evenodd">
        <g id="Home" transform="translate(-42.000000, -21.000000)" fill-rule="nonzero">
            <g id="Datapel-Systems-Logo_Standard_CMYK" transform="translate(42.000000, 21.000000)">
                <path d="M60.2400404,11.5713163 L63.3668828,11.5713163 L63.3668828,27.3797764 L59.9330414,27.3797764 L59.9330414,25.5022736 C58.7704245,26.784194 57.2013181,27.7229454 55.1631854,27.7229454 C50.7713931,27.7229454 47.4455698,24.319617 47.4455698,19.4982352 C47.4455698,14.6768534 50.7401247,11.2877056 55.1233892,11.2877056 C57.1302535,11.2877056 58.7306283,12.226457 59.9245136,13.5736078 L60.2400404,11.5713163 Z M60.0836983,19.492563 C60.0836983,16.5174868 58.1365283,14.4839982 55.438916,14.4839982 C52.7413038,14.4839982 50.8907816,16.5174868 50.8907816,19.492563 C50.8907816,22.4676392 52.7725722,24.529489 55.4701845,24.529489 C58.1677967,24.529489 60.0893835,22.436442 60.0893835,19.4953991 L60.0836983,19.492563 Z" id="Shape" fill="#2A3C98"></path>
                <path d="M75.146551,27.4762041 C68.0884149,28.2277724 67.5852775,25.3462878 67.5852775,20.5901364 L67.5852775,14.7676089 L66.0502822,14.7676089 L66.0502822,11.5713163 L67.5852775,11.5713163 L67.5852775,7.48732233 L71.0418597,4.01025522 L71.0418597,11.5713163 L74.1687021,11.5713163 L74.1687021,14.7647727 L71.0418597,14.7647727 L71.0418597,20.5901364 C71.0418597,24.0955646 71.2948497,24.8783301 74.1175356,24.5323251 L75.146551,27.4762041 Z" id="Path" fill="#2A3C98"></path>
                <path d="M88.8876021,11.5713163 L92.0144445,11.5713163 L92.0144445,27.3797764 L88.5749179,27.3797764 L88.5749179,25.5022736 C87.412301,26.784194 85.8460372,27.7229454 83.8050619,27.7229454 C79.4132696,27.7229454 76.0874463,24.319617 76.0874463,19.4982352 C76.0874463,14.6768534 79.3820012,11.296214 83.7624231,11.296214 C85.7692875,11.296214 87.3696623,12.2349654 88.5635475,13.5821162 L88.8876021,11.5713163 Z M88.73126,19.492563 C88.73126,16.5174868 86.7869325,14.4839982 84.0893203,14.4839982 C81.3917081,14.4839982 79.5411859,16.5174868 79.5411859,19.492563 C79.5411859,22.4676392 81.4201339,24.5323251 84.1177461,24.5323251 C86.8153584,24.5323251 88.73126,22.436442 88.73126,19.4953991 L88.73126,19.492563 Z" id="Shape" fill="#2A3C98"></path>
                <path d="M111.122294,19.4953991 C111.122294,24.3167809 107.796471,27.7201093 103.404679,27.7201093 C101.597665,27.7476972 99.8638788,27.008548 98.6348227,25.6866206 L98.6348227,35.9930332 L95.1526573,39.248884 L95.1526573,11.7301383 L98.6433505,11.7301383 L98.6433505,13.2729805 C99.8724065,11.951053 101.606193,11.2119038 103.413206,11.2394918 C107.804999,11.2309835 111.122294,14.6428201 111.122294,19.4953991 Z M107.671397,19.4953991 C107.671397,16.5203229 105.789607,14.4244399 103.091994,14.4244399 C100.394382,14.4244399 98.4784806,16.5203229 98.4784806,19.4953991 C98.4784806,22.4704753 100.39154,24.5323251 103.091994,24.5323251 C105.792449,24.5323251 107.679925,22.436442 107.679925,19.4953991 L107.671397,19.4953991 Z" id="Shape" fill="#2A3C98"></path>
                <path d="M28.9062368,19.6315323 C28.9062368,14.8101505 32.2320601,11.4068221 36.6238524,11.4068221 C38.431659,11.3781605 40.1662188,12.1186707 41.3937084,13.4431469 L41.3937084,3.40900055 L44.8900868,0.153149775 L44.8900868,27.393957 L41.3937084,27.393957 L41.3937084,25.8596231 C40.1662188,27.1840994 38.431659,27.9246095 36.6238524,27.8959479 C32.2320601,27.8959479 28.9062368,24.4841112 28.9062368,19.6315323 Z M32.3571338,19.6315323 C32.3571338,22.6037723 34.2389245,24.7024915 36.9393793,24.7024915 C39.6398341,24.7024915 41.5500505,22.6037723 41.5500505,19.6315323 C41.5500505,16.6592922 39.6369915,14.5917702 36.9393793,14.5917702 C34.241767,14.5917702 32.3571338,16.6763088 32.3571338,19.6315323 L32.3571338,19.6315323 Z" id="Shape" fill="#2A3C98"></path>
                <path d="M128.666723,20.7773195 L116.776194,20.7773195 C117.201024,22.9777339 119.143883,24.5590548 121.389708,24.5323251 C123.302767,24.5663583 124.840605,23.9083815 125.812768,22.5924279 L128.447844,24.0643674 C127.003811,26.4438611 124.590457,27.7513064 121.389708,27.7257815 C116.65112,27.6945843 113.325297,24.2515505 113.325297,19.5010713 C113.325297,14.6484924 116.494778,11.1742614 121.170829,11.2366557 C125.562621,11.2877056 129.201129,14.2656179 128.666723,20.7773195 Z M116.872842,17.8107516 L125.531353,17.8107516 C124.93441,15.7120325 123.177693,14.3676999 121.170829,14.3676999 C119.00478,14.3620456 117.404405,15.7063603 116.872842,17.8107516 Z" id="Shape" fill="#2A3C98"></path>
                <polygon id="Path" fill="#2A3C98" points="131.554788 27.3826125 131.554788 6.46632383 135 2.97791229 135 27.3826125"></polygon>
                <path d="M36.3936031,34.0134306 C36.3690478,33.7106095 36.2052938,33.4362135 35.95016,33.2703706 C35.6565255,33.0853928 35.3136421,32.9934405 34.966626,33.0066126 C34.7147225,33.0011158 34.4643027,33.0464552 34.2303967,33.1399096 C34.0404536,33.2156049 33.8744921,33.3410172 33.75,33.5029313 C33.6373423,33.6544379 33.5783464,33.8390037 33.5822875,34.0276111 C33.5781885,34.1765066 33.617703,34.3233625 33.6959909,34.450191 C33.7761982,34.5698882 33.8808081,34.6713606 34.00299,34.7479823 C34.1324366,34.8276487 34.2695673,34.8941576 34.4123221,34.9465098 C34.5511221,34.9965553 34.6925057,35.0391578 34.8358671,35.0741346 L35.5095595,35.2499732 C35.7396943,35.307652 35.9657094,35.3806079 36.1860945,35.4683534 C36.4155936,35.5600488 36.6316755,35.6821526 36.8285185,35.8313751 C37.0274194,35.984044 37.1912279,36.1774585 37.3089152,36.3985965 C37.4386934,36.6437778 37.5023646,36.9184063 37.4936831,37.1955426 C37.5008462,37.563998 37.3957795,37.9259491 37.1923692,38.2335577 C36.9750211,38.5499691 36.6725175,38.7986955 36.3196959,38.9510928 C35.8835645,39.1368405 35.4122021,39.2258663 34.9382001,39.2120146 C34.4790332,39.2221221 34.022587,39.1391456 33.5965005,38.9681094 C33.2430198,38.8212565 32.9370817,38.5798119 32.7124568,38.2704271 C32.4935935,37.9533243 32.3702949,37.5803345 32.3571338,37.1955426 L33.4032048,37.1955426 C33.4137444,37.4238249 33.4996995,37.6422117 33.647667,37.81665 C33.7948754,37.9848836 33.9841902,38.1111321 34.1962857,38.1825078 C34.433044,38.2640001 34.6820779,38.304292 34.9325149,38.3016243 C35.2015169,38.3065265 35.4689188,38.2593322 35.7199107,38.162655 C35.9323886,38.082383 36.1197328,37.9473327 36.2628443,37.7712723 C36.3957297,37.6047036 36.4661118,37.3970479 36.4618251,37.1841981 C36.469182,37.0019503 36.4072469,36.8236593 36.2884275,36.6850433 C36.1580705,36.5438798 35.997854,36.433437 35.8194012,36.3617271 C35.6041201,36.2692116 35.3816683,36.1942814 35.1542365,36.1376747 L34.3384149,35.9136222 C33.8548147,35.7990424 33.4049667,35.5726879 33.0251411,35.2528093 C32.7015687,34.9566127 32.5248584,34.5334741 32.5419018,34.0956777 C32.5332487,33.7236271 32.6470791,33.3590044 32.8659564,33.0576625 C33.0910679,32.7535566 33.3932503,32.5147108 33.7414722,32.3656524 C34.1352259,32.1961495 34.5605809,32.1120458 34.9893666,32.1189111 C35.4151989,32.1110572 35.8377846,32.1942213 36.2287333,32.3628163 C36.5674976,32.5091475 36.8616315,32.741962 37.0815085,33.0378098 C37.2894088,33.3242815 37.4026767,33.6682673 37.405563,34.0219389 L36.3936031,34.0134306 Z" id="Path" fill="#E67425"></path>
                <polygon id="Path" fill="#E67425" points="40.2936284 32.2039943 41.4789859 32.2039943 43.2811842 35.323712 43.3550914 35.323712 45.1601322 32.2039943 46.3426472 32.2039943 43.8383307 36.3872521 43.8383307 39.0815537 42.8007875 39.0815537 42.8007875 36.3872521"></polygon>
                <path d="M53.1762192,34.0134306 C53.149342,33.7106306 52.9848849,33.4368115 52.7299335,33.2703706 C52.4366638,33.0845633 52.0935167,32.9925402 51.7463994,33.0066126 C51.4953991,33.00087 51.245859,33.0462253 51.0130127,33.1399096 C50.822501,33.2145971 50.6562898,33.340198 50.532616,33.5029313 C50.4189451,33.6540759 50.3589387,33.838674 50.362061,34.0276111 C50.3576181,34.1769373 50.39822,34.3241541 50.4786069,34.450191 C50.557262,34.5711689 50.6621848,34.6729447 50.785606,34.7479823 C50.9144409,34.8287537 51.0516903,34.8953201 51.1949381,34.9465098 C51.3326512,34.9969228 51.4731092,35.0395323 51.6156405,35.0741346 L52.2893329,35.2499732 C52.5194678,35.307652 52.7454828,35.3806079 52.9658679,35.4683534 C53.195907,35.5607606 53.4128374,35.6828039 53.6111345,35.8313751 C53.8084642,35.9849044 53.971179,36.1781712 54.0886886,36.3985965 C54.2184668,36.6437778 54.2821381,36.9184063 54.2734566,37.1955426 C54.284262,37.5615554 54.1842073,37.9223152 53.9863556,38.2307216 C53.7690074,38.547133 53.4665039,38.7958594 53.1136823,38.9482567 C52.6784796,39.133774 52.2080926,39.2227988 51.7350291,39.2091785 C51.2758245,39.2197617 50.819283,39.1367678 50.3933294,38.9652733 C50.0385822,38.8192558 49.7315166,38.5776981 49.5064432,38.267591 C49.2875799,37.9504882 49.1642812,37.5774984 49.1511202,37.1927065 L50.1971911,37.1927065 C50.2089787,37.4207215 50.2947826,37.6387243 50.4416533,37.8138139 C50.5888617,37.9820475 50.7781765,38.108296 50.990272,38.1796717 C51.2270303,38.261164 51.4760643,38.3014559 51.7265013,38.2987882 C51.9955259,38.3039797 52.2629833,38.2567756 52.5138971,38.1598189 C52.726375,38.0795468 52.9137192,37.9444966 53.0568306,37.7684362 C53.1897161,37.6018675 53.2600982,37.3942117 53.2558115,37.181362 C53.2631684,36.9991142 53.2012332,36.8208231 53.0824139,36.6822072 C52.9531275,36.5411002 52.7938447,36.4306315 52.6162301,36.358891 C52.3998034,36.2668213 52.1764434,36.1919054 51.9482229,36.1348386 L51.1324012,35.9107861 C50.6493996,35.7969007 50.2003207,35.570443 49.82197,35.2499732 C49.4974194,34.9544621 49.3205106,34.5308484 49.3387307,34.0928416 C49.3292531,33.7211146 49.4420755,33.3565222 49.6599427,33.0548264 C49.8854359,32.749938 50.1887583,32.510967 50.5383012,32.3628163 C51.3339866,32.0356826 52.2270342,32.0356826 53.0227196,32.3628163 C53.361484,32.5091475 53.6556179,32.741962 53.8754948,33.0378098 C54.0833952,33.3242815 54.196663,33.6682673 54.1995494,34.0219389 L53.1762192,34.0134306 Z" id="Path" fill="#E67425"></path>
                <polygon id="Path" fill="#E67425" points="57.263855 33.097368 57.263855 32.2039943 62.6050703 32.2039943 62.6050703 33.097368 60.4532342 33.097368 60.4532342 39.0815537 59.4156911 39.0815537 59.4156911 33.097368"></polygon>
                <polygon id="Path" fill="#E67425" points="65.8711994 39.0815537 65.8711994 32.2039943 70.1890845 32.2039943 70.1890845 33.097368 66.9115851 33.097368 66.9115851 35.1960872 69.9730481 35.1960872 69.9730481 36.0866247 66.9115851 36.0866247 66.9115851 38.1966883 70.2374084 38.1966883 70.2374084 39.0815537"></polygon>
                <polygon id="Path" fill="#E67425" points="73.6797776 32.2039943 74.9447275 32.2039943 77.142045 37.5557281 77.2216373 37.5557281 79.4189548 32.2039943 80.6839047 32.2039943 80.6839047 39.0815537 79.6918428 39.0815537 79.6918428 34.1070221 79.629306 34.1070221 77.5940158 39.0815537 76.7725091 39.0815537 74.7372189 34.104186 74.6746821 34.104186 74.6746821 39.0815537 73.6826202 39.0815537"></polygon>
                <path d="M88.0518824,34.0134306 C88.0273271,33.7106095 87.8635731,33.4362135 87.6084393,33.2703706 C87.3148048,33.0853928 86.9719214,32.9934405 86.6249052,33.0066126 C86.3730018,33.0011158 86.122582,33.0464552 85.888676,33.1399096 C85.6987329,33.2156049 85.5327713,33.3410172 85.4082793,33.5029313 C85.2946084,33.6540759 85.234602,33.838674 85.2377242,34.0276111 C85.2346418,34.1767713 85.2751373,34.3236023 85.3542702,34.450191 C85.4337279,34.5705089 85.5384866,34.6721256 85.6612693,34.7479823 C85.7907159,34.8276487 85.9278466,34.8941576 86.0706014,34.9465098 C86.2085751,34.9961433 86.3489908,35.03874 86.4913038,35.0741346 L87.1649962,35.2499732 C87.3960662,35.3076283 87.6230283,35.3805834 87.8443738,35.4683534 C88.0738729,35.5600488 88.2899548,35.6821526 88.4867978,35.8313751 C88.6856987,35.984044 88.8495072,36.1774585 88.9671945,36.3985965 C89.0956448,36.6442694 89.1592346,36.9185463 89.1519624,37.1955426 C89.1577105,37.5638102 89.0527622,37.9253533 88.8506485,38.2335577 C88.6333004,38.5499691 88.3307968,38.7986955 87.9779752,38.9510928 C87.5418438,39.1368405 87.0704814,39.2258663 86.5964794,39.2120146 C86.1372937,39.2223593 85.6808,39.1393742 85.2547798,38.9681094 C84.9004865,38.8213191 84.5936143,38.5799135 84.3678935,38.2704271 C84.1498945,37.953085 84.0275759,37.5800761 84.0154131,37.1955426 L85.0586415,37.1955426 C85.0716327,37.4232964 85.1572931,37.6409347 85.3031037,37.81665 C85.451899,37.9843847 85.6419779,38.1104894 85.854565,38.1825078 C86.0912677,38.2642203 86.3403402,38.3045184 86.5907942,38.3016243 C86.8597962,38.3065265 87.1271981,38.2593322 87.37819,38.162655 C87.5902202,38.0815551 87.777365,37.9466487 87.9211236,37.7712723 C88.054009,37.6047036 88.1243911,37.3970479 88.1201044,37.1841981 C88.1274613,37.0019503 88.0655261,36.8236593 87.9467068,36.6850433 C87.8157969,36.5445159 87.6557325,36.4341779 87.4776805,36.3617271 C87.2623994,36.2692116 87.0399476,36.1942814 86.8125158,36.1376747 L85.9966942,35.9136222 C85.513094,35.7990424 85.063246,35.5726879 84.6834204,35.2528093 C84.359848,34.9566127 84.1831377,34.5334741 84.2001811,34.0956777 C84.191528,33.7236271 84.3053584,33.3590044 84.5242357,33.0576625 C84.7493472,32.7535566 85.0515296,32.5147108 85.3997515,32.3656524 C85.7935052,32.1961495 86.2188602,32.1120458 86.6476459,32.1189111 C87.0734472,32.1114069 87.4959595,32.1945566 87.8870125,32.3628163 C88.2257769,32.5091475 88.5199108,32.741962 88.7397878,33.0378098 C88.9452007,33.3255425 89.0582036,33.6687238 89.0638423,34.0219389 L88.0518824,34.0134306 Z" id="Path" fill="#E67425"></path>
                <polygon id="Rectangle" fill="#2A3C98" transform="translate(10.803341, 32.925427) rotate(45.000000) translate(-10.803341, -32.925427) " points="4.386649 26.5087352 17.2346873 26.4940809 17.2200329 39.3421192 4.37199462 39.3567735"></polygon>
                <polygon id="Path" fill="#E45525" points="10.8018193 11.9655352 0 22.7427416 0 28.9566519 10.8018193 18.1794455 21.6036385 28.9566519 21.6036385 22.7427416"></polygon>
                <polygon id="Path" fill="#E67425" points="10.8018193 0 0 10.7772064 0 16.9911167 10.8018193 6.21391031 21.6036385 16.9911167 21.6036385 10.7772064"></polygon>
                <polygon id="Path" fill="#201B51" opacity="0.8" points="10.8018193 23.8516594 10.8018193 34.6628991 7.1661543 38.3725269 1.70555041 32.9272016"></polygon>
                <polygon id="Path" fill="#292F7C" points="10.8018193 23.8516594 10.8018193 34.6628991 14.4374842 38.3725269 19.8980881 32.9272016"></polygon>
            </g>
        </g>
    </g>
</svg>