<?xml version="1.0" encoding="UTF-8"?>
<svg version="1.1" xmlns="http://www.w3.org/2000/svg" width="662" height="491">
<path d="M0 0 C23.85699571 -0.97251447 50.12881792 18.821944 67 34 C67.99128906 34.87011719 68.98257813 35.74023438 70.00390625 36.63671875 C75.43380786 41.46083542 80.36751977 46.41495349 85 52 C85.78117188 52.89332031 86.56234375 53.78664062 87.3671875 54.70703125 C102.54811194 72.31044363 112.79362856 93.34944586 118.3125 115.875 C118.48426758 116.56456787 118.65603516 117.25413574 118.83300781 117.96459961 C119.06455566 118.96825562 119.06455566 118.96825562 119.30078125 119.9921875 C119.43653564 120.57339355 119.57229004 121.15459961 119.7121582 121.75341797 C120.1463933 125.1425879 120 128.58312527 120 132 C111.75 131.67 103.5 131.34 95 131 C95 131.66 95 132.32 95 133 C94.34 133.33 93.68 133.66 93 134 C92.35017309 135.95834202 91.78048745 137.94351867 91.25 139.9375 C88.92760643 147.82323935 85.53544543 155.69293209 79 161 C76.421875 161.390625 76.421875 161.390625 73.75 161.25 C72.85796875 161.21390625 71.9659375 161.1778125 71.046875 161.140625 C70.37140625 161.09421875 69.6959375 161.0478125 69 161 C69.144375 159.824375 69.28875 158.64875 69.4375 157.4375 C69.52773438 156.69628906 69.61796875 155.95507812 69.7109375 155.19140625 C69.94564175 153.41209429 70.24455912 151.64133822 70.5625 149.875 C74.01855052 119.26426681 60.55945543 87.54332975 43 63 C42.74347656 63.77601562 42.48695313 64.55203125 42.22265625 65.3515625 C38.11974466 76.92812785 31.89151628 86.30591665 24.4375 96 C12.82740225 111.25840971 4.22618941 129.58956002 -1 148 C-1.3196875 149.09570312 -1.639375 150.19140625 -1.96875 151.3203125 C-5.08349727 163.98118334 -4.27505005 177.05572154 -4 190 C-1.36 189.67 1.28 189.34 4 189 C3.67 197.25 3.34 205.5 3 214 C-9 216 -9 216 -17 216 C-17.33 201.15 -17.66 186.3 -18 171 C-19.32 170.34 -20.64 169.68 -22 169 C-22 166.03 -22 163.06 -22 160 C-22.66 160 -23.32 160 -24 160 C-24 163.63 -24 167.26 -24 171 C-22.68 171.33 -21.36 171.66 -20 172 C-20 190.81 -20 209.62 -20 229 C-9.605 227.02 -9.605 227.02 1 225 C2.32 225 3.64 225 5 225 C5.01981934 224.08041504 5.03963867 223.16083008 5.06005859 222.21337891 C5.50460955 202.15946427 6.09061191 182.1132022 6.86895752 162.0692749 C6.95640516 159.81253922 7.04229896 157.55574279 7.12664795 155.29888916 C7.2462485 152.11962008 7.37211479 148.94066405 7.5 145.76171875 C7.53541901 144.80201675 7.57083801 143.84231476 7.60733032 142.85353088 C7.66248306 141.53904213 7.66248306 141.53904213 7.71875 140.19799805 C7.74904297 139.43182663 7.77933594 138.66565521 7.81054688 137.87626648 C8 136 8 136 9 134 C11.97 134 14.94 134 18 134 C18.02706445 136.89589652 18.04687029 139.79153795 18.0625 142.6875 C18.07087891 143.50412109 18.07925781 144.32074219 18.08789062 145.16210938 C18.09111328 145.95810547 18.09433594 146.75410156 18.09765625 147.57421875 C18.10289307 148.30213623 18.10812988 149.03005371 18.11352539 149.7800293 C18 152 18 152 17 157 C21.62 157 26.24 157 31 157 C31 158.98 31 160.96 31 163 C34.3 163.33 37.6 163.66 41 164 C41.02719556 166.37507855 41.04693247 168.74983964 41.0625 171.125 C41.07087891 171.79015625 41.07925781 172.4553125 41.08789062 173.140625 C41.10782292 177.20681354 40.78890161 181.0120092 40 185 C43.63 185 47.26 185 51 185 C51 180.05 51 175.1 51 170 C53.64 170 56.28 170 59 170 C59 167.69 59 165.38 59 163 C66.59 163 74.18 163 82 163 C82 165.64 82 168.28 82 171 C84.64 171 87.28 171 90 171 C90 175.62 90 180.24 90 185 C91.98 184.67 93.96 184.34 96 184 C96.03758423 182.10109009 96.03758423 182.10109009 96.07592773 180.16381836 C96.17042126 175.44676376 96.27053802 170.72984207 96.37231445 166.01293945 C96.41550518 163.97521077 96.45719078 161.93744959 96.49731445 159.8996582 C96.55540311 156.96295396 96.61898448 154.02641091 96.68359375 151.08984375 C96.70866249 149.73317848 96.70866249 149.73317848 96.73423767 148.34910583 C96.75418289 147.48874222 96.77412811 146.6283786 96.79467773 145.74194336 C96.81022202 144.99359726 96.8257663 144.24525116 96.84178162 143.47422791 C97.04481849 140.29912601 97.55005565 137.14961047 98 134 C105.59 134 113.18 134 121 134 C121.05277799 144.82608576 120.85670028 155.61799053 120.5 166.4375 C120.45160633 167.9589775 120.40342827 169.48046188 120.35546875 171.00195312 C120.23945122 174.66805093 120.12056309 178.33404852 120 182 C121.04800781 181.43410156 122.09601563 180.86820313 123.17578125 180.28515625 C124.55462102 179.54414712 125.93353094 178.8032685 127.3125 178.0625 C128.00279297 177.68931641 128.69308594 177.31613281 129.40429688 176.93164062 C130.07138672 176.57392578 130.73847656 176.21621094 131.42578125 175.84765625 C132.03848877 175.51773682 132.65119629 175.18781738 133.2824707 174.84790039 C135 174 135 174 138 173 C138 163.1 138 153.2 138 143 C139.65 143 141.3 143 143 143 C143 137.06 143 131.12 143 125 C144.98 125 146.96 125 149 125 C149 122.69 149 120.38 149 118 C150.65 118 152.3 118 154 118 C153.87431641 116.39318359 153.87431641 116.39318359 153.74609375 114.75390625 C153.64295104 113.35679134 153.54010157 111.95965476 153.4375 110.5625 C153.38142578 109.85544922 153.32535156 109.14839844 153.26757812 108.41992188 C153.13809007 106.61572163 153.06478392 104.80768048 153 103 C154 102 154 102 157.16015625 101.90234375 C160.7734375 101.93489583 164.38671875 101.96744792 168 102 C168 110.25 168 118.5 168 127 C169.32 127 170.64 127 172 127 C171.98839844 126.00097656 171.97679687 125.00195312 171.96484375 123.97265625 C171.95582031 122.68230469 171.94679688 121.39195312 171.9375 120.0625 C171.92589844 118.77472656 171.91429687 117.48695313 171.90234375 116.16015625 C172 113 172 113 173 112 C175.35313555 111.92728259 177.70833668 111.91629132 180.0625 111.9375 C181.99802734 111.95103516 181.99802734 111.95103516 183.97265625 111.96484375 C184.97167969 111.97644531 185.97070312 111.98804687 187 112 C187 110.35 187 108.7 187 107 C191.95 107 196.9 107 202 107 C202.33 110.3 202.66 113.6 203 117 C211.5446361 109.39202424 217.3429901 95.65125459 218.30859375 84.40625 C218.65388361 73.94292095 217.10752076 66.50307261 210.5 58.3125 C201.53830013 48.97190473 190.12462413 45.33888761 178 42 C178 41.34 178 40.68 178 40 C183.91438493 39.68244913 188.79632925 40.77030304 194.4375 42.5 C195.30987305 42.76554687 196.18224609 43.03109375 197.08105469 43.3046875 C208.49193594 46.9295649 219.98255772 51.95856324 229 60 C229.89912109 60.77923828 229.89912109 60.77923828 230.81640625 61.57421875 C237.90177228 68.13927713 243.39424482 76.65658522 244.20288086 86.45947266 C244.30451226 89.24685953 244.32200629 92.02335315 244.3125 94.8125 C244.32861328 95.74642578 244.34472656 96.68035156 244.36132812 97.64257812 C244.36802493 107.29267794 241.6748583 115.41450471 237.3125 123.9375 C236.96219727 124.62497314 236.61189453 125.31244629 236.25097656 126.02075195 C230.25358108 137.50412669 221.92741742 146.74490958 213 156 C212.25024902 156.78761719 211.50049805 157.57523438 210.72802734 158.38671875 C176.36217924 194.36506062 131.82289261 219.56889617 85.46142578 237.06884766 C82.96642474 238.01270145 80.48167419 238.98086701 77.99609375 239.94921875 C40.5006901 254.30825803 -0.99431998 264.77622503 -41.2578125 265.2734375 C-42.19645142 265.28587494 -43.13509033 265.29831238 -44.10217285 265.31112671 C-76.15310538 265.65438297 -113.38695059 264.81552901 -138.10522461 241.14501953 C-148.78246063 230.37646137 -151.60474058 220.07919936 -151.55078125 205.28759766 C-151.32161083 195.85007341 -149.32904294 188.33026417 -145 180 C-144.51853516 179.06075684 -144.51853516 179.06075684 -144.02734375 178.10253906 C-136.44403875 163.58274038 -136.44403875 163.58274038 -131 158 C-130.34 158 -129.68 158 -129 158 C-130.27574772 161.33340534 -131.73536578 164.4286641 -133.4375 167.5625 C-138.59081926 177.79290598 -140.58892771 188.50491665 -137.8125 199.70703125 C-134.28852649 209.65209111 -126.39864543 216.39901756 -117.3125 221.1875 C-108.78513663 225.22450494 -100.3284621 227.66736256 -91 229 C-91 214.48 -91 199.96 -91 185 C-82 187 -82 187 -73 191 C-73 199.58 -73 208.16 -73 217 C-71.68 217 -70.36 217 -69 217 C-69 212.05 -69 207.1 -69 202 C-66.69 202 -64.38 202 -62 202 C-62 199.69 -62 197.38 -62 195 C-57.71 195 -53.42 195 -49 195 C-49 202.26 -49 209.52 -49 217 C-46.69 217 -44.38 217 -42 217 C-42 213.37 -42 209.74 -42 206 C-39.36 206 -36.72 206 -34 206 C-34.01047363 205.28344238 -34.02094727 204.56688477 -34.03173828 203.82861328 C-34.07321299 200.59411095 -34.09929892 197.35966447 -34.125 194.125 C-34.14175781 192.99707031 -34.15851563 191.86914062 -34.17578125 190.70703125 C-34.18222656 189.63066406 -34.18867188 188.55429688 -34.1953125 187.4453125 C-34.20578613 186.45031738 -34.21625977 185.45532227 -34.22705078 184.43017578 C-34 182 -34 182 -32 180 C-31.54188325 178.02764667 -31.54188325 178.02764667 -31.375 175.875 C-31.189375 173.956875 -31.189375 173.956875 -31 172 C-30.01 171.67 -29.02 171.34 -28 171 C-27.67 167.37 -27.34 163.74 -27 160 C-27.66 160 -28.32 160 -29 160 C-29 162.97 -29 165.94 -29 169 C-30.65 169.66 -32.3 170.32 -34 171 C-34 173.64 -34 176.28 -34 179 C-34.99 179.33 -35.98 179.66 -37 180 C-36.99476318 180.69150146 -36.98952637 181.38300293 -36.98413086 182.09545898 C-36.963425 185.20946352 -36.95036037 188.32345361 -36.9375 191.4375 C-36.92912109 192.52611328 -36.92074219 193.61472656 -36.91210938 194.73632812 C-36.90888672 195.77080078 -36.90566406 196.80527344 -36.90234375 197.87109375 C-36.89710693 198.82943115 -36.89187012 199.78776855 -36.88647461 200.77514648 C-37 203 -37 203 -38 204 C-41.5 204.125 -41.5 204.125 -45 204 C-46 203 -46 203 -46.09765625 200.71484375 C-46.06510417 198.14322917 -46.03255208 195.57161458 -46 193 C-51.94 193 -57.88 193 -64 193 C-64 194.98 -64 196.96 -64 199 C-66.31 199 -68.62 199 -71 199 C-71 195.37 -71 191.74 -71 188 C-72.8253125 187.6596875 -72.8253125 187.6596875 -74.6875 187.3125 C-81.05873301 185.91815667 -86.95609542 183.41756183 -93 181 C-93 186.61 -93 192.22 -93 198 C-96.38529649 196.87156784 -96.6089543 196.53615744 -98.15625 193.5234375 C-100.33287723 188.86071982 -100.61840189 184.7137184 -100.5 179.625 C-100.48718994 178.78646484 -100.47437988 177.94792969 -100.46118164 177.08398438 C-100.25181509 170.68743247 -99.27180274 165.5756165 -96 160 C-95.50242188 159.113125 -95.00484375 158.22625 -94.4921875 157.3125 C-90.41343564 150.482962 -85.50411467 144.71510573 -80 139 C-79.1853125 138.14535156 -78.370625 137.29070312 -77.53125 136.41015625 C-71.43404131 130.14468044 -71.43404131 130.14468044 -68 129 C-67.50876726 133.64589604 -68.80386601 135.55377121 -71.6875 139.125 C-77.76110779 147.12622445 -82.91381708 155.91410342 -81.7421875 166.28125 C-80.46359012 173.25541752 -77.79826297 177.92047297 -72 182.125 C-62.96473709 187.75910011 -53.52490373 189.62677646 -43 190 C-43.74443359 189.01773438 -43.74443359 189.01773438 -44.50390625 188.015625 C-58.78454044 168.83025687 -67.47456547 148.69636577 -64.5703125 124.40625 C-61.56252526 106.73085834 -52.62843828 91.1877591 -42.3125 76.75 C-37.33883915 69.78223736 -32.38937486 62.76093439 -32 54 C-31.01 54 -30.02 54 -29 54 C-24.15458181 64.16672567 -24.03196126 71.49468339 -27.265625 82.171875 C-28.44727472 86.72248351 -28.73740055 91.31848559 -29 96 C-26.58087477 92.99348334 -24.69329209 89.80878674 -22.79052734 86.46704102 C-15.98226161 74.52212152 -8.34733571 63.1506259 0.4375 52.5625 C8.77763901 42.36707019 12.30740927 31.13635028 11 18 C9.99985691 14.47119323 8.64985153 11.26959628 7 8 C6.66871094 7.27167969 6.33742188 6.54335938 5.99609375 5.79296875 C4.71985489 3.49573881 3.3491033 3.06088536 1 2 C0.67 1.34 0.34 0.68 0 0 Z M202 118 C203 120 203 120 203 120 Z " fill="#454446" transform="translate(266,11)"/>
<path d="M0 0 C23.85699571 -0.97251447 50.12881792 18.821944 67 34 C67.99128906 34.87011719 68.98257813 35.74023438 70.00390625 36.63671875 C75.43380786 41.46083542 80.36751977 46.41495349 85 52 C85.78117188 52.89332031 86.56234375 53.78664062 87.3671875 54.70703125 C102.54811194 72.31044363 112.79362856 93.34944586 118.3125 115.875 C118.48426758 116.56456787 118.65603516 117.25413574 118.83300781 117.96459961 C119.06455566 118.96825562 119.06455566 118.96825562 119.30078125 119.9921875 C119.43653564 120.57339355 119.57229004 121.15459961 119.7121582 121.75341797 C120.1463933 125.1425879 120 128.58312527 120 132 C111.75 131.67 103.5 131.34 95 131 C95 131.66 95 132.32 95 133 C94.34 133.33 93.68 133.66 93 134 C92.35017309 135.95834202 91.78048745 137.94351867 91.25 139.9375 C88.92760643 147.82323935 85.53544543 155.69293209 79 161 C76.421875 161.390625 76.421875 161.390625 73.75 161.25 C72.85796875 161.21390625 71.9659375 161.1778125 71.046875 161.140625 C70.37140625 161.09421875 69.6959375 161.0478125 69 161 C69.144375 159.824375 69.28875 158.64875 69.4375 157.4375 C69.52773438 156.69628906 69.61796875 155.95507812 69.7109375 155.19140625 C69.94564175 153.41209429 70.24455912 151.64133822 70.5625 149.875 C74.01855052 119.26426681 60.55945543 87.54332975 43 63 C42.74347656 63.77601562 42.48695313 64.55203125 42.22265625 65.3515625 C38.11974466 76.92812785 31.89151628 86.30591665 24.4375 96 C12.82740225 111.25840971 4.22618941 129.58956002 -1 148 C-1.47953125 149.64355469 -1.47953125 149.64355469 -1.96875 151.3203125 C-5.08349727 163.98118334 -4.27505005 177.05572154 -4 190 C-1.36 189.67 1.28 189.34 4 189 C3.67 197.25 3.34 205.5 3 214 C-9 216 -9 216 -17 216 C-17.33 201.15 -17.66 186.3 -18 171 C-19.98 170.01 -19.98 170.01 -22 169 C-22 166.03 -22 163.06 -22 160 C-24.31 160 -26.62 160 -29 160 C-29 162.97 -29 165.94 -29 169 C-30.65 169.66 -32.3 170.32 -34 171 C-34 173.64 -34 176.28 -34 179 C-34.99 179.33 -35.98 179.66 -37 180 C-36.99476318 180.69150146 -36.98952637 181.38300293 -36.98413086 182.09545898 C-36.963425 185.20946352 -36.95036037 188.32345361 -36.9375 191.4375 C-36.92912109 192.52611328 -36.92074219 193.61472656 -36.91210938 194.73632812 C-36.90888672 195.77080078 -36.90566406 196.80527344 -36.90234375 197.87109375 C-36.89710693 198.82943115 -36.89187012 199.78776855 -36.88647461 200.77514648 C-37 203 -37 203 -38 204 C-41.5 204.125 -41.5 204.125 -45 204 C-46 203 -46 203 -46.09765625 200.71484375 C-46.06510417 198.14322917 -46.03255208 195.57161458 -46 193 C-51.94 193 -57.88 193 -64 193 C-64 194.98 -64 196.96 -64 199 C-66.31 199 -68.62 199 -71 199 C-71 195.37 -71 191.74 -71 188 C-72.8253125 187.6596875 -72.8253125 187.6596875 -74.6875 187.3125 C-81.05873301 185.91815667 -86.95609542 183.41756183 -93 181 C-93 186.61 -93 192.22 -93 198 C-96.38529649 196.87156784 -96.6089543 196.53615744 -98.15625 193.5234375 C-100.33287723 188.86071982 -100.61840189 184.7137184 -100.5 179.625 C-100.48718994 178.78646484 -100.47437988 177.94792969 -100.46118164 177.08398438 C-100.25181509 170.68743247 -99.27180274 165.5756165 -96 160 C-95.50242188 159.113125 -95.00484375 158.22625 -94.4921875 157.3125 C-90.41343564 150.482962 -85.50411467 144.71510573 -80 139 C-78.77796875 137.71802734 -78.77796875 137.71802734 -77.53125 136.41015625 C-71.43404131 130.14468044 -71.43404131 130.14468044 -68 129 C-67.50876726 133.64589604 -68.80386601 135.55377121 -71.6875 139.125 C-77.76110779 147.12622445 -82.91381708 155.91410342 -81.7421875 166.28125 C-80.46359012 173.25541752 -77.79826297 177.92047297 -72 182.125 C-62.96473709 187.75910011 -53.52490373 189.62677646 -43 190 C-43.49628906 189.34515625 -43.99257812 188.6903125 -44.50390625 188.015625 C-58.78454044 168.83025687 -67.47456547 148.69636577 -64.5703125 124.40625 C-61.56252526 106.73085834 -52.62843828 91.1877591 -42.3125 76.75 C-37.33883915 69.78223736 -32.38937486 62.76093439 -32 54 C-31.01 54 -30.02 54 -29 54 C-24.15458181 64.16672567 -24.03196126 71.49468339 -27.265625 82.171875 C-28.44727472 86.72248351 -28.73740055 91.31848559 -29 96 C-26.58087477 92.99348334 -24.69329209 89.80878674 -22.79052734 86.46704102 C-15.98226161 74.52212152 -8.34733571 63.1506259 0.4375 52.5625 C8.77763901 42.36707019 12.30740927 31.13635028 11 18 C9.99985691 14.47119323 8.64985153 11.26959628 7 8 C6.66871094 7.27167969 6.33742188 6.54335938 5.99609375 5.79296875 C4.71985489 3.49573881 3.3491033 3.06088536 1 2 C0.505 1.01 0.505 1.01 0 0 Z " fill="#F39A2A" transform="translate(266,11)"/>
<path d="M0 0 C2.3125 1.625 2.3125 1.625 4.3125 3.625 C4.6425 1.975 4.9725 0.325 5.3125 -1.375 C11.2525 -1.375 17.1925 -1.375 23.3125 -1.375 C23.38049187 6.30982443 23.43544015 13.9945355 23.46793652 21.67958832 C23.48353947 25.24874621 23.50467818 28.81768622 23.53881836 32.38671875 C23.57160534 35.83618793 23.58939332 39.28544857 23.59713173 42.73506165 C23.60530731 44.68033736 23.62869545 46.62553012 23.65238953 48.57067871 C23.65391728 56.66571895 23.28345763 62.91130296 18.0625 69.4375 C10.9787875 75.07227131 4.52496246 75.09199145 -4.25 75 C-5.36052734 75.01160156 -6.47105469 75.02320313 -7.61523438 75.03515625 C-14.7161441 75.00965927 -19.47282917 74.40525585 -25 69.625 C-28.73139169 65.20260985 -27.75868192 60.1060075 -27.6875 54.625 C-22.0775 54.625 -16.4675 54.625 -10.6875 54.625 C-10.0275 56.275 -9.3675 57.925 -8.6875 59.625 C-4.10216617 60.43417656 -1.35708927 60.55891785 3.3125 59.625 C3.3125 55.665 3.3125 51.705 3.3125 47.625 C2.3225 48.615 1.3325 49.605 0.3125 50.625 C-6.25132423 52.81294141 -14.92111292 52.88969202 -21.3125 50.0625 C-25.72071878 47.41001718 -27.78363165 43.59939711 -29.27026367 38.70727539 C-31.3629546 28.26341294 -31.68738637 12.72574508 -25.6875 3.625 C-19.20197137 -2.87746213 -8.16748827 -3.0455041 0 0 Z M-10.6875 14.625 C-11.15146516 16.69919214 -11.15146516 16.69919214 -11.0859375 19.08984375 C-11.08980469 19.97220703 -11.09367187 20.85457031 -11.09765625 21.76367188 C-11.08605469 22.68728516 -11.07445312 23.61089844 -11.0625 24.5625 C-11.07410156 25.48224609 -11.08570313 26.40199219 -11.09765625 27.34960938 C-11.09378906 28.23326172 -11.08992188 29.11691406 -11.0859375 30.02734375 C-11.08255371 30.83679443 -11.07916992 31.64624512 -11.07568359 32.48022461 C-10.5903092 35.16199445 -9.88839864 36.04441137 -7.6875 37.625 C-3.6722839 38.00740153 -1.16859394 38.24450854 2.53515625 36.6953125 C5.47190304 33.27448656 4.89008884 29.47644102 4.8125 25.125 C4.82796875 24.25746094 4.8434375 23.38992188 4.859375 22.49609375 C4.92712183 17.60558059 4.92712183 17.60558059 2.53515625 13.55078125 C-2.14038196 11.60332509 -6.41373858 11.77582572 -10.6875 14.625 Z " fill="#EF8135" transform="translate(229.6875,309.375)"/>
<path d="M0 0 C17.82 0 35.64 0 54 0 C54 5.61 54 11.22 54 17 C43.11 17 32.22 17 21 17 C21 21.29 21 25.58 21 30 C30.9 30 40.8 30 51 30 C51 35.61 51 41.22 51 47 C41.1 47 31.2 47 21 47 C21 55.91 21 64.82 21 74 C14.07 74 7.14 74 0 74 C0 49.58 0 25.16 0 0 Z " fill="#F49E25" transform="translate(472,287)"/>
<path d="M0 0 C6.27 0 12.54 0 19 0 C21.97 11.88 24.94 23.76 28 36 C28.94875 31.730625 29.8975 27.46125 30.875 23.0625 C32.58333333 15.375 34.29166667 7.6875 36 0 C42.27 0 48.54 0 55 0 C53.46449448 11.79717652 50.79520554 23.28193563 48.05175781 34.84863281 C47.24948364 38.25219061 46.47244203 41.66093842 45.6953125 45.0703125 C45.17863358 47.26078291 44.66045554 49.45090037 44.140625 51.640625 C43.8027597 53.15030853 43.8027597 53.15030853 43.45806885 54.69049072 C41.51604418 62.66695681 38.32389798 68.9983636 32.1796875 74.546875 C28.00538173 76.45454299 24.64777365 76.44930867 20.125 76.25 C19.34125 76.23195313 18.5575 76.21390625 17.75 76.1953125 C15.83279811 76.14855148 13.91623285 76.07682003 12 76 C12 71.71 12 67.42 12 63 C14.1346875 62.7525 14.1346875 62.7525 16.3125 62.5 C19.92110711 61.75895472 19.92110711 61.75895472 22.265625 59.0859375 C23.1956949 56.6306069 23.1956949 56.6306069 24 53 C21.03 53 18.06 53 15 53 C12.35231107 45.25791289 9.97504364 37.43851918 7.61108398 29.60644531 C6.93678203 27.37262153 6.26053843 25.1393926 5.58398438 22.90625 C5.14832415 21.46618012 4.71277351 20.02607708 4.27734375 18.5859375 C4.07833969 17.92846527 3.87933563 17.27099304 3.67430115 16.59359741 C3.11222529 14.73025952 2.55603202 12.86515033 2 11 C1.62302979 9.77104004 1.24605957 8.54208008 0.85766602 7.27587891 C0 4 0 4 0 0 Z " fill="#EF8135" transform="translate(382,308)"/>
<path d="M0 0 C3.71680483 3.0841572 6.69401245 6.16122517 7.22705078 11.10644531 C7.21657715 11.83959961 7.20610352 12.57275391 7.1953125 13.328125 C7.19031738 14.0490332 7.18532227 14.76994141 7.18017578 15.51269531 C7.16196777 16.41600586 7.14375977 17.31931641 7.125 18.25 C7.08375 21.1375 7.0425 24.025 7 27 C-3.56 27 -14.12 27 -25 27 C-24.34 29.97 -23.68 32.94 -23 36 C-17.01320653 36.73342149 -17.01320653 36.73342149 -11 37 C-10.67 35.35 -10.34 33.7 -10 32 C-4.39 32 1.22 32 7 32 C7.36016949 41.00423729 7.36016949 41.00423729 5.9375 44.9375 C1.29661752 49.87779425 -5.37540232 50.86172332 -11.85546875 51.203125 C-21.29371198 51.37251823 -29.60734805 51.21264371 -37.9375 46.25 C-43.89416627 39.75181861 -44.26778523 31.15548038 -44.15234375 22.75390625 C-43.7351537 15.2123938 -43.23519933 7.81688814 -38 2 C-28.89112688 -5.17081501 -10.16426872 -5.90183345 0 0 Z M-24 11 C-24.33 12.98 -24.66 14.96 -25 17 C-20.05 17 -15.1 17 -10 17 C-10.33 15.35 -10.66 13.7 -11 12 C-15.3554132 9.52800872 -19.27080403 9.64880115 -24 11 Z " fill="#EF8435" transform="translate(651,311)"/>
<path d="M0 0 C0.78979248 0.00870117 1.57958496 0.01740234 2.39331055 0.02636719 C9.46704064 0.2045799 14.82502569 1.47474334 20.9375 5.0625 C27.82041148 12.55272719 26.0625 20.18440218 26.0625 30.375 C15.1725 30.375 4.2825 30.375 -6.9375 30.375 C-6.2775 33.345 -5.6175 36.315 -4.9375 39.375 C-1.43602959 40.5421568 1.38920036 40.50857453 5.0625 40.375 C6.0525 39.88 6.0525 39.88 7.0625 39.375 C7.3925 38.055 7.7225 36.735 8.0625 35.375 C14.0025 35.375 19.9425 35.375 26.0625 35.375 C26.0625 46.26388889 26.0625 46.26388889 21.375 51.125 C11.83938879 56.27938444 -1.82504411 55.59824364 -12.125 53.3125 C-16.389608 51.92553022 -18.98663693 50.03317424 -21.81640625 46.58203125 C-24.89392848 40.52349445 -25.29928085 34.16434184 -25.25 27.5 C-25.24508545 26.71278564 -25.2401709 25.92557129 -25.23510742 25.11450195 C-25.08624997 17.70903438 -24.26235283 11.49694523 -19.75 5.4375 C-13.54943182 0.89041667 -7.47917907 -0.13715948 0 0 Z M-5.9375 15.375 C-6.2675 17.025 -6.5975 18.675 -6.9375 20.375 C-1.6575 20.375 3.6225 20.375 9.0625 20.375 C7.68008962 15.38921231 7.68008962 15.38921231 4.6875 14.0625 C0.63022123 12.99987937 -2.50991417 12.89295509 -5.9375 15.375 Z " fill="#EF8435" transform="translate(168.9375,307.625)"/>
<path d="M0 0 C5.94 0 11.88 0 18 0 C18.33 1.65 18.66 3.3 19 5 C19.78375 4.360625 20.5675 3.72125 21.375 3.0625 C26.56360982 -1.01426486 31.58498343 -0.45234091 38 0 C43.12893068 1.17153632 46.66466531 3.97797875 50 8 C50.91712695 10.77980694 51.12252183 13.30292608 51.11352539 16.21777344 C51.11344986 17.03832214 51.11337433 17.85887085 51.11329651 18.70428467 C51.10813522 19.58046448 51.10297394 20.45664429 51.09765625 21.359375 C51.0962413 22.26375305 51.09482635 23.1681311 51.09336853 24.09991455 C51.08777911 26.98331027 51.07522853 29.86662782 51.0625 32.75 C51.05748363 34.70703013 51.05292096 36.66406147 51.04882812 38.62109375 C51.0386648 43.41411671 51.01908728 48.20697104 51 53 C44.73 53 38.46 53 32 53 C31.96261719 50.50824219 31.92523438 48.01648438 31.88671875 45.44921875 C31.84050962 43.0364503 31.7892739 40.62383739 31.73754883 38.21118164 C31.70429137 36.53419441 31.67626192 34.85709503 31.65356445 33.17993164 C31.62003263 30.76920775 31.56772022 28.35951238 31.51171875 25.94921875 C31.50532883 25.19912033 31.4989389 24.44902191 31.49235535 23.67619324 C31.40784493 20.68543585 31.34431911 18.51688625 29.65942383 15.98754883 C27.88069396 14.71191589 27.88069396 14.71191589 24.9375 15.25 C22.09084979 15.86622224 22.09084979 15.86622224 20 17 C18.81998451 20.54004646 18.77087654 23.8227256 18.68359375 27.51171875 C18.66281265 28.23994339 18.64203156 28.96816803 18.62062073 29.71846008 C18.55531254 32.04137875 18.49632763 34.36440906 18.4375 36.6875 C18.39429695 38.26368335 18.35068208 39.83985548 18.30664062 41.41601562 C18.19887632 45.27723104 18.09966444 49.138533 18 53 C12.06 53 6.12 53 0 53 C0 35.51 0 18.02 0 0 Z " fill="#F08534" transform="translate(38,308)"/>
<path d="M0 0 C6.27 0 12.54 0 19 0 C19 3.63 19 7.26 19 11 C25.27 11 31.54 11 38 11 C38 15.62 38 20.24 38 25 C31.73 25 25.46 25 19 25 C19 33.58 19 42.16 19 51 C21.475 50.505 21.475 50.505 24 50 C24.33 47.36 24.66 44.72 25 42 C27.4788213 41.80610904 29.95780931 41.61959877 32.4375 41.4375 C33.49807617 41.35338867 33.49807617 41.35338867 34.58007812 41.26757812 C36.38427837 41.13809007 38.19231952 41.06478392 40 41 C41.52271991 42.52271991 41.20581982 43.87935159 41.25 46 C41.17655512 51.7470622 40.19977363 57.56453634 36.25 61.9375 C27.74922644 65.95175418 17.9883553 66.44547609 8.9375 63.8125 C5.15886415 62.3495786 3.11668386 60.52780644 1 57 C-0.13917218 53.58248347 -0.11338481 50.96512063 -0.09765625 47.36328125 C-0.09443359 46.06455078 -0.09121094 44.76582031 -0.08789062 43.42773438 C-0.07953531 42.05598892 -0.07107037 40.68424413 -0.0625 39.3125 C-0.05748335 37.92903805 -0.05292073 36.54557437 -0.04882812 35.16210938 C-0.03702529 31.77469605 -0.02056019 28.38736967 0 25 C-1.98 25 -3.96 25 -6 25 C-6 20.38 -6 15.76 -6 11 C-4.02 11 -2.04 11 0 11 C0 7.37 0 3.74 0 0 Z " fill="#F18C2F" transform="translate(342,297)"/>
<path d="M0 0 C2.97922593 -0.02683987 5.95821295 -0.04676037 8.9375 -0.0625 C10.21270508 -0.07506836 10.21270508 -0.07506836 11.51367188 -0.08789062 C12.32255859 -0.09111328 13.13144531 -0.09433594 13.96484375 -0.09765625 C14.7137085 -0.10289307 15.46257324 -0.10812988 16.23413086 -0.11352539 C18 0 18 0 19 1 C19 3.97 19 6.94 19 10 C25.27 10.33 31.54 10.66 38 11 C38 15.62 38 20.24 38 25 C31.73 25.33 25.46 25.66 19 26 C19 34.25 19 42.5 19 51 C21.475 50.505 21.475 50.505 24 50 C24.33 47.36 24.66 44.72 25 42 C29.95 41.67 34.9 41.34 40 41 C40.99607137 47.37485676 41.23598115 51.9018696 39 58 C36.26713566 61.59176456 33.67723659 63.70456855 29.2109375 64.71875 C21.08863408 65.75197588 12.36777673 66.04193367 5 62 C0.50583592 57.39348182 -0.12419988 54.55957134 -0.09765625 48.2421875 C-0.0962413 47.57913605 -0.09482635 46.91608459 -0.09336853 46.23294067 C-0.08776754 44.11358137 -0.075215 41.99432741 -0.0625 39.875 C-0.05748512 38.43880361 -0.05292219 37.00260556 -0.04882812 35.56640625 C-0.03779782 32.04423655 -0.02053259 28.52212855 0 25 C-1.98 25 -3.96 25 -6 25 C-6 20.38 -6 15.76 -6 11 C-4.02 11 -2.04 11 0 11 C0 7.37 0 3.74 0 0 Z " fill="#F18C2F" transform="translate(100,297)"/>
<path d="M0 0 C20.99876283 0.34298176 44.41687263 1.47273826 60.37890625 17.16015625 C68.23640295 26.07794167 67.55150977 34.6388987 67 46 C66.34 46 65.68 46 65 46 C65 42.7 65 39.4 65 36 C58.73 36 52.46 36 46 36 C46 40.95 46 45.9 46 51 C44.35 51 42.7 51 41 51 C41.020625 52.134375 41.04125 53.26875 41.0625 54.4375 C41 58 41 58 40 59 C38.35 59 36.7 59 35 59 C35 64.61 35 70.22 35 76 C33.35 76 31.7 76 30 76 C30.19142578 77.80984375 30.19142578 77.80984375 30.38671875 79.65625 C31.32135689 92.3466766 31.32135689 92.3466766 27.62109375 96.9765625 C20.61568182 102 20.61568182 102 17 102 C16.94489164 97.56951775 16.94268833 93.14297771 16.98779297 88.71264648 C16.9958637 87.20842365 16.98991661 85.70405352 16.96923828 84.19995117 C16.81168785 71.69127614 16.81168785 71.69127614 19.70043945 67.57983398 C21.71468544 65.8474841 23.76236817 64.4255047 26 63 C33.77120504 54.68751699 40.74725229 44.27732789 41.06640625 32.5625 C40.75368199 26.34592081 39.1951085 21.65677116 35 17 C26.60536641 9.71790821 16.36468369 6.85849585 5.53125 5.58984375 C2.73513042 4.93827885 1.69019937 4.28976333 0 2 C0 1.34 0 0.68 0 0 Z " fill="#F5A524" transform="translate(371,75)"/>
<path d="M0 0 C6.93 0 13.86 0 21 0 C21 24.42 21 48.84 21 74 C14.07 74 7.14 74 0 74 C0 49.58 0 25.16 0 0 Z " fill="#F29429" transform="translate(7,287)"/>
<path d="M0 0 C5.94 0 11.88 0 18 0 C18.33 1.32 18.66 2.64 19 4 C19.763125 3.34 20.52625 2.68 21.3125 2 C25.8411892 -1.02990872 30.76606058 -0.62327828 36 0 C39.21296242 1.00405076 40.35041503 1.81483886 41.95703125 4.74609375 C44.62431297 11.38384963 44.22287591 17.94226283 44 25 C38.39 24.67 32.78 24.34 27 24 C26.505 19.05 26.505 19.05 26 14 C23.00847418 14.77479736 23.00847418 14.77479736 20 16 C18.79838489 19.60484534 18.76982864 22.97289857 18.68359375 26.73046875 C18.66281265 27.48088943 18.64203156 28.23131012 18.62062073 29.00447083 C18.55530074 31.39872184 18.49632208 33.79308139 18.4375 36.1875 C18.39429807 37.81186013 18.35068324 39.43620933 18.30664062 41.06054688 C18.1988611 45.04025502 18.09965785 49.02004701 18 53 C12.06 53 6.12 53 0 53 C0 35.51 0 18.02 0 0 Z " fill="#F18C32" transform="translate(263,308)"/>
<path d="M0 0 C5.94 0 11.88 0 18 0 C18.33 1.32 18.66 2.64 19 4 C19.763125 3.34 20.52625 2.68 21.3125 2 C25.84516447 -1.0145987 30.7673353 -0.75418793 36 0 C40.02602491 1.7658004 41.48565355 2.92454834 43.375 6.875 C44.66589914 12.7485911 44.11342696 19.04508436 44 25 C38.72 24.67 33.44 24.34 28 24 C27.34 21.03 26.68 18.06 26 15 C24.35 15 22.7 15 21 15 C19.21107361 19.63865473 18.70495372 23.6269283 18.5859375 28.5859375 C18.56657135 29.28772125 18.5472052 29.989505 18.5272522 30.71255493 C18.46792431 32.93324999 18.42126083 35.15399823 18.375 37.375 C18.33677698 38.88934434 18.29772278 40.40366794 18.2578125 41.91796875 C18.16071116 45.61186543 18.08077587 49.30556666 18 53 C12.06 53 6.12 53 0 53 C0 35.51 0 18.02 0 0 Z " fill="#F18D32" transform="translate(560,308)"/>
<path d="M0 0 C1.485 -0.05607422 1.485 -0.05607422 3 -0.11328125 C11.22243221 -0.21221426 11.22243221 -0.21221426 14.8984375 2.59765625 C18.3663367 6.69346411 18.09328311 9.12498417 18.25 14.375 C14.95 14.375 11.65 14.375 8.25 14.375 C7.59 12.725 6.93 11.075 6.25 9.375 C1.63 9.375 -2.99 9.375 -7.75 9.375 C-7.75 12.015 -7.75 14.655 -7.75 17.375 C-7.17032471 17.41987549 -6.59064941 17.46475098 -5.9934082 17.51098633 C-3.34851887 17.7232648 -0.70570219 17.95519088 1.9375 18.1875 C2.84951172 18.25775391 3.76152344 18.32800781 4.70117188 18.40039062 C9.55206182 18.84138062 13.33014304 19.20558409 17.25 22.375 C18.74352829 25.36205657 18.51567862 28.4131251 18.5625 31.6875 C18.61857422 33.66169922 18.61857422 33.66169922 18.67578125 35.67578125 C18.18923339 39.90294477 17.29495203 41.46525898 14.25 44.375 C5.64720309 47.60104884 -4.39677668 47.6587458 -12.96875 44.2734375 C-15.59244335 42.9500834 -16.65532873 42.14816723 -17.75 39.375 C-17.97142177 36.32781468 -17.88522433 33.44008475 -17.75 30.375 C-14.45 30.375 -11.15 30.375 -7.75 30.375 C-7.42 32.355 -7.09 34.335 -6.75 36.375 C-1.8 36.375 3.15 36.375 8.25 36.375 C8.6972136 30.89674919 8.6972136 30.89674919 7.25 28.375 C3.72672784 27.86465478 0.23018877 27.53603957 -3.31640625 27.25195312 C-8.87876139 26.71877401 -12.67641122 25.66309796 -16.5625 21.375 C-18.40252576 16.72651386 -18.5429324 12.29838935 -17.75 7.375 C-13.65786585 -0.43036699 -7.83852154 0.11054325 0 0 Z " fill="#868789" transform="translate(331.75,385.625)"/>
<path d="M0 0 C0.95068359 -0.020625 1.90136719 -0.04125 2.88085938 -0.0625 C11.65037327 -0.11152593 11.65037327 -0.11152593 15.6875 3.25 C18.25202594 6.66936792 17.84690162 10.10555785 17.6875 14.25 C14.3875 14.25 11.0875 14.25 7.6875 14.25 C7.6875 12.6 7.6875 10.95 7.6875 9.25 C5.56256859 9.22306425 3.43754088 9.20363372 1.3125 9.1875 C0.12914063 9.17589844 -1.05421875 9.16429687 -2.2734375 9.15234375 C-5.23171521 9.03533407 -5.23171521 9.03533407 -7.3125 10.25 C-7.3125 12.23 -7.3125 14.21 -7.3125 16.25 C-2.89386748 17.72287751 1.72386499 17.88490741 6.3515625 18.23632812 C11.24249382 18.71943585 14.15080666 19.55627201 17.6875 23.25 C19.50384495 28.69903484 19.65581666 34.92604003 17.4375 40.25 C13.30069076 44.97778198 9.86811318 46.03576181 3.671875 46.453125 C-2.9538859 46.54915052 -9.37502535 46.55161634 -15.3125 43.25 C-17.52164 39.93629 -17.53731553 38.9053979 -17.4375 35.0625 C-17.41945312 34.16144531 -17.40140625 33.26039063 -17.3828125 32.33203125 C-17.35960937 31.64496094 -17.33640625 30.95789063 -17.3125 30.25 C-14.3425 30.25 -11.3725 30.25 -8.3125 30.25 C-8.3125 32.23 -8.3125 34.21 -8.3125 36.25 C-5.83326199 36.27685095 -3.3543116 36.29676547 -0.875 36.3125 C-0.16794922 36.32087891 0.53910156 36.32925781 1.26757812 36.33789062 C3.07443559 36.34653588 4.88137603 36.30220011 6.6875 36.25 C8.10327477 35.06575674 8.10327477 35.06575674 7.75 31.6875 C7.7190625 29.9859375 7.7190625 29.9859375 7.6875 28.25 C6.45773438 28.15203125 5.22796875 28.0540625 3.9609375 27.953125 C2.32804288 27.80297377 0.69523452 27.65188228 -0.9375 27.5 C-1.74574219 27.438125 -2.55398437 27.37625 -3.38671875 27.3125 C-8.80842003 26.78355353 -12.08874035 25.74093069 -16.3125 22.25 C-17.81400148 19.24699703 -17.61890091 16.16775628 -17.6875 12.875 C-17.72488281 12.20210938 -17.76226562 11.52921875 -17.80078125 10.8359375 C-17.8359375 8.8515625 -17.8359375 8.8515625 -17.3125 5.25 C-11.84795553 -0.25014411 -7.34359014 0.03934944 0 0 Z " fill="#868789" transform="translate(70.3125,385.75)"/>
<path d="M0 0 C5.94 0 11.88 0 18 0 C19 1 19 1 19.12025452 3.09437561 C19.1169236 4.47670631 19.1169236 4.47670631 19.11352539 5.88696289 C19.11344986 6.92796646 19.11337433 7.96897003 19.11329651 9.04151917 C19.10813522 10.1737944 19.10297394 11.30606964 19.09765625 12.47265625 C19.0962413 13.62543564 19.09482635 14.77821503 19.09336853 15.96592712 C19.08775005 19.66481064 19.07519442 23.36363464 19.0625 27.0625 C19.05748738 29.56315017 19.05292406 32.06380129 19.04882812 34.56445312 C19.03777462 40.70965851 19.0204976 46.85481915 19 53 C12.73 53 6.46 53 0 53 C0 35.51 0 18.02 0 0 Z " fill="#EF8335" transform="translate(312,308)"/>
<path d="M0 0 C5.94 0 11.88 0 18 0 C18 17.49 18 34.98 18 53 C12.06 53 6.12 53 0 53 C0 35.51 0 18.02 0 0 Z " fill="#EF8235" transform="translate(532,308)"/>
<path d="M0 0 C0.70769531 -0.02900391 1.41539063 -0.05800781 2.14453125 -0.08789062 C5.86426712 -0.13291536 7.91413102 0.17686147 11.0703125 2.20703125 C14.3627524 5.58084324 14.24507106 7.57786196 14.22265625 12.1953125 C14.21943359 13.36191406 14.21621094 14.52851563 14.21289062 15.73046875 C14.20451172 16.95378906 14.19613281 18.17710937 14.1875 19.4375 C14.18298828 20.66855469 14.17847656 21.89960938 14.17382812 23.16796875 C14.1620133 26.21619392 14.14554028 29.26432314 14.125 32.3125 C13.44953125 32.30089844 12.7740625 32.28929687 12.078125 32.27734375 C11.18609375 32.26832031 10.2940625 32.25929688 9.375 32.25 C8.49328125 32.23839844 7.6115625 32.22679687 6.703125 32.21484375 C4.32599983 32.30488637 2.40630711 32.6924767 0.125 33.3125 C-5.14242642 33.70267974 -8.34677352 33.0504974 -12.875 30.3125 C-15.34407602 27.84342398 -15.55928025 25.82180113 -15.90625 22.4140625 C-15.8568692 19.09320382 -14.73584446 17.00751611 -12.875 14.3125 C-9.52696898 12.07795441 -6.64825946 12.07193258 -2.6875 12.125 C-1.62144531 12.13144531 -0.55539063 12.13789063 0.54296875 12.14453125 C3.125 12.3125 3.125 12.3125 4.125 13.3125 C4.455 11.3325 4.785 9.3525 5.125 7.3125 C1.825 7.3125 -1.475 7.3125 -4.875 7.3125 C-5.205 8.6325 -5.535 9.9525 -5.875 11.3125 C-8.515 11.3125 -11.155 11.3125 -13.875 11.3125 C-14.1003459 8.00742676 -14.22000438 5.92036486 -12.5625 3 C-9.09655683 -0.46594317 -4.59789842 0.06213376 0 0 Z M-5.875 19.3125 C-5.91754356 21.31204746 -5.91580783 23.31291636 -5.875 25.3125 C-3.97614904 27.21135096 -1.30252097 26.43617506 1.21484375 26.4453125 C3.21134367 26.42936861 3.21134367 26.42936861 5.125 25.3125 C5.125 23.3325 5.125 21.3525 5.125 19.3125 C1.495 19.3125 -2.135 19.3125 -5.875 19.3125 Z " fill="#747678" transform="translate(115.875,398.6875)"/>
<path d="M0 0 C1.794375 -0.01160156 1.794375 -0.01160156 3.625 -0.0234375 C8.17932094 0.51422539 10.80648501 2.01686225 13.8125 5.4375 C15 8.375 15 8.375 15 18.375 C8.07 18.375 1.14 18.375 -6 18.375 C-5.67 20.685 -5.34 22.995 -5 25.375 C-1.7 25.045 1.6 24.715 5 24.375 C5.33 23.385 5.66 22.395 6 21.375 C8.97 21.375 11.94 21.375 15 21.375 C15.46963359 25.41384885 15.35683282 26.91621494 12.8125 30.1875 C9.83437235 32.5038215 8.6935506 33.123167 5 33.375 C4.32839844 33.42527344 3.65679687 33.47554688 2.96484375 33.52734375 C-2.21272617 33.74936647 -7.66645287 33.49280087 -12 30.375 C-14.91632117 25.83998681 -15.40754483 22.21235178 -15.375 16.875 C-15.38273437 15.6065625 -15.39046875 14.338125 -15.3984375 13.03125 C-14.85315694 8.027499 -13.68595442 4.76239999 -9.75 1.5234375 C-6.34509022 0.10150074 -3.68422861 -0.02382044 0 0 Z M-5 7.375 C-5.33 9.025 -5.66 10.675 -6 12.375 C-2.04 12.375 1.92 12.375 6 12.375 C5.67 10.725 5.34 9.075 5 7.375 C1.7 7.375 -1.6 7.375 -5 7.375 Z " fill="#757678" transform="translate(377,398.625)"/>
<path d="M0 0 C1.2890625 -0.00773437 2.578125 -0.01546875 3.90625 -0.0234375 C7.64613094 0.39120147 9.53183575 1.120073 12.5 3.375 C15.60846874 8.25973659 14.5 12.14523095 14.5 18.375 C7.57 18.375 0.64 18.375 -6.5 18.375 C-6.17 20.685 -5.84 22.995 -5.5 25.375 C-1.87 25.375 1.76 25.375 5.5 25.375 C5.5 24.055 5.5 22.735 5.5 21.375 C8.47 21.375 11.44 21.375 14.5 21.375 C14.96963359 25.41384885 14.85683282 26.91621494 12.3125 30.1875 C9.33437235 32.5038215 8.1935506 33.123167 4.5 33.375 C3.81679688 33.42527344 3.13359375 33.47554688 2.4296875 33.52734375 C-3.01994651 33.75826045 -6.72534774 33.04880527 -11.5 30.375 C-16.16604538 25.55341977 -15.78482494 19.73543916 -15.71484375 13.359375 C-15.41871018 9.24581052 -14.66892403 6.89015274 -12.5 3.375 C-8.39474819 0.19698175 -5.11636636 -0.0306982 0 0 Z M-5.5 7.375 C-5.83 9.025 -6.16 10.675 -6.5 12.375 C-2.54 12.375 1.42 12.375 5.5 12.375 C5.17 10.725 4.84 9.075 4.5 7.375 C1.2 7.375 -2.1 7.375 -5.5 7.375 Z " fill="#767779" transform="translate(556.5,398.625)"/>
<path d="M0 0 C1.2890625 -0.00773437 2.578125 -0.01546875 3.90625 -0.0234375 C7.68600229 0.39562199 9.55208864 1.01453474 12.5 3.375 C15.67091835 7.8180832 14.62411812 13.16203899 14.5 18.375 C7.57 18.375 0.64 18.375 -6.5 18.375 C-5.84 20.355 -5.18 22.335 -4.5 24.375 C-1.2 24.705 2.1 25.035 5.5 25.375 C5.83 24.055 6.16 22.735 6.5 21.375 C9.14 21.375 11.78 21.375 14.5 21.375 C14.8125 24.625 14.8125 24.625 14.5 28.375 C11.14466594 31.91674151 8.15791627 33.16374233 3.38671875 33.54296875 C-2.73208563 33.59730982 -8.26014252 33.55591386 -12.875 29.0625 C-16.33986079 23.33215332 -16.29872825 16.36235207 -15.00390625 9.8984375 C-13.31288733 4.03241708 -13.31288733 4.03241708 -10.35546875 1.640625 C-6.74545188 0.0405628 -3.94024572 -0.02364147 0 0 Z M-6.5 9.375 C-6.5 10.365 -6.5 11.355 -6.5 12.375 C-2.21 12.375 2.08 12.375 6.5 12.375 C5.84 10.725 5.18 9.075 4.5 7.375 C3.04207116 7.32100264 1.58357288 7.28220823 0.125 7.25 C-1.09316406 7.21519531 -1.09316406 7.21519531 -2.3359375 7.1796875 C-4.71342243 7.16129949 -4.71342243 7.16129949 -6.5 9.375 Z " fill="#757779" transform="translate(187.5,398.625)"/>
<path d="M0 0 C2.97 0 5.94 0 9 0 C11.59705427 6.93426674 13.94383873 13.88695891 16 21 C16.21934204 20.09906616 16.21934204 20.09906616 16.44311523 19.17993164 C17.10425632 16.47321322 17.77080352 13.76785515 18.4375 11.0625 C18.66759766 10.11697266 18.89769531 9.17144531 19.13476562 8.19726562 C19.46831055 6.84858398 19.46831055 6.84858398 19.80859375 5.47265625 C20.11494751 4.22367554 20.11494751 4.22367554 20.42749023 2.94946289 C21 1 21 1 22 0 C23.51928038 -0.07179964 25.04167482 -0.08392007 26.5625 -0.0625 C27.38878906 -0.05347656 28.21507812 -0.04445313 29.06640625 -0.03515625 C29.70449219 -0.02355469 30.34257812 -0.01195312 31 0 C28.90344562 9.98946499 26.61389945 19.92892348 24.0625 29.8125 C23.72001221 31.21653076 23.72001221 31.21653076 23.37060547 32.64892578 C21.95912232 37.97957862 20.6813985 41.66207977 16 45 C13.32421875 45.48828125 13.32421875 45.48828125 10.6875 45.3125 C9.80449219 45.26738281 8.92148438 45.22226562 8.01171875 45.17578125 C7.01591797 45.08876953 7.01591797 45.08876953 6 45 C6 42.69 6 40.38 6 38 C7.98 38 9.96 38 12 38 C12.33 36.35 12.66 34.7 13 33 C12.01 32.67 11.02 32.34 10 32 C8.74145508 29.27197266 8.74145508 29.27197266 7.51953125 25.6640625 C7.30181564 25.02890717 7.08410004 24.39375183 6.85978699 23.73934937 C6.40135282 22.39452799 5.94864213 21.04774405 5.5012207 19.69921875 C4.81619016 17.63611365 4.11385881 15.57956793 3.40820312 13.5234375 C0 3.47052854 0 3.47052854 0 0 Z " fill="#707274" transform="translate(245,399)"/>
<path d="M0 0 C0.75087891 -0.02449219 1.50175781 -0.04898437 2.27539062 -0.07421875 C6.17523656 -0.09479841 8.13897587 0.11667245 11.546875 2.1953125 C14.03226094 4.8829973 14.31705069 6.77507673 14.5625 10.375 C11.5925 10.375 8.6225 10.375 5.5625 10.375 C5.5625 9.385 5.5625 8.395 5.5625 7.375 C4.28375 7.354375 3.005 7.33375 1.6875 7.3125 C0.96820312 7.30089844 0.24890625 7.28929687 -0.4921875 7.27734375 C-2.51935404 7.24850758 -2.51935404 7.24850758 -4.4375 8.375 C-4.4375 9.365 -4.4375 10.355 -4.4375 11.375 C-2.88289062 11.53935547 -2.88289062 11.53935547 -1.296875 11.70703125 C0.07299264 11.86653639 1.44278037 12.02672884 2.8125 12.1875 C3.83537109 12.29288086 3.83537109 12.29288086 4.87890625 12.40039062 C8.85245508 12.88261742 11.8920128 13.25830481 14.5625 16.375 C15.05859375 19.1875 15.05859375 19.1875 15 22.375 C14.99871094 23.426875 14.99742187 24.47875 14.99609375 25.5625 C14.5625 28.375 14.5625 28.375 13.2265625 30.17578125 C7.91276769 34.00520615 0.83578411 34.01841376 -5.4375 33.375 C-8.26722567 32.7091822 -9.8824927 31.91865024 -12.4375 30.375 C-14.39491553 27.0559041 -14.4375 25.29881547 -14.4375 21.375 C-11.4675 21.375 -8.4975 21.375 -5.4375 21.375 C-5.1075 22.695 -4.7775 24.015 -4.4375 25.375 C-1.1375 25.375 2.1625 25.375 5.5625 25.375 C5.8925 23.725 6.2225 22.075 6.5625 20.375 C5.45390625 20.33761719 4.3453125 20.30023438 3.203125 20.26171875 C1.73955026 20.19604552 0.27601009 20.12959865 -1.1875 20.0625 C-2.28191406 20.02866211 -2.28191406 20.02866211 -3.3984375 19.99414062 C-7.61248091 19.78343845 -10.47788918 19.52145494 -13.4375 16.375 C-14.8297653 12.1982041 -15.05841133 8.2894766 -13.6875 4.0625 C-10.32385535 -0.47842028 -5.19183828 0.00886736 0 0 Z " fill="#757779" transform="translate(597.4375,398.625)"/>
<path d="M0 0 C1.31613281 -0.02578125 2.63226562 -0.0515625 3.98828125 -0.078125 C7.82889876 0.26254223 9.65559217 0.93943827 12.6875 3.25 C14.78293806 6.24348295 14.8874733 8.65048059 14.6875 12.25 C11.7175 12.25 8.7475 12.25 5.6875 12.25 C5.3575 10.6 5.0275 8.95 4.6875 7.25 C0.2325 7.745 0.2325 7.745 -4.3125 8.25 C-4.3125 13.53 -4.3125 18.81 -4.3125 24.25 C-1.3425 24.25 1.6275 24.25 4.6875 24.25 C5.0175 22.6 5.3475 20.95 5.6875 19.25 C8.6575 19.25 11.6275 19.25 14.6875 19.25 C14.32152062 27.54553265 14.32152062 27.54553265 11.4375 30.75 C6.05249563 33.68727511 -0.31941758 34.32964058 -6.27734375 32.71875 C-10.09745937 31.23270079 -12.38017107 29.84265848 -14.3125 26.25 C-14.80468334 23.11951603 -14.82214644 20.03903073 -14.8125 16.875 C-14.84085937 16.03710938 -14.86921875 15.19921875 -14.8984375 14.3359375 C-14.91202095 10.01640135 -14.68504515 7.13335064 -11.90625 3.7109375 C-7.97865322 -0.0155474 -5.19786574 0.03964054 0 0 Z " fill="#757678" transform="translate(515.3125,398.75)"/>
<path d="M0 0 C0 0.99 0 1.98 0 3 C1.65 3 3.3 3 5 3 C4.67 4.32 4.34 5.64 4 7 C2.02 7 0.04 7 -2 7 C-2 8.65 -2 10.3 -2 12 C0.42267086 12.05167527 0.42267086 12.05167527 3 11 C4.73068271 7.545183 4.73068271 7.545183 6 4 C8.40545638 2.79727181 9.94996953 2.89928528 12.625 2.9375 C13.85089844 2.95103516 13.85089844 2.95103516 15.1015625 2.96484375 C16.04128906 2.98224609 16.04128906 2.98224609 17 3 C17.66 4.65 18.32 6.3 19 8 C19.35707031 7.18144531 19.71414062 6.36289062 20.08203125 5.51953125 C22 3 22 3 25.13671875 2.51171875 C26.89435547 2.59873047 26.89435547 2.59873047 28.6875 2.6875 C29.86699219 2.73261719 31.04648438 2.77773438 32.26171875 2.82421875 C33.61716797 2.91123047 33.61716797 2.91123047 35 3 C34.38120598 5.75153071 33.75523814 8.50108898 33.125 11.25 C32.95097656 12.02730469 32.77695313 12.80460937 32.59765625 13.60546875 C32.42363281 14.35957031 32.24960938 15.11367188 32.0703125 15.890625 C31.91320801 16.58188477 31.75610352 17.27314453 31.59423828 17.98535156 C30.94177573 20.19739798 30.21797355 22.03744392 29 24 C25.11651516 25.29449495 22.09302664 25.13203312 18 25 C17 24 17 24 16.9375 21.4375 C16.958125 20.633125 16.97875 19.82875 17 19 C18.65 19 20.3 19 22 19 C22 19.66 22 20.32 22 21 C22.99 20.34 23.98 19.68 25 19 C22.69 18.34 20.38 17.68 18 17 C18 15.35 18 13.7 18 12 C16.02 12.33 14.04 12.66 12 13 C13.65 13 15.3 13 17 13 C16.375 15.4375 16.375 15.4375 15 18 C11.11842236 19.20760193 7.87776563 19.21872634 4 18 C3.67 17.34 3.34 16.68 3 16 C2.34 16.66 1.68 17.32 1 18 C-1.1640625 18.1953125 -1.1640625 18.1953125 -3.625 18.125 C-4.44226563 18.10695313 -5.25953125 18.08890625 -6.1015625 18.0703125 C-6.72804688 18.04710937 -7.35453125 18.02390625 -8 18 C-9.16689603 14.05848452 -8.65159454 11.05436604 -8 7 C-8 5.68 -8 4.36 -8 3 C-5.77181756 -0.28363728 -3.80606122 -0.30859956 0 0 Z M25 7 C24.67 9.31 24.34 11.62 24 14 C24.99 13.67 25.98 13.34 27 13 C27.33 11.02 27.66 9.04 28 7 C27.01 7 26.02 7 25 7 Z " fill="#848587" transform="translate(85,456)"/>
<path d="M0 0 C0.33 0 0.66 0 1 0 C1.14695312 0.6290625 1.29390625 1.258125 1.4453125 1.90625 C4.22046576 12.49649003 10.23150969 20.01853511 19.65625 25.5625 C29.27554047 30.62528446 39.46279611 33.52065791 50 36 C50 39.63 50 43.26 50 47 C34.3031097 45.87879355 19.55663565 40.4622348 8.05859375 29.3984375 C4.81437917 25.6186505 2.81642826 21.60849267 1 17 C0.566875 16.01 0.13375 15.02 -0.3125 14 C-1.29999999 9.69090915 -1.35656764 5.40319577 -1 1 C-0.67 0.67 -0.34 0.34 0 0 Z " fill="#B9BBBD" transform="translate(126,205)"/>
<path d="M0 0 C2.97 0 5.94 0 9 0 C9 1.98 9 3.96 9 6 C14.445 6.495 14.445 6.495 20 7 C20 9.31 20 11.62 20 14 C16.37 14.33 12.74 14.66 9 15 C9 20.61 9 26.22 9 32 C10.32 31.67 11.64 31.34 13 31 C13.33 29.35 13.66 27.7 14 26 C16.64 26 19.28 26 22 26 C22.29130874 30.95224859 22.22986308 34.10188939 19 38 C15.01938791 40.65374139 10.97299012 40.03181742 6.40234375 39.6796875 C3.03201226 38.7261303 1.93720565 37.97008647 0 35 C-0.48690117 31.40389253 -0.37533412 27.87022796 -0.25 24.25 C-0.23195312 23.26644531 -0.21390625 22.28289062 -0.1953125 21.26953125 C-0.14824126 18.84536217 -0.08250742 16.42317941 0 14 C-1.32 14 -2.64 14 -4 14 C-4 11.69 -4 9.38 -4 7 C-2.68 7 -1.36 7 0 7 C0 4.69 0 2.38 0 0 Z " fill="#7C7E80" transform="translate(216,392)"/>
<path d="M0 0 C2.97 0 5.94 0 9 0 C10.98 6.6 12.96 13.2 15 20 C16.7948147 15.21382747 18.38288259 10.92859733 19.625 6.0625 C20.89279113 1.10720887 20.89279113 1.10720887 22 0 C23.51928038 -0.07179964 25.04167482 -0.08392007 26.5625 -0.0625 C27.38878906 -0.05347656 28.21507812 -0.04445313 29.06640625 -0.03515625 C29.70449219 -0.02355469 30.34257812 -0.01195312 31 0 C28.42486227 10.81845573 25.43213257 21.42227995 22 32 C17.71 32 13.42 32 9 32 C7.71281587 27.92657953 6.4312261 23.85145429 5.15478516 19.7746582 C4.7197955 18.38810838 4.28328237 17.00203555 3.84521484 15.61645508 C3.2157086 13.62444608 2.5917061 11.63078441 1.96875 9.63671875 C1.40317383 7.83787231 1.40317383 7.83787231 0.82617188 6.00268555 C0 3 0 3 0 0 Z " fill="#78797B" transform="translate(438,399)"/>
<path d="M0 0 C5.91438493 -0.31755087 10.79632925 0.77030304 16.4375 2.5 C17.30987305 2.76554687 18.18224609 3.03109375 19.08105469 3.3046875 C30.49193594 6.9295649 41.98255772 11.95856324 51 20 C51.59941406 20.51949219 52.19882812 21.03898437 52.81640625 21.57421875 C59.24682096 27.53242158 64.49455653 35.26842789 66 44 C66.14146753 48.00656256 66.11842735 51.9932079 66 56 C65.73574219 55.46890625 65.47148437 54.9378125 65.19921875 54.390625 C64.80347656 53.60171875 64.40773438 52.8128125 64 52 C63.26716797 50.53820312 63.26716797 50.53820312 62.51953125 49.046875 C56.75806798 37.91947226 49.69011587 27.5776661 37.38671875 23.03515625 C34.63823442 21.84309676 33.69686974 20.70055119 31.9375 18.3125 C23.73541621 8.59672692 11.81338642 5.25317875 0 2 C0 1.34 0 0.68 0 0 Z " fill="#3F3E3F" transform="translate(444,51)"/>
<path d="M0 0 C0.9075 0.00257813 1.815 0.00515625 2.75 0.0078125 C4.11125 0.00394531 4.11125 0.00394531 5.5 0 C7.75 0.1328125 7.75 0.1328125 8.75 1.1328125 C8.79063832 2.79898365 8.792721 4.46669345 8.75 6.1328125 C7.1 6.1328125 5.45 6.1328125 3.75 6.1328125 C3.75 5.4728125 3.75 4.8128125 3.75 4.1328125 C2.76 4.4628125 1.77 4.7928125 0.75 5.1328125 C-0.47520264 8.14128668 -0.47520264 8.14128668 -1.25 11.1328125 C-0.26 11.1328125 0.73 11.1328125 1.75 11.1328125 C1.75 10.4728125 1.75 9.8128125 1.75 9.1328125 C2.884375 8.8234375 4.01875 8.5140625 5.1875 8.1953125 C8.53775099 7.50356719 8.53775099 7.50356719 9.75 6.1328125 C12.42058851 5.99166089 15.07432238 6.09034143 17.75 6.1328125 C17.09 5.4728125 16.43 4.8128125 15.75 4.1328125 C15.42 4.4628125 15.09 4.7928125 14.75 5.1328125 C13.08382885 5.17345082 11.41611905 5.1755335 9.75 5.1328125 C10.625 1.2578125 10.625 1.2578125 11.75 0.1328125 C13.41429051 0.03457313 15.08281931 0.00307619 16.75 0.0078125 C18.11125 0.00394531 18.11125 0.00394531 19.5 0 C21.75 0.1328125 21.75 0.1328125 22.75 1.1328125 C23.03362108 5.9543708 22.50417412 9.63774131 20.75 14.1328125 C21.74 14.1328125 22.73 14.1328125 23.75 14.1328125 C23.84087891 13.11960937 23.84087891 13.11960937 23.93359375 12.0859375 C24.01738281 11.19390625 24.10117187 10.301875 24.1875 9.3828125 C24.26871094 8.50109375 24.34992188 7.619375 24.43359375 6.7109375 C24.71238465 4.43930798 25.13790577 2.33429427 25.75 0.1328125 C27.73 0.1328125 29.71 0.1328125 31.75 0.1328125 C31.09 3.7628125 30.43 7.3928125 29.75 11.1328125 C31.98339896 10.30026337 31.98339896 10.30026337 32.6015625 7.84765625 C32.98441406 6.47287109 32.98441406 6.47287109 33.375 5.0703125 C33.63539063 4.15121094 33.89578125 3.23210937 34.1640625 2.28515625 C34.35742188 1.57488281 34.55078125 0.86460937 34.75 0.1328125 C36.4 0.1328125 38.05 0.1328125 39.75 0.1328125 C39.19880349 5.36917937 38.26095593 10.06558226 36.75 15.1328125 C12.43912416 16.69585389 12.43912416 16.69585389 7.75 15.1328125 C7.75 14.4728125 7.75 13.8128125 7.75 13.1328125 C6.739375 13.6690625 5.72875 14.2053125 4.6875 14.7578125 C0.4148225 16.63255875 -1.99684436 15.7819953 -6.25 14.1328125 C-6.56549088 8.8746312 -5.95016294 5.66908623 -3.25 1.1328125 C-2.25 0.1328125 -2.25 0.1328125 0 0 Z M13.75 9.1328125 C13.42 10.1228125 13.09 11.1128125 12.75 12.1328125 C13.74 11.8028125 14.73 11.4728125 15.75 11.1328125 C15.75 10.4728125 15.75 9.8128125 15.75 9.1328125 C15.09 9.1328125 14.43 9.1328125 13.75 9.1328125 Z " fill="#848587" transform="translate(402.25,458.8671875)"/>
<path d="M0 0 C0.89203125 0.01804687 1.7840625 0.03609375 2.703125 0.0546875 C3.71632812 0.08949219 3.71632812 0.08949219 4.75 0.125 C4.75 2.435 4.75 4.745 4.75 7.125 C2.77 7.455 0.79 7.785 -1.25 8.125 C-1.58 9.775 -1.91 11.425 -2.25 13.125 C0.06 13.125 2.37 13.125 4.75 13.125 C4.75 15.435 4.75 17.745 4.75 20.125 C2.44 20.125 0.13 20.125 -2.25 20.125 C-2.25 28.375 -2.25 36.625 -2.25 45.125 C-5.22 45.125 -8.19 45.125 -11.25 45.125 C-11.25 36.875 -11.25 28.625 -11.25 20.125 C-12.57 20.125 -13.89 20.125 -15.25 20.125 C-15.25 17.815 -15.25 15.505 -15.25 13.125 C-13.93 13.125 -12.61 13.125 -11.25 13.125 C-11.311875 11.51625 -11.311875 11.51625 -11.375 9.875 C-11.20462478 4.76374346 -11.20462478 4.76374346 -9.25 2.125 C-6.09133319 0.14378265 -3.69168453 -0.09714959 0 0 Z " fill="#8D8E90" transform="translate(157.25,385.875)"/>
<path d="M0 0 C1.98 0 3.96 0 6 0 C5.67 0.99 5.34 1.98 5 3 C7.3431213 2.74438677 9.67843403 2.40729228 12 2 C12.33 1.34 12.66 0.68 13 0 C14.65 0 16.3 0 18 0 C18 0.99 18 1.98 18 3 C19.65 3 21.3 3 23 3 C22.67 4.32 22.34 5.64 22 7 C20.02 7 18.04 7 16 7 C16 8.65 16 10.3 16 12 C18.42267086 12.05167527 18.42267086 12.05167527 21 11 C22.73068271 7.545183 22.73068271 7.545183 24 4 C26.3796612 2.8101694 27.91485735 2.86650034 30.5625 2.875 C31.77099609 2.87113281 31.77099609 2.87113281 33.00390625 2.8671875 C35 3 35 3 36 4 C36.14115161 6.67058851 36.04247107 9.32432238 36 12 C34.02 12.33 32.04 12.66 30 13 C31.65 13 33.3 13 35 13 C34.375 15.4375 34.375 15.4375 33 18 C29.11842236 19.20760193 25.87776563 19.21872634 22 18 C21.67 17.34 21.34 16.68 21 16 C20.34 16.66 19.68 17.32 19 18 C16.8359375 18.1953125 16.8359375 18.1953125 14.375 18.125 C13.55773437 18.10695313 12.74046875 18.08890625 11.8984375 18.0703125 C11.27195312 18.04710937 10.64546875 18.02390625 10 18 C8.8299903 14.08263419 9.30415983 11.02040985 10 7 C8.02 7 6.04 7 4 7 C3.67 8.98 3.34 10.96 3 13 C3.33 12.67 3.66 12.34 4 12 C5.66014616 11.63557767 7.32706064 11.30027117 9 11 C7.125 16.875 7.125 16.875 6 18 C4.48071962 18.07179964 2.95832518 18.08392007 1.4375 18.0625 C0.61121094 18.05347656 -0.21507812 18.04445313 -1.06640625 18.03515625 C-2.02353516 18.01775391 -2.02353516 18.01775391 -3 18 C-2.91621094 17.31292969 -2.83242188 16.62585938 -2.74609375 15.91796875 C-2.64425781 15.01691406 -2.54242187 14.11585938 -2.4375 13.1875 C-2.33308594 12.29417969 -2.22867188 11.40085937 -2.12109375 10.48046875 C-1.84341291 7.86624428 -1.84341291 7.86624428 -3 5 C-2.67 4.34 -2.34 3.68 -2 3 C-1.34 3 -0.68 3 0 3 C0 2.01 0 1.02 0 0 Z " fill="#EE7A33" transform="translate(553,456)"/>
<path d="M0 0 C2.97 0 5.94 0 9 0 C9.33 3.3 9.66 6.6 10 10 C11.65 6.7 13.3 3.4 15 0 C18.3 0 21.6 0 25 0 C23.35 7.26 21.7 14.52 20 22 C18.02 22 16.04 22 14 22 C14.33 19.03 14.66 16.06 15 13 C13.35 15.97 11.7 18.94 10 22 C8.02 22 6.04 22 4 22 C3.67 19.03 3.34 16.06 3 13 C2.34 15.97 1.68 18.94 1 22 C-0.98 22 -2.96 22 -5 22 C-4.38955672 14.36945905 -2.20378179 7.29810526 0 0 Z " fill="#F7A01B" transform="translate(511,452)"/>
<path d="M0 0 C3.66666667 0 7.33333333 0 11 0 C12.04994141 -0.06960938 12.04994141 -0.06960938 13.12109375 -0.140625 C19.41618191 -0.43786356 19.41618191 -0.43786356 22.5 1.875 C25.21650426 5.72338104 25.08689337 8.307758 25 13 C22.03 13 19.06 13 16 13 C16 11.02 16 9.04 16 7 C14.02 7.33 12.04 7.66 10 8 C9.67 15.92 9.34 23.84 9 32 C6.03 32 3.06 32 0 32 C0 21.44 0 10.88 0 0 Z " fill="#7F8082" transform="translate(405,399)"/>
<path d="M0 0 C1.98 0 3.96 0 6 0 C5.67 0.99 5.34 1.98 5 3 C8.3 3 11.6 3 15 3 C15.33 5.31 15.66 7.62 16 10 C16.99 7.69 17.98 5.38 19 3 C20.98 3 22.96 3 25 3 C17.85361217 21.76425856 17.85361217 21.76425856 13 25 C10.3125 25.125 10.3125 25.125 8 25 C8.3125 23.125 8.3125 23.125 9 21 C9.99 20.34 10.98 19.68 12 19 C11.34 18.67 10.68 18.34 10 18 C9.5859375 15.49609375 9.5859375 15.49609375 9.375 12.4375 C9.26285156 10.91962891 9.26285156 10.91962891 9.1484375 9.37109375 C9.09945313 8.58863281 9.05046875 7.80617188 9 7 C7.35 7 5.7 7 4 7 C3.67 8.98 3.34 10.96 3 13 C3.33 12.67 3.66 12.34 4 12 C5.66014616 11.63557767 7.32706064 11.30027117 9 11 C7.125 16.875 7.125 16.875 6 18 C4.48071962 18.07179964 2.95832518 18.08392007 1.4375 18.0625 C0.61121094 18.05347656 -0.21507812 18.04445313 -1.06640625 18.03515625 C-2.02353516 18.01775391 -2.02353516 18.01775391 -3 18 C-2.91621094 17.31292969 -2.83242188 16.62585938 -2.74609375 15.91796875 C-2.64425781 15.01691406 -2.54242188 14.11585938 -2.4375 13.1875 C-2.33308594 12.29417969 -2.22867187 11.40085937 -2.12109375 10.48046875 C-1.84341291 7.86624428 -1.84341291 7.86624428 -3 5 C-2.67 4.34 -2.34 3.68 -2 3 C-1.34 3 -0.68 3 0 3 C0 2.01 0 1.02 0 0 Z " fill="#F5A622" transform="translate(324,456)"/>
<path d="M0 0 C2.10409639 -0.02701408 4.20829178 -0.04640223 6.3125 -0.0625 C7.48425781 -0.07410156 8.65601563 -0.08570313 9.86328125 -0.09765625 C13 0 13 0 16 1 C16.16966615 5.41131991 16.00075325 8.12354057 14 12 C14.020625 12.99 14.04125 13.98 14.0625 15 C14 18 14 18 13.0078125 20.171875 C9.94781817 22.9580177 6.72229383 22.42756269 2.8125 22.25 C2.06291016 22.23195313 1.31332031 22.21390625 0.54101562 22.1953125 C-1.3065371 22.14824109 -3.15343159 22.07649766 -5 22 C-4.35482025 19.08318736 -3.7088818 16.16654627 -3.0625 13.25 C-2.88009766 12.425 -2.69769531 11.6 -2.50976562 10.75 C-2.33251953 9.95078125 -2.15527344 9.1515625 -1.97265625 8.328125 C-1.72914429 7.22839355 -1.72914429 7.22839355 -1.48071289 6.10644531 C-1.01446454 4.06338247 -0.51579351 2.03106238 0 0 Z M5 6 C4.67 6.99 4.34 7.98 4 9 C5.65 9 7.3 9 9 9 C9.33 8.01 9.66 7.02 10 6 C8.35 6 6.7 6 5 6 Z M3 14 C3 14.99 3 15.98 3 17 C4.65 16.67 6.3 16.34 8 16 C8 15.34 8 14.68 8 14 C6.35 14 4.7 14 3 14 Z " fill="#848587" transform="translate(366,452)"/>
<path d="M0 0 C1.98 0 3.96 0 6 0 C5.67 0.99 5.34 1.98 5 3 C6.65 3 8.3 3 10 3 C9.67 4.32 9.34 5.64 9 7 C7.35 7 5.7 7 4 7 C3.67 8.98 3.34 10.96 3 13 C3.33 12.67 3.66 12.34 4 12 C4.78375 11.773125 5.5675 11.54625 6.375 11.3125 C9.86726712 9.56636644 10.5036034 7.51653202 12 4 C13 3 13 3 15.25 2.8671875 C16.1575 2.86976563 17.065 2.87234375 18 2.875 C19.36125 2.87113281 19.36125 2.87113281 20.75 2.8671875 C23 3 23 3 24 4 C24.36844407 9.43454999 24.42031897 13.47635233 21 18 C16.28751557 19.39629168 13.37275267 19.12390844 9 17 C8.34 17 7.68 17 7 17 C6.67 17.33 6.34 17.66 6 18 C4.48071962 18.07179964 2.95832518 18.08392007 1.4375 18.0625 C0.61121094 18.05347656 -0.21507812 18.04445313 -1.06640625 18.03515625 C-2.02353516 18.01775391 -2.02353516 18.01775391 -3 18 C-2.91621094 17.31292969 -2.83242187 16.62585938 -2.74609375 15.91796875 C-2.64425781 15.01691406 -2.54242188 14.11585938 -2.4375 13.1875 C-2.33308594 12.29417969 -2.22867188 11.40085937 -2.12109375 10.48046875 C-1.84341291 7.86624428 -1.84341291 7.86624428 -3 5 C-2.67 4.34 -2.34 3.68 -2 3 C-1.34 3 -0.68 3 0 3 C0 2.01 0 1.02 0 0 Z M16 7 C15.34 9.31 14.68 11.62 14 14 C15.32 13.67 16.64 13.34 18 13 C18.33 11.02 18.66 9.04 19 7 C18.01 7 17.02 7 16 7 Z " fill="#848587" transform="translate(167,456)"/>
<path d="M0 0 C0.99 0.66 1.98 1.32 3 2 C3.25 4.5625 3.25 4.5625 3 7 C2 8 2 8 -0.5625 8.0625 C-1.366875 8.041875 -2.17125 8.02125 -3 8 C-3.33 7.34 -3.66 6.68 -4 6 C-4.99 6 -5.98 6 -7 6 C-7 6.66 -7 7.32 -7 8 C-5.865625 8.144375 -4.73125 8.28875 -3.5625 8.4375 C0 9 0 9 1 10 C1.45229682 16.8975265 1.45229682 16.8975265 0 20.4375 C-3.05358082 22.82311002 -6.24224948 23.08914372 -10 23 C-12.46579008 22.53187068 -14.62227395 21.84211131 -17 21 C-17.042721 19.33388095 -17.04063832 17.66617115 -17 16 C-16 15 -16 15 -13.4375 14.9375 C-12.633125 14.958125 -11.82875 14.97875 -11 15 C-11 15.66 -11 16.32 -11 17 C-9.02 17 -7.04 17 -5 17 C-5 16.01 -5 15.02 -5 14 C-6.093125 14.04125 -7.18625 14.0825 -8.3125 14.125 C-12 14 -12 14 -15 12 C-14.64 4.8 -14.64 4.8 -12 1.5 C-7.99365848 -0.50317076 -4.41034167 -0.71027974 0 0 Z " fill="#F7A01B" transform="translate(278,452)"/>
<path d="M0 0 C8 0 16 0 24 0 C24.625 1.875 24.625 1.875 25 4 C24.34 4.66 23.68 5.32 23 6 C23.185625 6.78375 23.37125 7.5675 23.5625 8.375 C24 11 24 11 22.9375 13.25 C20.29080064 15.64056717 18.54330568 15.86104684 15 16 C11.625 15.0625 11.625 15.0625 9 14 C9 12.68 9 11.36 9 10 C9.66 9.67 10.32 9.34 11 9 C11 8.34 11 7.68 11 7 C9.35 7 7.7 7 6 7 C5.67 6.34 5.34 5.68 5 5 C4.01 8.3 3.02 11.6 2 15 C0.35 15 -1.3 15 -3 15 C-2.44854729 9.76119922 -1.57077907 5.02649303 0 0 Z M15 10 C15 10.66 15 11.32 15 12 C15.99 12 16.98 12 18 12 C18 11.34 18 10.68 18 10 C17.01 10 16.02 10 15 10 Z " fill="#F4A224" transform="translate(592,459)"/>
<path d="M0 0 C0 3.63 0 7.26 0 11 C-8.6934915 13.04477093 -17.08224467 14.45623443 -26 15 C-26 11.37 -26 7.74 -26 4 C-22.60520356 3.32764421 -19.20933191 2.6619238 -15.8125 2 C-14.37293945 1.71382812 -14.37293945 1.71382812 -12.90429688 1.421875 C-11.97294922 1.24140625 -11.04160156 1.0609375 -10.08203125 0.875 C-8.80162964 0.62363281 -8.80162964 0.62363281 -7.49536133 0.3671875 C-5 0 -5 0 0 0 Z " fill="#ADAEB0" transform="translate(272,236)"/>
<path d="M0 0 C2.97 0 5.94 0 9 0 C9 10.56 9 21.12 9 32 C6.03 32 3.06 32 0 32 C0 21.44 0 10.88 0 0 Z " fill="#767779" transform="translate(479,399)"/>
<path d="M0 0 C12.54 0 25.08 0 38 0 C38 2.31 38 4.62 38 7 C25.46 7 12.92 7 0 7 C0 4.69 0 2.38 0 0 Z " fill="#7E7F81" transform="translate(7,408)"/>
<path d="M0 0 C12.21 0 24.42 0 37 0 C37 2.31 37 4.62 37 7 C24.79 7 12.58 7 0 7 C0 4.69 0 2.38 0 0 Z " fill="#7E7F81" transform="translate(620,408)"/>
<path d="M0 0 C6.27 0 12.54 0 19 0 C19.09765625 9.27734375 19.09765625 9.27734375 19 12 C18 13 18 13 16.23413086 13.11352539 C15.48526611 13.10828857 14.73640137 13.10305176 13.96484375 13.09765625 C13.15595703 13.09443359 12.34707031 13.09121094 11.51367188 13.08789062 C10.66353516 13.07951172 9.81339844 13.07113281 8.9375 13.0625 C8.08349609 13.05798828 7.22949219 13.05347656 6.34960938 13.04882812 C4.23304337 13.03700373 2.11651315 13.01906769 0 13 C0 8.71 0 4.42 0 0 Z " fill="#FBC40A" transform="translate(312,287)"/>
<path d="M0 0 C5.94 0 11.88 0 18 0 C18 4.29 18 8.58 18 13 C12.06 13 6.12 13 0 13 C0 8.71 0 4.42 0 0 Z " fill="#FBC40A" transform="translate(532,287)"/>
<path d="M0 0 C1.98 0 3.96 0 6 0 C5.67 0.99 5.34 1.98 5 3 C7.3431213 2.74438677 9.67843403 2.40729228 12 2 C12.33 1.34 12.66 0.68 13 0 C14.65 0 16.3 0 18 0 C18 0.99 18 1.98 18 3 C19.65 3 21.3 3 23 3 C22.67 4.32 22.34 5.64 22 7 C20.02 7 18.04 7 16 7 C16 7.99 16 8.98 16 10 C13.625 10.1875 13.625 10.1875 11 10 C10.34 9.01 9.68 8.02 9 7 C6.41619823 6.74969023 6.41619823 6.74969023 4 7 C3.67 8.98 3.34 10.96 3 13 C3.33 12.67 3.66 12.34 4 12 C5.66014616 11.63557767 7.32706064 11.30027117 9 11 C7.125 16.875 7.125 16.875 6 18 C4.48071962 18.07179964 2.95832518 18.08392007 1.4375 18.0625 C0.61121094 18.05347656 -0.21507812 18.04445313 -1.06640625 18.03515625 C-2.02353516 18.01775391 -2.02353516 18.01775391 -3 18 C-2.91621094 17.31292969 -2.83242188 16.62585938 -2.74609375 15.91796875 C-2.64425781 15.01691406 -2.54242187 14.11585938 -2.4375 13.1875 C-2.33308594 12.29417969 -2.22867188 11.40085937 -2.12109375 10.48046875 C-1.84341291 7.86624428 -1.84341291 7.86624428 -3 5 C-2.67 4.34 -2.34 3.68 -2 3 C-1.34 3 -0.68 3 0 3 C0 2.01 0 1.02 0 0 Z " fill="#F5A721" transform="translate(553,456)"/>
<path d="M0 0 C0 3.96 0 7.92 0 12 C-2.78906461 13.50501988 -5.58100719 15.0041807 -8.375 16.5 C-9.1690625 16.92925781 -9.963125 17.35851562 -10.78125 17.80078125 C-11.92207031 18.40986328 -11.92207031 18.40986328 -13.0859375 19.03125 C-13.7876709 19.40830078 -14.4894043 19.78535156 -15.21240234 20.17382812 C-17 21 -17 21 -19 21 C-20.17653705 16.95517328 -20.43981929 13.99838317 -19 10 C-14.57620729 5.93792594 -6.18022741 0 0 0 Z " fill="#6F6E6F" transform="translate(404,184)"/>
<path d="M0 0 C1.65 0 3.3 0 5 0 C5 0.66 5 1.32 5 2 C5.99 2 6.98 2 8 2 C8.33 1.34 8.66 0.68 9 0 C10.98 0 12.96 0 15 0 C7.85361217 18.76425856 7.85361217 18.76425856 3 22 C0.3125 22.125 0.3125 22.125 -2 22 C-1.6875 20.125 -1.6875 20.125 -1 18 C-0.01 17.34 0.98 16.68 2 16 C1.34 15.67 0.68 15.34 0 15 C0 10.05 0 5.1 0 0 Z M6 5 C5.67 6.32 5.34 7.64 5 9 C5.66 7.68 6.32 6.36 7 5 C6.67 5 6.34 5 6 5 Z " fill="#848587" transform="translate(200,459)"/>
<path d="M0 0 C0.33 0 0.66 0 1 0 C2.03254464 14.97189731 -4.47946299 28.09419302 -13.125 39.90234375 C-13.74375 40.59457031 -14.3625 41.28679687 -15 42 C-15.66 42 -16.32 42 -17 42 C-18.16680855 34.48056714 -15.70688493 30.3409934 -11.56616211 24.30957031 C-6.38526319 16.76075514 -3.07936399 8.58980482 0 0 Z " fill="#403D3E" transform="translate(485,98)"/>
<path d="M0 0 C3.63 0 7.26 0 11 0 C11.86720375 4.33601875 12.09909465 5.77355883 11.125 9.75 C10.94195312 10.52859375 10.75890625 11.3071875 10.5703125 12.109375 C10 14 10 14 9 15 C7.38415481 15.28668221 5.75595569 15.5054948 4.125 15.6875 C3.24070313 15.79449219 2.35640625 15.90148437 1.4453125 16.01171875 C-1 16 -1 16 -4 14 C-3.74438677 11.6568787 -3.40729228 9.32156597 -3 7 C-0.04335481 5.5216774 2.74229737 5.93967217 6 6 C5.67 5.34 5.34 4.68 5 4 C4.67 4.33 4.34 4.66 4 5 C2.00041636 5.04080783 -0.00045254 5.04254356 -2 5 C-1.34 3.35 -0.68 1.7 0 0 Z M2 9 C2 9.99 2 10.98 2 12 C2.99 11.67 3.98 11.34 5 11 C5 10.34 5 9.68 5 9 C4.01 9 3.02 9 2 9 Z " fill="#848587" transform="translate(136,459)"/>
<path d="M0 0 C0.9075 0.00257813 1.815 0.00515625 2.75 0.0078125 C4.11125 0.00394531 4.11125 0.00394531 5.5 0 C7.75 0.1328125 7.75 0.1328125 8.75 1.1328125 C8.98529412 6.66222426 8.98529412 6.66222426 7.75 9.1328125 C4.78 9.1328125 1.81 9.1328125 -1.25 9.1328125 C-1.25 9.7928125 -1.25 10.4528125 -1.25 11.1328125 C3.205 10.6378125 3.205 10.6378125 7.75 10.1328125 C6.625 12.5703125 6.625 12.5703125 4.75 15.1328125 C0.42520309 16.54307236 -2.21959636 16.14801432 -6.25 14.1328125 C-6.56549088 8.8746312 -5.95016294 5.66908623 -3.25 1.1328125 C-2.25 0.1328125 -2.25 0.1328125 0 0 Z " fill="#848587" transform="translate(387.25,458.8671875)"/>
<path d="M0 0 C0.9075 0.00257813 1.815 0.00515625 2.75 0.0078125 C4.11125 0.00394531 4.11125 0.00394531 5.5 0 C7.75 0.1328125 7.75 0.1328125 8.75 1.1328125 C9.06046812 6.3072812 8.33455205 10.28012184 6.75 15.1328125 C5.14679026 15.32832588 3.54237014 15.51393233 1.9375 15.6953125 C1.04417969 15.79972656 0.15085937 15.90414063 -0.76953125 16.01171875 C-3.25 16.1328125 -3.25 16.1328125 -6.25 15.1328125 C-7.125 13.3828125 -7.125 13.3828125 -7.25 11.1328125 C-6.3125 8.3828125 -6.3125 8.3828125 -4.25 6.1328125 C-1.45424428 5.68703255 0.8930794 5.89863868 3.75 6.1328125 C3.09 5.4728125 2.43 4.8128125 1.75 4.1328125 C1.42 4.4628125 1.09 4.7928125 0.75 5.1328125 C-0.91617115 5.17345082 -2.58388095 5.1755335 -4.25 5.1328125 C-3.13273357 0.1849183 -3.13273357 0.1849183 0 0 Z M-0.25 9.1328125 C-0.58 10.1228125 -0.91 11.1128125 -1.25 12.1328125 C-0.26 11.8028125 0.73 11.4728125 1.75 11.1328125 C1.75 10.4728125 1.75 9.8128125 1.75 9.1328125 C1.09 9.1328125 0.43 9.1328125 -0.25 9.1328125 Z " fill="#ED7434" transform="translate(540.25,458.8671875)"/>
<path d="M0 0 C0.9075 0.00257813 1.815 0.00515625 2.75 0.0078125 C4.11125 0.00394531 4.11125 0.00394531 5.5 0 C7.75 0.1328125 7.75 0.1328125 8.75 1.1328125 C9.06046812 6.3072812 8.33455205 10.28012184 6.75 15.1328125 C5.14679026 15.32832588 3.54237014 15.51393233 1.9375 15.6953125 C1.04417969 15.79972656 0.15085937 15.90414063 -0.76953125 16.01171875 C-3.25 16.1328125 -3.25 16.1328125 -6.25 15.1328125 C-7.125 13.3828125 -7.125 13.3828125 -7.25 11.1328125 C-6.3125 8.3828125 -6.3125 8.3828125 -4.25 6.1328125 C-1.45424428 5.68703255 0.8930794 5.89863868 3.75 6.1328125 C3.09 5.4728125 2.43 4.8128125 1.75 4.1328125 C1.42 4.4628125 1.09 4.7928125 0.75 5.1328125 C-0.91617115 5.17345082 -2.58388095 5.1755335 -4.25 5.1328125 C-3.13273357 0.1849183 -3.13273357 0.1849183 0 0 Z M-0.25 9.1328125 C-0.58 10.1228125 -0.91 11.1128125 -1.25 12.1328125 C-0.26 11.8028125 0.73 11.4728125 1.75 11.1328125 C1.75 10.4728125 1.75 9.8128125 1.75 9.1328125 C1.09 9.1328125 0.43 9.1328125 -0.25 9.1328125 Z " fill="#ED7434" transform="translate(286.25,458.8671875)"/>
<path d="M0 0 C1.20849609 -0.00386719 1.20849609 -0.00386719 2.44140625 -0.0078125 C4.4375 0.125 4.4375 0.125 5.4375 1.125 C5.57865161 3.79558851 5.47997107 6.44932238 5.4375 9.125 C3.4575 9.455 1.4775 9.785 -0.5625 10.125 C1.0875 10.125 2.7375 10.125 4.4375 10.125 C3.8125 12.5625 3.8125 12.5625 2.4375 15.125 C-1.50724337 16.35225349 -4.60040343 16.17379027 -8.5625 15.125 C-10.02605943 9.80296569 -9.14429834 5.89052205 -6.5625 1.125 C-4.1828388 -0.0648306 -2.64764265 -0.00849966 0 0 Z " fill="#ED7434" transform="translate(314.5625,458.875)"/>
<path d="M0 0 C1.20849609 -0.00386719 1.20849609 -0.00386719 2.44140625 -0.0078125 C4.4375 0.125 4.4375 0.125 5.4375 1.125 C5.57865161 3.79558851 5.47997107 6.44932238 5.4375 9.125 C3.4575 9.455 1.4775 9.785 -0.5625 10.125 C1.0875 10.125 2.7375 10.125 4.4375 10.125 C3.8125 12.5625 3.8125 12.5625 2.4375 15.125 C-1.50724337 16.35225349 -4.60040343 16.17379027 -8.5625 15.125 C-10.02605943 9.80296569 -9.14429834 5.89052205 -6.5625 1.125 C-4.1828388 -0.0648306 -2.64764265 -0.00849966 0 0 Z " fill="#848587" transform="translate(465.5625,458.875)"/>
<path d="M0 0 C1.33998047 0.06960938 1.33998047 0.06960938 2.70703125 0.140625 C3.60808594 0.17671875 4.50914062 0.2128125 5.4375 0.25 C6.46810547 0.31960938 6.46810547 0.31960938 7.51953125 0.390625 C7.90171892 2.04677157 8.23348227 3.71519524 8.51953125 5.390625 C8.18953125 5.720625 7.85953125 6.050625 7.51953125 6.390625 C7.58140625 7.81375 7.58140625 7.81375 7.64453125 9.265625 C7.51953125 12.390625 7.51953125 12.390625 6.39453125 14.203125 C2.93529479 16.39397476 -0.37505147 16.55884067 -4.35546875 15.953125 C-5.05671875 15.7675 -5.75796875 15.581875 -6.48046875 15.390625 C-6.48046875 13.740625 -6.48046875 12.090625 -6.48046875 10.390625 C-5.82046875 10.060625 -5.16046875 9.730625 -4.48046875 9.390625 C-4.70734375 8.648125 -4.93421875 7.905625 -5.16796875 7.140625 C-5.48046875 4.390625 -5.48046875 4.390625 -4.32421875 2.234375 C-2.48046875 0.390625 -2.48046875 0.390625 0 0 Z M1.51953125 3.390625 C1.18953125 4.050625 0.85953125 4.710625 0.51953125 5.390625 C1.50953125 5.060625 2.49953125 4.730625 3.51953125 4.390625 C2.85953125 4.060625 2.19953125 3.730625 1.51953125 3.390625 Z M-1.48046875 10.390625 C-1.15046875 11.050625 -0.82046875 11.710625 -0.48046875 12.390625 C0.50953125 12.060625 1.49953125 11.730625 2.51953125 11.390625 C1.19953125 11.060625 -0.12046875 10.730625 -1.48046875 10.390625 Z " fill="#848587" transform="translate(447.48046875,458.609375)"/>
<path d="M0 0 C1.65 0 3.3 0 5 0 C4.125 7.625 4.125 7.625 3 11 C6.12455058 9.35820641 6.12455058 9.35820641 6.73046875 6.8359375 C6.88128906 6.02382813 7.03210938 5.21171875 7.1875 4.375 C7.34605469 3.55773437 7.50460938 2.74046875 7.66796875 1.8984375 C7.77753906 1.27195312 7.88710937 0.64546875 8 0 C9.98 0 11.96 0 14 0 C13.5253725 2.3134359 13.04517721 4.62573019 12.5625 6.9375 C12.29566406 8.22527344 12.02882812 9.51304687 11.75390625 10.83984375 C11 14 11 14 10 15 C8.5728386 15.28659022 7.13172901 15.50549405 5.6875 15.6875 C4.90761719 15.79449219 4.12773437 15.90148437 3.32421875 16.01171875 C0.68105091 15.99839185 -0.75381115 15.34154528 -3 14 C-2.48594831 9.03083364 -1.76615118 4.70973649 0 0 Z " fill="#848587" transform="translate(231,459)"/>
<path d="M0 0 C0.9075 0.00257813 1.815 0.00515625 2.75 0.0078125 C4.11125 0.00394531 4.11125 0.00394531 5.5 0 C7.75 0.1328125 7.75 0.1328125 8.75 1.1328125 C9.11844407 6.56736249 9.17031897 10.60916483 5.75 15.1328125 C1.09993885 16.5106084 -1.94656144 16.3497354 -6.25 14.1328125 C-6.56549088 8.8746312 -5.95016294 5.66908623 -3.25 1.1328125 C-2.25 0.1328125 -2.25 0.1328125 0 0 Z M0.75 4.1328125 C0.09 6.4428125 -0.57 8.7528125 -1.25 11.1328125 C0.07 10.8028125 1.39 10.4728125 2.75 10.1328125 C3.08 8.1528125 3.41 6.1728125 3.75 4.1328125 C2.76 4.1328125 1.77 4.1328125 0.75 4.1328125 Z " fill="#848587" transform="translate(219.25,458.8671875)"/>
<path d="M0 0 C1.97909398 -0.02686553 3.95828971 -0.04633375 5.9375 -0.0625 C7.03964844 -0.07410156 8.14179687 -0.08570313 9.27734375 -0.09765625 C12 0 12 0 13 1 C12.78633888 5.70054457 12.03548394 10.41428541 11 15 C9.02 15 7.04 15 5 15 C5.66 11.37 6.32 7.74 7 4 C4.76660104 4.83254913 4.76660104 4.83254913 4.1484375 7.28515625 C3.89320312 8.20167969 3.63796875 9.11820312 3.375 10.0625 C3.11460938 10.98160156 2.85421875 11.90070313 2.5859375 12.84765625 C2.39257812 13.55792969 2.19921875 14.26820313 2 15 C0.35 15 -1.3 15 -3 15 C-2.44854729 9.76119922 -1.57077907 5.02649303 0 0 Z " fill="#848587" transform="translate(63,459)"/>
<path d="M0 0 C0.33 0 0.66 0 1 0 C1 9.24 1 18.48 1 28 C5.29 27.34 9.58 26.68 14 26 C15.65 26 17.3 26 19 26 C18.67 21.38 18.34 16.76 18 12 C18.66 12 19.32 12 20 12 C20 18.6 20 25.2 20 32 C13.00194362 33.27237389 7.19278906 34 0 34 C0 22.78 0 11.56 0 0 Z " fill="#EA603B" transform="translate(249,193)"/>
<path d="M0 0 C1.93627769 -0.10807131 3.87427756 -0.1856225 5.8125 -0.25 C7.43091797 -0.31960937 7.43091797 -0.31960937 9.08203125 -0.390625 C12 0 12 0 13.82421875 1.578125 C15 4 15 4 16 11 C10.72 11 5.44 11 0 11 C0 7.37 0 3.74 0 0 Z " fill="#ED753B" transform="translate(418,100)"/>
<path d="M0 0 C0 0.99 0 1.98 0 3 C1.65 3 3.3 3 5 3 C4.67 4.32 4.34 5.64 4 7 C2.02 7 0.04 7 -2 7 C-2 8.65 -2 10.3 -2 12 C-0.35 11.67 1.3 11.34 3 11 C2.125 16.875 2.125 16.875 1 18 C-0.51928038 18.07179964 -2.04167482 18.08392007 -3.5625 18.0625 C-4.38878906 18.05347656 -5.21507812 18.04445313 -6.06640625 18.03515625 C-7.02353516 18.01775391 -7.02353516 18.01775391 -8 18 C-9.16689603 14.05848452 -8.65159454 11.05436604 -8 7 C-8 5.68 -8 4.36 -8 3 C-5.77181756 -0.28363728 -3.80606122 -0.30859956 0 0 Z " fill="#848587" transform="translate(496,456)"/>
<path d="M0 0 C-0.3125 1.875 -0.3125 1.875 -1 4 C-1.99 4.66 -2.98 5.32 -4 6 C-3.34 6.33 -2.68 6.66 -2 7 C-2.33 8.32 -2.66 9.64 -3 11 C-3.99 11 -4.98 11 -6 11 C-6.66 14.63 -7.32 18.26 -8 22 C-9.98 22 -11.96 22 -14 22 C-12.515 16.555 -12.515 16.555 -11 11 C-11.66 10.67 -12.32 10.34 -13 10 C-12.67 9.01 -12.34 8.02 -12 7 C-11.34 7 -10.68 7 -10 7 C-9.731875 6.030625 -9.46375 5.06125 -9.1875 4.0625 C-8.795625 3.051875 -8.40375 2.04125 -8 1 C-5.07175348 0.02391783 -3.04386724 -0.08226668 0 0 Z " fill="#F7A01B" transform="translate(309,452)"/>
<path d="M0 0 C1.98 0 3.96 0 6 0 C4.15217391 18.84782609 4.15217391 18.84782609 1 22 C-0.99958364 22.04080783 -3.00045254 22.04254356 -5 22 C-4.35482025 19.08318736 -3.7088818 16.16654627 -3.0625 13.25 C-2.88009766 12.425 -2.69769531 11.6 -2.50976562 10.75 C-2.33251953 9.95078125 -2.15527344 9.1515625 -1.97265625 8.328125 C-1.72914429 7.22839355 -1.72914429 7.22839355 -1.48071289 6.10644531 C-1.01446454 4.06338247 -0.51579351 2.03106238 0 0 Z " fill="#848587" transform="translate(56,452)"/>
<path d="M0 0 C0.33 0 0.66 0 1 0 C2.68133523 15.89626035 2.68133523 15.89626035 -1.37890625 20.9765625 C-8.38431818 26 -8.38431818 26 -12 26 C-11.67 17.75 -11.34 9.5 -11 1 C-10.34 1.33 -9.68 1.66 -9 2 C-9.33 6.95 -9.66 11.9 -10 17 C-8.88625 16.38125 -7.7725 15.7625 -6.625 15.125 C-5.99851562 14.77695313 -5.37203125 14.42890625 -4.7265625 14.0703125 C-2.8387386 12.99102726 -2.8387386 12.99102726 -1 11 C-0.53709779 8.33757179 -0.53709779 8.33757179 -0.375 5.375 C-0.30023438 4.37210938 -0.22546875 3.36921875 -0.1484375 2.3359375 C-0.09945313 1.56507813 -0.05046875 0.79421875 0 0 Z " fill="#EA633B" transform="translate(400,151)"/>
<path d="M0 0 C1.51400391 0.01740234 1.51400391 0.01740234 3.05859375 0.03515625 C4.07050781 0.04417969 5.08242187 0.05320312 6.125 0.0625 C7.29869141 0.07990234 7.29869141 0.07990234 8.49609375 0.09765625 C8.16609375 2.40765625 7.83609375 4.71765625 7.49609375 7.09765625 C5.84609375 7.09765625 4.19609375 7.09765625 2.49609375 7.09765625 C2.82609375 6.10765625 3.15609375 5.11765625 3.49609375 4.09765625 C2.83609375 4.09765625 2.17609375 4.09765625 1.49609375 4.09765625 C1.36332031 4.80792969 1.23054687 5.51820313 1.09375 6.25 C0.82884766 7.62865234 0.82884766 7.62865234 0.55859375 9.03515625 C0.38457031 9.95167969 0.21054688 10.86820312 0.03125 11.8125 C-0.50390625 14.09765625 -0.50390625 14.09765625 -1.50390625 15.09765625 C-3.1700774 15.13829457 -4.8377872 15.14037725 -6.50390625 15.09765625 C-6.02927875 12.78422035 -5.54908346 10.47192606 -5.06640625 8.16015625 C-4.79957031 6.87238281 -4.53273437 5.58460938 -4.2578125 4.2578125 C-3.27249138 0.12763227 -3.27249138 0.12763227 0 0 Z " fill="#848587" transform="translate(249.50390625,458.90234375)"/>
<path d="M0 0 C3.63 0 7.26 0 11 0 C11 2.31 11 4.62 11 7 C9.35 7 7.7 7 6 7 C5.67 6.34 5.34 5.68 5 5 C4.01 8.3 3.02 11.6 2 15 C0.35 15 -1.3 15 -3 15 C-2.44854729 9.76119922 -1.57077907 5.02649303 0 0 Z " fill="#848587" transform="translate(122,459)"/>
<path d="M0 0 C1.65 0 3.3 0 5 0 C3.45454545 18.54545455 3.45454545 18.54545455 0 22 C-1.66617115 22.04063832 -3.33388095 22.042721 -5 22 C-4.35706295 18.89522615 -3.71015082 15.7912937 -3.0625 12.6875 C-2.88009766 11.80642578 -2.69769531 10.92535156 -2.50976562 10.01757812 C-2.33251953 9.17001953 -2.15527344 8.32246094 -1.97265625 7.44921875 C-1.72914429 6.27879028 -1.72914429 6.27879028 -1.48071289 5.0847168 C-1 3 -1 3 0 0 Z " fill="#848587" transform="translate(152,452)"/>
<path d="M0 0 C1.98 0 3.96 0 6 0 C5.25 5.75 5.25 5.75 3 8 C-2.76825978 9.17320538 -6.4761763 8.95635423 -12 7 C-12.042721 5.33388095 -12.04063832 3.66617115 -12 2 C-11 1 -11 1 -8.4375 0.9375 C-7.2309375 0.9684375 -7.2309375 0.9684375 -6 1 C-6 1.66 -6 2.32 -6 3 C-4.02 3 -2.04 3 0 3 C0 2.01 0 1.02 0 0 Z " fill="#ED7733" transform="translate(273,466)"/>
<path d="M0 0 C-0.75 5.75 -0.75 5.75 -3 8 C-7.64998633 9.26817809 -10.56323657 8.79583282 -15 7 C-15 5.68 -15 4.36 -15 3 C-14.34 2.67 -13.68 2.34 -13 2 C-13 1.34 -13 0.68 -13 0 C-11.20909747 -0.19466332 -9.41723495 -0.38051213 -7.625 -0.5625 C-6.12839844 -0.71912109 -6.12839844 -0.71912109 -4.6015625 -0.87890625 C-2 -1 -2 -1 0 0 Z M-9 3 C-9 3.66 -9 4.32 -9 5 C-8.01 5 -7.02 5 -6 5 C-6 4.34 -6 3.68 -6 3 C-6.99 3 -7.98 3 -9 3 Z " fill="#ED7434" transform="translate(616,466)"/>
<path d="M0 0 C2.97 0 5.94 0 9 0 C6.57446809 8.36808511 6.57446809 8.36808511 4.125 11.0625 C1.6000728 12.17643847 -0.26849147 12.22762571 -3 12 C-2.6875 10.125 -2.6875 10.125 -2 8 C-1.01 7.34 -0.02 6.68 1 6 C0.34 5.67 -0.32 5.34 -1 5 C-0.67 3.35 -0.34 1.7 0 0 Z " fill="#EB6B37" transform="translate(335,469)"/>
<path d="M0 0 C0.84098656 4.01804691 1.05404945 7.01803543 0 11 C-3.3 11 -6.6 11 -10 11 C-9.875 7.75 -9.875 7.75 -9 4 C-5.85028521 1.32958964 -4.16534658 0 0 0 Z " fill="#F08B3B" transform="translate(360,168)"/>
<path d="M0 0 C1.20849609 -0.00386719 1.20849609 -0.00386719 2.44140625 -0.0078125 C4.4375 0.125 4.4375 0.125 5.4375 1.125 C5.4375 3.105 5.4375 5.085 5.4375 7.125 C0.8175 7.125 -3.8025 7.125 -8.5625 7.125 C-7.9025 5.145 -7.2425 3.165 -6.5625 1.125 C-4.1828388 -0.0648306 -2.64764265 -0.00849966 0 0 Z " fill="#F4A124" transform="translate(583.5625,458.875)"/>
<path d="M0 0 C1.20849609 -0.00386719 1.20849609 -0.00386719 2.44140625 -0.0078125 C4.4375 0.125 4.4375 0.125 5.4375 1.125 C5.4375 3.105 5.4375 5.085 5.4375 7.125 C0.8175 7.125 -3.8025 7.125 -8.5625 7.125 C-7.9025 5.145 -7.2425 3.165 -6.5625 1.125 C-4.1828388 -0.0648306 -2.64764265 -0.00849966 0 0 Z " fill="#F4A124" transform="translate(314.5625,458.875)"/>
<path d="M0 0 C1.65 0 3.3 0 5 0 C4.44854729 5.23880078 3.57077907 9.97350697 2 15 C0.35 15 -1.3 15 -3 15 C-2.44854729 9.76119922 -1.57077907 5.02649303 0 0 Z " fill="#848587" transform="translate(482,459)"/>
<path d="M0 0 C1.65 0 3.3 0 5 0 C5.33 1.32 5.66 2.64 6 4 C6 3.34 6 2.68 6 2 C7.65 1.67 9.3 1.34 11 1 C9.125 6.875 9.125 6.875 8 8 C6.48071962 8.07179964 4.95832518 8.08392007 3.4375 8.0625 C2.61121094 8.05347656 1.78492188 8.04445313 0.93359375 8.03515625 C0.29550781 8.02355469 -0.34257813 8.01195312 -1 8 C-1.125 2.25 -1.125 2.25 0 0 Z " fill="#ED7734" transform="translate(551,466)"/>
<path d="M0 0 C1.65 0 3.3 0 5 0 C5.33 1.32 5.66 2.64 6 4 C6 3.34 6 2.68 6 2 C7.65 1.67 9.3 1.34 11 1 C9.125 6.875 9.125 6.875 8 8 C6.48071962 8.07179964 4.95832518 8.08392007 3.4375 8.0625 C2.61121094 8.05347656 1.78492188 8.04445313 0.93359375 8.03515625 C0.29550781 8.02355469 -0.34257812 8.01195312 -1 8 C-1.125 2.25 -1.125 2.25 0 0 Z " fill="#ED7734" transform="translate(322,466)"/>
<path d="M0 0 C1.98 0 3.96 0 6 0 C4.68 3.3 3.36 6.6 2 10 C-1.63 10.33 -5.26 10.66 -9 11 C-9 9.68 -9 8.36 -9 7 C-7.02 7 -5.04 7 -3 7 C-2.01 4.69 -1.02 2.38 0 0 Z " fill="#F4A224" transform="translate(343,459)"/>
<path d="M0 0 C2.97 0 5.94 0 9 0 C9 2.64 9 5.28 9 8 C6.03 8 3.06 8 0 8 C0 5.36 0 2.72 0 0 Z " fill="#B6B8BA" transform="translate(479,386)"/>
<path d="M0 0 C0.9075 0.00257813 1.815 0.00515625 2.75 0.0078125 C4.11125 0.00394531 4.11125 0.00394531 5.5 0 C7.75 0.1328125 7.75 0.1328125 8.75 1.1328125 C8.79080783 3.13239614 8.79254356 5.13326504 8.75 7.1328125 C6.77 7.1328125 4.79 7.1328125 2.75 7.1328125 C2.42 6.1428125 2.09 5.1528125 1.75 4.1328125 C1.42 4.4628125 1.09 4.7928125 0.75 5.1328125 C-0.91617115 5.17345082 -2.58388095 5.1755335 -4.25 5.1328125 C-3.13273357 0.1849183 -3.13273357 0.1849183 0 0 Z " fill="#F5A423" transform="translate(540.25,458.8671875)"/>
<path d="M0 0 C0.9075 0.00257813 1.815 0.00515625 2.75 0.0078125 C4.11125 0.00394531 4.11125 0.00394531 5.5 0 C7.75 0.1328125 7.75 0.1328125 8.75 1.1328125 C8.79080783 3.13239614 8.79254356 5.13326504 8.75 7.1328125 C6.77 7.1328125 4.79 7.1328125 2.75 7.1328125 C2.42 6.1428125 2.09 5.1528125 1.75 4.1328125 C1.42 4.4628125 1.09 4.7928125 0.75 5.1328125 C-0.91617115 5.17345082 -2.58388095 5.1755335 -4.25 5.1328125 C-3.13273357 0.1849183 -3.13273357 0.1849183 0 0 Z " fill="#F5A423" transform="translate(286.25,458.8671875)"/>
<path d="M0 0 C3.3 0 6.6 0 10 0 C8.68 2.64 7.36 5.28 6 8 C4.02 8 2.04 8 0 8 C0 5.36 0 2.72 0 0 Z " fill="#ED7534" transform="translate(515,466)"/>
<path d="M0 0 C4.62 0 9.24 0 14 0 C13.34 1.65 12.68 3.3 12 5 C8.05525663 6.22725349 4.96209657 6.04879027 1 5 C0.67 3.35 0.34 1.7 0 0 Z " fill="#ED7434" transform="translate(574,469)"/>
<path d="M0 0 C2.97 0 5.94 0 9 0 C9.04254356 1.99954746 9.04080783 4.00041636 9 6 C8 7 8 7 4.5 7.125 C1 7 1 7 0 6 C-0.04080783 4.00041636 -0.04254356 1.99954746 0 0 Z " fill="#EE7E3D" transform="translate(220,208)"/>
<path d="M0 0 C1.98 0 3.96 0 6 0 C5.67 2.64 5.34 5.28 5 8 C3.02 8 1.04 8 -1 8 C-0.67 5.36 -0.34 2.72 0 0 Z " fill="#ED7434" transform="translate(526,466)"/>
<path d="M0 0 C1.98 0 3.96 0 6 0 C5.67 2.64 5.34 5.28 5 8 C3.02 8 1.04 8 -1 8 C-0.67 5.36 -0.34 2.72 0 0 Z " fill="#ED7434" transform="translate(507,466)"/>
<path d="M0 0 C4.29 0.33 8.58 0.66 13 1 C12.67 1.99 12.34 2.98 12 4 C7.38 4 2.76 4 -2 4 C-1.34 2.68 -0.68 1.36 0 0 Z " fill="#F08B2D" transform="translate(536,465)"/>
<path d="M0 0 C4.29 0.33 8.58 0.66 13 1 C12.67 1.99 12.34 2.98 12 4 C7.38 4 2.76 4 -2 4 C-1.34 2.68 -0.68 1.36 0 0 Z " fill="#F08B2D" transform="translate(282,465)"/>
<path d="M0 0 C0 1.65 0 3.3 0 5 C-4.455 6.485 -4.455 6.485 -9 8 C-8.8125 5.6875 -8.8125 5.6875 -8 3 C-5.10451959 0.79029126 -3.66842255 0 0 0 Z " fill="#FABF0F" transform="translate(360,168)"/>
<path d="M0 0 C1.98 0 3.96 0 6 0 C5.34 2.64 4.68 5.28 4 8 C2.35 8 0.7 8 -1 8 C-0.67 5.36 -0.34 2.72 0 0 Z " fill="#EE7D32" transform="translate(590,466)"/>
<path d="M0 0 C1.65 0 3.3 0 5 0 C4.67 2.64 4.34 5.28 4 8 C2.02 8 0.04 8 -2 8 C-1.34 5.36 -0.68 2.72 0 0 Z " fill="#EE7C32" transform="translate(297,466)"/>
<path d="M0 0 C1.24523437 0.01804687 2.49046875 0.03609375 3.7734375 0.0546875 C5.18496094 0.08949219 5.18496094 0.08949219 6.625 0.125 C6.625 0.785 6.625 1.445 6.625 2.125 C4.04314569 2.5152803 1.46079017 2.88763148 -1.125 3.25 C-2.21941406 3.41822266 -2.21941406 3.41822266 -3.3359375 3.58984375 C-7.2755609 4.12706512 -10.03722665 4.4965758 -13.375 2.125 C-8.75130977 0.31820413 -4.94971347 -0.09339082 0 0 Z " fill="#F08A2D" transform="translate(582.375,465.875)"/>
<path d="M0 0 C-0.33 1.32 -0.66 2.64 -1 4 C-2.43791516 3.85831863 -3.8753237 3.71148957 -5.3125 3.5625 C-6.11300781 3.48128906 -6.91351562 3.40007812 -7.73828125 3.31640625 C-10 3 -10 3 -13 2 C-13 1.34 -13 0.68 -13 0 C-11.20909747 -0.19466332 -9.41723495 -0.38051213 -7.625 -0.5625 C-6.12839844 -0.71912109 -6.12839844 -0.71912109 -4.6015625 -0.87890625 C-2 -1 -2 -1 0 0 Z " fill="#F08A2D" transform="translate(616,466)"/>
<path d="M0 0 C4.62 0 9.24 0 14 0 C14 0.66 14 1.32 14 2 C9.05 2.33 4.1 2.66 -1 3 C-0.67 2.01 -0.34 1.02 0 0 Z " fill="#F08B2D" transform="translate(306,466)"/>
<path d="M0 0 C3.96 0 7.92 0 12 0 C11.67 0.99 11.34 1.98 11 3 C7.37 3.33 3.74 3.66 0 4 C0 2.68 0 1.36 0 0 Z " fill="#F0892E" transform="translate(334,466)"/>
<path d="M0 0 C3.3 0 6.6 0 10 0 C9.67 0.99 9.34 1.98 9 3 C6.03 3 3.06 3 0 3 C0 2.01 0 1.02 0 0 Z " fill="#F08A2D" transform="translate(515,466)"/>
<path d="M0 0 C1.65 0 3.3 0 5 0 C4.67 1.65 4.34 3.3 4 5 C2.35 5 0.7 5 -1 5 C-0.67 3.35 -0.34 1.7 0 0 Z " fill="#848587" transform="translate(484,452)"/>
<path d="M0 0 C1.65 0 3.3 0 5 0 C4.67 1.65 4.34 3.3 4 5 C2.35 5 0.7 5 -1 5 C-0.67 3.35 -0.34 1.7 0 0 Z " fill="#ED7534" transform="translate(617,469)"/>
<path d="M0 0 C1.65 0 3.3 0 5 0 C4.67 1.65 4.34 3.3 4 5 C2.35 5 0.7 5 -1 5 C-0.67 3.35 -0.34 1.7 0 0 Z " fill="#ED7534" transform="translate(347,469)"/>
<path d="M0 0 C0.66 0 1.32 0 2 0 C2 2.31 2 4.62 2 7 C0.68 7 -0.64 7 -2 7 C-1.34 4.69 -0.68 2.38 0 0 Z " fill="#EE803D" transform="translate(415,119)"/>
<path d="M0 0 C0.66 0.66 1.32 1.32 2 2 C1.67 2.99 1.34 3.98 1 5 C-0.65 5 -2.3 5 -4 5 C-4 4.01 -4 3.02 -4 2 C-2.68 1.34 -1.36 0.68 0 0 Z " fill="#F6AB1C" transform="translate(313,188)"/>
<path d="M0 0 C1.98 0 3.96 0 6 0 C5.67 1.32 5.34 2.64 5 4 C3.35 3.67 1.7 3.34 0 3 C0 2.01 0 1.02 0 0 Z " fill="#F0892E" transform="translate(526,466)"/>
<path d="M0 0 C1.98 0 3.96 0 6 0 C5.67 1.32 5.34 2.64 5 4 C3.35 3.67 1.7 3.34 0 3 C0 2.01 0 1.02 0 0 Z " fill="#F0892E" transform="translate(507,466)"/>
<path d="M0 0 C1.98 0 3.96 0 6 0 C5.67 1.32 5.34 2.64 5 4 C3.35 3.67 1.7 3.34 0 3 C0 2.01 0 1.02 0 0 Z " fill="#F0892E" transform="translate(273,466)"/>
<path d="M0 0 C1.65 0 3.3 0 5 0 C5 0.99 5 1.98 5 3 C3.02 3.33 1.04 3.66 -1 4 C-0.67 2.68 -0.34 1.36 0 0 Z " fill="#F0892E" transform="translate(551,466)"/>
<path d="M0 0 C1.65 0 3.3 0 5 0 C5 0.99 5 1.98 5 3 C3.02 3.33 1.04 3.66 -1 4 C-0.67 2.68 -0.34 1.36 0 0 Z " fill="#F0892E" transform="translate(322,466)"/>
<path d="M0 0 C0.66 0 1.32 0 2 0 C2 0.66 2 1.32 2 2 C1.01 1.67 0.02 1.34 -1 1 C-0.67 0.67 -0.34 0.34 0 0 Z " fill="#8B8B8D" transform="translate(494,453)"/>
<path d="M0 0 C2 1 2 1 2 1 Z " fill="#8B8B8D" transform="translate(475,470)"/>
</svg>
