<svg version="1.1" id="Layer_1" xmlns="http://www.w3.org/2000/svg" xmlns:xlink="http://www.w3.org/1999/xlink" x="0px" y="0px"
	 width="100%" viewBox="0 0 283 64" enable-background="new 0 0 283 64" xml:space="preserve">
<path fill="#000000" opacity="1.000000" stroke="none" 
	d="
M284.000000,42.000000 
	C284.000000,49.654366 284.000000,57.308731 284.000000,65.000000 
	C200.979111,65.000000 117.958214,65.000000 34.473427,64.587753 
	C34.333504,63.448105 34.831158,62.749210 34.955898,61.989113 
	C37.694019,45.304550 45.196709,37.690445 61.515091,34.944794 
	C62.785172,34.731102 63.943806,33.855038 66.566460,32.623890 
	C63.303852,31.846317 61.539169,31.368460 59.750626,31.009428 
	C52.125965,29.478851 45.659264,26.355095 40.870163,19.742496 
	C36.732597,14.029512 35.118710,7.673155 34.000000,1.000000 
	C117.333351,1.000000 200.666702,1.000000 284.000000,1.000000 
	C284.000000,10.759604 284.000000,20.411144 283.707336,30.818445 
	C279.086548,25.551592 273.911469,21.231379 265.859039,23.652266 
	C257.282104,26.230841 253.936554,31.239273 254.000000,40.880260 
	C254.039276,46.847321 258.556854,52.941853 264.334839,54.822742 
	C270.645538,56.877033 278.447510,54.640911 281.940643,49.785686 
	C280.131195,46.329315 277.565765,46.674923 274.504303,48.038578 
	C268.161316,50.863903 263.343719,48.745632 261.096313,42.000000 
	C268.820862,42.000000 276.410431,42.000000 284.000000,42.000000 
M100.766685,30.000069 
	C107.315163,30.020447 108.984802,31.738916 108.997879,38.508423 
	C109.008362,43.937363 109.000000,49.366337 109.000000,54.737091 
	C111.607658,54.737091 113.675720,54.737091 115.999626,54.737091 
	C115.999626,48.520386 116.269531,42.547794 115.942841,36.608021 
	C115.284729,24.642580 104.535637,19.276720 95.184784,25.672819 
	C92.730049,24.967566 90.576363,24.348804 88.000000,23.608606 
	C88.000000,32.195850 88.241928,39.840900 87.908012,47.460720 
	C87.712074,51.931904 89.538651,54.068344 94.000023,55.001503 
	C94.000023,49.288769 93.974602,43.835533 94.008293,38.382656 
	C94.033905,34.236202 95.690376,31.191458 100.766685,30.000069 
M160.977142,53.985466 
	C162.985962,51.200130 166.215973,48.631824 166.757324,45.585693 
	C168.004486,38.568016 167.945206,31.318167 168.421448,24.080099 
	C163.115128,23.739262 160.886627,25.653841 160.980713,30.230236 
	C161.069458,34.546982 161.250504,38.886326 160.922882,43.180012 
	C160.616730,47.191998 157.966415,49.372608 153.974991,48.916111 
	C150.575394,48.527290 147.747849,47.103386 147.957321,42.731552 
	C148.155823,38.588577 148.138687,34.422642 147.961227,30.277727 
	C147.774033,25.905657 145.482300,24.053667 141.000000,24.481285 
	C141.000000,29.925447 141.307693,35.415115 140.933960,40.857994 
	C140.224152,51.195232 149.568726,58.106304 160.977142,53.985466 
M130.000000,39.532017 
	C130.000000,36.416306 130.000000,33.300591 130.000000,30.000010 
	C131.503220,30.000010 132.482574,30.029068 133.459442,29.992380 
	C134.586395,29.950052 135.711151,29.849716 136.809631,29.776388 
	C136.995148,24.478159 136.995148,24.478159 129.875214,23.439121 
	C129.875214,19.410715 129.875214,15.311867 129.875214,11.257545 
	C127.403358,11.257545 125.332565,11.257545 122.887199,11.257545 
	C122.887199,15.597261 122.887199,19.693901 122.887199,23.843994 
	C120.401337,23.974728 118.299156,24.085283 116.292465,24.190817 
	C114.562485,30.629566 119.498245,29.688347 123.159454,30.264339 
	C123.159454,38.629341 123.159454,46.724552 123.159454,54.722237 
	C125.626511,54.722237 127.698578,54.722237 130.000000,54.722237 
	C130.000000,49.804382 130.000000,45.161934 130.000000,39.532017 
M224.526184,32.018890 
	C227.651657,38.869801 230.681763,45.766567 233.943527,52.551956 
	C235.534576,55.861759 237.895432,56.082207 239.323730,53.131695 
	C243.940918,43.593735 248.378525,33.968845 252.899963,24.346327 
	C246.786972,22.854359 244.519196,25.875380 242.899155,30.616106 
	C241.424210,34.932308 239.149780,38.975307 236.807007,44.050152 
	C234.502487,38.408554 232.652054,34.016724 230.912430,29.581434 
	C229.130447,25.038210 226.200684,22.786118 220.911880,24.443745 
	C221.959061,26.775578 222.997803,29.088608 224.526184,32.018890 
M192.000229,52.284031 
	C192.015366,57.548149 195.705963,53.938114 198.008636,55.376888 
	C198.008636,46.533604 198.008636,38.443241 198.008636,29.829857 
	C200.893600,29.829857 203.424316,29.829857 205.888474,29.829857 
	C206.004364,23.880531 202.199066,23.662674 197.922852,23.999771 
	C197.922852,19.480711 197.922852,15.375407 197.922852,11.220415 
	C195.806229,11.220415 194.068436,11.220415 191.945312,11.220415 
	C191.945312,15.518299 191.945312,19.614382 191.945312,24.019943 
	C189.122421,24.019943 186.682663,24.019943 184.191956,24.019943 
	C183.195755,30.712738 187.944458,29.941164 192.000000,30.084990 
	C192.000000,37.372051 192.000000,44.344608 192.000229,52.284031 
M82.000000,39.498329 
	C82.000000,34.406315 82.000000,29.314299 82.000000,24.249302 
	C79.412354,24.249302 77.346817,24.249302 75.000000,24.249302 
	C75.000000,31.768808 75.297974,39.059284 74.899437,46.311485 
	C74.614792,51.491177 77.367447,53.520714 82.000000,55.247711 
	C82.000000,50.010231 82.000000,45.252235 82.000000,39.498329 
M210.663803,24.064215 
	C210.442535,31.462399 210.467972,38.879051 209.915878,46.252468 
	C209.528366,51.427841 212.351105,53.475304 216.751740,55.204777 
	C216.751740,44.599319 216.751740,34.426521 216.751740,24.004696 
	C214.873901,24.004696 213.241974,24.004696 210.663803,24.064215 
M173.000000,33.535774 
	C173.000000,38.188301 173.259918,42.859604 172.925491,47.487968 
	C172.603195,51.948494 174.541321,54.099846 178.696991,54.909927 
	C178.696991,44.517017 178.696991,34.305763 178.696991,23.932154 
	C176.643921,24.041454 174.904404,24.134062 173.000000,24.235449 
	C173.000000,27.262651 173.000000,29.905260 173.000000,33.535774 
M174.529144,15.003684 
	C174.462708,15.148298 174.370453,15.287578 174.339050,15.439442 
	C174.318649,15.538165 174.385483,15.749916 174.415634,15.750369 
	C175.503769,15.766680 176.592209,15.764054 177.680588,15.764054 
	C177.687454,15.416718 177.694321,15.069381 177.701187,14.722044 
	C176.811035,14.636473 175.920868,14.550902 174.529144,15.003684 
z"/>
<path fill="#000000" opacity="1.000000" stroke="none" 
	d="
M32.000000,65.000000 
	C21.740145,65.000000 11.480290,65.000000 1.000000,65.000000 
	C1.000000,54.980183 1.000000,44.958748 1.412250,34.473427 
	C7.329111,35.922314 12.780780,39.030312 18.359175,39.277405 
	C21.459938,39.414753 24.773745,34.783360 27.978456,32.284443 
	C28.054352,32.225262 28.015123,31.952793 27.962215,31.803719 
	C26.741457,28.364162 19.559793,25.490622 16.282200,27.344198 
	C11.505521,30.045549 6.558698,31.718258 1.000000,31.000000 
	C1.000000,21.072283 1.000000,11.144567 1.000000,1.000000 
	C11.019854,1.000000 21.041269,1.000000 31.831371,1.342974 
	C32.074364,2.509385 31.350742,3.267691 31.054882,4.166762 
	C29.036274,10.300995 27.107599,16.464821 24.945791,23.260794 
	C28.108023,25.886580 32.294117,29.362539 36.350437,32.730743 
	C31.720526,36.723785 27.686932,40.202538 24.909777,42.597679 
	C27.516045,50.832458 29.758022,57.916229 32.000000,65.000000 
z"/>
<path fill="#FFFFFF" opacity="1.000000" stroke="none" 
	d="
M32.333332,65.000000 
	C29.758022,57.916229 27.516045,50.832458 24.909777,42.597679 
	C27.686932,40.202538 31.720526,36.723785 36.350437,32.730743 
	C32.294117,29.362539 28.108023,25.886580 24.945791,23.260794 
	C27.107599,16.464821 29.036274,10.300995 31.054882,4.166762 
	C31.350742,3.267691 32.074364,2.509385 32.300030,1.342974 
	C32.444447,1.000000 32.888889,1.000000 33.666668,1.000000 
	C35.118710,7.673155 36.732597,14.029512 40.870163,19.742496 
	C45.659264,26.355095 52.125965,29.478851 59.750626,31.009428 
	C61.539169,31.368460 63.303852,31.846317 66.566460,32.623890 
	C63.943806,33.855038 62.785172,34.731102 61.515091,34.944794 
	C45.196709,37.690445 37.694019,45.304550 34.955898,61.989113 
	C34.831158,62.749210 34.333504,63.448105 34.004768,64.587753 
	C33.555553,65.000000 33.111111,65.000000 32.333332,65.000000 
z"/>
<path fill="#FFFFFF" opacity="1.000000" stroke="none" 
	d="
M284.000000,41.541931 
	C276.410431,42.000000 268.820862,42.000000 261.096313,42.000000 
	C263.343719,48.745632 268.161316,50.863903 274.504303,48.038578 
	C277.565765,46.674923 280.131195,46.329315 281.940643,49.785686 
	C278.447510,54.640911 270.645538,56.877033 264.334839,54.822742 
	C258.556854,52.941853 254.039276,46.847321 254.000000,40.880260 
	C253.936554,31.239273 257.282104,26.230841 265.859039,23.652266 
	C273.911469,21.231379 279.086548,25.551592 283.707336,31.287102 
	C284.000000,34.361286 284.000000,37.722576 284.000000,41.541931 
M264.837219,36.000000 
	C269.062805,36.000000 273.288422,36.000000 277.619995,36.000000 
	C276.398499,31.218712 272.983856,28.897543 269.061035,29.261808 
	C265.714996,29.572515 261.365906,30.640610 261.185150,35.999950 
	C262.289032,35.999950 263.112274,35.999950 264.837219,36.000000 
z"/>
<path fill="#FFFFFF" opacity="1.000000" stroke="none" 
	d="
M1.000000,31.375000 
	C6.558698,31.718258 11.505521,30.045549 16.282200,27.344198 
	C19.559793,25.490622 26.741457,28.364162 27.962215,31.803719 
	C28.015123,31.952793 28.054352,32.225262 27.978456,32.284443 
	C24.773745,34.783360 21.459938,39.414753 18.359175,39.277405 
	C12.780780,39.030312 7.329111,35.922314 1.412250,34.004768 
	C1.000000,33.250000 1.000000,32.500000 1.000000,31.375000 
z"/>
<path fill="#FFFFFF" opacity="1.000000" stroke="none" 
	d="
M100.349915,30.000507 
	C95.690376,31.191458 94.033905,34.236202 94.008293,38.382656 
	C93.974602,43.835533 94.000023,49.288769 94.000023,55.001503 
	C89.538651,54.068344 87.712074,51.931904 87.908012,47.460720 
	C88.241928,39.840900 88.000000,32.195850 88.000000,23.608606 
	C90.576363,24.348804 92.730049,24.967566 95.184784,25.672819 
	C104.535637,19.276720 115.284729,24.642580 115.942841,36.608021 
	C116.269531,42.547794 115.999626,48.520386 115.999626,54.737091 
	C113.675720,54.737091 111.607658,54.737091 109.000000,54.737091 
	C109.000000,49.366337 109.008362,43.937363 108.997879,38.508423 
	C108.984802,31.738916 107.315163,30.020447 100.349915,30.000507 
z"/>
<path fill="#FFFFFF" opacity="1.000000" stroke="none" 
	d="
M160.563873,53.998150 
	C149.568726,58.106304 140.224152,51.195232 140.933960,40.857994 
	C141.307693,35.415115 141.000000,29.925447 141.000000,24.481285 
	C145.482300,24.053667 147.774033,25.905657 147.961227,30.277727 
	C148.138687,34.422642 148.155823,38.588577 147.957321,42.731552 
	C147.747849,47.103386 150.575394,48.527290 153.974991,48.916111 
	C157.966415,49.372608 160.616730,47.191998 160.922882,43.180012 
	C161.250504,38.886326 161.069458,34.546982 160.980713,30.230236 
	C160.886627,25.653841 163.115128,23.739262 168.421448,24.080099 
	C167.945206,31.318167 168.004486,38.568016 166.757324,45.585693 
	C166.215973,48.631824 162.985962,51.200130 160.563873,53.998150 
z"/>
<path fill="#FFFFFF" opacity="1.000000" stroke="none" 
	d="
M130.000000,40.025749 
	C130.000000,45.161934 130.000000,49.804382 130.000000,54.722237 
	C127.698578,54.722237 125.626511,54.722237 123.159454,54.722237 
	C123.159454,46.724552 123.159454,38.629341 123.159454,30.264339 
	C119.498245,29.688347 114.562485,30.629566 116.292465,24.190817 
	C118.299156,24.085283 120.401337,23.974728 122.887199,23.843994 
	C122.887199,19.693901 122.887199,15.597261 122.887199,11.257545 
	C125.332565,11.257545 127.403358,11.257545 129.875214,11.257545 
	C129.875214,15.311867 129.875214,19.410715 129.875214,23.439121 
	C136.995148,24.478159 136.995148,24.478159 136.809631,29.776388 
	C135.711151,29.849716 134.586395,29.950052 133.459442,29.992380 
	C132.482574,30.029068 131.503220,30.000010 130.000000,30.000010 
	C130.000000,33.300591 130.000000,36.416306 130.000000,40.025749 
z"/>
<path fill="#FFFFFF" opacity="1.000000" stroke="none" 
	d="
M224.281372,31.710262 
	C222.997803,29.088608 221.959061,26.775578 220.911880,24.443745 
	C226.200684,22.786118 229.130447,25.038210 230.912430,29.581434 
	C232.652054,34.016724 234.502487,38.408554 236.807007,44.050152 
	C239.149780,38.975307 241.424210,34.932308 242.899155,30.616106 
	C244.519196,25.875380 246.786972,22.854359 252.899963,24.346327 
	C248.378525,33.968845 243.940918,43.593735 239.323730,53.131695 
	C237.895432,56.082207 235.534576,55.861759 233.943527,52.551956 
	C230.681763,45.766567 227.651657,38.869801 224.281372,31.710262 
z"/>
<path fill="#FFFFFF" opacity="1.000000" stroke="none" 
	d="
M192.000122,51.800598 
	C192.000000,44.344608 192.000000,37.372051 192.000000,30.084990 
	C187.944458,29.941164 183.195755,30.712738 184.191956,24.019943 
	C186.682663,24.019943 189.122421,24.019943 191.945312,24.019943 
	C191.945312,19.614382 191.945312,15.518299 191.945312,11.220415 
	C194.068436,11.220415 195.806229,11.220415 197.922852,11.220415 
	C197.922852,15.375407 197.922852,19.480711 197.922852,23.999771 
	C202.199066,23.662674 206.004364,23.880531 205.888474,29.829857 
	C203.424316,29.829857 200.893600,29.829857 198.008636,29.829857 
	C198.008636,38.443241 198.008636,46.533604 198.008636,55.376888 
	C195.705963,53.938114 192.015366,57.548149 192.000122,51.800598 
z"/>
<path fill="#FFFFFF" opacity="1.000000" stroke="none" 
	d="
M82.000000,39.996284 
	C82.000000,45.252235 82.000000,50.010231 82.000000,55.247711 
	C77.367447,53.520714 74.614792,51.491177 74.899437,46.311485 
	C75.297974,39.059284 75.000000,31.768808 75.000000,24.249302 
	C77.346817,24.249302 79.412354,24.249302 82.000000,24.249302 
	C82.000000,29.314299 82.000000,34.406315 82.000000,39.996284 
z"/>
<path fill="#FFFFFF" opacity="1.000000" stroke="none" 
	d="
M211.136932,24.034454 
	C213.241974,24.004696 214.873901,24.004696 216.751740,24.004696 
	C216.751740,34.426521 216.751740,44.599319 216.751740,55.204777 
	C212.351105,53.475304 209.528366,51.427841 209.915878,46.252468 
	C210.467972,38.879051 210.442535,31.462399 211.136932,24.034454 
z"/>
<path fill="#FFFFFF" opacity="1.000000" stroke="none" 
	d="
M173.000000,33.041821 
	C173.000000,29.905260 173.000000,27.262651 173.000000,24.235449 
	C174.904404,24.134062 176.643921,24.041454 178.696991,23.932154 
	C178.696991,34.305763 178.696991,44.517017 178.696991,54.909927 
	C174.541321,54.099846 172.603195,51.948494 172.925491,47.487968 
	C173.259918,42.859604 173.000000,38.188301 173.000000,33.041821 
z"/>
<path fill="#FFFFFF" opacity="1.000000" stroke="none" 
	d="
M174.779938,14.734509 
	C175.920868,14.550902 176.811035,14.636473 177.701187,14.722044 
	C177.694321,15.069381 177.687454,15.416718 177.680588,15.764054 
	C176.592209,15.764054 175.503769,15.766680 174.415634,15.750369 
	C174.385483,15.749916 174.318649,15.538165 174.339050,15.439442 
	C174.370453,15.287578 174.462708,15.148298 174.779938,14.734509 
z"/>
<path fill="#000000" opacity="1.000000" stroke="none" 
	d="
M264.386353,35.999977 
	C263.112274,35.999950 262.289032,35.999950 261.185150,35.999950 
	C261.365906,30.640610 265.714996,29.572515 269.061035,29.261808 
	C272.983856,28.897543 276.398499,31.218712 277.619995,36.000000 
	C273.288422,36.000000 269.062805,36.000000 264.386353,35.999977 
z"/>
</svg>