<?xml version="1.0" encoding="UTF-8"?>
<svg version="1.1" xmlns="http://www.w3.org/2000/svg" width="7110" height="2645">
<path d="M0 0 C6.6872542 6.19794291 7.65384671 12.26725239 9.10864258 21.04858398 C9.33206833 22.32615067 9.55549408 23.60371735 9.78569031 24.91999817 C10.27085843 27.69480174 10.74700314 30.47094856 11.21616554 33.24850273 C11.96400189 37.67493962 12.73258404 42.09762573 13.50382996 46.52003479 C14.86707679 54.35263884 16.21272148 62.18819076 17.55462646 70.0244751 C19.55821257 81.72347157 21.57705708 93.41982722 23.60977095 105.11379677 C24.36700797 109.47377247 25.115759 113.83508822 25.85770094 118.19769102 C30.06835641 142.90203937 35.09516452 167.44873977 41.75 191.625 C41.92992493 192.28147522 42.10984985 192.93795044 42.29522705 193.61431885 C56.87829671 246.52182663 79.30137913 297.3952531 107.5625 344.375 C108.49667495 345.95017629 109.43030527 347.52567576 110.36328125 349.1015625 C125.11959016 373.83840344 142.11871321 397.26832536 160.5625 419.375 C161.05379395 419.96539063 161.54508789 420.55578125 162.05126953 421.1640625 C167.33755899 427.50405604 172.71416212 433.75307192 178.27661133 439.85375977 C179.67152712 441.39229393 181.0579323 442.9386717 182.42895508 444.49853516 C188.87482705 451.80508436 195.72093624 458.68578499 202.61938477 465.56225586 C204.62827864 467.56576986 206.63174389 469.57460152 208.63476562 471.58398438 C214.77384428 477.72658566 220.90785964 483.78594385 227.5625 489.375 C228.7548144 490.41935701 229.94490903 491.4662535 231.1328125 492.515625 C238.808967 499.24481864 246.61914205 505.73032448 254.71289062 511.95068359 C256.65333873 513.44495158 258.58461104 514.9505964 260.515625 516.45703125 C293.54996214 542.11389535 329.21257671 563.62398118 366.5625 582.375 C367.90828125 583.0548999 367.90828125 583.0548999 369.28125 583.74853516 C400.62874801 599.48880084 434.0931027 611.77601071 467.75 621.5625 C468.9975708 621.93012451 470.2451416 622.29774902 471.53051758 622.67651367 C503.56619058 631.86480224 536.60616718 637.24760193 569.39422607 642.91870117 C574.98445514 643.88706009 580.57324998 644.86361632 586.16210938 645.83984375 C587.25755632 646.03104168 588.35300327 646.22223961 589.48164558 646.41923141 C594.88042799 647.36160993 600.27899333 648.3052113 605.67721558 649.25079346 C607.74493198 649.61284568 609.81265045 649.97488608 611.88037109 650.33691406 C613.37685086 650.59912184 613.37685086 650.59912184 614.90356255 650.86662674 C620.40697727 651.82925419 625.91256942 652.77718818 631.4214468 653.70803261 C634.52825982 654.23509588 637.63312888 654.77298073 640.73760414 655.31362534 C642.13038762 655.55347613 643.52404187 655.78833618 644.91860008 656.01764297 C653.40765163 657.41505565 658.98528289 658.51537102 664.9375 664.9375 C667.23490348 669.79739197 667.35717215 674.0876764 666.5625 679.375 C664.75 682.875 664.75 682.875 662.5625 685.375 C662.17717606 685.88255325 661.79185211 686.39010651 661.39485168 686.91304016 C658.61508774 689.1309022 655.46715452 689.57804684 652.05737305 690.26635742 C651.27144366 690.4325291 650.48551428 690.59870077 649.67576885 690.76990795 C639.29180067 692.91662414 628.83369711 694.68497165 618.38337135 696.47307777 C614.545838 697.13018055 610.70941419 697.79345428 606.87321472 698.45829773 C596.65798014 700.22806132 586.44134759 701.98968574 576.22344041 703.74395305 C533.17851111 710.99352913 533.17851111 710.99352913 490.5625 720.375 C489.34008102 720.67518539 488.11766205 720.97537079 486.85820007 721.28465271 C453.8612433 729.40112181 421.63336907 740.6311426 390.5625 754.375 C388.924021 755.09719727 388.924021 755.09719727 387.25244141 755.83398438 C315.25642493 787.79428447 251.7041766 833.25738521 196.0625 888.75 C195.49574554 889.31407562 194.92899109 889.87815125 194.34506226 890.45932007 C188.19737551 896.58495013 182.1930527 902.76426987 176.5625 909.375 C175.1492645 910.9198126 173.73309591 912.46195325 172.3125 914 C168.22169311 918.52836348 164.44969192 923.24891694 160.71533203 928.06982422 C157.79322835 931.83579818 154.78513439 935.50021551 151.6875 939.125 C126.89649208 968.77318031 106.44727661 1003.25272883 88.5625 1037.375 C88.07716797 1038.30038574 87.59183594 1039.22577148 87.09179688 1040.17919922 C67.19582065 1078.40490057 51.98565758 1118.8490284 40.5625 1160.375 C40.38112488 1161.0311731 40.19974976 1161.68734619 40.01287842 1162.36340332 C29.12137591 1202.03704435 23.37469531 1243.19323161 16.45296764 1283.70109558 C15.36681103 1290.05554256 14.27197218 1296.4084598 13.17181873 1302.76049805 C12.39597911 1307.24595948 11.63394592 1311.73347982 10.88267708 1316.22311878 C10.41591322 1318.99522455 9.93735067 1321.76519966 9.45563507 1324.53474236 C9.1317176 1326.41867934 8.822293 1328.30509039 8.5133667 1330.19154358 C7.19813662 1337.66650128 5.62239218 1343.36900211 -0.4375 1348.375 C-6.50513422 1350.39754474 -13.22056016 1350.4251294 -19 1347.6875 C-23.82937801 1343.1057824 -25.09318533 1338.39524345 -26.17944336 1331.97998047 C-26.32933527 1331.14420597 -26.47922718 1330.30843147 -26.63366127 1329.44733047 C-27.12880146 1326.67224634 -27.60931157 1323.89483529 -28.08984375 1321.1171875 C-28.43873722 1319.14501738 -28.78852212 1317.17300477 -29.1391449 1315.20114136 C-30.06476207 1309.98006861 -30.97774399 1304.75686907 -31.88710785 1299.53294373 C-32.60034464 1295.44065855 -33.31894804 1291.34932552 -34.03783607 1287.25802994 C-35.64314707 1278.12193822 -37.24321484 1268.98492745 -38.84179688 1259.84765625 C-39.0195849 1258.83194675 -39.19737293 1257.81623726 -39.38054848 1256.76974869 C-40.28621698 1251.5927836 -41.18870893 1246.4152936 -42.08569336 1241.23681641 C-53.48371467 1175.4813019 -70.4027229 1112.65602564 -99.4375 1052.375 C-99.95425293 1051.29766602 -100.47100586 1050.22033203 -101.00341797 1049.11035156 C-108.73684577 1033.07223629 -117.19152438 1017.58923801 -126.4375 1002.375 C-127.05947266 1001.35067871 -127.68144531 1000.32635742 -128.32226562 999.27099609 C-136.23476464 986.30104431 -144.42970518 973.61194729 -153.4375 961.375 C-153.9334668 960.70033691 -154.42943359 960.02567383 -154.94042969 959.33056641 C-164.11242102 946.89801169 -173.54545125 934.694925 -183.57202148 922.93920898 C-195.36916289 909.08609861 -195.36916289 909.08609861 -195.86328125 900.703125 C-194.68762076 894.27474287 -190.49033677 890.04446364 -185.5625 886.125 C-184.70930176 885.42467651 -184.70930176 885.42467651 -183.83886719 884.71020508 C-179.26451383 880.97648617 -174.61178091 877.33776329 -169.95166016 873.71191406 C-165.21071281 870.01540587 -160.56638104 866.21056652 -155.9375 862.375 C-150.74310076 858.07083585 -145.51308739 853.82829379 -140.1875 849.6875 C-135.68083848 846.18231882 -131.27519264 842.58721519 -126.9375 838.875 C-122.04367081 834.68684086 -117.04230863 830.67142727 -111.95800781 826.7175293 C-106.38027049 822.36501751 -100.92755972 817.86710343 -95.47583008 813.35839844 C-91.03815239 809.68939263 -86.57314193 806.06059933 -82.06640625 802.4765625 C-78.63327714 799.7320997 -75.22266332 796.96041674 -71.8125 794.1875 C-71.1306665 793.63328369 -70.44883301 793.07906738 -69.74633789 792.50805664 C-66.27643498 789.68665795 -62.80877492 786.86254343 -59.34375 784.03515625 C-53.02280797 778.88207333 -46.68345156 773.76217021 -40.25 768.75 C-35.163978 764.78625249 -30.22116515 760.68510256 -25.32250977 756.49291992 C-20.96075347 752.77691135 -16.48070204 749.2346838 -11.95800781 745.7175293 C-6.38027049 741.36501751 -0.92755972 736.86710343 4.52416992 732.35839844 C8.95903302 728.69171969 13.42036513 725.06423025 17.92578125 721.484375 C21.40657023 718.69974382 24.85774046 715.87931373 28.3125 713.0625 C33.41624894 708.9024473 38.55484111 704.79522497 43.75 700.75 C48.94500499 696.70224062 54.00800016 692.52460011 58.99829102 688.22705078 C62.13239277 685.53818084 65.34351491 683.04520246 68.6875 680.625 C72.68236625 677.54072826 74.33089281 675.30142877 75.5625 670.375 C75.46499735 664.81734871 73.86605957 661.75772236 70.5625 657.375 C68.44376154 655.53249863 66.37255024 653.84959565 64.125 652.1875 C62.86423709 651.22742113 61.60516019 650.26512476 60.34765625 649.30078125 C59.71359863 648.81561035 59.07954102 648.33043945 58.42626953 647.83056641 C55.56542261 645.59630267 52.81398862 643.24164431 50.0625 640.875 C45.16706189 636.68314674 40.16169203 632.66659088 35.07421875 628.7109375 C29.59316814 624.4345134 24.2413715 620.00906491 18.88867188 615.57373047 C14.41490482 611.87567325 9.89460279 608.25021363 5.3125 604.6875 C0.24516433 600.74623892 -4.67581234 596.66636571 -9.55273438 592.49267578 C-13.91445061 588.77679871 -18.3943884 585.23461347 -22.91699219 581.7175293 C-28.49472951 577.36501751 -33.94744028 572.86710343 -39.39916992 568.35839844 C-43.83403302 564.69171969 -48.29536513 561.06423025 -52.80078125 557.484375 C-56.28157023 554.69974382 -59.73274046 551.87931373 -63.1875 549.0625 C-68.29125003 544.90244642 -73.42987856 540.79527374 -78.625 536.75 C-83.71113229 532.7863986 -88.65384116 528.68509715 -93.55249023 524.49291992 C-97.91424653 520.77691135 -102.39429796 517.2346838 -106.91699219 513.7175293 C-112.49472951 509.36501751 -117.94744028 504.86710343 -123.39916992 500.35839844 C-127.83403302 496.69171969 -132.29536513 493.06423025 -136.80078125 489.484375 C-140.28157023 486.69974382 -143.73274046 483.87931373 -147.1875 481.0625 C-152.29125033 476.90244617 -157.42988099 472.7952777 -162.625 468.75 C-168.41072116 464.24111059 -174.02708072 459.55633031 -179.59765625 454.78515625 C-181.41691089 453.2411671 -183.27697478 451.74330419 -185.18359375 450.30859375 C-188.27208086 447.65902509 -189.25215918 445.80169331 -189.7734375 441.7890625 C-189.78632812 440.86867188 -189.79921875 439.94828125 -189.8125 439 C-189.84085938 438.08476563 -189.86921875 437.16953125 -189.8984375 436.2265625 C-188.92274496 430.19049847 -184.21563575 425.79565326 -180.3125 421.3125 C-174.77513737 414.84870289 -169.54405401 408.1825562 -164.4375 401.375 C-163.65850342 400.34294434 -163.65850342 400.34294434 -162.86376953 399.29003906 C-109.20619235 328.07037603 -70.20995617 245.16352724 -49.37109375 146.1640625 C-49.22690758 145.42356974 -49.08272141 144.68307697 -48.93416595 143.92014503 C-45.91792648 128.37148587 -43.19188846 112.77285118 -40.484375 97.16796875 C-40.26944082 95.92994947 -40.05450665 94.6919302 -39.83305931 93.41639519 C-37.82144078 81.82295564 -35.81689861 70.22830148 -33.82421875 58.6315918 C-32.72159102 52.21508282 -31.60986157 45.80018456 -30.49320221 39.38610268 C-30.07376848 36.96699514 -29.65753556 34.54733024 -29.24465179 32.12709618 C-28.67194756 28.77105776 -28.0886427 25.41702124 -27.50292969 22.06323242 C-27.33769806 21.07897278 -27.17246643 20.09471313 -27.00222778 19.08062744 C-25.58349036 11.06592752 -23.88365909 4.85423522 -17.4375 -0.625 C-11.6366439 -2.5586187 -5.5393254 -2.61859019 0 0 Z " fill="#040707" transform="translate(1255.4375,649.625)"/>
<path d="M0 0 C51.03354218 -0.97861468 101.04629131 7.69045243 147.16699219 30.06201172 C147.93398438 30.42987793 148.70097656 30.79774414 149.49121094 31.17675781 C174.48454213 43.2968261 197.22429304 59.79667123 217.16699219 79.06201172 C218.22805176 80.08222412 218.22805176 80.08222412 219.31054688 81.12304688 C228.53342357 90.03271609 237.31779632 98.9910217 244.90478516 109.34667969 C246.21241905 111.12374657 247.54837313 112.87663545 248.88964844 114.62841797 C299.45869823 181.26738588 318.95274227 272.20867825 307.69580078 354.50683594 C304.81570516 373.76458577 304.81570516 373.76458577 303.16699219 377.06201172 C139.48699219 377.39201172 -24.19300781 377.72201172 -192.83300781 378.06201172 C-184.12281271 415.80619049 -171.98704252 450.0805138 -145.83300781 479.06201172 C-144.62346356 480.47764465 -143.41497063 481.89417723 -142.20800781 483.31201172 C-107.24770465 522.71432987 -54.93345019 542.79185706 -3.27441406 546.86352539 C52.26158202 550.06661597 109.04655277 540.05310291 155.04199219 507.24951172 C168.53605917 497.70245933 183.19281012 493.56229863 199.72949219 495.68701172 C218.81618457 499.21213595 230.71761388 510.13063945 243.85693359 523.47070312 C245.91994532 525.56500965 247.99356027 527.64833135 250.06933594 529.72998047 C251.40980609 531.07961903 252.74967092 532.42985912 254.08886719 533.78076172 C254.69631775 534.39246216 255.30376831 535.0041626 255.92962646 535.63439941 C259.63048709 539.39608038 263.15463057 543.27055015 266.59161377 547.27502441 C268.05916061 548.93969592 269.57973043 550.51201734 271.16699219 552.06201172 C269.82699721 555.06882972 268.36853927 557.05963781 265.97949219 559.31201172 C263.49484097 561.71519896 261.19624662 564.16059956 258.97949219 566.81201172 C254.16692572 572.37486695 248.67482041 577.20706184 243.16699219 582.06201172 C242.3889624 582.7491626 242.3889624 582.7491626 241.59521484 583.45019531 C172.72641926 643.89572479 80.44426724 667.8597783 -9.77050781 662.31201172 C-23.9197367 661.32639414 -37.87549065 659.5748624 -51.83300781 657.06201172 C-52.89455078 656.871875 -53.95609375 656.68173828 -55.04980469 656.48583984 C-84.06182899 651.09359889 -112.50383287 641.34501355 -138.83300781 628.06201172 C-139.60547852 627.67980469 -140.37794922 627.29759766 -141.17382812 626.90380859 C-158.44754394 618.32369745 -174.52644552 607.76231588 -189.83300781 596.06201172 C-190.4242041 595.6150293 -191.01540039 595.16804688 -191.62451172 594.70751953 C-211.46225652 579.67908892 -230.82327614 561.92701704 -245.83300781 542.06201172 C-246.81690384 540.81581181 -247.8027463 539.57114732 -248.79003906 538.32763672 C-287.90151442 488.66713007 -311.87729736 428.14634654 -316.83300781 365.06201172 C-316.9191333 364.00626953 -317.00525879 362.95052734 -317.09399414 361.86279297 C-317.84727376 351.79581114 -318.03417826 341.77833345 -318.02050781 331.68701172 C-318.01990356 330.85641235 -318.01929932 330.02581299 -318.01867676 329.17004395 C-317.95638728 297.45254541 -313.97785653 266.7372801 -305.83300781 236.06201172 C-305.60919434 235.20478516 -305.38538086 234.34755859 -305.15478516 233.46435547 C-295.29061289 196.27664702 -277.0092962 160.68587987 -253.83300781 130.06201172 C-253.3924707 129.47871094 -252.95193359 128.89541016 -252.49804688 128.29443359 C-247.00107799 121.06137446 -241.27470681 114.16224246 -235.09082031 107.50341797 C-233.15956928 105.4151275 -231.29982721 103.29109638 -229.45800781 101.12451172 C-222.24726388 92.83982721 -214.28127682 85.074075 -205.83300781 78.06201172 C-205.05376953 77.40410645 -205.05376953 77.40410645 -204.25878906 76.73291016 C-187.59593513 62.69086935 -169.93541297 50.53740027 -150.83300781 40.06201172 C-150.01783691 39.60729492 -149.20266602 39.15257812 -148.36279297 38.68408203 C-103.166787 13.55858406 -51.55838609 1.12856171 0 0 Z M-116.83300781 149.06201172 C-117.71013428 149.67882813 -117.71013428 149.67882813 -118.60498047 150.30810547 C-140.45302452 165.8721175 -157.96226517 186.65513445 -170.83300781 210.06201172 C-171.34275146 210.98868652 -171.34275146 210.98868652 -171.86279297 211.93408203 C-180.02301517 227.00571194 -185.96003686 242.94582417 -190.33300781 259.49951172 C-190.58840332 260.46445557 -190.84379883 261.42939941 -191.10693359 262.42358398 C-192.33413224 267.29745128 -192.83300781 270.90159291 -192.83300781 276.06201172 C-66.11300781 276.06201172 60.60699219 276.06201172 191.16699219 276.06201172 C187.87085675 236.50838649 172.88206014 198.61910817 146.16699219 169.06201172 C145.44253906 168.20607422 144.71808594 167.35013672 143.97167969 166.46826172 C116.12440131 133.99689653 74.69174583 118.07798444 33.16699219 113.06201172 C32.08804688 112.92923828 31.00910156 112.79646484 29.89746094 112.65966797 C-21.25331467 107.6609978 -74.74590613 119.02637921 -116.83300781 149.06201172 Z " fill="#040707" transform="translate(6230.8330078125,1124.93798828125)"/>
<path d="M0 0 C0.94101563 0.75796875 1.88203125 1.5159375 2.8515625 2.296875 C16.48088587 13.37850041 29.43843885 25.93803573 40 40 C40.60255615 40.77996338 40.60255615 40.77996338 41.21728516 41.57568359 C53.30008532 57.21944399 63.67257997 74.07592492 72 92 C72.48412354 93.01247803 72.48412354 93.01247803 72.97802734 94.04541016 C80.84379098 110.51638818 86.84557893 127.73998882 90.8125 145.5625 C90.99514404 146.37356201 91.17778809 147.18462402 91.3659668 148.02026367 C91.98525129 151.00341286 92.49152678 153.99572148 93 157 C93.12042369 157.66653473 93.24084737 158.33306946 93.36492026 159.01980221 C96.79142968 178.53076279 96.4120789 198.10763306 96.34819686 217.83939302 C96.33509326 222.92765169 96.33963595 228.01590093 96.34190369 233.10417175 C96.34346748 241.8939077 96.33415256 250.68357622 96.31719017 259.47329521 C96.29268235 272.18133237 96.28498292 284.88933732 96.2812262 297.59739555 C96.27468007 318.22144293 96.25476914 338.84545447 96.22631836 359.46948242 C96.19872996 379.48933738 96.17751985 399.50918257 96.16479492 419.52905273 C96.16400675 420.76560025 96.16321858 422.00214777 96.16240653 423.27616643 C96.15849107 429.48031542 96.15470003 435.68446448 96.15097082 441.88861358 C96.11993225 493.25910757 96.06466031 544.62953517 96 596 C55.74 596 15.48 596 -26 596 C-26.01981934 584.56311523 -26.03963867 573.12623047 -26.06005859 561.34277344 C-26.12494335 524.69845065 -26.19948104 488.05415313 -26.28005161 451.40986161 C-26.29256964 445.7125316 -26.30500254 440.01520141 -26.31738281 434.31787109 C-26.3210818 432.61660406 -26.3210818 432.61660406 -26.32485552 430.880968 C-26.36451833 412.54571845 -26.39729426 394.21046277 -26.42749982 375.87519547 C-26.4586757 357.04455396 -26.4973111 338.21393827 -26.54279006 319.38332582 C-26.57059286 307.77520782 -26.59266125 296.16710859 -26.60726251 284.55896637 C-26.61785046 276.58573528 -26.63572083 268.61254064 -26.65916704 260.63933709 C-26.67245927 256.04759503 -26.6826856 251.45590378 -26.68421364 246.86414146 C-26.56214295 214.95073359 -26.56214295 214.95073359 -31.1875 183.4375 C-31.40108154 182.48480225 -31.61466309 181.53210449 -31.8347168 180.55053711 C-41.00323947 141.50062577 -64.9231665 106.28151195 -98.9453125 84.77001953 C-114.20237876 75.40531128 -130.57257788 68.9948783 -148 65 C-148.69706055 64.83483887 -149.39412109 64.66967773 -150.11230469 64.49951172 C-175.55423222 58.775374 -205.80369523 59.89651614 -231 66 C-231.7734375 66.18191895 -232.546875 66.36383789 -233.34375 66.55126953 C-271.86758134 75.90634055 -306.31326272 101.27965999 -327.13671875 134.83154297 C-338.5775088 153.65710918 -346.18210273 173.89305997 -349.75 195.625 C-349.86577393 196.32753906 -349.98154785 197.03007813 -350.10083008 197.75390625 C-352.03669139 210.77938222 -352.1498949 224.01945134 -352.15821838 237.16052246 C-352.16279871 238.72113273 -352.16780081 240.28174181 -352.17318195 241.84234953 C-352.18660526 246.0817875 -352.1941348 250.32121759 -352.20060861 254.56067109 C-352.2086831 259.15076243 -352.22235609 263.7408377 -352.23532104 268.33091736 C-352.25698479 276.26732372 -352.27516571 284.20373178 -352.29092598 292.14015198 C-352.31371732 303.61463576 -352.34184684 315.08910167 -352.37124526 326.5635702 C-352.41880821 345.18381101 -352.46210269 363.80405917 -352.50268555 382.42431641 C-352.54209817 400.50342378 -352.58353805 418.58252464 -352.62768555 436.66162109 C-352.63040982 437.77754086 -352.63313409 438.89346063 -352.63594092 440.04319614 C-352.64962134 445.64189279 -352.66334143 451.24058935 -352.67708123 456.83928585 C-352.79086836 503.22617697 -352.89771664 549.61308219 -353 596 C-355.40756968 596.01301256 -357.81506831 596.02252433 -360.22265625 596.0300293 C-360.90090454 596.0340551 -361.57915283 596.0380809 -362.2779541 596.0422287 C-391.82239735 596.11128401 -419.51486279 580.20336091 -440 560 C-441.29744141 558.72189453 -441.29744141 558.72189453 -442.62109375 557.41796875 C-467.57225967 531.45474306 -474.51840066 497.56894641 -474.36076355 462.82209778 C-474.36207478 460.64430319 -474.36470701 458.46650907 -474.36853105 456.28871745 C-474.3751856 450.35715852 -474.36331325 444.42576452 -474.34819686 438.49422657 C-474.33516755 432.07800468 -474.33963081 425.66179111 -474.34190369 419.24555969 C-474.34398836 408.14650702 -474.33421397 397.04750417 -474.31719017 385.94846535 C-474.29939568 374.31696126 -474.2878836 362.6854784 -474.28463173 351.0539608 C-474.28442551 350.32882114 -474.28421929 349.60368148 -474.28400682 348.85656789 C-474.28299172 345.17345459 -474.28208761 341.49034127 -474.2812262 337.80722793 C-474.27493689 311.76803664 -474.25475824 285.728873 -474.22631836 259.68969727 C-474.19873368 234.40421698 -474.17749824 209.11874428 -474.16479492 183.83325195 C-474.16440034 183.05286565 -474.16400576 182.27247935 -474.16359923 181.46844498 C-474.15964343 173.63097625 -474.15581602 165.79350747 -474.15208265 157.95603863 C-474.14447547 141.9923951 -474.13601171 126.02875206 -474.12702942 110.06510925 C-474.12661755 109.33124157 -474.12620568 108.59737388 -474.12578133 107.84126778 C-474.09821253 58.89416677 -474.05061816 9.94708202 -474 -39 C-467.02991519 -39.10260389 -460.06002963 -39.17196259 -453.08935547 -39.21972656 C-450.72502363 -39.23966787 -448.36073998 -39.26683088 -445.99658203 -39.30175781 C-427.8885978 -39.56230435 -412.30723399 -38.67352103 -396 -30 C-395.16082031 -29.55914063 -394.32164062 -29.11828125 -393.45703125 -28.6640625 C-373.20045393 -17.29525476 -360.48414737 1.55075605 -354.28515625 23.53515625 C-352.97494499 28.95770942 -352.44054471 34.44681795 -352 40 C-351.42636719 39.28199219 -350.85273438 38.56398438 -350.26171875 37.82421875 C-338.3290264 23.17461102 -324.95628159 9.31719388 -309.63867188 -1.80566406 C-307.99679738 -3.00233421 -306.38083212 -4.22858707 -304.765625 -5.4609375 C-230.1313595 -61.54167745 -119.63326147 -69.08636022 0 0 Z " fill="#040707" transform="translate(2885,1178)"/>
<path d="M0 0 C4.08818353 -0.04220076 8.17627998 -0.07256776 12.26463318 -0.09269714 C13.6509472 -0.10110245 15.03724664 -0.11255585 16.42350769 -0.12730408 C27.48318635 -0.24188757 37.44447148 0.6608942 48 4 C49.12535156 4.350625 50.25070313 4.70125 51.41015625 5.0625 C66.02710773 10.17754499 78.83821985 18.35552833 90 29 C90.87140625 29.82886719 91.7428125 30.65773438 92.640625 31.51171875 C112.12453135 51.51642134 121.16538875 78.135144 121.13803101 105.68270874 C121.14085229 106.84317896 121.14367357 108.00364917 121.14658034 109.19928515 C121.15344871 112.40327437 121.15595034 115.60723242 121.15663147 118.8112278 C121.15847967 122.27447274 121.16609192 125.73770536 121.17311096 129.20094299 C121.18461609 135.20141825 121.19287179 141.20189073 121.19923019 147.2023735 C121.20959629 156.71197079 121.23017361 166.2215336 121.25234985 175.73110962 C121.25982938 178.9918803 121.26724329 182.25265113 121.27463722 185.51342201 C121.27648779 186.32836565 121.27833835 187.14330928 121.280245 187.98294818 C121.30115908 197.25360271 121.31998939 206.52426107 121.33789062 215.79492188 C121.33952881 216.64188423 121.34116699 217.48884659 121.34285481 218.36147447 C121.36905896 232.04273179 121.38774751 245.72399178 121.40448253 259.40526347 C121.42199026 273.49240807 121.45093116 287.5795007 121.4893719 301.66660368 C121.51259677 310.33021739 121.52675051 318.99374625 121.52869953 327.65739132 C121.53083209 333.61690134 121.54395122 339.57632759 121.56517886 345.53579985 C121.57703744 348.95781516 121.58279972 352.37952704 121.57846642 355.80158043 C121.52629983 404.88853052 130.25924044 453.16121944 165 490 C165.61230469 490.67675781 166.22460938 491.35351562 166.85546875 492.05078125 C188.99999306 515.61179966 224.34080493 528.51245498 256.12203979 530.10643005 C258.24457039 530.1625051 260.36505524 530.19018537 262.48828125 530.203125 C263.26526367 530.21013931 264.04224609 530.21715363 264.84277344 530.22438049 C267.33274208 530.24176516 269.82247292 530.24823141 272.3125 530.25 C273.16315033 530.25067474 274.01380066 530.25134949 274.89022827 530.25204468 C314.0518798 530.20265235 349.18812576 518.86533473 378.27734375 491.78515625 C399.2185911 470.3631916 411.55556282 443.00049399 417.75 414 C417.94875732 413.07630615 418.14751465 412.1526123 418.35229492 411.20092773 C422.05885249 392.81112753 422.2907814 374.60813407 422.27124023 355.91235352 C422.27451908 353.11297136 422.28083123 350.31359809 422.28707886 347.51422119 C422.29904071 341.51826549 422.30422737 335.52233619 422.30496025 329.52636909 C422.30629577 320.83686036 422.32149289 312.14741486 422.34045542 303.45792865 C422.37119741 289.32734766 422.39540849 275.19676505 422.41333008 261.06616211 C422.41440276 260.2230186 422.41547544 259.37987508 422.41658062 258.51118176 C422.42839847 249.10669911 422.43860685 239.7022158 422.44702148 230.29772949 C422.45009577 226.88655597 422.45318452 223.47538247 422.45629883 220.06420898 C422.45706417 219.22241294 422.45782951 218.38061689 422.45861804 217.51331187 C422.47174056 203.43153897 422.49643222 189.34981219 422.53004223 175.2680735 C422.55021832 166.60991008 422.56063749 157.95184559 422.55805302 149.29365849 C422.55701079 143.35392346 422.56676851 137.41426634 422.58469205 131.47455854 C422.59464314 128.05941007 422.59829707 124.64457699 422.59192467 121.22939873 C422.53950233 89.82353365 426.32851445 60.36954198 448 36 C448.60070313 35.2575 449.20140625 34.515 449.8203125 33.75 C465.48526754 14.87340146 489.9751791 3.21295539 514 0 C519.47319981 -0.41707359 524.9543112 -0.29076034 530.4375 -0.1875 C531.86261572 -0.17239277 533.28774732 -0.15871527 534.71289062 -0.14648438 C538.14226763 -0.11403259 541.5710246 -0.06260184 545 0 C545.02292966 47.10947167 545.04053034 94.21894275 545.05106533 141.32841891 C545.05231591 146.90042381 545.05361025 152.47242871 545.05493164 158.04443359 C545.05519395 159.15363745 545.05545626 160.26284131 545.05572652 161.40565741 C545.06006816 179.32435668 545.06794738 197.24305272 545.0771528 215.16175008 C545.08653129 233.5720278 545.09206447 251.98230384 545.09408849 270.39258385 C545.09545503 281.73659463 545.09975825 293.08059627 545.10791647 304.42460424 C545.11323577 312.22217018 545.1147926 320.01973145 545.11350138 327.81729907 C545.11286604 332.30421895 545.11378305 336.79112294 545.11920547 341.27803993 C545.17537272 390.21378437 545.17537272 390.21378437 542.75 409.875 C542.62069092 410.94049072 542.49138184 412.00598145 542.3581543 413.10375977 C536.69359566 457.53096806 522.4795199 501.45033849 496 538 C495.23945313 539.05316406 494.47890625 540.10632812 493.6953125 541.19140625 C487.16223431 550.04157964 480.47802643 558.812502 472.54296875 566.45703125 C470.77379158 568.17328503 470.77379158 568.17328503 468.5625 571 C465.34779569 574.76355626 461.77262159 577.8101411 458 581 C457.07316406 581.8146875 456.14632812 582.629375 455.19140625 583.46875 C415.88293458 617.82596277 366.41433874 637.21610222 315 644 C314.12649902 644.11714355 313.25299805 644.23428711 312.35302734 644.35498047 C273.00518412 649.34482379 232.42575869 646.2110593 194 637 C193.05366699 636.77473633 192.10733398 636.54947266 191.13232422 636.31738281 C148.12636468 625.78434714 108.56922832 602.77840688 77 572 C75.97792106 571.01817037 74.95578879 570.03639626 73.93359375 569.0546875 C67.79394345 563.06020278 62.2421223 556.79072888 57 550 C56.58282715 549.46455566 56.1656543 548.92911133 55.73583984 548.37744141 C43.91118851 533.10922729 34.18266022 516.4729181 26 499 C25.43023438 497.81277344 24.86046875 496.62554688 24.2734375 495.40234375 C7.19731736 458.87463407 -0.20061215 417.73782362 -0.12025452 377.59918213 C-0.12069133 375.96365395 -0.12156827 374.32812584 -0.12284368 372.6925981 C-0.12506695 368.22748116 -0.12109723 363.76238845 -0.11606562 359.29727459 C-0.11173 354.47126457 -0.11320975 349.64525581 -0.1139679 344.81924438 C-0.11449116 336.46750823 -0.11136498 328.1157799 -0.10573006 319.76404572 C-0.09758831 307.68897584 -0.0949971 295.61390973 -0.09374207 283.5388374 C-0.09155575 263.94581133 -0.08490705 244.35278943 -0.07543945 224.75976562 C-0.06625447 205.73177105 -0.05917895 186.7037776 -0.05493164 167.67578125 C-0.05466892 166.50205767 -0.05440619 165.3283341 -0.05413551 164.11904314 C-0.05283043 158.23056669 -0.05156673 152.34209023 -0.05032361 146.45361376 C-0.03996408 97.63573962 -0.02235719 48.81787001 0 0 Z " fill="#040707" transform="translate(3535,1139)"/>
<path d="M0 0 C10.1197515 -0.09341211 20.23939746 -0.16412136 30.35949516 -0.20724869 C35.0606211 -0.22796621 39.76144827 -0.25598737 44.46240234 -0.30175781 C49.01418034 -0.34578945 53.56567425 -0.36925551 58.11764908 -0.37950897 C59.83887316 -0.38679908 61.56008486 -0.40102839 63.28118515 -0.42292023 C89.55980551 -0.74333752 113.65400416 6.85894863 134 24 C134.80050781 24.65484375 135.60101563 25.3096875 136.42578125 25.984375 C151.78166528 39.07150478 160.27482042 56.0544904 168.125 74.25 C168.91213063 76.06016982 169.6999061 77.87005935 170.48828125 79.6796875 C172.57548426 84.47489298 174.65459158 89.27356686 176.73205566 94.07299805 C178.81391775 98.87889861 180.90308245 103.68161952 182.9921875 108.484375 C185.50286125 114.25691682 188.01319375 120.02960282 190.52026367 125.80371094 C196.12799134 138.71633567 201.77075616 151.61317476 207.4375 164.5 C213.03036533 177.21960913 218.59459273 189.95062261 224.11035156 202.70385742 C228.45428595 212.7466715 232.81592626 222.78168569 237.1875 232.8125 C237.54236481 233.62679474 237.89722961 234.44108948 238.2628479 235.28005981 C244.28385741 249.09274383 250.33942977 262.89011397 256.40240479 276.68441772 C261.67214739 288.67582814 266.91008261 300.68011762 272.10961914 312.70214844 C276.45378376 322.7455382 280.81567865 332.78111754 285.1875 342.8125 C285.54236481 343.62679474 285.89722961 344.44108948 286.2628479 345.28005981 C292.27964431 359.08307865 298.32823696 372.87202887 304.39031982 386.6552124 C308.2331453 395.39279144 312.06816926 404.13324029 315.84765625 412.8984375 C316.14640656 413.59080002 316.44515686 414.28316254 316.75296021 414.99650574 C318.12437615 418.17630629 319.49222159 421.35752382 320.85449219 424.54125977 C323.69523723 431.14297094 326.6982413 437.61563785 330 444 C330.32983887 443.24533447 330.65967773 442.49066895 330.99951172 441.71313477 C340.53949581 419.88907762 350.10770085 398.07748328 359.68554688 376.27001953 C363.0842149 368.53152763 366.48158217 360.79246468 369.87902832 353.05343628 C371.75263044 348.78559999 373.62631969 344.51780196 375.5 340.25 C376.25000042 338.54166685 377.00000042 336.83333352 377.75 335.125 C385.25 318.04166667 392.75 300.95833333 400.25 283.875 C400.62122986 283.02942032 400.99245972 282.18384064 401.37493896 281.31263733 C402.12514075 279.6038455 402.8753442 277.8950544 403.62554932 276.18626404 C405.49747562 271.92245165 407.36937324 267.65862668 409.24121094 263.39477539 C412.65286158 255.62346834 416.06474468 247.8522637 419.47766113 240.08151245 C426.66134604 223.72518863 433.84364897 207.36830507 441 191 C448.15174278 174.64223512 455.32944301 158.29589592 462.50874329 141.95021057 C465.59722379 134.91809455 468.68374091 127.88511831 471.76914978 120.85165405 C473.65770181 116.54695931 475.54751107 112.24282537 477.44018555 107.93994141 C480.68585282 100.55978175 483.9280461 93.17848921 487.13059998 85.77949524 C488.45728983 82.71666251 489.79033617 79.65661788 491.12417603 76.59689331 C491.73305164 75.19566947 492.33900343 73.79317012 492.9414978 72.38919067 C498.52262539 59.38739296 504.568001 45.74225002 514.1875 35.1875 C514.73156494 34.57769287 515.27562988 33.96788574 515.83618164 33.33959961 C533.11494143 14.52210055 558.44330557 0.90737218 584.23469543 -0.26298523 C588.78067119 -0.3794812 593.32438352 -0.33894251 597.87109375 -0.29296875 C599.53116975 -0.28735574 601.19125081 -0.28309374 602.85133362 -0.28010559 C607.16674137 -0.26879073 611.4818338 -0.23944314 615.79711914 -0.20599365 C620.22212461 -0.1750002 624.64718231 -0.16153848 629.07226562 -0.14648438 C637.71498655 -0.11455688 646.35745377 -0.06352801 655 0 C647.49699478 17.21603721 647.49699478 17.21603721 644.16015625 24.42578125 C643.836521 25.12860733 643.51288574 25.83143341 643.17944336 26.55555725 C642.49463849 28.04236316 641.80918012 29.52886824 641.12307739 31.01507568 C639.25605867 35.05941441 637.39405482 39.10606286 635.53125 43.15234375 C635.15106216 43.97780701 634.77087433 44.80327026 634.37916565 45.65374756 C630.91628304 53.1748378 627.47502678 60.70571274 624.03753662 68.23843384 C617.65945816 82.21451056 611.23414435 96.16821506 604.78738403 110.11273193 C599.6517155 121.22395155 594.55286347 132.35089089 589.5 143.5 C583.69263555 156.31391043 577.81553711 169.0945659 571.91162109 181.86425781 C566.57996318 193.39693951 561.27409773 204.9408837 556 216.5 C550.34642886 228.89079927 544.65307122 241.26268262 538.9375 253.625 C533.41736366 265.56498931 527.92999791 277.51874629 522.5 289.5 C516.69263555 302.31391043 510.81553711 315.0945659 504.91162109 327.86425781 C499.57996318 339.39693951 494.27409773 350.9408837 489 362.5 C483.34642886 374.89079927 477.65307122 387.26268262 471.9375 399.625 C466.41736366 411.56498931 460.92999791 423.51874629 455.5 435.5 C449.69263555 448.31391043 443.81553711 461.0945659 437.91162109 473.86425781 C432.57996318 485.39693951 427.27409773 496.9408837 422 508.5 C416.34642865 520.89079973 410.65298665 533.26264325 404.9375 545.625 C399.09433594 558.26452888 393.29046309 570.9207698 387.54071045 583.60305786 C379.75929212 600.7655469 371.8761555 617.88075293 364 635 C339.91 635 315.82 635 291 635 C282.4975118 616.86135851 274.02576542 598.74265965 265.76948547 580.49586487 C261.23280138 570.47265983 256.61907597 560.48543633 252 550.5 C246.45845434 538.51857646 240.94876289 526.52390777 235.5 514.5 C229.69277223 501.68602832 223.81553654 488.90543286 217.91162109 476.13574219 C212.25032257 463.89002894 206.62196577 451.62985397 201.02178955 439.3560791 C195.6934846 427.68032015 190.32340991 416.02428669 184.9375 404.375 C179.10963354 391.76939411 173.32467482 379.14561241 167.59197998 366.49645996 C162.08600224 354.35106191 156.50779388 342.23981045 150.91162109 330.13574219 C145.25032257 317.89002894 139.62196577 305.62985397 134.02178955 293.3560791 C128.6934846 281.68032015 123.32340991 270.02428669 117.9375 258.375 C112.10963354 245.76939411 106.32467482 233.14561241 100.59197998 220.49645996 C95.08600224 208.35106191 89.50779388 196.23981045 83.91162109 184.13574219 C78.25032257 171.89002894 72.62196577 159.62985397 67.02178955 147.3560791 C61.6934846 135.68032015 56.32340991 124.02428669 50.9375 112.375 C45.11184724 99.77418232 39.32607416 87.15649747 33.59902954 74.51055908 C29.89363805 66.3299548 26.15908539 58.16378277 22.3828125 50.015625 C21.98733215 49.16170166 21.59185181 48.30777832 21.18438721 47.42797852 C19.26953477 43.29449604 17.35147516 39.16255623 15.42773438 35.03320312 C10.04942096 23.45421541 4.97203684 11.758811 0 0 Z " fill="#040707" transform="translate(5222,1139)"/>
<path d="M0 0 C40.26 0 80.52 0 122 0 C122 87.78 122 175.56 122 266 C154.01 266 186.02 266 219 266 C234.13123144 270.03499505 244.57487795 273.84875916 256 284 C256.63679688 284.55429688 257.27359375 285.10859375 257.9296875 285.6796875 C269.87850959 296.77881557 274.66870455 311.45395457 278 327 C278 343.17 278 359.34 278 376 C226.52 376 175.04 376 122 376 C122 549.25 122 722.5 122 901 C81.74 901 41.48 901 0 901 C0 727.75 0 554.5 0 376 C-32.01 376 -64.02 376 -97 376 C-118.97779169 370.13925555 -134.96338339 361.79175214 -147 342 C-160.23854861 318.14648758 -156 293.62184089 -156 266 C-104.52 266 -53.04 266 0 266 C0 178.22 0 90.44 0 0 Z " fill="#040707" transform="translate(4602,873)"/>
<path d="M0 0 C39.93 0 79.86 0 121 0 C121 87.78 121 175.56 121 266 C153.34 266 185.68 266 219 266 C233.22966507 269.55741627 233.22966507 269.55741627 239 272.5 C240.00619385 273.00841431 240.00619385 273.00841431 241.03271484 273.52709961 C248.06374714 277.27336069 253.52220036 282.28103937 259 288 C259.61359375 288.6290625 260.2271875 289.258125 260.859375 289.90625 C282.55180178 313.61137617 277 345.88820142 277 376 C225.52 376 174.04 376 121 376 C121 549.25 121 722.5 121 901 C81.07 901 41.14 901 0 901 C0 727.75 0 554.5 0 376 C-32.01 376 -64.02 376 -97 376 C-118.94907428 370.51273143 -135.54610917 361.77475824 -147.6875 342.4375 C-160.95829921 318.75048997 -157 292.97348666 -157 266 C-105.19 266 -53.38 266 0 266 C0 178.22 0 90.44 0 0 Z " fill="#040707" transform="translate(3157,873)"/>
<path d="M0 0 C2.80357331 2.14040015 5.53271187 4.32981127 8.22900391 6.60205078 C10.26557206 8.31697256 12.32200127 10.00570793 14.3828125 11.69140625 C17.32623991 14.1020645 20.26209774 16.52142481 23.19140625 18.94921875 C26.92507283 22.04003154 30.69859646 25.07685019 34.4921875 28.09375 C37.92531661 30.8382128 41.33593043 33.60989576 44.74609375 36.3828125 C45.42792725 36.93702881 46.10976074 37.49124512 46.81225586 38.06225586 C50.28215877 40.88365455 53.74981883 43.70776907 57.21484375 46.53515625 C63.53578578 51.68823917 69.87514219 56.80814229 76.30859375 61.8203125 C81.39461575 65.78406001 86.3374286 69.88520994 91.23608398 74.07739258 C95.60062578 77.79577426 100.08348071 81.34036506 104.609375 84.859375 C110.08914612 89.13480082 115.44081025 93.55796058 120.79052734 97.99438477 C124.72795459 101.25114212 128.69692946 104.4535142 132.73681641 107.58227539 C135.55090184 109.76254725 138.34206856 111.97056913 141.12109375 114.1953125 C141.91483398 114.82880615 141.91483398 114.82880615 142.72460938 115.47509766 C150.11470677 121.46402154 154.96887417 126.73331904 156.44921875 136.3203125 C156.8286441 143.25837611 154.45830313 148.88031672 150.12109375 154.1328125 C146.04779902 158.50250081 141.4661599 162.17964477 136.78417969 165.87353516 C134.28639672 167.85870794 131.82077242 169.88276746 129.35058594 171.90209961 C123.59349563 176.60537533 117.79830807 181.25200871 111.93359375 185.8203125 C106.84753607 189.78401384 101.90475717 193.88521142 97.00610352 198.07739258 C92.64434722 201.79340115 88.16429579 205.3356287 83.64160156 208.8527832 C78.06386424 213.20529499 72.61115347 217.70320907 67.15942383 222.21191406 C62.72456073 225.87859281 58.26322862 229.50608225 53.7578125 233.0859375 C50.27702352 235.87056868 46.82585329 238.69099877 43.37109375 241.5078125 C38.26734372 245.66786608 33.12871519 249.77503876 27.93359375 253.8203125 C23.40752863 257.34745592 18.98177862 260.96579678 14.62109375 264.6953125 C-9.89927174 285.60179493 -9.89927174 285.60179493 -18.19140625 285.3828125 C-23.62253026 284.41952192 -27.63971103 281.52576042 -32.10253906 278.42041016 C-55.26683269 262.44481568 -79.74486029 248.79367469 -104.87890625 236.1953125 C-105.93223145 235.66663574 -106.98555664 235.13795898 -108.07080078 234.59326172 C-150.40106357 213.48435899 -195.61221298 197.74243594 -241.78125 187.46875 C-242.52398981 187.30295567 -243.26672962 187.13716133 -244.0319767 186.96634293 C-265.78711765 182.14458894 -287.75874245 178.44846147 -309.71063232 174.65161133 C-315.30086139 173.68325241 -320.88965623 172.70669618 -326.47851562 171.73046875 C-327.57396257 171.53927082 -328.66940952 171.34807289 -329.79805183 171.15108109 C-335.19683424 170.20870257 -340.59539958 169.2651012 -345.99362183 168.31951904 C-348.06133823 167.95746682 -350.1290567 167.59542642 -352.19677734 167.23339844 C-353.19443052 167.05859325 -354.1920837 166.88378807 -355.2199688 166.70368576 C-360.72338352 165.74105831 -366.22897567 164.79312432 -371.73785305 163.86227989 C-374.84466607 163.33521662 -377.94953513 162.79733177 -381.05401039 162.25668716 C-382.44679387 162.01683637 -383.84044812 161.78197632 -385.23500633 161.55266953 C-399.53047471 159.19944213 -399.53047471 159.19944213 -404.375 153.40625 C-407.22089646 147.85616148 -407.44602609 143.2312515 -405.87890625 137.1953125 C-403.39067704 132.12669743 -400.98665998 130.38187114 -395.87890625 128.1953125 C-393.07745448 127.52983422 -390.35176307 126.97204279 -387.51953125 126.49609375 C-386.66375488 126.34432175 -385.80797852 126.19254974 -384.92626953 126.03617859 C-383.01900083 125.69923546 -381.11095295 125.36668203 -379.20227051 125.0378418 C-376.037788 124.49209834 -372.87570332 123.93390943 -369.71386719 123.37304688 C-360.06432453 121.66535566 -350.41024009 119.98373296 -340.75585938 118.3036499 C-330.18580811 116.46407269 -319.61691555 114.61815654 -309.05016708 112.75969028 C-304.15606038 111.8995172 -299.2612541 111.04390256 -294.36437988 110.19961548 C-274.48739534 106.77103447 -254.71223998 103.14969354 -235.0859375 98.47265625 C-234.31778465 98.28979568 -233.54963181 98.10693512 -232.7582016 97.91853333 C-217.61281247 94.28795694 -202.69563297 89.99538199 -187.87890625 85.1953125 C-186.68007813 84.80762695 -185.48125 84.41994141 -184.24609375 84.02050781 C-146.05352686 71.5384082 -108.74502615 55.21526095 -73.87890625 35.1953125 C-72.78666748 34.57462891 -72.78666748 34.57462891 -71.67236328 33.94140625 C-54.564321 24.19894591 -37.93639018 13.56582266 -21.86767578 2.1940918 C-21.13661621 1.68273682 -20.40555664 1.17138184 -19.65234375 0.64453125 C-18.69980713 -0.03089722 -18.69980713 -0.03089722 -17.72802734 -0.7199707 C-11.91358039 -4.1307956 -5.56784994 -3.49029399 0 0 Z " fill="#040707" transform="translate(976.87890625,1179.8046875)"/>
<path d="M0 0 C40.59 0 81.18 0 123 0 C123 209.55 123 419.1 123 635 C105.47359113 635 105.47359113 635 98.0625 633.375 C97.21969482 633.19606201 96.37688965 633.01712402 95.50854492 632.83276367 C61.69351813 625.26547452 35.63050279 604.62353809 17.03515625 575.97265625 C1.56580369 550.7545651 -0.32930783 522.85997977 -0.24050903 494.0055542 C-0.24138341 491.85989559 -0.24313864 489.71423719 -0.24568737 487.56857991 C-0.25011933 481.73052687 -0.24221499 475.89254843 -0.23213124 470.05450487 C-0.22343856 463.73714244 -0.22642099 457.41978372 -0.22793579 451.10241699 C-0.22898098 440.17636751 -0.22281324 429.25034554 -0.21146011 418.32430267 C-0.19959403 406.87504716 -0.19192178 395.42580123 -0.18975449 383.97653961 C-0.18961701 383.26255947 -0.18947953 382.54857932 -0.18933788 381.81296341 C-0.18866114 378.18647942 -0.1880584 374.55999542 -0.18748413 370.93351141 C-0.18329211 345.29974329 -0.16984205 319.66598766 -0.15087891 294.03222656 C-0.13248687 269.14160223 -0.11833102 244.25098133 -0.10986328 219.36035156 C-0.10960023 218.59204924 -0.10933718 217.82374691 -0.10906615 217.03216269 C-0.10642893 209.31600075 -0.10387733 201.59983879 -0.10138843 193.8836768 C-0.09631708 178.16734441 -0.09067458 162.45101224 -0.08468628 146.73468018 C-0.0844117 146.01219369 -0.08413712 145.28970721 -0.08385422 144.54532719 C-0.07541421 122.4166709 -0.06455523 100.28801672 -0.05130005 78.15936279 C-0.05055894 76.92048896 -0.04981782 75.68161514 -0.04905425 74.40519968 C-0.0340705 49.60346556 -0.01673045 24.80173299 0 0 Z " fill="#040707" transform="translate(4996,1139)"/>
<path d="M0 0 C40.59 0 81.18 0 123 0 C123 209.55 123 419.1 123 635 C105.47558781 635 105.47558781 635 98.0625 633.375 C97.22114502 633.19678711 96.37979004 633.01857422 95.51293945 632.83496094 C72.49155438 627.69153836 53.09303183 616.09102651 36 600 C35.09507813 599.19175781 35.09507813 599.19175781 34.171875 598.3671875 C28.11952312 592.73906589 23.60459254 585.81271306 19 579 C18.14535156 577.74703125 18.14535156 577.74703125 17.2734375 576.46875 C1.14499755 551.28423414 -0.33010276 521.93304262 -0.24050903 492.92326355 C-0.24138359 490.78086668 -0.24313915 488.63847003 -0.24568737 486.4960745 C-0.25011579 480.67168227 -0.24222 474.84736494 -0.23213124 469.02298224 C-0.22343334 462.71858912 -0.22642136 456.41419968 -0.22793579 450.10980225 C-0.22898066 439.2077796 -0.22281641 428.30578455 -0.21146011 417.40376854 C-0.19959153 405.98045932 -0.19192128 394.55715972 -0.18975449 383.13384438 C-0.18961701 382.42131932 -0.18947953 381.70879426 -0.18933788 380.97467753 C-0.18866114 377.35554254 -0.1880584 373.73640754 -0.18748413 370.11727253 C-0.18329279 344.53951957 -0.16984465 318.96177912 -0.15087891 293.3840332 C-0.13248506 268.54874742 -0.1183301 243.71346507 -0.10986328 218.87817383 C-0.10960023 218.11149708 -0.10933718 217.34482034 -0.10906615 216.55491096 C-0.10642892 208.85503204 -0.10387732 201.1551531 -0.10138843 193.45527413 C-0.09631716 177.77229133 -0.09067466 162.08930876 -0.08468628 146.40632629 C-0.0844117 145.68538259 -0.08413712 144.96443888 -0.08385422 144.2216484 C-0.07541469 122.14151309 -0.06455598 100.06137989 -0.05130005 77.98124695 C-0.05055894 76.74515896 -0.04981782 75.50907097 -0.04905425 74.23552576 C-0.03407093 49.49034962 -0.01673058 24.74517502 0 0 Z " fill="#040707" transform="translate(4205,1139)"/>
<path d="M0 0 C40.26 0 80.52 0 122 0 C122 209.55 122 419.1 122 635 C104.47558781 635 104.47558781 635 97.0625 633.375 C96.22114502 633.19678711 95.37979004 633.01857422 94.51293945 632.83496094 C62.6209425 625.70967214 34.92048446 605.58621283 17.421875 578.05078125 C10.16520902 566.18226754 5.21426682 553.51124772 2 540 C1.82593695 539.3190764 1.6518739 538.63815279 1.47253621 537.93659514 C-0.72977147 527.94696109 -0.2706075 517.76398802 -0.24050903 507.59431458 C-0.2413818 505.40280107 -0.24313408 503.21128776 -0.24568737 501.01977557 C-0.25015093 495.01316902 -0.24217079 489.00663404 -0.23213124 483.0000366 C-0.22348479 476.51687017 -0.22641775 470.03370769 -0.22793579 463.55053711 C-0.22932906 452.32312418 -0.22278514 441.09573305 -0.21146011 429.86832619 C-0.19961617 418.09623924 -0.19192622 406.32416157 -0.18975449 394.55206871 C-0.18961701 393.8194474 -0.18947953 393.08682609 -0.18933788 392.33200413 C-0.18866119 388.61121893 -0.18805843 384.89043371 -0.18748413 381.16964849 C-0.18328604 354.83208682 -0.16981894 328.49453727 -0.15087891 302.15698242 C-0.13250298 276.57430078 -0.11833921 250.99162246 -0.10986328 225.40893555 C-0.10960023 224.62002676 -0.10933718 223.83111797 -0.10906615 223.01830285 C-0.10642906 215.09558013 -0.10387744 207.17285739 -0.10138843 199.25013462 C-0.09631634 183.11139227 -0.09067384 166.97265012 -0.08468628 150.83390808 C-0.0844117 150.09191463 -0.08413712 149.34992118 -0.08385422 148.58544308 C-0.07540995 125.84771683 -0.06454857 103.10999263 -0.05130005 80.37226868 C-0.05018838 78.46185744 -0.05018838 78.46185744 -0.04905425 76.51285204 C-0.03406668 51.00856716 -0.01672927 25.50428378 0 0 Z " fill="#040707" transform="translate(2147,1139)"/>
<path d="M0 0 C0.99 0.33 1.98 0.66 3 1 C3.7644043 3.24633789 3.7644043 3.24633789 4.32421875 6.22265625 C4.54360107 7.3111084 4.7629834 8.39956055 4.98901367 9.52099609 C5.21951416 10.68969238 5.45001465 11.85838867 5.6875 13.0625 C10.30165585 34.43623549 19.3388369 50.6880492 38 63 C50.06464441 69.86216547 63.47571573 72.5292173 77 75 C77.33 76.32 77.66 77.64 78 79 C73.79439114 80.53731596 69.65773077 81.5132576 65.27514648 82.34326172 C56.94258358 83.93096727 49.47190989 85.84087864 42 90 C41.14148437 90.4640625 40.28296875 90.928125 39.3984375 91.40625 C24.45238223 99.89524816 13.22722131 113.42137479 8.39501953 130.08642578 C7.2596039 134.40100517 6.29380187 138.74625519 5.390625 143.11474609 C4.87476286 145.60442576 4.31229121 148.08295196 3.75 150.5625 C3.37875 152.2640625 3.37875 152.2640625 3 154 C1.68 154 0.36 154 -1 154 C-1.17015625 153.23558594 -1.3403125 152.47117187 -1.515625 151.68359375 C-2.3224752 148.11714419 -3.15746162 144.55818784 -4 141 C-4.29003906 139.7521875 -4.58007812 138.504375 -4.87890625 137.21875 C-7.92378773 124.886343 -12.57585613 114.57126133 -21 105 C-21.60585937 104.31164062 -22.21171875 103.62328125 -22.8359375 102.9140625 C-33.82459111 91.20778253 -48.15379362 85.088774 -63.6875 82.1875 C-64.78255859 81.97158203 -65.87761719 81.75566406 -67.00585938 81.53320312 C-69.66846777 81.00998314 -72.33279554 80.49915789 -75 80 C-75.33 78.68 -75.66 77.36 -76 76 C-72.22872117 74.26991635 -68.56245349 73.45873856 -64.515625 72.70800781 C-45.70488074 69.19596997 -28.71069412 61.29898819 -17.12890625 45.4375 C-10.11980414 34.82587014 -6.38925524 24.59663549 -3.89453125 12.234375 C-1.75543866 1.75543866 -1.75543866 1.75543866 0 0 Z " fill="#040707" transform="translate(2207,858)"/>
<path d="M0 0 C2.0625 0.4375 2.0625 0.4375 4 1 C4.12528076 1.66418945 4.25056152 2.32837891 4.37963867 3.01269531 C7.53275568 19.50328276 10.39355554 33.56517035 21 47 C21.61875 47.78375 22.2375 48.5675 22.875 49.375 C34.71365422 63.50500665 50.45644638 69.48337687 68 73 C69.09183594 73.226875 70.18367188 73.45375 71.30859375 73.6875 C73.53629439 74.1425197 75.76499529 74.58265268 78 75 C78.33 75.99 78.66 76.98 79 78 C76.73561012 80.26438988 75.9499308 80.37919048 72.88671875 80.89453125 C72.05712646 81.04253174 71.22753418 81.19053223 70.37280273 81.34301758 C69.48665283 81.49794678 68.60050293 81.65287598 67.6875 81.8125 C47.6291666 85.60413403 30.21471316 94.25801239 18.1875 111.3125 C10.97240252 122.01064066 7.68316695 133.36924776 5.48046875 145.97265625 C5.24263672 147.31650391 5.24263672 147.31650391 5 148.6875 C4.87625 149.47511719 4.7525 150.26273438 4.625 151.07421875 C4 153 4 153 1 155 C0.34 154.67 -0.32 154.34 -1 154 C-1.60668945 151.8737793 -1.60668945 151.8737793 -2.11328125 149.07421875 C-2.30631836 148.05561768 -2.49935547 147.0370166 -2.69824219 145.98754883 C-2.90094727 144.89853271 -3.10365234 143.8095166 -3.3125 142.6875 C-7.20178934 123.17109179 -14.99039355 106.13628456 -31.81787109 94.57006836 C-45.2648149 85.67750014 -59.30175976 82.62490785 -75 80 C-75.33 78.68 -75.66 77.36 -76 76 C-72.15700547 74.20347817 -68.45559196 73.49598532 -64.31225586 72.80981445 C-44.5637029 69.45848784 -28.52587417 61.0663556 -16.06640625 44.99609375 C-8.68859947 34.29897125 -5.43078329 23.55797805 -3 11 C-2.78601562 9.92234375 -2.57203125 8.8446875 -2.3515625 7.734375 C-2.02037496 6.05443818 -1.6990782 4.37247004 -1.39453125 2.6875 C-1 1 -1 1 0 0 Z " fill="#040707" transform="translate(4266,858)"/>
<path d="M0 0 C2.0625 0.4375 2.0625 0.4375 4 1 C4.13462646 1.83640015 4.13462646 1.83640015 4.27197266 2.68969727 C6.97680572 19.08543195 10.28922741 33.78777309 21 47 C21.92619141 48.16982422 21.92619141 48.16982422 22.87109375 49.36328125 C34.6879331 63.5102016 50.46278512 69.48464748 68 73 C69.09183594 73.226875 70.18367188 73.45375 71.30859375 73.6875 C73.53629439 74.1425197 75.76499529 74.58265268 78 75 C78.33 75.99 78.66 76.98 79 78 C76.73561012 80.26438988 75.9499308 80.37919048 72.88671875 80.89453125 C72.05712646 81.04253174 71.22753418 81.19053223 70.37280273 81.34301758 C69.48665283 81.49794678 68.60050293 81.65287598 67.6875 81.8125 C47.6327805 85.60345089 30.2093927 94.25654975 18.1875 111.3125 C11.32500241 121.53459275 8.30247494 131.98731769 5.89453125 143.8984375 C5.16822728 147.36900132 4.32343681 150.69907267 3 154 C2.34 154.33 1.68 154.66 1 155 C0.34 154.67 -0.32 154.34 -1 154 C-1.60668945 151.8737793 -1.60668945 151.8737793 -2.11328125 149.07421875 C-2.30631836 148.05561768 -2.49935547 147.0370166 -2.69824219 145.98754883 C-2.90094727 144.89853271 -3.10365234 143.8095166 -3.3125 142.6875 C-7.20178934 123.17109179 -14.99039355 106.13628456 -31.81787109 94.57006836 C-45.2648149 85.67750014 -59.30175976 82.62490785 -75 80 C-75.33 78.68 -75.66 77.36 -76 76 C-72.15700547 74.20347817 -68.45559196 73.49598532 -64.31225586 72.80981445 C-44.5637029 69.45848784 -28.52587417 61.0663556 -16.06640625 44.99609375 C-8.68859947 34.29897125 -5.43078329 23.55797805 -3 11 C-2.78601562 9.92234375 -2.57203125 8.8446875 -2.3515625 7.734375 C-2.02037496 6.05443818 -1.6990782 4.37247004 -1.39453125 2.6875 C-1 1 -1 1 0 0 Z " fill="#040707" transform="translate(5057,858)"/>
</svg>
