<svg version="1.1" id="Layer_1" xmlns="http://www.w3.org/2000/svg" xmlns:xlink="http://www.w3.org/1999/xlink" x="0px" y="0px"
	 width="100%" viewBox="0 0 148 130" enable-background="new 0 0 148 130" xml:space="preserve">
<path fill="#341A0B" opacity="1.000000" stroke="none" 
	d="
M141.000000,131.000000 
	C94.383179,131.000000 47.766354,131.000000 1.074764,131.000000 
	C1.074764,87.762901 1.074764,44.525639 1.074764,1.000000 
	C47.353828,1.000000 93.708260,1.000000 140.531509,1.468657 
	C141.000214,44.958210 141.000107,87.979103 141.000000,131.000000 
M29.461500,110.162918 
	C29.917501,110.261253 30.373503,110.359596 31.318125,111.009689 
	C32.375122,114.413925 33.982391,116.756393 37.621449,115.146149 
	C38.105106,115.986626 38.588764,116.827110 39.127567,118.378159 
	C41.197605,120.008476 43.100403,122.446724 45.409000,122.924599 
	C46.545086,123.159775 48.432182,119.766876 49.999374,118.000000 
	C49.999374,118.000000 50.015026,117.980141 50.804077,118.015228 
	C52.554535,118.514763 54.279335,119.290413 56.060825,119.455971 
	C59.693169,119.793510 63.356064,119.802353 67.511169,119.821907 
	C67.673843,119.881744 67.836510,119.941589 68.168213,120.710800 
	C70.114166,120.821083 72.060112,120.931366 74.903198,121.032478 
	C81.308746,119.676903 87.714294,118.321320 94.613243,117.108688 
	C95.020920,117.369324 95.428596,117.629959 96.419586,117.837196 
	C96.614586,117.827202 96.809578,117.817215 97.003899,118.563065 
	C96.845490,121.296082 97.808823,122.475334 100.380905,120.722527 
	C102.239563,119.455879 104.834518,118.227676 105.459053,116.416214 
	C106.638771,112.994461 111.894760,112.224083 111.437218,107.292839 
	C112.383392,107.100586 113.329567,106.908333 114.875351,106.717133 
	C115.239182,105.602989 115.603012,104.488838 116.752182,103.256096 
	C116.846199,102.775414 116.940224,102.294724 116.834229,101.116959 
	C116.865074,100.155434 116.895920,99.193901 117.426765,98.505928 
	C117.615387,98.483177 117.804001,98.460426 118.655106,98.659164 
	C119.923775,97.799568 121.985893,97.143402 122.270950,96.031616 
	C122.675766,94.452667 122.367249,91.656441 121.309990,90.944191 
	C118.816635,89.264442 119.365524,87.672173 119.973068,85.455261 
	C122.789948,75.176659 123.016678,64.920830 119.443710,54.710423 
	C118.749023,52.725216 118.610268,50.545475 118.858040,48.562092 
	C118.888367,47.019249 118.918694,45.476402 118.997864,43.996952 
	C118.997864,43.996952 118.951004,43.936298 119.621063,43.924568 
	C119.756912,43.524307 119.892761,43.124046 120.275398,42.174484 
	C120.231789,39.105461 119.642227,36.441689 115.892159,35.557198 
	C115.593994,35.051003 115.295837,34.544804 114.644173,33.520832 
	C113.407578,33.064285 112.170982,32.607738 110.531456,32.057426 
	C110.531456,32.057426 110.117775,32.060879 109.471939,31.791887 
	C109.036980,31.746109 108.602020,31.700331 107.992126,31.266960 
	C107.962685,30.983891 107.961769,30.700727 108.493530,30.067360 
	C107.140709,28.651041 105.787880,27.234722 104.085831,25.421165 
	C103.761810,25.296700 103.437798,25.172235 102.622406,25.044954 
	C102.622406,25.044954 102.131027,25.048231 102.108002,24.380783 
	C103.225937,20.873167 100.953018,20.310066 97.696182,20.340504 
	C97.138641,21.593142 96.581108,22.845779 95.994835,24.607416 
	C95.989754,24.777277 95.984673,24.947138 95.993423,25.874508 
	C95.944450,26.376617 95.895477,26.878727 95.059570,27.376545 
	C92.036781,26.237320 89.013992,25.098097 85.809998,23.243998 
	C85.316078,22.853809 84.880600,22.276085 84.319565,22.101259 
	C74.158516,18.934919 64.087578,19.281065 54.277527,23.386341 
	C50.505440,24.964867 47.012451,26.285402 42.648811,22.761089 
	C42.259560,23.176207 41.870304,23.591324 40.802017,24.199509 
	C39.699852,24.437695 38.422379,25.160099 37.524174,24.834919 
	C31.990486,22.831535 31.824127,26.208693 31.672287,30.587791 
	C31.149469,31.415388 30.626650,32.242985 29.701014,33.565880 
	C28.158554,34.739597 26.616095,35.913319 24.985617,37.589073 
	C25.091988,37.911697 25.198359,38.234318 25.255760,39.301304 
	C25.514633,39.672813 25.773506,40.044327 25.848705,40.866444 
	C25.561207,41.255924 25.273708,41.645405 24.517849,42.226650 
	C24.291748,42.476402 24.065649,42.726154 23.158930,43.018574 
	C22.140234,44.059273 21.121538,45.099976 20.109056,46.837875 
	C20.411982,47.915329 20.714909,48.992783 20.934776,50.754215 
	C20.601942,52.125370 20.269110,53.496525 19.886515,55.072681 
	C21.081171,54.850903 21.763294,54.724270 21.623672,54.750191 
	C21.071533,61.435986 19.824800,67.976303 20.190308,74.425247 
	C20.584589,81.381935 21.587187,88.578300 27.021650,94.713654 
	C28.196533,96.105156 29.371418,97.496651 30.860149,99.095596 
	C31.002989,99.308716 31.085567,99.543053 31.069023,100.342239 
	C31.061703,100.523758 31.054382,100.705276 30.363125,100.949059 
	C29.575356,101.307655 28.787586,101.666252 27.883562,102.715813 
	C27.945965,104.190865 28.008368,105.665924 27.984682,107.680809 
	C28.326054,108.450119 28.667425,109.219421 29.461500,110.162918 
z"/>
<path fill="#FFFFFF" opacity="1.000000" stroke="none" 
	d="
M141.494736,131.000000 
	C141.000107,87.979103 141.000214,44.958210 141.000168,1.468657 
	C143.657700,1.000000 146.315384,1.000000 148.978027,1.000001 
	C148.982956,44.333336 148.982956,87.666672 148.982956,131.000000 
	C146.640427,131.000000 144.314957,131.000000 141.494736,131.000000 
z"/>
<path fill="#E0C49D" opacity="1.000000" stroke="none" 
	d="
M31.107883,99.798622 
	C31.085567,99.543053 31.002989,99.308716 30.606270,98.761505 
	C30.352388,98.427406 30.219551,97.946014 30.419348,97.731491 
	C29.955332,96.746719 29.291517,95.976471 28.693073,95.194519 
	C28.758444,95.182808 28.727879,95.312065 28.805380,94.941467 
	C28.249552,93.713074 27.616222,92.855293 26.747065,91.781036 
	C26.219608,90.772942 25.927982,89.981323 25.924421,88.979401 
	C25.458397,79.460823 24.704306,70.152565 23.833805,60.537796 
	C25.613188,54.946232 27.508984,49.661175 29.410969,44.328938 
	C29.417162,44.281754 29.504045,44.242889 29.830101,44.220177 
	C30.722223,43.321892 31.288290,42.446316 32.088070,41.379265 
	C33.534260,40.091007 34.746738,38.994225 36.095596,38.162636 
	C36.806099,37.577572 37.380219,36.727310 38.002602,35.558151 
	C39.029202,34.142902 40.007538,33.046551 41.316952,31.847549 
	C43.137627,30.852419 44.627224,29.959936 46.451851,28.918253 
	C57.597527,23.263191 68.750595,19.864035 81.000023,23.497875 
	C81.000938,24.173882 81.001541,24.560171 80.621315,24.909840 
	C76.132942,23.054848 74.498459,24.517937 74.655571,28.898781 
	C72.261337,26.394199 70.103836,28.716795 67.994949,28.445793 
	C66.783371,26.714254 65.573174,25.371313 64.362984,24.028372 
	C62.909824,25.627768 61.456661,27.227165 59.701828,28.957506 
	C58.300800,29.739922 57.201450,30.391394 55.773514,30.899349 
	C51.884335,29.083544 52.034836,31.561287 51.619354,33.907478 
	C49.269897,35.092133 47.290554,36.181713 45.340851,37.321980 
	C43.711262,38.275028 42.116356,39.287384 40.382248,40.123222 
	C40.137024,39.923115 40.015644,39.873260 39.894264,39.823410 
	C40.027397,40.047356 40.160530,40.271301 40.237095,40.834732 
	C36.994381,47.292145 30.330334,51.656395 30.930246,59.721222 
	C31.004808,60.723579 29.889362,61.760952 29.699623,62.847466 
	C29.286982,65.210381 29.116056,67.615517 28.519142,70.008514 
	C27.350105,70.538925 26.508257,71.064217 25.666409,71.589508 
	C26.731457,72.391876 27.796505,73.194244 28.831097,74.367340 
	C27.467237,77.463959 27.768919,79.781303 30.224804,81.827690 
	C30.851643,82.350006 30.852221,83.583839 31.231148,84.451172 
	C32.428402,87.191597 33.668617,89.913246 34.521854,92.793694 
	C33.537724,93.944351 32.923954,94.943466 32.310181,95.942581 
	C33.579163,95.945717 34.848152,95.948853 36.420181,96.096237 
	C38.149471,97.880516 39.575714,99.520538 40.990318,101.516434 
	C39.349735,106.888809 42.600418,107.039124 46.376919,106.988861 
	C48.792171,107.391396 50.897224,107.779480 53.003731,108.526276 
	C53.371063,109.822868 53.736938,110.760735 54.102814,111.698608 
	C54.733212,111.205559 55.363605,110.712517 56.364082,110.272301 
	C59.953667,110.813210 63.176636,111.279610 66.392044,111.793343 
	C76.976646,113.484497 86.544876,110.074646 96.175461,106.197769 
	C98.945427,106.316925 101.510185,106.169945 103.998291,106.364014 
	C101.294617,108.496880 98.667595,110.288696 95.767784,112.097015 
	C95.051277,112.424530 94.607559,112.735542 93.769882,113.035934 
	C91.965065,113.480438 90.531021,113.874519 89.147087,114.400490 
	C79.591805,118.032005 69.880310,119.240875 59.871731,116.455025 
	C55.582008,115.261002 51.269691,114.148148 46.787529,112.717728 
	C45.404430,111.977371 44.201447,111.517700 42.701637,110.899918 
	C39.614159,108.452202 36.823502,106.162590 33.915558,103.577469 
	C32.901478,102.120850 32.004681,100.959732 31.107883,99.798622 
M40.827766,36.466846 
	C40.822903,36.811577 40.814857,37.156456 40.831146,37.500179 
	C40.831562,37.508968 41.223404,37.515110 41.224163,37.505684 
	C41.251801,37.162693 41.254654,36.817711 40.827766,36.466846 
z"/>
<path fill="#2B140D" opacity="1.000000" stroke="none" 
	d="
M118.215080,48.455467 
	C118.610268,50.545475 118.749023,52.725216 119.443710,54.710423 
	C123.016678,64.920830 122.789948,75.176659 119.973068,85.455261 
	C119.365524,87.672173 118.816635,89.264442 121.309990,90.944191 
	C122.367249,91.656441 122.675766,94.452667 122.270950,96.031616 
	C121.985893,97.143402 119.923775,97.799568 118.597076,98.300217 
	C118.064125,97.054207 117.589211,96.167130 117.068100,95.010941 
	C116.352028,95.510857 115.682159,96.279900 115.162529,97.369034 
	C115.520607,98.831955 115.728455,99.974770 115.628120,101.070877 
	C114.899651,101.331474 114.479370,101.638802 113.972046,102.221245 
	C113.946983,102.678474 114.008965,102.860588 114.048492,103.036621 
	C114.026039,103.030540 114.043854,103.073524 113.685989,102.999359 
	C113.572365,103.443848 113.816589,103.962486 114.086243,104.612579 
	C114.111664,104.744019 113.976875,104.975380 113.796921,105.059753 
	C113.552078,105.258347 113.405228,105.435875 113.436249,105.476059 
	C113.585457,105.669273 113.782684,105.825424 114.054733,106.169144 
	C114.146606,106.343567 114.275742,106.716080 114.275742,106.716080 
	C113.329567,106.908333 112.383392,107.100586 110.890656,107.263428 
	C109.890930,105.809669 109.437752,104.385330 108.992340,102.594582 
	C109.773582,100.854393 110.694214,99.541725 111.294540,98.096046 
	C113.640129,92.447510 115.884399,86.756905 118.472397,80.959229 
	C118.889915,80.218758 119.001389,79.601006 119.145721,78.589020 
	C119.153297,77.145859 119.127998,76.096924 119.450928,74.838135 
	C119.567024,72.067863 119.334892,69.507454 119.065742,66.556137 
	C119.067009,65.123985 119.105293,64.082748 119.200455,62.645760 
	C118.599091,60.086304 117.940842,57.922585 117.341064,55.839085 
	C117.399544,55.919300 117.546310,55.785587 117.497360,55.414459 
	C117.043793,54.466633 116.639168,53.889931 116.424484,53.020958 
	C115.994942,50.786140 115.375465,48.843601 115.132378,46.924435 
	C116.011215,46.966206 116.513672,46.984604 117.147453,47.201462 
	C117.590874,47.751770 117.902977,48.103619 118.215080,48.455467 
z"/>
<path fill="#260F09" opacity="1.000000" stroke="none" 
	d="
M25.636354,89.189705 
	C25.927982,89.981323 26.219608,90.772942 26.772541,92.076248 
	C27.119852,92.972694 27.205858,93.357468 27.231152,93.796883 
	C27.170441,93.851532 27.050926,93.962906 27.050926,93.962906 
	C21.587187,88.578300 20.584589,81.381935 20.190308,74.425247 
	C19.824800,67.976303 21.071533,61.435986 21.623672,54.750191 
	C21.763294,54.724270 21.081171,54.850903 19.886515,55.072681 
	C20.269110,53.496525 20.601942,52.125370 21.099697,50.066856 
	C21.635611,48.249390 22.006603,47.119289 22.652636,45.990021 
	C23.273006,45.448009 23.618338,44.905163 24.250479,44.217506 
	C24.686930,43.393425 24.836571,42.714157 24.986210,42.034885 
	C25.273708,41.645405 25.561207,41.255924 26.171268,40.556473 
	C26.493834,40.246498 26.938036,40.035576 27.195986,40.196541 
	C27.656490,40.349796 27.859043,40.342091 28.308870,40.508778 
	C29.349356,40.776020 30.142570,40.868862 31.159992,41.122162 
	C31.540918,41.378658 31.697638,41.474697 31.854357,41.570740 
	C31.288290,42.446316 30.722223,43.321892 29.702866,44.080528 
	C29.134659,43.918091 29.019747,43.872589 28.904837,43.827087 
	C29.071484,44.010098 29.238131,44.193111 29.404778,44.376122 
	C27.508984,49.661175 25.613188,54.946232 23.469715,60.720207 
	C20.653423,70.827057 21.547777,80.146187 25.636354,89.189705 
z"/>
<path fill="#28110A" opacity="1.000000" stroke="none" 
	d="
M42.998459,111.058029 
	C44.201447,111.517700 45.404430,111.977371 46.846970,113.075470 
	C53.726479,115.791458 60.366425,117.869026 67.006371,119.946594 
	C63.356064,119.802353 59.693169,119.793510 56.060825,119.455971 
	C54.279335,119.290413 52.554535,118.514763 50.355095,117.885666 
	C49.906116,117.756096 49.585838,117.751228 49.585838,117.751228 
	C49.585838,117.751228 49.979427,118.015762 49.979431,118.015762 
	C48.432182,119.766876 46.545086,123.159775 45.409000,122.924599 
	C43.100403,122.446724 41.197605,120.008476 39.348476,118.113800 
	C39.744831,117.865097 39.920277,117.880768 40.475311,117.807152 
	C41.012726,117.204742 41.170547,116.691605 41.328362,116.178467 
	C40.909462,116.145195 40.490562,116.111923 39.976452,115.738045 
	C39.595165,115.111130 39.309090,114.824821 39.298119,114.423676 
	C40.714970,113.225243 41.856716,112.141640 42.998459,111.058029 
z"/>
<path fill="#301A12" opacity="1.000000" stroke="none" 
	d="
M108.984573,102.960983 
	C109.437752,104.385330 109.890930,105.809669 110.572876,107.438972 
	C111.894760,112.224083 106.638771,112.994461 105.459053,116.416214 
	C104.834518,118.227676 102.239563,119.455879 100.380905,120.722527 
	C97.808823,122.475334 96.845490,121.296082 97.311455,118.176361 
	C98.148628,117.522865 98.678246,117.256073 99.521484,116.905151 
	C101.672523,114.781746 100.619766,114.203239 98.175438,114.118736 
	C97.251587,113.407036 96.646080,112.743774 96.040565,112.080521 
	C98.667595,110.288696 101.294617,108.496880 104.297592,106.228035 
	C106.110550,104.820999 107.547562,103.890991 108.984573,102.960983 
M102.856888,111.923889 
	C103.219673,112.201057 103.582458,112.478226 103.945244,112.755394 
	C104.109619,112.401222 104.273994,112.047050 104.438377,111.692886 
	C104.030830,111.643417 103.623276,111.593941 102.856888,111.923889 
z"/>
<path fill="#E8CCA5" opacity="1.000000" stroke="none" 
	d="
M67.258774,119.884247 
	C60.366425,117.869026 53.726479,115.791458 47.027084,113.356155 
	C51.269691,114.148148 55.582008,115.261002 59.871731,116.455025 
	C69.880310,119.240875 79.591805,118.032005 89.147087,114.400490 
	C90.531021,113.874519 91.965065,113.480438 93.730972,113.348831 
	C94.053421,114.091293 94.020805,114.510262 93.608170,114.974350 
	C86.819611,116.689583 80.411087,118.359680 73.579353,119.950417 
	C71.437149,119.914513 69.718163,119.957970 67.999168,120.001427 
	C67.836510,119.941589 67.673843,119.881744 67.258774,119.884247 
z"/>
<path fill="#190501" opacity="1.000000" stroke="none" 
	d="
M80.999702,23.208158 
	C68.750595,19.864035 57.597527,23.263191 46.206734,28.738173 
	C45.104725,27.618723 44.582863,26.530151 44.093903,25.116730 
	C43.930420,24.195513 43.734039,23.599146 43.537659,23.002777 
	C47.012451,26.285402 50.505440,24.964867 54.277527,23.386341 
	C64.087578,19.281065 74.158516,18.934919 84.319565,22.101259 
	C84.880600,22.276085 85.316078,22.853809 85.532684,23.638556 
	C83.836823,23.758127 82.418259,23.483143 80.999702,23.208158 
z"/>
<path fill="#260F07" opacity="1.000000" stroke="none" 
	d="
M107.989395,30.417471 
	C107.961769,30.700727 107.962685,30.983891 108.099503,31.762543 
	C108.510902,32.512840 108.814934,32.767555 109.064400,33.336380 
	C109.018600,34.075603 109.027359,34.500717 108.993042,35.283718 
	C108.622169,36.792088 108.294373,37.942574 107.657959,38.960526 
	C105.583099,37.545944 103.816864,36.263901 101.966019,34.675594 
	C101.283440,33.866093 100.685478,33.362850 100.074577,32.886078 
	C100.061638,32.912544 100.115013,32.886444 99.979797,32.585747 
	C98.511887,30.650314 97.179199,29.015575 95.846512,27.380836 
	C95.895477,26.878727 95.944450,26.376617 96.343475,25.515640 
	C98.506027,25.120594 100.318527,25.084412 102.131027,25.048231 
	C102.131027,25.048231 102.622406,25.044954 102.793587,25.390759 
	C103.358521,26.864576 103.752281,27.992588 104.481415,29.177845 
	C105.874321,29.629215 106.931862,30.023342 107.989395,30.417471 
z"/>
<path fill="#2C160F" opacity="1.000000" stroke="none" 
	d="
M42.701637,110.899918 
	C41.856716,112.141640 40.714970,113.225243 39.034576,114.479462 
	C38.327263,114.589195 38.158607,114.528313 37.989948,114.467422 
	C33.982391,116.756393 32.375122,114.413925 31.109947,110.712326 
	C30.901772,110.414955 30.987150,110.432800 31.518990,110.449806 
	C32.024483,109.545830 31.998137,108.624847 32.292500,107.587036 
	C33.086422,106.271133 33.559631,105.072052 34.032845,103.872978 
	C36.823502,106.162590 39.614159,108.452202 42.701637,110.899918 
z"/>
<path fill="#2B140D" opacity="1.000000" stroke="none" 
	d="
M44.061005,25.441578 
	C44.582863,26.530151 45.104725,27.618723 45.871704,28.887375 
	C44.627224,29.959936 43.137627,30.852419 41.288094,31.553967 
	C39.606258,30.262030 38.284370,29.161028 36.738953,28.161572 
	C36.236191,28.454678 36.029396,28.705893 35.576962,29.053967 
	C35.047104,29.118132 34.835320,29.145098 34.344727,29.164082 
	C33.638893,29.413698 33.211868,29.671297 32.588875,29.950047 
	C32.392906,29.971197 32.011505,30.070889 32.011505,30.070889 
	C31.824127,26.208693 31.990486,22.831535 37.524174,24.834919 
	C38.422379,25.160099 39.699852,24.437695 41.378693,24.411045 
	C42.657246,24.895580 43.359123,25.168579 44.061005,25.441578 
z"/>
<path fill="#110100" opacity="1.000000" stroke="none" 
	d="
M107.966583,39.093056 
	C108.294373,37.942574 108.622169,36.792088 109.219658,35.337185 
	C109.489349,35.032768 109.953033,34.984592 110.289062,35.003494 
	C111.296249,34.990047 111.967415,34.957703 112.798615,35.186649 
	C112.757965,35.800449 112.557266,36.152954 112.196747,36.750473 
	C112.110115,37.270756 112.183327,37.546024 112.256531,37.821293 
	C112.549889,37.594196 112.843239,37.367100 113.361015,37.111923 
	C114.301384,36.813194 115.017326,36.542538 115.756073,36.248276 
	C115.778862,36.224667 115.822502,36.175655 115.822502,36.175655 
	C119.642227,36.441689 120.231789,39.105461 119.753372,42.452393 
	C119.137909,43.132298 119.044456,43.534298 118.951004,43.936298 
	C118.951004,43.936298 118.997864,43.996952 118.705719,43.681385 
	C117.949104,43.582226 117.484627,43.798634 116.864990,43.886940 
	C116.499504,43.590538 116.274620,43.444679 116.347313,43.219563 
	C116.441551,42.697960 116.223656,42.278065 115.784195,41.638947 
	C113.517159,39.257935 111.831612,40.553028 110.047302,41.694885 
	C109.278580,40.636055 108.622574,39.864555 107.966583,39.093056 
z"/>
<path fill="#DEC49E" opacity="1.000000" stroke="none" 
	d="
M95.453041,27.378691 
	C97.179199,29.015575 98.511887,30.650314 99.602997,32.607811 
	C98.595055,32.720829 97.784584,32.608746 97.069344,32.285789 
	C91.703049,29.862741 86.355530,27.398094 81.002136,24.946463 
	C81.001541,24.560171 81.000938,24.173882 81.000023,23.497875 
	C82.418259,23.483143 83.836823,23.758127 85.623291,23.995995 
	C89.013992,25.098097 92.036781,26.237320 95.453041,27.378691 
z"/>
<path fill="#422E27" opacity="1.000000" stroke="none" 
	d="
M33.915558,103.577469 
	C33.559631,105.072052 33.086422,106.271133 31.967560,107.716476 
	C31.106953,108.374077 30.891998,108.785423 30.428459,109.194847 
	C29.850809,109.153160 29.522783,109.106140 29.159920,108.739792 
	C28.772951,107.998810 28.421860,107.569893 28.070770,107.140976 
	C28.008368,105.665924 27.945965,104.190865 28.237417,102.488937 
	C29.409868,101.803642 30.228466,101.345222 31.047062,100.886803 
	C31.054382,100.705276 31.061703,100.523758 31.088455,100.070435 
	C32.004681,100.959732 32.901478,102.120850 33.915558,103.577469 
z"/>
<path fill="#230C07" opacity="1.000000" stroke="none" 
	d="
M74.002563,120.029785 
	C80.411087,118.359680 86.819611,116.689583 93.666321,115.278214 
	C94.111206,115.743080 94.117920,115.949226 94.094765,116.357803 
	C94.064903,116.560226 94.119843,116.965752 94.119843,116.965744 
	C87.714294,118.321320 81.308746,119.676903 74.452774,120.783882 
	C74.002419,120.366791 74.002487,120.198288 74.002563,120.029785 
z"/>
<path fill="#735C52" opacity="1.000000" stroke="none" 
	d="
M25.073635,37.087036 
	C26.616095,35.913319 28.158554,34.739597 30.228844,33.290970 
	C31.193716,32.993488 31.630758,32.970921 32.488228,33.042500 
	C33.463928,33.069626 34.019203,33.002609 34.551582,32.898495 
	C34.528687,32.861397 34.513863,32.775478 34.418510,32.928661 
	C34.129002,33.236874 33.983608,33.428864 33.646713,33.683868 
	C33.406437,33.709919 33.001442,33.973770 32.665840,34.149426 
	C31.143377,36.148586 30.946680,39.292011 27.176271,37.919731 
	C26.309027,37.585835 25.691330,37.336437 25.073635,37.087036 
M28.494370,36.525288 
	C28.494370,36.525288 28.506502,36.490353 28.494370,36.525288 
z"/>
<path fill="#6C564A" opacity="1.000000" stroke="none" 
	d="
M102.119514,24.714508 
	C100.318527,25.084412 98.506027,25.120594 96.336563,25.136887 
	C95.984673,24.947138 95.989754,24.777277 96.301620,24.234688 
	C97.185722,22.588640 97.763031,21.315323 98.340340,20.042007 
	C100.953018,20.310066 103.225937,20.873167 102.119514,24.714508 
z"/>
<path fill="#644D42" opacity="1.000000" stroke="none" 
	d="
M94.124626,116.155373 
	C94.117920,115.949226 94.111206,115.743080 94.046349,115.233078 
	C94.020805,114.510262 94.053421,114.091293 94.124939,113.359444 
	C94.607559,112.735542 95.051277,112.424530 95.767784,112.097015 
	C96.646080,112.743774 97.251587,113.407036 98.258163,114.474922 
	C98.842102,115.582787 99.024979,116.286034 99.207855,116.989273 
	C98.678246,117.256073 98.148628,117.522865 97.311798,117.798447 
	C96.809578,117.817215 96.614586,117.827202 96.139450,117.534081 
	C95.281082,116.872437 94.702850,116.513908 94.124626,116.155373 
z"/>
<path fill="#260F07" opacity="1.000000" stroke="none" 
	d="
M112.638580,34.925358 
	C111.967415,34.957703 111.296249,34.990047 110.379776,34.701843 
	C110.401108,33.637928 110.667747,32.894558 110.934387,32.151192 
	C112.170982,32.607738 113.407578,33.064285 114.696335,33.998276 
	C114.475037,34.663246 114.201576,34.850773 113.601097,35.062973 
	C113.062248,35.033554 112.850410,34.979454 112.638580,34.925358 
z"/>
<path fill="#2A1006" opacity="1.000000" stroke="none" 
	d="
M73.579353,119.950424 
	C74.002487,120.198288 74.002419,120.366791 74.004211,120.788467 
	C72.060112,120.931366 70.114166,120.821083 68.083694,120.356110 
	C69.718163,119.957970 71.437149,119.914513 73.579353,119.950424 
z"/>
<path fill="#A9978F" opacity="1.000000" stroke="none" 
	d="
M117.020149,44.015038 
	C117.484627,43.798634 117.949104,43.582226 118.681305,43.649689 
	C118.918694,45.476402 118.888367,47.019249 118.536560,48.508781 
	C117.902977,48.103619 117.590874,47.751770 117.207985,46.830948 
	C117.098175,45.512993 117.059158,44.764015 117.020149,44.015038 
z"/>
<path fill="#472D20" opacity="1.000000" stroke="none" 
	d="
M23.963669,44.362316 
	C23.618338,44.905163 23.273006,45.448009 22.268486,45.989166 
	C21.107145,46.038544 20.604994,46.089611 20.102840,46.140678 
	C21.121538,45.099976 22.140234,44.059273 23.521097,43.344658 
	C23.910067,43.901272 23.936869,44.131794 23.963669,44.362316 
z"/>
<path fill="#89766C" opacity="1.000000" stroke="none" 
	d="
M108.241463,30.242416 
	C106.931862,30.023342 105.874321,29.629215 104.465836,28.762712 
	C104.221603,27.466360 104.328331,26.642382 104.435059,25.818405 
	C105.787880,27.234722 107.140709,28.651041 108.241463,30.242416 
z"/>
<path fill="#000000" opacity="1.000000" stroke="none" 
	d="
M113.976875,104.975380 
	C113.976875,104.975380 114.111664,104.744019 114.320557,104.257797 
	C114.367584,103.538887 114.205719,103.306206 114.043854,103.073524 
	C114.043854,103.073524 114.026039,103.030540 114.344147,103.220070 
	C114.807251,103.228531 114.952240,103.047470 115.351616,102.930206 
	C115.726273,103.120903 115.846558,103.247795 115.966843,103.374687 
	C115.603012,104.488838 115.239182,105.602989 114.575546,106.716606 
	C114.275742,106.716080 114.146606,106.343567 114.152756,105.916107 
	C114.098236,105.317551 114.037552,105.146469 113.976875,104.975380 
z"/>
<path fill="#260F09" opacity="1.000000" stroke="none" 
	d="
M30.219551,97.946014 
	C30.219551,97.946014 30.352388,98.427406 30.449345,98.657776 
	C29.371418,97.496651 28.196533,96.105156 27.036289,94.338280 
	C27.050926,93.962906 27.170441,93.851532 27.455433,93.953751 
	C28.069578,94.474663 28.398729,94.893364 28.727879,95.312065 
	C28.727879,95.312065 28.758444,95.182808 28.793867,95.499710 
	C29.292711,96.526421 29.756130,97.236214 30.219551,97.946014 
z"/>
<path fill="#796458" opacity="1.000000" stroke="none" 
	d="
M20.105949,46.489281 
	C20.604994,46.089611 21.107145,46.038544 21.993446,45.988331 
	C22.006603,47.119289 21.635611,48.249390 21.141228,49.724865 
	C20.714909,48.992783 20.411982,47.915329 20.105949,46.489281 
z"/>
<path fill="#594035" opacity="1.000000" stroke="none" 
	d="
M32.067799,32.948357 
	C31.630758,32.970921 31.193716,32.993488 30.430252,33.043320 
	C30.626650,32.242985 31.149469,31.415388 31.841896,30.329340 
	C32.011505,30.070889 32.392906,29.971197 32.694702,30.239697 
	C33.435051,30.924990 33.873604,31.341784 33.968040,31.786009 
	C33.105217,32.191746 32.586510,32.570053 32.067799,32.948357 
z"/>
<path fill="#DAD1CB" opacity="1.000000" stroke="none" 
	d="
M25.029625,37.338055 
	C25.691330,37.336437 26.309027,37.585835 27.413267,38.124439 
	C28.209614,38.921410 28.519415,39.429173 28.611225,39.985916 
	C28.393236,40.034893 28.061598,40.334381 28.061598,40.334381 
	C27.859043,40.342091 27.656490,40.349796 27.202370,39.882229 
	C26.402111,39.123619 25.853420,38.840279 25.304729,38.556942 
	C25.198359,38.234318 25.091988,37.911697 25.029625,37.338055 
z"/>
<path fill="#000000" opacity="1.000000" stroke="none" 
	d="
M115.936302,101.117592 
	C115.728455,99.974770 115.520607,98.831955 115.463310,97.356186 
	C116.015213,97.035812 116.416573,97.048378 116.856506,97.352745 
	C116.905647,97.840492 116.916206,98.036430 116.926765,98.232376 
	C116.895920,99.193901 116.865074,100.155434 116.682137,101.503548 
	C116.332130,101.632622 116.134216,101.375107 115.936302,101.117592 
z"/>
<path fill="#260F07" opacity="1.000000" stroke="none" 
	d="
M98.018265,20.191256 
	C97.763031,21.315323 97.185722,22.588640 96.315994,23.980186 
	C96.581108,22.845779 97.138641,21.593142 98.018265,20.191256 
z"/>
<path fill="#E0DAD7" opacity="1.000000" stroke="none" 
	d="
M104.260445,25.619785 
	C104.328331,26.642382 104.221603,27.466360 104.130463,28.705467 
	C103.752281,27.992588 103.358521,26.864576 103.039276,25.392168 
	C103.437798,25.172235 103.761810,25.296700 104.260445,25.619785 
z"/>
<path fill="#260F09" opacity="1.000000" stroke="none" 
	d="
M30.705093,100.917931 
	C30.228466,101.345222 29.409868,101.803642 28.295544,102.143448 
	C28.787586,101.666252 29.575356,101.307655 30.705093,100.917931 
z"/>
<path fill="#F0EAE7" opacity="1.000000" stroke="none" 
	d="
M110.732925,32.104309 
	C110.667747,32.894558 110.401108,33.637928 110.043747,34.682945 
	C109.953033,34.984592 109.489349,35.032768 109.262733,34.979301 
	C109.027359,34.500717 109.018600,34.075603 109.316605,33.282349 
	C109.788162,32.629768 109.952972,32.345325 110.117775,32.060879 
	C110.117775,32.060879 110.531456,32.057426 110.732925,32.104309 
z"/>
<path fill="#DFD8D4" opacity="1.000000" stroke="none" 
	d="
M115.628120,101.070877 
	C116.134216,101.375107 116.332130,101.632622 116.782150,101.852089 
	C116.940224,102.294724 116.846199,102.775414 116.359512,103.315392 
	C115.846558,103.247795 115.726273,103.120903 115.299576,102.676193 
	C114.681801,102.220963 114.370445,102.083542 114.059090,101.946129 
	C114.479370,101.638802 114.899651,101.331474 115.628120,101.070877 
z"/>
<path fill="#796458" opacity="1.000000" stroke="none" 
	d="
M37.805698,114.806786 
	C38.158607,114.528313 38.327263,114.589195 38.759468,114.594299 
	C39.309090,114.824821 39.595165,115.111130 39.972023,116.041336 
	C40.073776,117.088974 40.084747,117.492699 40.095718,117.896431 
	C39.920277,117.880768 39.744831,117.865097 39.320904,117.758514 
	C38.588764,116.827110 38.105106,115.986626 37.805698,114.806786 
z"/>
<path fill="#A18E84" opacity="1.000000" stroke="none" 
	d="
M117.176765,98.369156 
	C116.916206,98.036430 116.905647,97.840492 116.975510,97.071167 
	C117.075394,96.091873 117.094849,95.685966 117.114296,95.280060 
	C117.589211,96.167130 118.064125,97.054207 118.265823,98.189484 
	C117.804001,98.460426 117.615387,98.483177 117.176765,98.369156 
z"/>
<path fill="#E8E1DC" opacity="1.000000" stroke="none" 
	d="
M28.027725,107.410889 
	C28.421860,107.569893 28.772951,107.998810 29.054443,108.962288 
	C28.984844,109.496849 29.008797,109.988731 29.008797,109.988731 
	C28.667425,109.219421 28.326054,108.450119 28.027725,107.410889 
z"/>
<path fill="#715B4E" opacity="1.000000" stroke="none" 
	d="
M44.093903,25.116730 
	C43.359123,25.168579 42.657246,24.895580 41.718208,24.314512 
	C41.870304,23.591324 42.259560,23.176207 43.093235,22.881933 
	C43.734039,23.599146 43.930420,24.195513 44.093903,25.116730 
z"/>
<path fill="#0A0000" opacity="1.000000" stroke="none" 
	d="
M29.235149,110.075821 
	C29.008797,109.988731 28.984844,109.496849 29.090321,109.274353 
	C29.522783,109.106140 29.850809,109.153160 30.517200,109.501053 
	C30.898733,110.017052 30.942942,110.224922 30.987150,110.432800 
	C30.987150,110.432800 30.901772,110.414955 30.865637,110.436447 
	C30.373503,110.359596 29.917501,110.261253 29.235149,110.075821 
z"/>
<path fill="#C8BEB7" opacity="1.000000" stroke="none" 
	d="
M24.250479,44.217506 
	C23.936869,44.131794 23.910067,43.901272 23.861406,43.323326 
	C24.065649,42.726154 24.291748,42.476402 24.752029,42.130768 
	C24.836571,42.714157 24.686930,43.393425 24.250479,44.217506 
z"/>
<path fill="#FAF6F3" opacity="1.000000" stroke="none" 
	d="
M94.094765,116.357803 
	C94.702850,116.513908 95.281082,116.872437 95.847794,117.560776 
	C95.428596,117.629959 95.020920,117.369324 94.366547,117.037216 
	C94.119843,116.965752 94.064903,116.560226 94.094765,116.357803 
z"/>
<path fill="#110100" opacity="1.000000" stroke="none" 
	d="
M113.928116,35.038300 
	C114.201576,34.850773 114.475037,34.663246 114.873093,34.257164 
	C115.295837,34.544804 115.593994,35.051003 115.857330,35.866425 
	C115.822502,36.175655 115.778862,36.224667 115.467743,36.195084 
	C114.747124,35.789764 114.337616,35.414032 113.928116,35.038300 
z"/>
<path fill="#50382C" opacity="1.000000" stroke="none" 
	d="
M109.794861,31.926384 
	C109.952972,32.345325 109.788162,32.629768 109.371155,32.968246 
	C108.814934,32.767555 108.510902,32.512840 108.186966,31.956339 
	C108.602020,31.700331 109.036980,31.746109 109.794861,31.926384 
z"/>
<path fill="#57443E" opacity="1.000000" stroke="none" 
	d="
M25.280245,38.929123 
	C25.853420,38.840279 26.402111,39.123619 26.944420,39.721268 
	C26.938036,40.035576 26.493834,40.246498 26.263107,40.331169 
	C25.773506,40.044327 25.514633,39.672813 25.280245,38.929123 
z"/>
<path fill="#A9978F" opacity="1.000000" stroke="none" 
	d="
M119.286034,43.930435 
	C119.044456,43.534298 119.137909,43.132298 119.629990,42.727043 
	C119.892761,43.124046 119.756912,43.524307 119.286034,43.930435 
z"/>
<path fill="#220E08" opacity="1.000000" stroke="none" 
	d="
M40.506092,40.273476 
	C42.116356,39.287384 43.711262,38.275028 45.340851,37.321980 
	C47.290554,36.181713 49.269897,35.092133 51.980522,33.978317 
	C53.850456,32.998302 54.976276,32.020584 56.102100,31.042866 
	C57.201450,30.391394 58.300800,29.739922 60.056759,29.129238 
	C63.141026,29.058149 65.568687,28.946268 67.996346,28.834389 
	C70.103836,28.716795 72.261337,26.394199 75.011246,29.071751 
	C78.489647,29.445984 82.555870,28.688259 83.781219,30.213234 
	C86.700363,33.846180 90.635254,33.770676 94.223824,35.107964 
	C95.117905,35.441139 95.859734,36.375252 96.487541,37.177204 
	C97.132591,38.001190 97.435753,39.708687 98.088814,39.816513 
	C105.706017,41.074188 107.330833,48.569229 109.435616,53.350815 
	C113.550194,62.698227 114.410599,73.058197 111.268616,83.686028 
	C109.348785,90.179893 104.856613,94.579071 101.864357,100.106628 
	C100.606209,102.430779 97.976479,104.012444 95.970261,105.931633 
	C86.544876,110.074646 76.976646,113.484497 66.392044,111.793343 
	C63.176636,111.279610 59.953667,110.813210 56.047272,110.116333 
	C54.574345,109.327538 53.788311,108.747551 53.002277,108.167564 
	C50.897224,107.779480 48.792171,107.391396 46.320610,106.635139 
	C44.303391,104.564835 42.652676,102.862694 41.001961,101.160561 
	C39.575714,99.520538 38.149471,97.880516 36.370651,95.781769 
	C35.642784,94.429413 35.267498,93.535782 34.892212,92.642159 
	C33.668617,89.913246 32.428402,87.191597 31.231148,84.451172 
	C30.852221,83.583839 30.851643,82.350006 30.224804,81.827690 
	C27.768919,79.781303 27.467237,77.463959 28.959232,74.057953 
	C29.027323,72.253029 28.936825,71.128204 28.846327,70.003387 
	C29.116056,67.615517 29.286982,65.210381 29.699623,62.847466 
	C29.889362,61.760952 31.004808,60.723579 30.930246,59.721222 
	C30.330334,51.656395 36.994381,47.292145 40.291168,40.780216 
	C40.401806,40.386211 40.506092,40.273476 40.506092,40.273476 
M61.345108,37.860378 
	C53.712070,38.604473 47.659809,41.825714 43.744076,49.493107 
	C40.972130,53.173992 38.200184,56.854881 35.428234,60.535767 
	C36.149944,60.677418 36.871655,60.819069 37.593365,60.960720 
	C39.051929,63.703228 40.510490,66.445732 41.202824,69.088531 
	C39.797462,68.061989 38.392101,67.035446 37.386860,65.689629 
	C37.355644,65.306160 37.324429,64.922699 37.293213,64.539230 
	C36.854939,64.972855 36.416664,65.406471 35.250614,66.092682 
	C34.885071,66.559547 34.260624,66.991661 34.192604,67.498451 
	C33.075577,75.820755 35.801701,83.287415 39.985504,90.173851 
	C41.942135,93.394409 44.522388,97.318367 47.707214,98.470062 
	C53.200520,100.456551 57.308525,105.395882 63.696945,105.398727 
	C67.963501,105.400627 72.228569,106.265816 76.499008,106.698166 
	C76.739670,106.722527 77.003448,106.288712 77.289719,106.127014 
	C81.503616,103.746712 86.249603,102.752777 90.607552,100.331146 
	C95.371056,97.684166 97.526749,92.921432 101.928001,90.417496 
	C102.402534,90.147522 102.657433,89.390327 102.888260,88.809113 
	C104.767403,84.077553 106.584648,79.389008 107.778183,74.351288 
	C108.462181,71.464241 108.225197,69.890663 106.626358,67.080559 
	C106.495354,65.622963 105.734436,63.776909 106.349564,62.779446 
	C108.321877,59.581238 105.994675,58.817028 104.026199,57.339565 
	C104.026199,57.339565 103.994041,56.991306 104.017349,56.211937 
	C103.854156,51.756393 99.822678,50.299397 97.575516,47.437138 
	C93.389244,42.105003 87.771469,39.731022 81.346199,37.256504 
	C80.297638,37.005154 79.217712,36.841087 78.209068,36.478657 
	C77.135117,36.092758 76.128639,35.519112 74.233337,35.013313 
	C71.844437,35.286808 69.455544,35.560307 66.530472,35.937965 
	C66.348488,35.932381 66.166512,35.926796 65.541893,35.586880 
	C64.360550,36.392242 63.179203,37.197605 61.345108,37.860378 
z"/>
<path fill="#E4C69F" opacity="1.000000" stroke="none" 
	d="
M96.175461,106.197769 
	C97.976479,104.012444 100.606209,102.430779 101.864357,100.106628 
	C104.856613,94.579071 109.348785,90.179893 111.268616,83.686028 
	C114.410599,73.058197 113.550194,62.698227 109.435616,53.350815 
	C107.330833,48.569229 105.706017,41.074188 98.088814,39.816513 
	C97.435753,39.708687 97.132591,38.001190 96.487541,37.177204 
	C95.859734,36.375252 95.117905,35.441139 94.223824,35.107964 
	C90.635254,33.770676 86.700363,33.846180 83.781219,30.213234 
	C82.555870,28.688259 78.489647,29.445984 75.359253,28.992983 
	C74.498459,24.517937 76.132942,23.054848 80.621315,24.909840 
	C86.355530,27.398094 91.703049,29.862741 97.069344,32.285789 
	C97.784584,32.608746 98.595055,32.720829 99.738220,32.908504 
	C100.115013,32.886444 100.061638,32.912544 100.101517,33.215553 
	C100.777809,34.006321 101.414215,34.494087 102.050629,34.981853 
	C103.816864,36.263901 105.583099,37.545944 107.657959,38.960526 
	C108.622574,39.864555 109.278580,40.636055 110.082359,42.049362 
	C111.787872,43.559830 113.345604,44.428490 114.848801,45.560875 
	C114.781502,46.183422 114.768745,46.542240 114.755997,46.901062 
	C115.375465,48.843601 115.994942,50.786140 116.386177,53.419571 
	C116.620728,54.668839 117.083519,55.227215 117.546310,55.785587 
	C117.546310,55.785587 117.399544,55.919300 117.257629,56.262856 
	C117.791672,58.751442 118.467621,60.896473 119.143570,63.041504 
	C119.105293,64.082748 119.067009,65.123985 118.786621,66.835991 
	C118.730583,70.020500 118.916641,72.534248 119.102699,75.047997 
	C119.127998,76.096924 119.153297,77.145859 118.842941,78.617737 
	C118.393639,79.721100 118.279984,80.401520 118.166336,81.081940 
	C115.884399,86.756905 113.640129,92.447510 111.294540,98.096046 
	C110.694214,99.541725 109.773582,100.854393 108.992340,102.594574 
	C107.547562,103.890991 106.110550,104.820999 104.374237,105.886986 
	C101.510185,106.169945 98.945427,106.316925 96.175461,106.197769 
z"/>
<path fill="#260F09" opacity="1.000000" stroke="none" 
	d="
M28.829216,39.936939 
	C28.519415,39.429173 28.209614,38.921410 27.662817,38.208931 
	C30.946680,39.292011 31.143377,36.148586 32.669464,34.443840 
	C33.141590,35.022427 33.274479,35.482254 33.407368,35.942078 
	C33.567242,35.912945 33.727112,35.883812 33.886986,35.854679 
	C33.886986,35.122391 33.886986,34.390106 33.886986,33.657818 
	C33.983608,33.428864 34.129002,33.236874 34.662224,32.669777 
	C34.875366,31.229158 34.749451,30.200611 34.623531,29.172064 
	C34.835320,29.145098 35.047104,29.118132 35.812798,28.966177 
	C36.654476,28.648777 36.853065,28.388390 36.962479,28.060024 
	C38.284370,29.161028 39.606258,30.262030 40.957008,31.656616 
	C40.007538,33.046551 39.029202,34.142902 37.730957,35.670067 
	C36.927101,36.699734 36.443161,37.298588 35.959217,37.897442 
	C34.746738,38.994225 33.534260,40.091007 32.088070,41.379265 
	C31.697638,41.474697 31.540918,41.378658 30.967405,40.887501 
	C29.976812,40.307236 29.403015,40.122086 28.829216,39.936939 
z"/>
<path fill="#F3D8AE" opacity="1.000000" stroke="none" 
	d="
M25.924421,88.979401 
	C21.547777,80.146187 20.653423,70.827057 23.586124,61.026714 
	C24.704306,70.152565 25.458397,79.460823 25.924421,88.979401 
z"/>
<path fill="#E4C69F" opacity="1.000000" stroke="none" 
	d="
M67.994949,28.445793 
	C65.568687,28.946268 63.141026,29.058149 60.358437,28.998295 
	C61.456661,27.227165 62.909824,25.627768 64.362984,24.028372 
	C65.573174,25.371313 66.783371,26.714254 67.994949,28.445793 
z"/>
<path fill="#E4C69F" opacity="1.000000" stroke="none" 
	d="
M40.990318,101.516434 
	C42.652676,102.862694 44.303391,104.564835 46.010414,106.620697 
	C42.600418,107.039124 39.349735,106.888809 40.990318,101.516434 
z"/>
<path fill="#E4C69F" opacity="1.000000" stroke="none" 
	d="
M28.519142,70.008514 
	C28.936825,71.128204 29.027323,72.253029 28.989689,73.687225 
	C27.796505,73.194244 26.731457,72.391876 25.666409,71.589508 
	C26.508257,71.064217 27.350105,70.538925 28.519142,70.008514 
z"/>
<path fill="#E4C69F" opacity="1.000000" stroke="none" 
	d="
M34.521854,92.793694 
	C35.267498,93.535782 35.642784,94.429413 36.067604,95.637512 
	C34.848152,95.948853 33.579163,95.945717 32.310181,95.942581 
	C32.923954,94.943466 33.537724,93.944351 34.521854,92.793694 
z"/>
<path fill="#E4C69F" opacity="1.000000" stroke="none" 
	d="
M55.773514,30.899349 
	C54.976276,32.020584 53.850456,32.998302 52.363468,33.905186 
	C52.034836,31.561287 51.884335,29.083544 55.773514,30.899349 
z"/>
<path fill="#E4C69F" opacity="1.000000" stroke="none" 
	d="
M53.003731,108.526276 
	C53.788311,108.747551 54.574345,109.327538 55.677193,110.063499 
	C55.363605,110.712517 54.733212,111.205559 54.102814,111.698608 
	C53.736938,110.760735 53.371063,109.822868 53.003731,108.526276 
z"/>
<path fill="#E4C69F" opacity="1.000000" stroke="none" 
	d="
M36.095596,38.162636 
	C36.443161,37.298588 36.927101,36.699734 37.682693,35.988968 
	C37.380219,36.727310 36.806099,37.577572 36.095596,38.162636 
z"/>
<path fill="#F3D8AE" opacity="1.000000" stroke="none" 
	d="
M28.805382,94.941467 
	C28.398729,94.893364 28.069578,94.474663 27.516146,93.899094 
	C27.205858,93.357468 27.119852,92.972694 27.008369,92.292717 
	C27.616222,92.855293 28.249552,93.713074 28.805382,94.941467 
z"/>
<path fill="#E4C69F" opacity="1.000000" stroke="none" 
	d="
M41.044342,36.469925 
	C41.254654,36.817711 41.251801,37.162693 41.224163,37.505684 
	C41.223404,37.515110 40.831562,37.508968 40.831146,37.500179 
	C40.814857,37.156456 40.822903,36.811577 41.044342,36.469925 
z"/>
<path fill="#F3D8AE" opacity="1.000000" stroke="none" 
	d="
M30.419346,97.731491 
	C29.756130,97.236214 29.292711,96.526421 28.728497,95.511421 
	C29.291517,95.976471 29.955332,96.746719 30.419346,97.731491 
z"/>
<path fill="#E4C69F" opacity="1.000000" stroke="none" 
	d="
M40.347733,40.440727 
	C40.160530,40.271301 40.027397,40.047356 39.894264,39.823410 
	C40.015644,39.873260 40.137024,39.923115 40.382248,40.123222 
	C40.506092,40.273476 40.401806,40.386211 40.347733,40.440727 
z"/>
<path fill="#F4D7AD" opacity="1.000000" stroke="none" 
	d="
M119.450928,74.838135 
	C118.916641,72.534248 118.730583,70.020500 118.823639,67.226898 
	C119.334892,69.507454 119.567024,72.067863 119.450928,74.838135 
z"/>
<path fill="#F4D7AD" opacity="1.000000" stroke="none" 
	d="
M119.200455,62.645760 
	C118.467621,60.896473 117.791672,58.751442 117.199150,56.182640 
	C117.940842,57.922585 118.599091,60.086304 119.200455,62.645760 
z"/>
<path fill="#341A0B" opacity="1.000000" stroke="none" 
	d="
M115.132378,46.924435 
	C114.768745,46.542240 114.781502,46.183422 114.886353,45.134258 
	C115.035255,43.875797 115.092064,43.307682 115.396599,42.845142 
	C115.774612,43.074234 115.904892,43.197750 116.035179,43.321270 
	C116.274620,43.444679 116.499504,43.590538 116.864990,43.886940 
	C117.059158,44.764015 117.098175,45.512993 117.076660,46.632484 
	C116.513672,46.984604 116.011215,46.966206 115.132378,46.924435 
z"/>
<path fill="#341A0B" opacity="1.000000" stroke="none" 
	d="
M117.068100,95.010941 
	C117.094849,95.685966 117.075394,96.091873 116.936935,96.779358 
	C116.416573,97.048378 116.015213,97.035812 115.313080,97.036095 
	C115.682159,96.279900 116.352028,95.510857 117.068100,95.010941 
z"/>
<path fill="#F4D7AD" opacity="1.000000" stroke="none" 
	d="
M118.472389,80.959229 
	C118.279984,80.401520 118.393639,79.721100 118.810074,79.011963 
	C119.001389,79.601006 118.889915,80.218758 118.472389,80.959229 
z"/>
<path fill="#F4D7AD" opacity="1.000000" stroke="none" 
	d="
M117.497360,55.414459 
	C117.083519,55.227215 116.620728,54.668839 116.196243,53.711845 
	C116.639168,53.889931 117.043793,54.466633 117.497360,55.414459 
z"/>
<path fill="#341A0B" opacity="1.000000" stroke="none" 
	d="
M113.796921,105.059753 
	C114.037552,105.146469 114.098236,105.317551 114.060883,105.741684 
	C113.782684,105.825424 113.585457,105.669273 113.436249,105.476059 
	C113.405228,105.435875 113.552078,105.258347 113.796921,105.059753 
z"/>
<path fill="#7D685D" opacity="1.000000" stroke="none" 
	d="
M113.685989,102.999359 
	C114.205719,103.306206 114.367584,103.538887 114.295135,104.126350 
	C113.816589,103.962486 113.572365,103.443848 113.685989,102.999359 
z"/>
<path fill="#7D685D" opacity="1.000000" stroke="none" 
	d="
M113.972046,102.221245 
	C114.370445,102.083542 114.681801,102.220963 115.045197,102.612389 
	C114.952240,103.047470 114.807251,103.228531 114.366600,103.226151 
	C114.008965,102.860588 113.946983,102.678474 113.972046,102.221245 
z"/>
<path fill="#2B140D" opacity="1.000000" stroke="none" 
	d="
M28.611225,39.985916 
	C29.403015,40.122086 29.976812,40.307236 30.743198,40.727043 
	C30.142570,40.868862 29.349356,40.776020 28.308870,40.508778 
	C28.061598,40.334381 28.393236,40.034893 28.611225,39.985916 
z"/>
<path fill="#2B140D" opacity="1.000000" stroke="none" 
	d="
M29.410969,44.328938 
	C29.238131,44.193111 29.071484,44.010098 28.904837,43.827087 
	C29.019747,43.872589 29.134659,43.918091 29.376808,44.103241 
	C29.504045,44.242889 29.417162,44.281754 29.410969,44.328938 
z"/>
<path fill="#CBC1BB" opacity="1.000000" stroke="none" 
	d="
M40.475311,117.807152 
	C40.084747,117.492699 40.073776,117.088974 40.067230,116.381943 
	C40.490562,116.111923 40.909462,116.145195 41.328362,116.178467 
	C41.170547,116.691605 41.012726,117.204742 40.475311,117.807152 
z"/>
<path fill="#341A0B" opacity="1.000000" stroke="none" 
	d="
M49.989403,118.007881 
	C49.979427,118.015762 49.585838,117.751228 49.585838,117.751228 
	C49.585838,117.751228 49.906116,117.756096 49.960571,117.868118 
	C50.015026,117.980141 49.999374,118.000000 49.989403,118.007881 
z"/>
<path fill="#341A0B" opacity="1.000000" stroke="none" 
	d="
M99.521484,116.905151 
	C99.024979,116.286034 98.842102,115.582787 98.576508,114.523354 
	C100.619766,114.203239 101.672523,114.781746 99.521484,116.905151 
z"/>
<path fill="#160603" opacity="1.000000" stroke="none" 
	d="
M103.036308,111.734177 
	C103.623276,111.593941 104.030830,111.643417 104.438377,111.692886 
	C104.273994,112.047050 104.109619,112.401222 103.945244,112.755394 
	C103.582458,112.478226 103.219673,112.201057 103.036308,111.734177 
z"/>
<path fill="#DEC49E" opacity="1.000000" stroke="none" 
	d="
M101.966019,34.675594 
	C101.414215,34.494087 100.777809,34.006321 100.114456,33.189083 
	C100.685478,33.362850 101.283440,33.866093 101.966019,34.675594 
z"/>
<path fill="#644D42" opacity="1.000000" stroke="none" 
	d="
M31.518990,110.449806 
	C30.942942,110.224922 30.898733,110.017052 30.765785,109.502968 
	C30.891998,108.785423 31.106953,108.374077 31.646847,107.833298 
	C31.998137,108.624847 32.024483,109.545830 31.518990,110.449806 
z"/>
<path fill="#BCAEA5" opacity="1.000000" stroke="none" 
	d="
M34.344727,29.164082 
	C34.749451,30.200611 34.875366,31.229158 34.757572,32.516594 
	C34.513863,32.775478 34.528687,32.861397 34.582035,32.582870 
	C34.527641,32.122421 34.419899,31.940498 34.312160,31.758577 
	C33.873604,31.341784 33.435051,30.924990 32.890671,30.218546 
	C33.211868,29.671297 33.638893,29.413698 34.344727,29.164082 
z"/>
<path fill="#43291B" opacity="1.000000" stroke="none" 
	d="
M36.738953,28.161572 
	C36.853065,28.388390 36.654476,28.648777 36.130867,28.928976 
	C36.029396,28.705893 36.236191,28.454678 36.738953,28.161572 
z"/>
<path fill="#260F07" opacity="1.000000" stroke="none" 
	d="
M115.148865,42.739563 
	C115.092064,43.307682 115.035255,43.875797 114.940887,44.870533 
	C113.345604,44.428490 111.787872,43.559830 110.195084,42.336693 
	C111.831612,40.553028 113.517159,39.257935 115.621765,41.770458 
	C115.414299,42.250534 115.236946,42.456657 115.148865,42.739563 
z"/>
<path fill="#D9D1CE" opacity="1.000000" stroke="none" 
	d="
M113.601097,35.062973 
	C114.337616,35.414032 114.747124,35.789764 115.444946,36.218689 
	C115.017326,36.542538 114.301384,36.813194 113.174034,36.943420 
	C112.627274,36.703815 112.491920,36.604641 112.356575,36.505463 
	C112.557266,36.152954 112.757965,35.800449 112.798615,35.186649 
	C112.850410,34.979454 113.062248,35.033554 113.601097,35.062973 
z"/>
<path fill="#D3CBC8" opacity="1.000000" stroke="none" 
	d="
M115.396599,42.845142 
	C115.236946,42.456657 115.414299,42.250534 115.843338,41.989681 
	C116.223656,42.278065 116.441551,42.697960 116.347313,43.219563 
	C115.904892,43.197750 115.774612,43.074234 115.396599,42.845142 
z"/>
<path fill="#D9D1CE" opacity="1.000000" stroke="none" 
	d="
M112.949615,36.971497 
	C112.843239,37.367100 112.549889,37.594196 112.256531,37.821293 
	C112.183327,37.546024 112.110115,37.270756 112.196747,36.750473 
	C112.491920,36.604641 112.627274,36.703815 112.949615,36.971497 
z"/>
<path fill="#2B140D" opacity="1.000000" stroke="none" 
	d="
M33.646713,33.683868 
	C33.886986,34.390106 33.886986,35.122391 33.886986,35.854679 
	C33.727112,35.883812 33.567242,35.912945 33.407368,35.942078 
	C33.274479,35.482254 33.141590,35.022427 33.005070,34.268188 
	C33.001442,33.973770 33.406437,33.709919 33.646713,33.683868 
z"/>
<path fill="#2B140D" opacity="1.000000" stroke="none" 
	d="
M33.968040,31.786009 
	C34.419899,31.940498 34.527641,32.122421 34.604927,32.619968 
	C34.019203,33.002609 33.463928,33.069626 32.488228,33.042500 
	C32.586510,32.570053 33.105217,32.191746 33.968040,31.786009 
z"/>
<path fill="#341A0B" opacity="1.000000" stroke="none" 
	d="
M28.500435,36.507820 
	C28.506502,36.490353 28.494370,36.525288 28.500435,36.507820 
z"/>
<path fill="#A57376" opacity="1.000000" stroke="none" 
	d="
M106.659622,67.942818 
	C108.225197,69.890663 108.462181,71.464241 107.778183,74.351288 
	C106.584648,79.389008 104.767403,84.077553 102.888260,88.809113 
	C102.657433,89.390327 102.402534,90.147522 101.928001,90.417496 
	C97.526749,92.921432 95.371056,97.684166 90.607552,100.331146 
	C86.249603,102.752777 81.503616,103.746712 77.289719,106.127014 
	C77.003448,106.288712 76.739670,106.722527 76.499008,106.698166 
	C72.228569,106.265816 67.963501,105.400627 63.696945,105.398727 
	C57.308525,105.395882 53.200520,100.456551 47.707214,98.470062 
	C44.522388,97.318367 41.942135,93.394409 39.985504,90.173851 
	C35.801701,83.287415 33.075577,75.820755 34.192604,67.498451 
	C34.260624,66.991661 34.885071,66.559547 35.866684,66.008057 
	C36.650745,65.951927 36.818745,65.980415 36.986740,66.008904 
	C38.392101,67.035446 39.797462,68.061989 41.774166,69.418648 
	C43.224041,70.829819 44.102573,71.910866 44.686859,73.153336 
	C46.033562,79.046150 53.223747,83.132980 48.797554,90.212547 
	C55.438606,92.659187 56.414394,92.130768 58.842922,86.334763 
	C59.418472,84.961136 61.282909,84.159233 61.986832,82.800308 
	C63.039207,80.768684 64.051926,78.498016 64.154427,76.286072 
	C64.204849,75.198059 62.210365,73.975906 61.076939,72.881042 
	C59.041500,70.914864 54.775166,71.578644 54.517597,67.322723 
	C54.503468,67.089249 52.195480,66.994598 50.593620,66.897331 
	C49.210346,67.159554 48.188671,67.359779 47.166996,67.559998 
	C47.014778,66.537910 46.369602,65.174492 46.798637,64.554871 
	C48.366508,62.290539 46.911739,57.590195 52.579121,58.210400 
	C54.084934,58.375187 56.128056,53.630039 58.163055,50.871719 
	C61.739361,50.524540 65.052834,50.403038 66.322250,46.035156 
	C68.220825,44.146744 69.796394,42.422226 71.781029,40.249989 
	C69.623604,39.460560 68.029739,39.075535 66.676292,38.280987 
	C66.161392,37.978710 66.198830,36.735554 65.984535,35.921215 
	C66.166512,35.926796 66.348488,35.932381 67.221771,35.951550 
	C70.306282,35.652569 72.699486,35.340004 75.092697,35.027439 
	C76.128639,35.519112 77.135117,36.092758 78.209068,36.478657 
	C79.217712,36.841087 80.297638,37.005154 81.683876,37.599808 
	C82.027374,39.196442 82.033195,40.449772 81.679520,41.799683 
	C79.000191,44.472504 76.680367,47.048744 74.629654,49.326126 
	C72.778145,49.936882 70.801949,50.588772 67.880882,51.552345 
	C70.116928,53.297260 71.100594,54.064869 71.518433,54.390934 
	C70.522728,57.441879 70.450859,61.036461 68.636963,62.568432 
	C63.776745,66.673233 67.829445,69.573814 69.591789,72.359428 
	C70.184517,73.296303 73.504669,72.507629 76.059952,72.507629 
	C77.711792,74.794731 82.804993,76.741920 78.955040,80.932816 
	C80.458206,83.217773 81.766151,85.217422 83.086044,87.209145 
	C84.443253,89.257156 85.729927,90.087646 87.561699,87.499847 
	C89.541489,84.702942 91.833839,82.127289 93.818810,79.667122 
	C90.480942,72.171242 97.214821,69.412346 99.984474,65.062180 
	C101.893677,65.772720 103.417999,66.340027 105.168594,67.164627 
	C105.816444,67.595543 106.238029,67.769180 106.659622,67.942818 
z"/>
<path fill="#351A0D" opacity="1.000000" stroke="none" 
	d="
M104.942329,66.907333 
	C103.417999,66.340027 101.893677,65.772720 99.984474,65.062180 
	C97.214821,69.412346 90.480942,72.171242 93.818810,79.667122 
	C91.833839,82.127289 89.541489,84.702942 87.561699,87.499847 
	C85.729927,90.087646 84.443253,89.257156 83.086044,87.209145 
	C81.766151,85.217422 80.458206,83.217773 78.955040,80.932816 
	C82.804993,76.741920 77.711792,74.794731 76.059952,72.507629 
	C73.504669,72.507629 70.184517,73.296303 69.591789,72.359428 
	C67.829445,69.573814 63.776745,66.673233 68.636963,62.568432 
	C70.450859,61.036461 70.522728,57.441879 71.518433,54.390934 
	C71.100594,54.064869 70.116928,53.297260 67.880882,51.552345 
	C70.801949,50.588772 72.778145,49.936882 74.629654,49.326126 
	C76.680367,47.048744 79.000191,44.472504 82.051559,41.864227 
	C90.227135,44.102577 96.326836,48.184017 100.709236,54.757488 
	C101.389816,55.778339 102.878860,56.260201 103.994041,56.991306 
	C103.994041,56.991306 104.026199,57.339565 103.680634,57.689240 
	C103.870819,60.995052 104.406578,63.951195 104.942329,66.907333 
z"/>
<path fill="#361C10" opacity="1.000000" stroke="none" 
	d="
M44.981106,72.991920 
	C44.102573,71.910866 43.224041,70.829819 42.157280,69.468506 
	C40.510490,66.445732 39.051929,63.703228 37.593365,60.960720 
	C36.871655,60.819069 36.149944,60.677418 35.428234,60.535767 
	C38.200184,56.854881 40.972130,53.173992 44.247566,49.235668 
	C45.722015,49.497375 46.692970,50.016525 47.671341,50.539639 
	C48.326771,49.450855 49.055836,48.239754 50.046684,46.593777 
	C52.883396,48.230545 55.403934,49.684891 57.924477,51.139233 
	C56.128056,53.630039 54.084934,58.375187 52.579121,58.210400 
	C46.911739,57.590195 48.366508,62.290539 46.798637,64.554871 
	C46.369602,65.174492 47.014778,66.537910 47.166996,67.559998 
	C48.188671,67.359779 49.210346,67.159554 50.566799,67.251808 
	C49.082344,69.527802 49.547676,73.994194 44.981106,72.991920 
M44.031773,64.366150 
	C44.164062,64.771706 44.296352,65.177269 44.428642,65.582825 
	C44.626656,65.474792 44.824669,65.366753 45.022682,65.258720 
	C44.659199,64.729195 44.295719,64.199669 44.031773,64.366150 
z"/>
<path fill="#A77478" opacity="1.000000" stroke="none" 
	d="
M58.163055,50.871719 
	C55.403934,49.684891 52.883396,48.230545 50.046684,46.593777 
	C49.055836,48.239754 48.326771,49.450855 47.671341,50.539639 
	C46.692970,50.016525 45.722015,49.497375 44.405685,48.934395 
	C47.659809,41.825714 53.712070,38.604473 61.737045,38.311413 
	C61.408852,39.530777 60.508976,40.198612 60.010201,41.090706 
	C59.237728,42.472324 58.738972,44.006981 58.124161,45.476749 
	C59.508129,45.921997 60.868042,46.592434 62.283421,46.743637 
	C63.488876,46.872417 64.758186,46.403530 65.999245,46.199051 
	C65.052834,50.403038 61.739361,50.524540 58.163055,50.871719 
z"/>
<path fill="#B48187" opacity="1.000000" stroke="none" 
	d="
M104.005692,56.601624 
	C102.878860,56.260201 101.389816,55.778339 100.709236,54.757488 
	C96.326836,48.184017 90.227135,44.102577 82.411057,41.767643 
	C82.033195,40.449772 82.027374,39.196442 82.024483,37.566605 
	C87.771469,39.731022 93.389244,42.105003 97.575516,47.437138 
	C99.822678,50.299397 103.854156,51.756393 104.005692,56.601624 
z"/>
<path fill="#381E13" opacity="1.000000" stroke="none" 
	d="
M66.322250,46.035156 
	C64.758186,46.403530 63.488876,46.872417 62.283421,46.743637 
	C60.868042,46.592434 59.508129,45.921997 58.124161,45.476749 
	C58.738972,44.006981 59.237728,42.472324 60.010201,41.090706 
	C60.508976,40.198612 61.408852,39.530777 62.063419,38.382706 
	C63.179203,37.197605 64.360550,36.392242 65.763214,35.754047 
	C66.198830,36.735554 66.161392,37.978710 66.676292,38.280987 
	C68.029739,39.075535 69.623604,39.460560 71.781029,40.249989 
	C69.796394,42.422226 68.220825,44.146744 66.322250,46.035156 
z"/>
<path fill="#B9858A" opacity="1.000000" stroke="none" 
	d="
M105.168594,67.164627 
	C104.406578,63.951195 103.870819,60.995052 103.677933,57.864090 
	C105.994675,58.817028 108.321877,59.581238 106.349564,62.779446 
	C105.734436,63.776909 106.495354,65.622963 106.642990,67.511688 
	C106.238029,67.769180 105.816444,67.595543 105.168594,67.164627 
z"/>
<path fill="#020000" opacity="1.000000" stroke="none" 
	d="
M74.663017,35.020378 
	C72.699486,35.340004 70.306282,35.652569 67.489853,35.899467 
	C69.455544,35.560307 71.844437,35.286808 74.663017,35.020378 
z"/>
<path fill="#361C10" opacity="1.000000" stroke="none" 
	d="
M37.186798,65.849266 
	C36.818745,65.980415 36.650745,65.951927 36.230568,65.881760 
	C36.416664,65.406471 36.854939,64.972855 37.293213,64.539230 
	C37.324429,64.922699 37.355644,65.306160 37.186798,65.849266 
z"/>
<path fill="#361C0E" opacity="1.000000" stroke="none" 
	d="
M44.686859,73.153336 
	C49.547676,73.994194 49.082344,69.527802 50.928406,67.189804 
	C52.195480,66.994598 54.503468,67.089249 54.517597,67.322723 
	C54.775166,71.578644 59.041500,70.914864 61.076939,72.881042 
	C62.210365,73.975906 64.204849,75.198059 64.154427,76.286072 
	C64.051926,78.498016 63.039207,80.768684 61.986832,82.800308 
	C61.282909,84.159233 59.418472,84.961136 58.842922,86.334763 
	C56.414394,92.130768 55.438606,92.659187 48.797554,90.212547 
	C53.223747,83.132980 46.033562,79.046150 44.686859,73.153336 
z"/>
<path fill="#D8A1B1" opacity="1.000000" stroke="none" 
	d="
M43.982006,64.018150 
	C44.295719,64.199669 44.659199,64.729195 45.022682,65.258720 
	C44.824669,65.366753 44.626656,65.474792 44.428642,65.582825 
	C44.296352,65.177269 44.164062,64.771706 43.982006,64.018150 
z"/>
</svg>