<svg xmlns="http://www.w3.org/2000/svg" width="1500" height="440" viewBox="0 0 1500 440" version="1.1"><path d="M 892 277 L 892 310 925.500 310 L 959 310 959 277 L 959 244 925.500 244 L 892 244 892 277" stroke="none" fill="#fc4c04" fill-rule="evenodd"/><path d="M 473.690 99.643 C 473.310 100.023, 473 147.508, 473 205.167 L 473 310 490.505 310 L 508.009 310 507.755 204.750 L 507.500 99.500 490.940 99.227 C 481.832 99.076, 474.069 99.264, 473.690 99.643 M 212 157.692 C 193.536 159.655, 174.791 169.809, 164.123 183.627 C 153.781 197.024, 149.230 210.552, 148.285 230.709 C 146.594 266.768, 160.163 292.850, 187.972 306.993 C 192.527 309.309, 194.293 309.935, 204 312.675 C 211.004 314.651, 234.277 314.929, 242 313.129 C 260.495 308.817, 275.109 298.670, 286.058 282.538 C 288.226 279.344, 289.993 276.453, 289.985 276.115 C 289.942 274.391, 287.429 272.751, 275.500 266.662 C 260.746 259.131, 263.002 258.841, 255.592 269.227 C 246.766 281.597, 231.992 286.417, 214.500 282.631 C 200.085 279.512, 189.413 269.814, 185.469 256.246 C 184.599 253.252, 184.025 249.835, 184.193 248.651 L 184.500 246.500 239.500 246 L 294.500 245.500 294.826 235 C 295.358 217.879, 291.731 202.789, 284.021 190.041 C 279.490 182.548, 268.867 171.803, 261.398 167.156 C 248.871 159.362, 230.108 155.767, 212 157.692 M 791.500 159.509 C 780.036 161.568, 775.624 163.647, 768.268 170.459 C 764.530 173.919, 760.828 177.952, 760.043 179.420 C 759.083 181.214, 757.941 181.992, 756.557 181.794 C 754.671 181.524, 754.476 180.714, 754.210 172.034 C 754.025 166.009, 753.480 162.289, 752.710 161.799 C 751.105 160.779, 721.854 160.806, 720.243 161.828 C 719.250 162.459, 719.041 177.975, 719.243 236.063 L 719.500 309.500 737.250 309.773 L 755 310.046 755.020 269.773 C 755.031 247.623, 755.493 226.350, 756.047 222.500 C 758.061 208.510, 765.689 197.382, 776.852 192.148 C 781.896 189.783, 783.677 189.501, 793.500 189.512 C 800.246 189.520, 806.025 190.058, 808.444 190.904 C 813.930 192.823, 821.335 200.079, 824.142 206.286 L 826.500 211.500 826.794 260.773 L 827.088 310.046 844.794 309.773 L 862.500 309.500 862.812 263.500 C 863.129 216.815, 862.731 209.482, 859.290 198.500 C 854.145 182.080, 841.904 168.842, 826.131 162.639 C 820.492 160.422, 807.628 157.965, 802.500 158.126 C 800.300 158.195, 795.350 158.818, 791.500 159.509 M 52.243 161.828 C 51.250 162.459, 51.041 177.975, 51.243 236.063 L 51.500 309.500 69.205 309.773 L 86.910 310.046 87.205 261.773 C 87.490 215.212, 87.574 213.340, 89.593 209 C 92.450 202.858, 98.383 197.392, 104.989 194.816 C 109.421 193.088, 113.289 192.580, 124.750 192.222 L 139 191.778 139 176.389 L 139 161 126.182 161 C 106.949 161, 99.556 163.838, 93.186 173.667 C 90.649 177.582, 89.419 178.661, 87.936 178.273 C 86.231 177.827, 86 176.841, 86 169.990 C 86 163.822, 85.673 162.088, 84.418 161.607 C 82.070 160.706, 53.704 160.901, 52.243 161.828 M 302.677 161.703 C 301.453 162.020, 301.065 162.721, 301.498 163.837 C 302.267 165.821, 305.979 177.101, 320.964 223 C 327.160 241.975, 336.114 269.200, 340.864 283.500 L 349.500 309.500 377.379 309.500 L 405.258 309.500 411.482 290.500 C 431.150 230.453, 449.457 174.682, 451.302 169.189 C 453.133 163.739, 453.222 162.748, 451.961 161.918 C 450.341 160.854, 417.571 161.088, 416.492 162.172 C 416.123 162.542, 413.574 170.417, 410.826 179.672 C 405.058 199.102, 399.231 218.386, 398.035 222 C 397.580 223.375, 396.292 227.650, 395.173 231.500 C 394.054 235.350, 391.492 243.900, 389.480 250.500 C 387.468 257.100, 385.426 263.850, 384.941 265.500 C 380.214 281.578, 379.361 283.500, 376.952 283.500 C 374.737 283.500, 374.230 282.348, 369.691 267 C 367.007 257.925, 364.438 249.150, 363.984 247.500 C 363.529 245.850, 361.054 237.525, 358.484 229 C 355.914 220.475, 353.445 212.150, 352.997 210.500 C 352.550 208.850, 350.076 200.525, 347.500 192 C 344.924 183.475, 342.442 175.150, 341.984 173.500 C 339.626 165, 338.676 162.435, 337.639 161.765 C 336.414 160.975, 305.703 160.921, 302.677 161.703 M 543.250 161.662 C 542.274 162.056, 542 173.054, 542 211.923 C 542 258.171, 542.139 262.224, 543.972 269.391 C 549.284 290.161, 562.726 304.365, 583.047 310.683 C 586.919 311.886, 592.124 312.385, 601 312.404 C 614.689 312.433, 623.118 310.476, 631.157 305.401 C 635.842 302.444, 643.716 294.470, 644.552 291.838 C 644.883 290.794, 646.078 290, 647.317 289.999 L 649.500 289.998 649.215 313.249 C 648.966 333.504, 648.716 336.661, 647.274 337.750 C 646.011 338.703, 635.736 339.004, 604.059 339.015 C 581.201 339.024, 561.925 339.396, 561.222 339.841 C 560.257 340.454, 560.013 344.307, 560.222 355.576 L 560.500 370.500 610 370.500 C 655.824 370.500, 659.900 370.361, 664.886 368.624 C 670.764 366.578, 676.758 361.745, 680.074 356.381 C 684.866 348.626, 684.926 347.347, 684.964 252.285 C 684.999 165.086, 684.956 163.047, 683.066 162.035 C 681.014 160.937, 655.069 160.607, 651.250 161.630 L 649 162.233 649 205.068 C 649 256.743, 648.530 259.692, 638.514 270.792 C 630.519 279.653, 624.597 281.964, 609.833 281.985 C 595.018 282.006, 587.693 278.692, 581.914 269.356 C 577.221 261.774, 577.022 259.343, 577.011 209.357 C 577.001 167.298, 576.829 162.149, 575.418 161.607 C 573.538 160.885, 545.054 160.934, 543.250 161.662 M 210.887 189.451 C 198.913 192.753, 190.092 200.560, 186.711 210.849 C 185.871 213.407, 184.869 216.287, 184.485 217.250 C 183.827 218.898, 185.979 219, 221.438 219 L 259.091 219 258.403 215.250 C 256.579 205.297, 250.179 196.661, 241.295 192.167 C 233.280 188.111, 220.034 186.929, 210.887 189.451" stroke="none" fill="#0c0c0c" fill-rule="evenodd"/></svg>