<svg version="1.1" id="Layer_1" xmlns="http://www.w3.org/2000/svg" xmlns:xlink="http://www.w3.org/1999/xlink" x="0px" y="0px"
	 width="100%" viewBox="0 0 200 58" enable-background="new 0 0 200 58" xml:space="preserve">
<path fill="#000000" opacity="1.000000" stroke="none" 
	d="
M163.000000,59.000000 
	C154.312439,59.000000 145.624863,59.000000 136.189728,58.642113 
	C136.294983,56.544922 137.808151,54.833729 137.883606,53.061337 
	C138.172882,46.265205 138.014084,39.449398 137.997406,32.640995 
	C137.973846,23.021841 131.204697,14.114926 121.953064,10.889489 
	C114.565971,8.314096 107.115105,10.347265 99.712318,9.943894 
	C95.898697,9.736093 94.860580,11.264958 94.934853,14.875932 
	C95.129471,24.337324 94.775757,33.812813 95.088837,43.267845 
	C95.262985,48.527222 96.333481,53.756924 97.000000,59.000000 
	C91.977905,59.000000 86.955818,59.000000 81.146294,58.684040 
	C81.237625,56.849243 82.856583,55.341358 82.879242,53.809853 
	C83.078835,40.319557 83.047424,26.824463 82.895561,13.332913 
	C82.883148,12.230185 81.688545,10.482391 80.681984,10.159084 
	C75.288139,8.426586 73.005600,10.238161 73.001572,15.884514 
	C72.994011,26.484196 72.999390,37.083885 72.999390,48.000397 
	C70.765144,48.000397 69.112411,47.855423 67.492119,48.023418 
	C54.945351,49.324272 48.526779,41.035374 48.956631,29.624878 
	C49.198891,23.194069 49.000301,16.746656 49.000301,10.352072 
	C45.679699,10.352072 42.961143,10.352072 39.999374,10.352072 
	C39.999374,18.347603 40.493774,26.032484 39.881214,33.628094 
	C39.005520,44.486561 48.545200,54.631866 57.990211,57.065262 
	C58.774254,57.267262 59.335331,58.334675 60.000000,59.000000 
	C43.312439,59.000000 26.624876,59.000000 9.209004,58.622200 
	C8.987202,56.573635 9.872996,54.915802 9.930461,53.229736 
	C10.117104,47.753365 9.859678,42.262043 10.039448,36.785213 
	C10.225697,31.110950 11.063599,25.166834 16.511129,22.294773 
	C20.340038,20.276085 25.170261,20.237177 29.415462,18.882189 
	C30.829508,18.430853 32.791824,16.622887 32.772896,15.463359 
	C32.743095,13.637962 31.555374,10.516331 30.326384,10.230746 
	C19.047413,7.609819 9.158768,12.494363 3.605230,22.767746 
	C3.097576,23.706846 1.885153,24.264967 1.000000,25.000000 
	C1.000000,17.016621 1.000000,9.033240 1.000000,1.000000 
	C63.020885,1.000000 125.041786,1.000000 187.536255,1.403233 
	C188.657364,2.948828 189.283737,4.103888 189.959045,5.229583 
	C190.513031,6.153056 191.125244,7.041598 191.711655,7.945621 
	C192.359756,6.873271 193.007874,5.800921 193.668594,4.707714 
	C193.856445,5.602713 194.078339,6.659843 194.260269,7.526581 
	C196.563599,7.688375 198.781799,7.844187 201.000000,8.000000 
	C201.000000,24.894363 201.000000,41.788727 201.000000,59.000000 
	C194.649536,59.000000 188.293808,59.000000 181.159042,58.708584 
	C180.846008,57.976128 181.235641,57.351814 181.789291,57.121037 
	C193.573959,52.208939 199.683365,40.185219 197.806076,30.059019 
	C195.366470,16.899559 184.984879,8.297783 172.200760,8.032686 
	C160.922928,7.798823 149.471115,16.588894 147.064392,27.033125 
	C144.311722,38.978699 149.643036,50.525631 160.355347,56.127724 
	C161.440750,56.695339 162.127991,58.024338 163.000000,59.000000 
z"/>
<path fill="#FF5831" opacity="1.000000" stroke="none" 
	d="
M163.467941,59.000000 
	C162.127991,58.024338 161.440750,56.695339 160.355347,56.127724 
	C149.643036,50.525631 144.311722,38.978699 147.064392,27.033125 
	C149.471115,16.588894 160.922928,7.798823 172.200760,8.032686 
	C184.984879,8.297783 195.366470,16.899559 197.806076,30.059019 
	C199.683365,40.185219 193.573959,52.208939 181.789291,57.121037 
	C181.235641,57.351814 180.846008,57.976128 180.690002,58.708584 
	C175.311966,59.000000 169.623917,59.000000 163.467941,59.000000 
M162.212051,21.062897 
	C160.516586,23.051090 158.821121,25.039286 157.018631,27.862888 
	C156.082504,32.280052 155.234009,36.690578 157.536255,41.202034 
	C160.033646,43.363609 162.531036,45.525185 165.391891,48.398685 
	C166.429565,48.887718 167.425186,49.656101 168.511856,49.819710 
	C174.792206,50.765285 180.473495,49.481216 184.804169,44.531502 
	C189.376526,39.305542 188.978760,32.895279 187.281250,27.046919 
	C184.309143,16.807232 167.507446,14.174423 162.212051,21.062897 
z"/>
<path fill="#FF5730" opacity="1.000000" stroke="none" 
	d="
M97.428467,59.000000 
	C96.333481,53.756924 95.262985,48.527222 95.088837,43.267845 
	C94.775757,33.812813 95.129471,24.337324 94.934853,14.875932 
	C94.860580,11.264958 95.898697,9.736093 99.712318,9.943894 
	C107.115105,10.347265 114.565971,8.314096 121.953064,10.889489 
	C131.204697,14.114926 137.973846,23.021841 137.997406,32.640995 
	C138.014084,39.449398 138.172882,46.265205 137.883606,53.061337 
	C137.808151,54.833729 136.294983,56.544922 135.721069,58.642113 
	C134.285645,59.000000 132.571289,59.000000 130.750381,58.689568 
	C129.762390,55.658112 128.286819,52.972992 128.119766,50.208794 
	C127.739876,43.922932 128.063171,37.597473 127.985390,31.289530 
	C127.923157,26.241743 124.698235,21.238682 119.935493,20.164982 
	C115.244789,19.107517 110.317734,19.098495 104.999512,18.581331 
	C104.999512,24.924934 105.241936,30.377552 104.941551,35.800098 
	C104.512459,43.545784 106.710625,51.530167 103.000000,59.000000 
	C101.285645,59.000000 99.571281,59.000000 97.428467,59.000000 
z"/>
<path fill="#FF5730" opacity="1.000000" stroke="none" 
	d="
M60.468533,59.000000 
	C59.335331,58.334675 58.774254,57.267262 57.990211,57.065262 
	C48.545200,54.631866 39.005520,44.486561 39.881214,33.628094 
	C40.493774,26.032484 39.999374,18.347603 39.999374,10.352072 
	C42.961143,10.352072 45.679699,10.352072 49.000301,10.352072 
	C49.000301,16.746656 49.198891,23.194069 48.956631,29.624878 
	C48.526779,41.035374 54.945351,49.324272 67.492119,48.023418 
	C69.112411,47.855423 70.765144,48.000397 72.999390,48.000397 
	C72.999390,37.083885 72.994011,26.484196 73.001572,15.884514 
	C73.005600,10.238161 75.288139,8.426586 80.681984,10.159084 
	C81.688545,10.482391 82.883148,12.230185 82.895561,13.332913 
	C83.047424,26.824463 83.078835,40.319557 82.879242,53.809853 
	C82.856583,55.341358 81.237625,56.849243 80.679428,58.684040 
	C74.312355,59.000000 67.624710,59.000000 60.468533,59.000000 
z"/>
<path fill="#000000" opacity="1.000000" stroke="none" 
	d="
M103.468658,59.000000 
	C106.710625,51.530167 104.512459,43.545784 104.941551,35.800098 
	C105.241936,30.377552 104.999512,24.924934 104.999512,18.581331 
	C110.317734,19.098495 115.244789,19.107517 119.935493,20.164982 
	C124.698235,21.238682 127.923157,26.241743 127.985390,31.289530 
	C128.063171,37.597473 127.739876,43.922932 128.119766,50.208794 
	C128.286819,52.972992 129.762390,55.658112 130.321915,58.689568 
	C121.312439,59.000000 112.624870,59.000000 103.468658,59.000000 
z"/>
<path fill="#FF5830" opacity="1.000000" stroke="none" 
	d="
M1.000000,25.468658 
	C1.885153,24.264967 3.097576,23.706846 3.605230,22.767746 
	C9.158768,12.494363 19.047413,7.609819 30.326384,10.230746 
	C31.555374,10.516331 32.743095,13.637962 32.772896,15.463359 
	C32.791824,16.622887 30.829508,18.430853 29.415462,18.882189 
	C25.170261,20.237177 20.340038,20.276085 16.511129,22.294773 
	C11.063599,25.166834 10.225697,31.110950 10.039448,36.785213 
	C9.859678,42.262043 10.117104,47.753365 9.930461,53.229736 
	C9.872996,54.915802 8.987202,56.573635 8.740347,58.622200 
	C7.285642,59.000000 5.571283,59.000000 3.738083,58.725662 
	C2.746161,57.967548 1.873081,57.483772 1.000001,57.000000 
	C1.000000,46.645771 1.000000,36.291542 1.000000,25.468658 
z"/>
<path fill="#FF5830" opacity="1.000000" stroke="none" 
	d="
M201.000000,7.502095 
	C198.781799,7.844187 196.563599,7.688375 194.260269,7.526581 
	C194.078339,6.659843 193.856445,5.602713 193.668594,4.707714 
	C193.007874,5.800921 192.359756,6.873271 191.711655,7.945621 
	C191.125244,7.041598 190.513031,6.153056 189.959045,5.229583 
	C189.283737,4.103888 188.657364,2.948828 188.004913,1.403233 
	C192.223160,1.000000 196.446304,1.000000 201.000000,1.000000 
	C201.000000,2.990613 201.000000,4.997402 201.000000,7.502095 
z"/>
<path fill="#000000" opacity="1.000000" stroke="none" 
	d="
M1.000001,57.500000 
	C1.873081,57.483772 2.746161,57.967548 3.309621,58.725662 
	C2.333334,58.666664 1.666667,58.333332 1.000001,57.500000 
z"/>
<path fill="#000000" opacity="1.000000" stroke="none" 
	d="
M158.000366,40.827374 
	C155.234009,36.690578 156.082504,32.280052 157.435486,27.437054 
	C159.090866,26.302170 160.317352,25.571012 161.569992,24.887844 
	C167.495895,21.655972 173.038300,23.341122 176.081894,29.286812 
	C178.735992,34.471615 176.173843,40.307388 170.579712,43.162029 
	C165.565155,45.720940 162.000854,42.581589 158.000366,40.827374 
z"/>
<path fill="#FFC9BB" opacity="1.000000" stroke="none" 
	d="
M157.768311,41.014702 
	C162.000854,42.581589 165.565155,45.720940 170.579712,43.162029 
	C176.173843,40.307388 178.735992,34.471615 176.081894,29.286812 
	C173.038300,23.341122 167.495895,21.655972 161.569992,24.887844 
	C160.317352,25.571012 159.090866,26.302170 157.489014,27.019352 
	C158.821121,25.039286 160.516586,23.051090 162.933807,20.935715 
	C169.861252,19.091770 175.762344,19.566168 180.017365,24.809105 
	C183.766495,29.428694 184.007431,34.875233 181.310486,40.245758 
	C177.897629,47.041821 171.755020,48.046288 165.028427,47.686760 
	C162.531036,45.525185 160.033646,43.363609 157.768311,41.014702 
z"/>
<path fill="#FF8F76" opacity="1.000000" stroke="none" 
	d="
M165.210159,48.042725 
	C171.755020,48.046288 177.897629,47.041821 181.310486,40.245758 
	C184.007431,34.875233 183.766495,29.428694 180.017365,24.809105 
	C175.762344,19.566168 169.861252,19.091770 163.235641,20.783176 
	C167.507446,14.174423 184.309143,16.807232 187.281250,27.046919 
	C188.978760,32.895279 189.376526,39.305542 184.804169,44.531502 
	C180.473495,49.481216 174.792206,50.765285 168.511856,49.819710 
	C167.425186,49.656101 166.429565,48.887718 165.210159,48.042725 
z"/>
</svg>