<?xml version="1.0" encoding="UTF-8"?>
<svg version="1.1" xmlns="http://www.w3.org/2000/svg" width="1200" height="630">
<path d="M0 0 C0.73573242 0.17160645 1.47146484 0.34321289 2.22949219 0.52001953 C25.4175806 6.04310828 44.57912643 17.08662704 63 32 C64.04607422 32.83144531 64.04607422 32.83144531 65.11328125 33.6796875 C69.59858461 37.3594264 73.27152563 41.57102438 77 46 C78.12728516 47.26070312 78.12728516 47.26070312 79.27734375 48.546875 C101.70966995 74.20406958 113.41520246 107.07965608 113.31567383 141.00048828 C113.31252272 143.23390026 113.33604514 145.46596991 113.36132812 147.69921875 C113.51514371 182.70836782 99.72715606 214.77937781 77 241 C76.24332031 241.90234375 75.48664063 242.8046875 74.70703125 243.734375 C52.14559139 269.79228597 16.29150149 287.41356217 -18 290 C-64.8514621 291.85463592 -102.65893311 279.53987212 -137.48046875 247.734375 C-164.59704569 221.78460429 -179.52979851 183.83249611 -180.3515625 146.71044922 C-180.64040091 107.14560438 -166.78035248 69.27146072 -138.82421875 40.78515625 C-102.42769769 4.89204489 -50.54807835 -12.24864783 0 0 Z M-114.50390625 100.890625 C-126.19658565 115.91581435 -132.11231284 132.93582075 -130 152 C-127.20346016 169.39654932 -117.98175342 185.62715227 -103.77734375 196.21875 C-87.14520502 206.88577568 -69.47242616 210.44956109 -49.97265625 206.75 C-40.4962913 204.35911686 -32.66439846 199.96861692 -25 194 C-24.04480469 193.27490234 -24.04480469 193.27490234 -23.0703125 192.53515625 C-10.96753468 182.82603893 -4.4095219 168.6095146 -1.3125 153.6875 C0.22620777 135.53074826 -2.86014107 118.03964619 -14.44921875 103.546875 C-15.87093672 101.76459516 -15.87093672 101.76459516 -18 102 C-18.05542969 101.43539062 -18.11085938 100.87078125 -18.16796875 100.2890625 C-19.38323087 96.94566531 -21.54840965 95.564306 -24.3125 93.375 C-25.27800781 92.59898437 -26.24351562 91.82296875 -27.23828125 91.0234375 C-29.49297214 89.37148576 -31.480267 88.15231692 -34 87 C-34.69996094 86.60941406 -35.39992188 86.21882813 -36.12109375 85.81640625 C-62.17459776 71.71324472 -95.25281041 78.66627099 -114.50390625 100.890625 Z " fill="#FF562F" transform="translate(1060,172)"/>
<path d="M0 0 C2.20838731 0.00850782 4.41418243 -0.02027097 6.62231445 -0.05200195 C8.03832931 -0.05361442 9.4543487 -0.05303556 10.87036133 -0.05004883 C12.1477417 -0.05190186 13.42512207 -0.05375488 14.74121094 -0.05566406 C18.95446296 0.54157902 21.03226454 1.72582585 24.28051758 4.44604492 C26.91159486 8.10432428 27.65578655 10.61425556 27.65905762 15.0960083 C27.66726028 16.22263885 27.67546295 17.34926941 27.68391418 18.51004028 C27.67776596 19.73705658 27.67161774 20.96407288 27.6652832 22.22827148 C27.67353156 24.22390926 27.68178061 26.21954703 27.69005585 28.21518469 C27.69605039 30.35740421 27.69467315 32.49950721 27.69120789 34.64173126 C27.68437522 39.12475963 27.70031068 43.60753359 27.71960449 48.09051514 C27.75744906 57.62567796 27.77022969 67.16081858 27.78051758 76.69604492 C27.79161746 86.95123284 27.80731483 97.20630224 27.85123014 107.46141028 C27.86644659 111.17926904 27.87555493 114.8969247 27.86982727 118.61481476 C27.82521538 149.36588534 31.05533031 177.12331754 53.28051758 200.44604492 C68.79608534 215.62523181 89.17227749 226.36471094 111.20385742 226.65136719 C111.86797638 226.66126678 112.53209534 226.67116638 113.21633911 226.68136597 C115.39134265 226.7127208 117.56636797 226.73763434 119.74145508 226.76245117 C121.25746193 226.78304323 122.77346334 226.80404027 124.28945923 226.82542419 C128.26450159 226.88041243 132.23959375 226.92992344 136.21472168 226.97827148 C140.2770629 227.02865711 144.33933249 227.0842538 148.40161133 227.1394043 C156.36118604 227.24670117 164.32082099 227.3482084 172.28051758 227.44604492 C172.2777522 226.33321577 172.27498682 225.22038662 172.27213764 224.07383537 C172.20556738 197.00826091 172.15625378 169.94269705 172.12508106 142.87705803 C172.10960586 129.78837043 172.08850379 116.69973689 172.05419922 103.61108398 C172.02431694 92.20429801 172.00494733 80.79755119 171.99825209 69.39072716 C171.99433787 63.349749 171.98512518 57.30888283 171.96332741 51.26794052 C171.94298088 45.58318667 171.93668012 39.89859105 171.94119453 34.21380424 C171.94036852 32.12644148 171.93439205 30.03907347 171.92290115 27.95174217 C171.90798591 25.102877 171.91156059 22.25461008 171.91975403 19.4057312 C171.9110155 18.57887247 171.90227698 17.75201374 171.89327365 16.90009868 C171.9312871 12.01350034 172.58191905 8.68159655 175.28051758 4.44604492 C179.69454233 0.65491621 182.9065225 -0.06479789 188.65551758 -0.08520508 C189.34307129 -0.08903198 190.030625 -0.09285889 190.73901367 -0.09680176 C192.18450394 -0.09950898 193.63004419 -0.09223136 195.07543945 -0.07543945 C197.2751289 -0.05400758 199.47155346 -0.07527632 201.67114258 -0.10083008 C203.08260805 -0.09818658 204.4940715 -0.09306115 205.90551758 -0.08520508 C207.1765332 -0.08069336 208.44754883 -0.07618164 209.75708008 -0.0715332 C213.97948693 0.54872058 216.05159216 1.67277732 219.28051758 4.44604492 C222.82650231 9.81918825 222.70638426 14.66493294 222.66819763 20.87718201 C222.67627594 22.45167282 222.67627594 22.45167282 222.68451744 24.05797154 C222.69882338 27.57473705 222.6916866 31.09112756 222.68457031 34.60791016 C222.69027247 37.12942813 222.69723613 39.65094352 222.70536804 42.17245483 C222.72146552 48.31020698 222.72339668 54.44782068 222.71815514 60.58558755 C222.71411173 65.57490709 222.71555901 70.56419639 222.7209034 75.55351448 C222.72165182 76.26394832 222.72240024 76.97438216 222.72317134 77.7063443 C222.72470284 79.14964398 222.72624118 80.59294366 222.72778631 82.03624333 C222.7415103 95.56738686 222.73607435 109.09847256 222.7246011 122.62961478 C222.71466844 135.00472679 222.72761007 147.3796893 222.75153529 159.75477826 C222.77592594 172.46652707 222.78553428 185.17820625 222.77888256 197.88997799 C222.7753903 205.02468753 222.77762281 212.15928209 222.79513359 219.29397392 C222.81139414 226.00238398 222.80667455 232.71046274 222.78782845 239.41888046 C222.78413575 241.88154482 222.78727072 244.34423025 222.79771423 246.80687523 C222.81087851 250.16755624 222.7994159 253.52728439 222.78172302 256.88792419 C222.79613053 258.35116085 222.79613053 258.35116085 222.8108291 259.84395784 C222.74510211 265.90795244 221.80798532 269.47281925 218.28051758 274.44604492 C213.82303775 278.52692846 208.43077898 277.86888919 202.71728516 277.83422852 C201.65306839 277.83948547 200.58885162 277.84474243 199.49238586 277.85015869 C195.96979116 277.86337127 192.44764827 277.85460765 188.92504883 277.84448242 C186.46424778 277.84650473 184.00344732 277.84941747 181.54264832 277.85317993 C176.37521684 277.85760662 171.20794076 277.85116815 166.04052734 277.8371582 C159.46315062 277.82018302 152.88614433 277.82983099 146.30878162 277.8478756 C141.21849364 277.85880416 136.1282909 277.85522384 131.03800011 277.84749222 C128.61625816 277.84550907 126.19450815 277.84788214 123.77277565 277.85493088 C106.32044149 277.89453421 89.48296769 277.1741302 72.84301758 271.38354492 C71.97668701 271.08681885 71.11035645 270.79009277 70.21777344 270.484375 C50.94441031 263.59765408 34.02879535 252.55309322 19.28051758 238.44604492 C18.69270508 237.90979492 18.10489258 237.37354492 17.49926758 236.82104492 C-7.78838417 212.96476968 -21.70729026 177.67828671 -22.82102394 143.31287575 C-22.86944845 139.85221037 -22.88879471 136.39263686 -22.89648438 132.93164062 C-22.90305557 131.62615265 -22.90962677 130.32066467 -22.91639709 128.97561646 C-22.93719897 124.69103169 -22.94776637 120.40644745 -22.95776367 116.12182617 C-22.96181807 114.63766144 -22.96593518 113.15349689 -22.97011375 111.6693325 C-22.98910086 104.70256055 -23.00335373 97.73579885 -23.01172572 90.76900607 C-23.02151994 82.7547107 -23.04792319 74.74068987 -23.08822662 66.72649127 C-23.11841857 60.50793459 -23.13319688 54.28945666 -23.13650674 48.07082814 C-23.13885055 44.36613284 -23.14772596 40.66173313 -23.17296791 36.95711708 C-23.20065344 32.82865716 -23.19640817 28.70081257 -23.18945312 24.57226562 C-23.20866821 22.74780663 -23.20866821 22.74780663 -23.22827148 20.88648987 C-23.18557661 13.93233366 -22.49550409 9.34549963 -18.71948242 3.44604492 C-13.44150647 -1.09084729 -6.57844618 -0.03872683 0 0 Z " fill="#FF562F" transform="translate(277.719482421875,176.553955078125)"/>
<path d="M0 0 C1.06421677 -0.00525696 2.12843353 -0.01051392 3.22489929 -0.01593018 C6.747494 -0.02914276 10.26963689 -0.02037914 13.79223633 -0.01025391 C16.25303738 -0.01227621 18.71383784 -0.01518896 21.17463684 -0.01895142 C26.34206832 -0.0233781 31.5093444 -0.01693963 36.67675781 -0.00292969 C43.25413454 0.01404549 49.83114082 0.00439753 56.40850353 -0.01364708 C61.49879152 -0.02457564 66.58899426 -0.02099532 71.67928505 -0.0132637 C74.10102699 -0.01128056 76.52277701 -0.01365363 78.94450951 -0.02070236 C120.77552808 -0.1156265 155.93060802 12.2106005 186.43676758 41.38818359 C188.9470003 43.93108746 191.21431364 46.59072104 193.43676758 49.38818359 C194.04174072 50.14929443 194.04174072 50.14929443 194.65893555 50.92578125 C217.23859593 79.65978093 225.56314936 111.71836815 225.59790039 147.8918457 C225.6028653 149.16036377 225.6078302 150.42888184 225.61294556 151.73583984 C225.62587681 155.16718914 225.63247339 158.5985191 225.63695621 162.02988887 C225.63991226 164.17984119 225.64402096 166.32978849 225.64846039 168.47973824 C225.66207047 175.22598551 225.67177447 181.97222097 225.67566228 188.718481 C225.68015865 196.47348624 225.69780641 204.22831661 225.72666287 211.98326868 C225.74829436 218.0073933 225.75836697 224.03146866 225.7597034 230.0556317 C225.76074829 233.64226384 225.76659135 237.2287301 225.78452301 240.81532097 C225.80410229 244.80708357 225.79970899 248.79847786 225.79321289 252.7902832 C225.80242767 253.96806839 225.81164246 255.14585358 225.82113647 256.35932922 C225.78123665 264.18034495 225.24647852 269.39693295 219.71240234 275.28857422 C215.81402823 277.78734573 213.6255461 278.00745906 209.02661133 277.98193359 C207.99172325 277.98199402 207.99172325 277.98199402 206.93592834 277.98205566 C205.48616358 277.97672357 204.03639728 277.95923972 202.58691406 277.93017578 C200.37645612 277.88822513 198.16904209 277.88912037 195.95825195 277.89599609 C183.42074322 277.80301985 183.42074322 277.80301985 177.68676758 272.88818359 C175.16404524 269.86091678 175.30690485 266.76624217 175.29200745 263.00996399 C175.2816597 261.33459564 175.2816597 261.33459564 175.27110291 259.62538147 C175.26718285 257.78574074 175.26718285 257.78574074 175.26318359 255.90893555 C175.2529175 253.92623359 175.24264934 251.94353164 175.23230445 249.96083009 C175.22207004 247.82675266 175.21421933 245.69267759 175.20697212 243.55858803 C175.19148596 239.09705888 175.16753003 234.63559999 175.14207458 230.17411804 C175.07098364 217.48567163 175.01140547 204.79718324 174.95996094 192.10864258 C174.93148074 185.10272749 174.89599581 178.09688065 174.85330719 171.09103745 C174.83110554 167.39056222 174.81251386 163.69014924 174.80285835 159.9896183 C174.71772518 128.61922867 173.1437047 97.89154137 150.20239258 74.06787109 C132.02794956 56.54675772 108.12469242 50.97895987 83.65942383 50.87646484 C82.11143117 50.85956429 80.56345178 50.84140713 79.01548767 50.82206726 C74.99618688 50.77514322 70.97693983 50.74496541 66.9574585 50.71862793 C62.83391698 50.68852684 58.71056005 50.64210052 54.5871582 50.59716797 C46.53711997 50.51179282 38.48706375 50.44416017 30.43676758 50.38818359 C30.44045475 51.50009095 30.44414192 52.61199831 30.44794083 53.75759983 C30.53672033 80.80682065 30.60246172 107.85602259 30.64401627 134.90535831 C30.66464562 147.98619323 30.69277352 161.06693192 30.73852539 174.14770508 C30.77838151 185.54827499 30.80419767 196.94877522 30.81312156 208.34941286 C30.81833833 214.38654896 30.83060775 220.4234857 30.85968781 226.46055794 C30.88683732 232.14288509 30.89521339 237.82493074 30.8891983 243.50731659 C30.89029873 245.59265357 30.8982552 247.67799997 30.91358948 249.76328087 C30.93350985 252.61194684 30.92869904 255.45955195 30.91778564 258.3082428 C30.92943701 259.13218869 30.94108838 259.95613458 30.95309281 260.80504853 C30.89465037 266.45420647 29.66400995 269.72777551 26.43676758 274.38818359 C21.06144765 278.86237554 14.33951592 277.8732131 7.71728516 277.83422852 C5.50889785 277.82572069 3.30310272 277.85449949 1.0949707 277.88623047 C-0.32104415 277.88784293 -1.73706355 277.88726408 -3.15307617 277.88427734 C-5.06914673 277.88705688 -5.06914673 277.88705688 -7.02392578 277.88989258 C-12.00691299 277.18353687 -15.01445014 275.26341956 -18.20927525 271.39518642 C-20.21105668 266.94943102 -19.98021999 262.81790548 -19.95091248 257.99464417 C-19.95629801 256.93696537 -19.96168355 255.87928658 -19.96723229 254.78955692 C-19.98155826 251.23971377 -19.97439652 247.69024108 -19.96728516 244.14038086 C-19.97298627 241.59768371 -19.97994952 239.05498912 -19.98808289 236.51229858 C-20.00419011 230.31926566 -20.00610917 224.12636992 -20.00086998 217.93332238 C-19.99682864 212.89963403 -19.9982714 207.86597566 -20.00361824 202.83228874 C-20.00436666 202.11587997 -20.00511508 201.39947119 -20.00588619 200.66135306 C-20.00741766 199.20597211 -20.00895601 197.75059117 -20.01050115 196.29521023 C-20.02422926 182.64678592 -20.01878632 168.99841892 -20.00731594 155.3499959 C-19.99738311 142.86421431 -20.01032449 130.37858089 -20.03425013 117.89282215 C-20.05863364 105.07149876 -20.06825086 92.2502444 -20.06159741 79.42889827 C-20.05810353 72.2310489 -20.06034832 65.0333135 -20.07784843 57.83548164 C-20.09409818 51.06799297 -20.0894005 44.30083285 -20.07054329 37.53333664 C-20.06684782 35.04767728 -20.06999359 32.56199708 -20.08042908 30.07635689 C-20.09357445 26.68681054 -20.08214763 23.2982118 -20.06443787 19.90870667 C-20.07404287 18.9218387 -20.08364788 17.93497074 -20.09354395 16.91819769 C-20.03070681 11.08501574 -19.38570972 7.8640739 -15.56323242 3.38818359 C-11.01111486 -0.643201 -5.76170295 -0.03495314 0 0 Z " fill="#FF562F" transform="translate(599.563232421875,176.61181640625)"/>
<path d="M0 0 C3.25159402 0.00864523 6.50150203 -0.02059778 9.75292969 -0.05200195 C11.83886667 -0.05361119 13.92480673 -0.05304176 16.01074219 -0.05004883 C16.9732489 -0.06128281 17.93575562 -0.07251678 18.9274292 -0.08409119 C24.58363836 -0.02529464 28.08444598 0.50330011 32.46386719 4.44604492 C36.84525254 9.90609474 36.02199879 16.45669317 36.01977539 23.1105957 C36.02633075 25.30882731 36.08082698 27.50251932 36.13769531 29.69995117 C36.28146143 41.44525775 36.28146143 41.44525775 32.74121094 45.82885742 C27.702164 50.73718019 22.01189061 50.7273512 15.38574219 50.71948242 C13.56542393 50.73980671 11.7451115 50.76065804 9.92480469 50.78198242 C7.08849183 50.80434622 4.25241189 50.8209642 1.41601562 50.8269043 C-13.91396647 50.88090212 -29.23247651 51.67216257 -42.97363281 59.25854492 C-43.62992676 59.60473877 -44.2862207 59.95093262 -44.96240234 60.30761719 C-65.80059943 71.52680403 -81.98558995 89.21357331 -89.97363281 111.63354492 C-93.08864715 122.49167081 -93.82908248 133.24803634 -93.79150391 144.49462891 C-93.79426251 145.84640208 -93.79794763 147.19817361 -93.80247498 148.54994202 C-93.81050725 151.43137754 -93.81277599 154.31273587 -93.8105278 157.19418144 C-93.80766704 161.7546039 -93.82214485 166.31487496 -93.83950806 170.8752594 C-93.88628565 183.83267009 -93.91049385 196.79006702 -93.91699219 209.74755859 C-93.92074408 216.92634918 -93.93877095 224.10496489 -93.97208655 231.2836805 C-93.99225718 235.81401137 -93.99469424 240.34389009 -93.98380637 244.87424743 C-93.98119636 247.69021323 -93.9952147 250.50591605 -94.01388741 253.32181358 C-94.02172811 255.24329217 -94.00978607 257.16481978 -93.99720764 259.08627319 C-94.05837413 265.47131165 -94.12123926 269.6489997 -98.53613281 274.44604492 C-104.00985121 278.85308402 -110.58698775 277.93134756 -117.25561523 277.89208984 C-119.46400254 277.88358202 -121.66979767 277.91236081 -123.87792969 277.9440918 C-125.29394454 277.94570426 -126.70996394 277.94512541 -128.12597656 277.94213867 C-130.04204712 277.94491821 -130.04204712 277.94491821 -131.99682617 277.94775391 C-136.23847191 277.34648592 -138.29774243 276.23229692 -141.53613281 273.44604492 C-145.68243798 267.60215857 -144.95026255 261.1065727 -144.90844727 254.24316406 C-144.91087766 252.89717325 -144.91459938 251.55118424 -144.91950989 250.2052002 C-144.92889688 246.5578736 -144.91950764 242.91081647 -144.90617776 239.26351094 C-144.89481951 235.43083637 -144.89897468 231.59817425 -144.90092468 227.76548767 C-144.90180724 221.32033931 -144.89074333 214.87529617 -144.87231445 208.43017578 C-144.85122825 201.01401125 -144.84761997 193.59800171 -144.85387641 186.1818133 C-144.85960785 179.01747883 -144.85387504 171.85319811 -144.84270287 164.68887138 C-144.83809831 161.65618314 -144.83716494 158.62352823 -144.83928871 155.59083748 C-144.84119757 152.00139564 -144.83287242 148.41210733 -144.81722832 144.8227005 C-144.81108131 142.90408289 -144.81445392 140.98544184 -144.81829834 139.06681824 C-144.7490062 127.51113475 -143.46894452 116.06341027 -140.72363281 104.82104492 C-140.55186523 104.11214111 -140.38009766 103.4032373 -140.203125 102.67285156 C-131.22422388 67.01023045 -107.05317151 37.62168943 -76.12207031 18.53979492 C-67.44850132 13.37256233 -58.24149928 9.51770945 -48.72363281 6.19604492 C-48.07426758 5.96183838 -47.42490234 5.72763184 -46.75585938 5.48632812 C-31.56557981 0.44519417 -15.85210587 -0.06440981 0 0 Z " fill="#FF562F" transform="translate(172.5361328125,176.553955078125)"/>
<path d="M0 0 C17.78642312 15.25432816 29.0891189 38.83351555 31 62 C32.57614034 92.89725694 24.25300644 117.71714229 4.0703125 141.25 C-11.41012781 157.72703518 -35.80639061 169.52526876 -58.4453125 170.30078125 C-60.33844538 170.32027084 -62.2318001 170.32372894 -64.125 170.3125 C-65.13127441 170.30686035 -66.13754883 170.3012207 -67.17431641 170.29541016 C-93.90678428 169.86458532 -117.30810751 159.90767191 -136 141 C-137.20076172 139.81470703 -137.20076172 139.81470703 -138.42578125 138.60546875 C-144.91519305 131.84706578 -149.5428241 124.18020197 -154 116 C-154.50660156 115.07316406 -155.01320313 114.14632812 -155.53515625 113.19140625 C-158.25353205 107.72971541 -159.88244105 102.15430908 -161.3125 96.25 C-161.48434814 95.54053223 -161.65619629 94.83106445 -161.83325195 94.10009766 C-162.83475336 89.63491802 -163.16165471 85.57422951 -163 81 C-162.67 81 -162.34 81 -162 81 C-161.76925781 81.96679688 -161.53851562 82.93359375 -161.30078125 83.9296875 C-156.72122793 102.50152285 -147.72303008 117.8846062 -131 128 C-115.05607039 136.36875944 -97.5187163 138.41996522 -80 134 C-71.71654592 131.29864428 -64.87084731 127.30424478 -58 122 C-56.948125 121.21625 -55.89625 120.4325 -54.8125 119.625 C-51.0670181 116.12921689 -47.8365827 112.27165856 -45 108 C-45 107.34 -45 106.68 -45 106 C-44.33677734 105.38125 -44.33677734 105.38125 -43.66015625 104.75 C-35.6939145 96.35264399 -34.54146987 80.39058954 -34.75 69.390625 C-35.48478481 59.42510607 -37.63883784 45.36116216 -45 38 C-45.99 36.4840625 -45.99 36.4840625 -47 34.9375 C-48.67998292 31.95682309 -48.67998292 31.95682309 -51 31 C-51.350625 30.29875 -51.70125 29.5975 -52.0625 28.875 C-55.35630943 23.98741181 -60.38281827 19.87239391 -66 18 C-66.886875 17.38125 -67.77375 16.7625 -68.6875 16.125 C-73.67474732 12.92563379 -78.04247072 11 -84 11 C-84 10.34 -84 9.68 -84 9 C-105.90328887 8.48190911 -124.32807509 9.94580974 -141.6875 24.70703125 C-153.12257168 36.04552293 -158.35752657 48.73823981 -162 64 C-162.33 64 -162.66 64 -163 64 C-163.2995832 57.53649248 -162.30701313 52.13240372 -160.5 45.9375 C-160.23227783 45.01718994 -159.96455566 44.09687988 -159.6887207 43.14868164 C-152.32698898 19.04525166 -135.14661992 -1.93648059 -113 -14 C-74.66071144 -33.04676195 -32.68636303 -27.15351513 0 0 Z " fill="#FF8F76" transform="translate(1093,243)"/>
<path d="M0 0 C1.76905548 1.37160249 3.51948071 2.76758674 5.25 4.1875 C6.11496094 4.88875 6.97992187 5.59 7.87109375 6.3125 C23.23462675 19.40774883 32.85819698 38.22831615 35.25 58.1875 C36.90805459 83.44378118 29.79874615 104.91086395 13.4375 124.33984375 C-1.31359409 139.97742186 -22.20098808 148.82233584 -43.45727539 149.70727539 C-66.30776669 150.07323457 -87.01172232 141.73368797 -103.73046875 126.21875 C-108.0804671 121.96985171 -111.5396743 117.34347763 -114.75 112.1875 C-115.79800781 110.56714844 -115.79800781 110.56714844 -116.8671875 108.9140625 C-123.1795652 98.8059411 -127.12105047 88.29302174 -126.75 76.1875 C-126.42 76.1875 -126.09 76.1875 -125.75 76.1875 C-125.51925781 77.15429688 -125.28851562 78.12109375 -125.05078125 79.1171875 C-120.47122793 97.68902285 -111.47303008 113.0721062 -94.75 123.1875 C-78.80607039 131.55625944 -61.2687163 133.60746522 -43.75 129.1875 C-35.46654592 126.48614428 -28.62084731 122.49174478 -21.75 117.1875 C-20.698125 116.40375 -19.64625 115.62 -18.5625 114.8125 C-14.8170181 111.31671689 -11.5865827 107.45915856 -8.75 103.1875 C-8.75 102.5275 -8.75 101.8675 -8.75 101.1875 C-8.30785156 100.775 -7.86570312 100.3625 -7.41015625 99.9375 C0.5560855 91.54014399 1.70853013 75.57808954 1.5 64.578125 C0.76521519 54.61260607 -1.38883784 40.54866216 -8.75 33.1875 C-9.74 31.6715625 -9.74 31.6715625 -10.75 30.125 C-12.42998292 27.14432309 -12.42998292 27.14432309 -14.75 26.1875 C-15.100625 25.48625 -15.45125 24.785 -15.8125 24.0625 C-19.10630943 19.17491181 -24.13281827 15.05989391 -29.75 13.1875 C-30.636875 12.56875 -31.52375 11.95 -32.4375 11.3125 C-37.42474732 8.11313379 -41.79247072 6.1875 -47.75 6.1875 C-47.75 5.5275 -47.75 4.8675 -47.75 4.1875 C-69.65328887 3.66940911 -88.07807509 5.13330974 -105.4375 19.89453125 C-116.87257168 31.23302293 -122.10752657 43.92573981 -125.75 59.1875 C-126.08 59.1875 -126.41 59.1875 -126.75 59.1875 C-127.40720455 51.13674431 -124.97928846 43.83077471 -122.75 36.1875 C-122.09 36.1875 -121.43 36.1875 -120.75 36.1875 C-120.50507812 35.16398437 -120.26015625 34.14046875 -120.0078125 33.0859375 C-118.15792516 26.64210928 -113.74154491 21.46674765 -109.75 16.1875 C-109.12996094 15.36636719 -108.50992188 14.54523438 -107.87109375 13.69921875 C-82.09248819 -17.64712019 -32.77585434 -23.12237691 0 0 Z " fill="#FFC6B9" transform="translate(1056.75,247.8125)"/>
<path d="M0 0 C2 3 2 3 1.609375 5.3828125 C1.32578125 6.28773438 1.0421875 7.19265625 0.75 8.125 C-0.72790103 13.05790521 -1.92680813 17.96425355 -3 23 C-3.33 23 -3.66 23 -4 23 C-4.65720455 14.94924431 -2.22928846 7.64327471 0 0 Z " fill="#FFA38E" transform="translate(934,284)"/>
<path d="M0 0 C0.33 0 0.66 0 1 0 C1.64779076 2.39531933 2.29329009 4.79121748 2.9375 7.1875 C3.11990234 7.86103516 3.30230469 8.53457031 3.49023438 9.22851562 C4.0055277 11.14915439 4.50316231 13.07450454 5 15 C5.24878906 15.94488281 5.49757813 16.88976562 5.75390625 17.86328125 C5.87572266 18.92095703 5.87572266 18.92095703 6 20 C5.34 20.66 4.68 21.32 4 22 C3.32210976 19.64856824 2.65759253 17.29461376 2 14.9375 C1.71382812 13.95233398 1.71382812 13.95233398 1.421875 12.94726562 C0.20403571 8.5325982 -0.19227394 4.62058323 0 0 Z " fill="#FFB19F" transform="translate(930,324)"/>
<path d="M0 0 C0.66 0.99 1.32 1.98 2 3 C1.125 6.6875 1.125 6.6875 0 10 C-0.33 10 -0.66 10 -1 10 C-1.125 3.375 -1.125 3.375 0 0 Z " fill="#FFB2A0" transform="translate(934,284)"/>
</svg>
