<?xml version="1.0" encoding="UTF-8"?>
<!DOCTYPE svg PUBLIC "-//W3C//DTD SVG 1.1//EN" "http://www.w3.org/Graphics/SVG/1.1/DTD/svg11.dtd">
<!-- Creator: CorelDRAW 2020 (64-Bit) -->
<svg xmlns="http://www.w3.org/2000/svg" xml:space="preserve" width="323px" height="134px" version="1.1" style="shape-rendering:geometricPrecision; text-rendering:geometricPrecision; image-rendering:optimizeQuality; fill-rule:evenodd; clip-rule:evenodd"
viewBox="0 0 322.01 133.85"
 xmlns:xlink="http://www.w3.org/1999/xlink"
 xmlns:xodm="http://www.corel.com/coreldraw/odm/2003">
 <defs>
  <style type="text/css">
   <![CDATA[
    .str0 {stroke:black;stroke-width:0.83;stroke-miterlimit:2.61313}
    .fil1 {fill:none}
    .fil0 {fill:black}
    .fil2 {fill:black;fill-rule:nonzero}
   ]]>
  </style>
 </defs>
 <g id="Layer_x0020_1">
  <metadata id="CorelCorpID_0Corel-Layer"/>
  <path class="fil0" d="M282.58 0l0 0c0,21.68 17.74,39.42 39.43,39.42l0 0.01c-21.69,0 -39.43,17.74 -39.43,39.42l0 0c0,-21.68 -17.74,-39.42 -39.42,-39.42l0 -0.01c21.68,0 39.42,-17.74 39.42,-39.42zm-272.97 58.88c0,0.67 0.11,1.33 0.35,1.97 0.24,0.65 0.6,1.29 1.09,1.92 0.53,0.68 1.12,1.34 1.75,1.98 0.64,0.65 1.34,1.29 2.1,1.91 0.75,0.62 1.55,1.23 2.39,1.82 0.83,0.6 1.69,1.17 2.57,1.72 0.02,0 4.5,2.79 4.98,3.09 1.09,0.68 2.16,1.38 3.2,2.09 1.07,0.73 2.12,1.5 3.16,2.28 1.05,0.8 2.05,1.65 3,2.54 0.94,0.9 1.82,1.84 2.64,2.81 0.82,0.98 1.57,2.04 2.25,3.16 0.67,1.11 1.27,2.28 1.79,3.51 0.52,1.25 0.92,2.58 1.18,3.99 0.26,1.41 0.39,2.89 0.39,4.44 0,2.5 -0.49,4.9 -1.48,7.21 -0.49,1.15 -1.1,2.24 -1.82,3.26l0 0.01c-0.71,1.02 -1.54,1.97 -2.48,2.86 -0.94,0.89 -1.97,1.69 -3.1,2.39 -1.13,0.7 -2.36,1.32 -3.67,1.84 -1.32,0.52 -2.73,0.91 -4.23,1.17 -1.49,0.26 -3.05,0.39 -4.7,0.39 -0.68,0 -1.42,-0.02 -2.21,-0.07 -0.78,-0.05 -1.58,-0.12 -2.4,-0.22 -0.83,-0.09 -1.64,-0.2 -2.44,-0.32 -0.75,-0.11 -1.56,-0.24 -2.4,-0.39 -0.83,-0.15 -1.6,-0.31 -2.32,-0.48 -0.75,-0.17 -1.48,-0.36 -2.19,-0.58 -0.7,-0.2 -1.35,-0.42 -1.94,-0.64 -0.59,-0.22 -1.12,-0.45 -1.59,-0.68l-0.05 -0.02c-0.5,-0.29 -0.94,-0.62 -1.33,-0.98 -0.4,-0.37 -0.74,-0.77 -1.01,-1.22 -0.27,-0.42 -0.49,-0.86 -0.66,-1.33 -0.17,-0.46 -0.3,-0.94 -0.37,-1.42 -0.07,-0.5 -0.08,-0.99 -0.02,-1.49 0.05,-0.48 0.17,-0.97 0.36,-1.46 0.19,-0.49 0.44,-0.94 0.75,-1.37 0.31,-0.41 0.68,-0.8 1.12,-1.17l0.67 -0.56 0.6 0.65c0.35,0.38 0.77,0.77 1.25,1.17 0.49,0.41 1.05,0.83 1.69,1.27 0.64,0.45 1.32,0.87 2.02,1.26 0.69,0.39 1.44,0.78 2.25,1.15 0.78,0.36 1.6,0.69 2.46,1 0.87,0.31 1.75,0.58 2.65,0.82l0 0c0.91,0.25 1.8,0.43 2.68,0.55 0.87,0.11 1.74,0.17 2.62,0.17 2.31,0 4.33,-0.29 6.05,-0.87 1.68,-0.57 3.09,-1.43 4.23,-2.56 2.29,-2.29 3.43,-5.28 3.43,-8.97 0,-1.04 -0.1,-2.03 -0.31,-2.97 -0.21,-0.94 -0.53,-1.85 -0.95,-2.72 -0.44,-0.9 -0.94,-1.76 -1.5,-2.58 -0.56,-0.83 -1.18,-1.61 -1.87,-2.36 -0.71,-0.77 -1.46,-1.51 -2.24,-2.21 -0.78,-0.7 -1.62,-1.38 -2.51,-2.04 -0.9,-0.67 -1.79,-1.31 -2.67,-1.92 -0.87,-0.6 -1.75,-1.18 -2.63,-1.75 -2.17,-1.35 -4.3,-2.67 -6.38,-3.99 -1.1,-0.69 -2.13,-1.4 -3.08,-2.11 -0.98,-0.73 -1.9,-1.47 -2.76,-2.25 -0.87,-0.77 -1.67,-1.59 -2.4,-2.47 -0.72,-0.87 -1.36,-1.78 -1.91,-2.73 -0.58,-0.98 -1.02,-2.04 -1.3,-3.17 -0.29,-1.13 -0.43,-2.32 -0.43,-3.58 0,-2.07 0.45,-4.11 1.35,-6.11 0.45,-0.98 0.99,-1.93 1.63,-2.82 0.64,-0.89 1.37,-1.72 2.19,-2.49 0.83,-0.78 1.74,-1.48 2.73,-2.1 0.98,-0.61 2.05,-1.15 3.19,-1.61 1.16,-0.46 2.39,-0.81 3.69,-1.04 1.29,-0.22 2.65,-0.34 4.07,-0.34 0.67,0 1.42,0.02 2.26,0.06 0.85,0.05 1.7,0.1 2.56,0.18 1.83,0.16 3.64,0.48 5.42,0.97 0.91,0.25 1.77,0.53 2.58,0.85 0.82,0.32 1.62,0.69 2.4,1.1 0.8,0.43 1.5,0.91 2.11,1.45 0.61,0.54 1.13,1.14 1.54,1.79 0.33,0.45 0.55,0.96 0.66,1.53 0.11,0.54 0.11,1.13 0.02,1.77 -0.18,1.23 -0.76,2.44 -1.75,3.64l-0.6 0.73 -0.71 -0.61c-0.38,-0.32 -0.82,-0.67 -1.32,-1.06 -0.55,-0.43 -1.08,-0.83 -1.59,-1.2 -0.53,-0.39 -1.12,-0.78 -1.78,-1.19 -0.66,-0.4 -1.32,-0.78 -1.99,-1.13 -1.39,-0.72 -2.9,-1.32 -4.53,-1.81 -0.8,-0.23 -1.62,-0.41 -2.47,-0.53 -0.84,-0.12 -1.71,-0.18 -2.62,-0.18 -1.92,0 -3.6,0.22 -5.04,0.66 -1.42,0.43 -2.61,1.08 -3.6,1.93 -0.96,0.84 -1.67,1.82 -2.12,2.93 -0.46,1.13 -0.67,2.41 -0.61,3.84l0.01 0.04zm55.38 -6.19c3.02,0 5.92,0.73 8.68,2.18 1.38,0.72 2.68,1.62 3.89,2.68 1.21,1.06 2.33,2.29 3.37,3.69 1.04,1.38 1.97,2.93 2.8,4.62 0.83,1.69 1.56,3.53 2.18,5.51 0.62,1.98 1.09,4.1 1.4,6.36 0.32,2.26 0.47,4.64 0.47,7.14 0,2.54 -0.15,4.94 -0.47,7.23 -0.31,2.28 -0.78,4.42 -1.4,6.42 -0.61,2 -1.34,3.84 -2.16,5.52 -0.83,1.7 -1.77,3.24 -2.8,4.62 -1.02,1.37 -2.14,2.58 -3.34,3.65 -1.22,1.07 -2.51,1.97 -3.88,2.71l0 0c-1.38,0.74 -2.79,1.29 -4.24,1.66 -1.45,0.38 -2.93,0.56 -4.44,0.56 -1.93,0 -3.68,-0.25 -5.28,-0.76 -0.99,-0.31 -1.92,-0.73 -2.77,-1.23l0 18.6 -8.33 0 0 -62.1c0,-1.68 0.09,-3.25 0.28,-4.7 0.19,-1.46 0.47,-2.79 0.84,-3.97 0.38,-1.2 0.84,-2.3 1.38,-3.29 0.54,-1.01 1.17,-1.89 1.87,-2.66 0.71,-0.78 1.5,-1.45 2.37,-2.02 0.88,-0.57 1.83,-1.03 2.85,-1.38 1,-0.35 2.07,-0.61 3.2,-0.78 1.12,-0.17 2.29,-0.26 3.53,-0.26zm-7.99 54.66c0.36,0.63 0.79,1.17 1.26,1.61 0.52,0.47 1.12,0.84 1.78,1.09 0.73,0.28 1.5,0.48 2.33,0.62 0.83,0.14 1.72,0.21 2.68,0.21 1.01,0 1.99,-0.12 2.93,-0.36 0.94,-0.24 1.84,-0.59 2.69,-1.07l0 0c0.87,-0.48 1.67,-1.08 2.42,-1.82 0.76,-0.75 1.46,-1.64 2.11,-2.66l0 -0.01c0.66,-1.02 1.24,-2.2 1.75,-3.53 0.52,-1.34 0.97,-2.84 1.35,-4.5 0.39,-1.65 0.67,-3.47 0.86,-5.45 0.19,-1.97 0.29,-4.12 0.29,-6.46 0,-2.32 -0.1,-4.45 -0.29,-6.41 -0.19,-1.95 -0.47,-3.76 -0.86,-5.42 -0.38,-1.65 -0.83,-3.15 -1.36,-4.5l0 0c-0.52,-1.34 -1.11,-2.52 -1.78,-3.57l0 0c-0.67,-1.05 -1.39,-1.95 -2.16,-2.72 -0.75,-0.76 -1.57,-1.38 -2.43,-1.87l-0.01 0c-0.86,-0.49 -1.75,-0.86 -2.66,-1.11 -0.92,-0.24 -1.87,-0.36 -2.85,-0.36 -0.9,0 -1.69,0.09 -2.39,0.27 -0.67,0.17 -1.26,0.44 -1.76,0.78 -0.53,0.36 -0.99,0.77 -1.39,1.25 -0.4,0.47 -0.73,0.99 -1,1.58l-0.01 0.01c-0.29,0.62 -0.53,1.28 -0.73,1.97 -0.2,0.72 -0.35,1.49 -0.45,2.3 -0.11,0.83 -0.19,1.69 -0.24,2.58 -0.05,0.86 -0.08,1.77 -0.08,2.72l0 34.83zm74.24 -9.15c0,6.83 -1.47,11.71 -4.41,14.64 -1.47,1.47 -3.21,2.58 -5.21,3.31 -1.99,0.73 -4.22,1.09 -6.7,1.09 -1.83,0 -3.55,-0.13 -5.19,-0.4 -1.63,-0.27 -3.16,-0.67 -4.57,-1.21 -1.41,-0.53 -2.72,-1.17 -3.92,-1.91 -1.2,-0.74 -2.28,-1.58 -3.25,-2.51 -0.98,-0.94 -1.83,-1.97 -2.57,-3.07l0 -0.01c-0.74,-1.1 -1.36,-2.3 -1.87,-3.58 -0.51,-1.28 -0.89,-2.6 -1.14,-3.98 -0.26,-1.38 -0.38,-2.79 -0.38,-4.25 0,-1.55 0.16,-3.09 0.48,-4.61 0.31,-1.51 0.79,-2.99 1.43,-4.44 1.27,-2.9 3.21,-5.54 5.81,-7.91 1.29,-1.18 2.75,-2.28 4.38,-3.3 1.61,-1 3.39,-1.93 5.35,-2.78l0 0c1.96,-0.85 4.09,-1.57 6.4,-2.17 2.04,-0.53 4.22,-0.96 6.54,-1.29 -0.08,-0.5 -0.16,-1 -0.27,-1.48 -0.17,-0.77 -0.37,-1.51 -0.6,-2.22l0 -0.01c-0.46,-1.38 -1.15,-2.61 -2.04,-3.68 -0.44,-0.53 -0.94,-0.99 -1.49,-1.4 -0.55,-0.41 -1.17,-0.77 -1.84,-1.07 -0.67,-0.3 -1.41,-0.53 -2.22,-0.68 -0.82,-0.15 -1.72,-0.22 -2.7,-0.22 -1.17,0 -2.38,0.19 -3.63,0.57 -0.65,0.19 -1.3,0.42 -1.94,0.68 -0.67,0.27 -1.31,0.57 -1.94,0.89 -0.64,0.33 -1.27,0.7 -1.9,1.11 -0.63,0.42 -1.24,0.87 -1.83,1.37 -0.6,0.49 -1.18,1.01 -1.72,1.55 -0.55,0.54 -1.07,1.09 -1.54,1.66l-0.68 0.8 -0.71 -0.77c-0.4,-0.44 -0.73,-0.91 -0.99,-1.4 -0.27,-0.5 -0.46,-1.04 -0.59,-1.61 -0.13,-0.57 -0.17,-1.16 -0.13,-1.76 0.05,-0.59 0.18,-1.19 0.39,-1.8l0.02 -0.05c0.32,-0.73 0.71,-1.4 1.19,-2.02 0.48,-0.62 1.04,-1.18 1.68,-1.68 1.23,-0.96 2.64,-1.75 4.23,-2.34 0.79,-0.3 1.6,-0.55 2.43,-0.75 0.83,-0.2 1.68,-0.36 2.57,-0.48 1.74,-0.22 3.44,-0.34 5.09,-0.34 1.77,0 3.42,0.15 4.96,0.44 1.54,0.3 2.96,0.75 4.25,1.34 2.57,1.19 4.66,2.81 6.25,4.87 0.79,1.02 1.47,2.12 2.05,3.3 0.58,1.18 1.04,2.43 1.4,3.74 0.35,1.29 0.62,2.64 0.8,4.03 0.18,1.39 0.27,2.81 0.27,4.23l0 23.56zm-16.32 12.68c1.26,0 2.38,-0.19 3.36,-0.59 0.46,-0.18 0.89,-0.44 1.28,-0.76 0.41,-0.33 0.78,-0.73 1.12,-1.21 0.35,-0.49 0.66,-1.07 0.93,-1.74 0.28,-0.67 0.51,-1.46 0.71,-2.34 0.19,-0.88 0.34,-1.89 0.43,-3.01 0.1,-1.14 0.15,-2.4 0.15,-3.78l0 -21.09c-1.78,0.26 -3.45,0.58 -5.01,0.97 -1.84,0.46 -3.51,1 -5.01,1.64 -1.5,0.63 -2.86,1.33 -4.08,2.1 -1.2,0.76 -2.27,1.58 -3.19,2.46 -0.92,0.87 -1.72,1.8 -2.38,2.79 -0.67,0.98 -1.21,2.02 -1.62,3.1 -0.42,1.11 -0.73,2.24 -0.94,3.38 -0.21,1.14 -0.31,2.31 -0.31,3.52 0,4.9 1.09,8.56 3.27,10.98 1.07,1.17 2.52,2.06 4.36,2.65 1.89,0.62 4.2,0.93 6.93,0.93zm22.72 -33.8c0,-2.87 0.27,-5.53 0.81,-7.97 0.54,-2.46 1.36,-4.69 2.45,-6.69 1.1,-2.02 2.48,-3.75 4.13,-5.19 1.65,-1.44 3.58,-2.58 5.78,-3.44 0.6,-0.23 1.23,-0.42 1.88,-0.57l0 0c0.64,-0.14 1.31,-0.24 2,-0.29 0.7,-0.05 1.37,-0.03 2,0.04 0.65,0.08 1.27,0.23 1.85,0.44 0.62,0.22 1.17,0.53 1.66,0.92 0.5,0.39 0.93,0.86 1.29,1.41 0.39,0.58 0.64,1.27 0.75,2.07 0.11,0.75 0.09,1.59 -0.04,2.52l-0.15 0.96 -0.95 -0.19c-1.24,-0.25 -2.36,-0.42 -3.37,-0.53 -1,-0.1 -1.91,-0.14 -2.71,-0.11 -0.78,0.03 -1.52,0.12 -2.21,0.26 -0.67,0.15 -1.28,0.34 -1.85,0.6l-0.01 0c-0.87,0.38 -1.61,0.94 -2.22,1.67 -0.62,0.75 -1.12,1.7 -1.49,2.84 -0.39,1.19 -0.68,2.68 -0.88,4.46 -0.2,1.8 -0.3,3.91 -0.3,6.33l0 8.68c0,1.07 0,2.67 -0.01,4.84 -0.01,1.63 -0.02,3.29 -0.04,4.97 -0.01,1.7 -0.02,3.4 -0.03,5.1 -0.01,1.15 -0.01,2.87 -0.01,5.12l0 10.97 -8.33 0 0 -39.22zm26.65 38.3l0 -78.73 8.33 0 0 48.09c1.93,-0.14 3.71,-0.35 5.34,-0.65 1.89,-0.34 3.59,-0.79 5.1,-1.35 1.49,-0.55 2.83,-1.23 4.02,-2.02 1.18,-0.78 2.2,-1.68 3.08,-2.69l0 -0.01c0.89,-1.02 1.64,-2.17 2.26,-3.43 0.63,-1.28 1.14,-2.7 1.51,-4.25 0.38,-1.56 0.67,-3.29 0.86,-5.16 0.19,-1.87 0.28,-3.91 0.28,-6.11l0 -5.44 8.34 0 0 5.62c0,3.34 -0.28,6.43 -0.83,9.27 -0.56,2.86 -1.39,5.45 -2.5,7.79 -1.13,2.37 -2.63,4.45 -4.5,6.26 -1.48,1.43 -3.19,2.68 -5.13,3.75 0.51,0.31 1,0.64 1.47,0.99 0.94,0.68 1.8,1.42 2.58,2.22 0.79,0.8 1.55,1.7 2.26,2.7 0.72,0.98 1.41,2.07 2.07,3.27 0.65,1.18 1.29,2.47 1.91,3.86 0.63,1.4 1.23,2.9 1.81,4.48 0.59,1.61 1.19,3.34 1.81,5.21 0.59,1.79 1.23,3.81 1.91,6.06l0.37 1.19 -8.4 0 -0.21 -0.64c-0.72,-2.25 -1.4,-4.32 -2.06,-6.21 -0.65,-1.9 -1.27,-3.62 -1.86,-5.15l-0.01 0c-0.59,-1.55 -1.18,-2.95 -1.76,-4.19 -0.58,-1.25 -1.18,-2.39 -1.78,-3.41 -0.59,-0.99 -1.19,-1.87 -1.81,-2.64 -0.61,-0.77 -1.24,-1.42 -1.87,-1.96 -0.63,-0.53 -1.34,-1.02 -2.1,-1.45 -0.69,-0.4 -1.43,-0.75 -2.22,-1.05 -1.6,0.41 -3.27,0.75 -5.01,1 -1.57,0.23 -3.21,0.4 -4.93,0.5l0 25.2 -8.33 0 0 -0.92zm56.67 -10.05c0,1.22 0.09,2.21 0.28,2.99 0.16,0.69 0.39,1.19 0.68,1.49 0.3,0.31 0.74,0.57 1.31,0.76 0.64,0.21 1.44,0.35 2.39,0.41l0.87 0.05 0 6.21 -0.92 0c-4.38,0 -7.64,-0.99 -9.74,-2.97 -1.09,-1.02 -1.9,-2.34 -2.43,-3.95 -0.52,-1.57 -0.78,-3.42 -0.78,-5.55l0 -68.12 8.34 0 0 68.68zm39.33 11.91c-1.99,0 -3.94,-0.17 -5.84,-0.5 -1.89,-0.34 -3.75,-0.85 -5.56,-1.53 -1.81,-0.68 -3.52,-1.53 -5.13,-2.54 -1.61,-1.01 -3.12,-2.18 -4.52,-3.52 -1.41,-1.35 -2.68,-2.86 -3.8,-4.55 -1.11,-1.68 -2.08,-3.52 -2.9,-5.53 -0.82,-2.02 -1.44,-4.2 -1.85,-6.54 -0.4,-2.33 -0.61,-4.82 -0.61,-7.47 0,-2.83 0.16,-5.48 0.47,-7.94 0.31,-2.46 0.78,-4.7 1.4,-6.74 0.63,-2.02 1.34,-3.87 2.14,-5.54 0.82,-1.69 1.72,-3.19 2.7,-4.5 0.99,-1.32 2.06,-2.46 3.19,-3.43 1.14,-0.98 2.35,-1.77 3.63,-2.39 1.27,-0.61 2.54,-1.06 3.81,-1.37 1.28,-0.3 2.57,-0.46 3.86,-0.46 1.39,0 2.71,0.12 3.96,0.35 1.25,0.23 2.42,0.58 3.49,1.04 1.07,0.46 2.05,1 2.97,1.61 0.91,0.62 1.74,1.31 2.49,2.07l0 0c0.74,0.76 1.41,1.59 1.98,2.48 0.58,0.89 1.06,1.84 1.46,2.85 0.39,1 0.71,2.03 0.93,3.09 0.23,1.05 0.38,2.13 0.44,3.25l0 0.01c0.07,1.44 -0.02,2.89 -0.25,4.33 -0.24,1.46 -0.63,2.9 -1.16,4.34 -0.54,1.45 -1.23,2.84 -2.07,4.17 -0.83,1.32 -1.82,2.59 -2.96,3.79l-0.01 0.01c-0.81,0.84 -1.66,1.61 -2.56,2.31 -0.9,0.71 -1.84,1.34 -2.81,1.89 -0.96,0.55 -1.96,1.04 -2.97,1.48 -1.01,0.44 -2.05,0.83 -3.12,1.18 -1.06,0.33 -2.12,0.62 -3.2,0.86 -1.08,0.24 -2.16,0.44 -3.25,0.58 -1.09,0.14 -2.16,0.25 -3.2,0.32 -0.67,0.05 -1.33,0.08 -1.97,0.1 0.26,1.17 0.58,2.27 0.95,3.3 0.48,1.33 1.05,2.54 1.7,3.61 0.66,1.08 1.38,2.05 2.18,2.94 0.78,0.87 1.63,1.64 2.55,2.31 0.93,0.68 1.91,1.26 2.93,1.75 1.02,0.49 2.11,0.9 3.25,1.22 1.15,0.32 2.33,0.56 3.53,0.72 1.2,0.15 2.44,0.23 3.73,0.23l0.93 0 0 6.36 -0.93 0zm-21.88 -32.37c0,0.53 0.01,0.93 0.01,1.2l0 0c0.01,0.37 0.02,0.76 0.04,1.16 0.01,0.36 0.03,0.74 0.05,1.14l0.02 0.25c1.46,-0.05 2.86,-0.17 4.22,-0.36 1.6,-0.22 3.12,-0.53 4.57,-0.95 1.43,-0.4 2.75,-0.91 3.96,-1.51 1.2,-0.59 2.29,-1.28 3.27,-2.07 0.98,-0.78 1.83,-1.65 2.57,-2.6 0.74,-0.95 1.35,-1.99 1.86,-3.11 0.49,-1.11 0.86,-2.31 1.08,-3.6 0.22,-1.29 0.3,-2.67 0.25,-4.12 -0.07,-0.79 -0.16,-1.56 -0.3,-2.28 -0.13,-0.73 -0.3,-1.45 -0.51,-2.17 -0.41,-1.36 -0.99,-2.55 -1.74,-3.56 -0.36,-0.49 -0.77,-0.94 -1.22,-1.33 -0.45,-0.4 -0.93,-0.75 -1.45,-1.04 -0.5,-0.29 -1.04,-0.5 -1.63,-0.65 -0.58,-0.14 -1.22,-0.21 -1.9,-0.21 -1.84,0 -3.55,0.66 -5.13,1.98 -0.82,0.69 -1.58,1.5 -2.28,2.44l0 0c-0.7,0.94 -1.35,2.01 -1.94,3.22 -1.18,2.44 -2.11,5.23 -2.79,8.37 -0.33,1.59 -0.59,3.19 -0.76,4.82 -0.16,1.62 -0.25,3.28 -0.25,4.98z"/>
  <path class="fil1 str0" d="M267.27 109.93c2.29,0 4.15,1.84 4.15,4.1 0,2.27 -1.86,4.11 -4.15,4.11 -2.29,0 -4.15,-1.84 -4.15,-4.11 0,-2.26 1.86,-4.1 4.15,-4.1z"/>
  <path class="fil2" d="M269.22 116.32c0,0.03 0,0.05 -0.01,0.07 -0.01,0.02 -0.04,0.04 -0.07,0.05 -0.04,0.01 -0.09,0.02 -0.16,0.02 -0.08,0.01 -0.17,0.01 -0.29,0.01 -0.11,0 -0.19,0 -0.25,-0.01 -0.06,0 -0.11,-0.01 -0.15,-0.02 -0.03,-0.02 -0.06,-0.03 -0.07,-0.06 -0.02,-0.02 -0.03,-0.04 -0.04,-0.07l-0.43 -1.07c-0.05,-0.12 -0.1,-0.23 -0.15,-0.32 -0.05,-0.1 -0.11,-0.17 -0.17,-0.24 -0.06,-0.06 -0.13,-0.11 -0.21,-0.14 -0.07,-0.03 -0.17,-0.05 -0.27,-0.05l-0.3 0 0 1.83c0,0.02 -0.01,0.04 -0.03,0.06 -0.01,0.02 -0.04,0.04 -0.08,0.05 -0.03,0.01 -0.08,0.02 -0.14,0.03 -0.06,0.01 -0.14,0.01 -0.24,0.01 -0.09,0 -0.17,0 -0.23,-0.01 -0.06,-0.01 -0.11,-0.02 -0.15,-0.03 -0.04,-0.01 -0.06,-0.03 -0.08,-0.05 -0.01,-0.02 -0.02,-0.04 -0.02,-0.06l0 -4.34c0,-0.11 0.03,-0.18 0.08,-0.23 0.06,-0.05 0.13,-0.07 0.21,-0.07l1.23 0c0.13,0 0.23,0 0.31,0 0.08,0.01 0.16,0.02 0.23,0.02 0.19,0.03 0.36,0.08 0.51,0.14 0.16,0.07 0.29,0.16 0.39,0.26 0.11,0.11 0.19,0.24 0.25,0.38 0.06,0.15 0.08,0.31 0.08,0.5 0,0.16 -0.02,0.31 -0.06,0.44 -0.04,0.13 -0.1,0.25 -0.18,0.35 -0.07,0.11 -0.17,0.19 -0.29,0.27 -0.11,0.08 -0.25,0.14 -0.39,0.19 0.07,0.03 0.14,0.07 0.2,0.12 0.06,0.05 0.12,0.11 0.18,0.18 0.05,0.07 0.1,0.15 0.15,0.24 0.05,0.09 0.1,0.19 0.15,0.3l0.4 0.95c0.04,0.09 0.06,0.16 0.07,0.2 0.02,0.05 0.02,0.08 0.02,0.1zm-1.25 -3.24c0,-0.15 -0.04,-0.29 -0.11,-0.39 -0.07,-0.11 -0.19,-0.19 -0.35,-0.23 -0.05,-0.01 -0.1,-0.02 -0.17,-0.03 -0.06,-0.01 -0.15,-0.01 -0.26,-0.01l-0.43 0 0 1.35 0.49 0c0.14,0 0.26,-0.02 0.36,-0.05 0.11,-0.03 0.19,-0.08 0.26,-0.14 0.07,-0.06 0.12,-0.13 0.16,-0.22 0.03,-0.08 0.05,-0.17 0.05,-0.28z"/>
 </g>
</svg>
