<svg xmlns="http://www.w3.org/2000/svg" width="889" height="327" viewBox="0 0 889 327" version="1.1"><path d="M 428.500 0.621 C 427.400 0.896, 422.930 2.018, 418.567 3.115 C 392.425 9.685, 368.515 29.133, 356.009 54 C 331.031 103.667, 350.840 163.428, 400.500 188.224 C 408.240 192.088, 417.358 195.212, 426.500 197.131 C 435.111 198.939, 455.822 198.640, 465.500 196.569 C 495.326 190.185, 521.025 169.825, 534.441 141.950 C 541.833 126.591, 543.350 119.428, 543.431 99.500 C 543.491 84.690, 543.201 81.405, 541.180 74 C 536.441 56.644, 527.699 41.547, 515.076 28.924 C 502.886 16.734, 488.863 8.358, 472.288 3.367 C 464.603 1.053, 461.429 0.683, 447 0.421 C 437.925 0.256, 429.600 0.346, 428.500 0.621 M 426 8.500 C 391.218 16.240, 364.246 41.911, 355.301 75.790 C 353.196 83.762, 352.730 87.827, 352.697 98.500 C 352.634 118.876, 356.816 133.236, 367.660 149.880 C 394.943 191.755, 451.060 203.984, 493.772 177.363 C 512.865 165.463, 526.659 147.123, 533.696 124.282 C 536.179 116.222, 536.399 114.144, 536.376 99 C 536.353 83.991, 536.108 81.705, 533.666 73.703 C 527.706 54.172, 516.237 37.324, 501.054 25.793 C 493.222 19.846, 477.019 11.840, 468 9.461 C 459.040 7.098, 434.795 6.543, 426 8.500 M 433.814 12.019 C 423.412 13.653, 415.591 16.076, 406.388 20.515 C 376.434 34.964, 356.960 66.053, 357.013 99.338 C 357.070 134.537, 379.311 167.216, 412.129 180.320 C 457.465 198.422, 508.339 176.387, 526.355 130.845 C 530.299 120.874, 532 111.148, 532 98.563 C 532 58.307, 505.101 24.128, 465.436 13.984 C 456.674 11.743, 441.551 10.803, 433.814 12.019 M 393.260 75.107 C 381.603 77.050, 374.727 82.626, 374.727 90.136 C 374.727 98.059, 381.039 101.771, 400 104.996 C 414.035 107.383, 418.344 109.271, 418.811 113.238 C 419.487 118.987, 411.441 122.541, 399.500 121.769 C 393.005 121.349, 388.247 119.650, 382.910 115.846 C 381.691 114.977, 380.226 115.130, 376.626 116.505 C 374.045 117.491, 372.091 118.793, 372.285 119.399 C 372.917 121.377, 383.094 126.854, 388.154 127.940 C 390.873 128.523, 397.270 129, 402.368 129 C 417.502 129, 427.490 124.857, 430.663 117.265 C 432.682 112.432, 431.556 108.632, 426.931 104.673 C 422.404 100.798, 419.085 99.675, 406 97.588 C 389.879 95.017, 386.037 92.975, 387.365 87.684 C 388.172 84.468, 390.517 83.137, 397.327 82.028 C 404.141 80.919, 411.422 82.322, 415.669 85.561 C 419.198 88.253, 420.609 88.218, 426.340 85.301 C 429.121 83.886, 429.141 83.814, 427.340 81.822 C 421.664 75.545, 407.442 72.743, 393.260 75.107 M 453.205 75.461 C 434.881 79.629, 430.043 93.536, 444.492 100.505 C 447.323 101.871, 454.529 103.769, 461.068 104.871 C 475.377 107.283, 479.704 108.972, 480.587 112.489 C 483.086 122.449, 458.116 125.627, 445.872 116.909 C 442.958 114.834, 442.754 114.822, 438.438 116.471 C 435.997 117.403, 434 118.575, 434 119.076 C 434 121.008, 442.281 125.854, 448.422 127.516 C 457.673 130.020, 475.390 129.256, 482.773 126.035 C 489.838 122.952, 493 119.094, 493 113.558 C 493 104.730, 486.994 100.972, 467.397 97.535 C 451.698 94.783, 448.740 93.345, 449.191 88.688 C 449.623 84.229, 454.934 81.706, 463.887 81.706 C 470.201 81.706, 474.420 83.115, 480 87.089 C 481.116 87.884, 482.781 87.602, 486.500 85.992 L 491.500 83.826 488.082 80.949 C 486.202 79.368, 482.621 77.377, 480.124 76.526 C 473.482 74.264, 460.694 73.757, 453.205 75.461 M 504 102 L 504 128 509.500 128 L 515 128 515 102 L 515 76 509.500 76 L 504 76 504 102 M 541 212 L 541 221 532 221 C 527.050 221, 523 221.406, 523 221.902 C 523 222.398, 520.862 222.100, 518.250 221.239 C 514.998 220.167, 509.401 219.647, 500.500 219.588 C 488.209 219.507, 483.259 220.277, 474.526 223.628 C 473.406 224.058, 473.148 223.777, 473.596 222.611 C 474.144 221.182, 472.815 221.003, 461.857 221.024 L 449.500 221.048 438.518 241.902 L 427.536 262.757 415.018 241.842 L 402.500 220.928 387.500 221.037 C 379.250 221.097, 370.076 220.663, 367.114 220.073 C 350.294 216.723, 328.136 221.636, 321.751 230.131 C 315.134 238.935, 318.448 248.911, 329.499 253.460 C 331.699 254.365, 339.650 256.165, 347.169 257.460 C 354.688 258.755, 362.108 260.422, 363.658 261.165 C 369.724 264.072, 366.995 269.186, 358.345 271.122 C 351.212 272.718, 342.318 271.118, 335.801 267.067 L 331.009 264.088 323.528 268.794 C 319.414 271.382, 316.179 273.950, 316.339 274.500 C 316.920 276.495, 327.110 281.131, 334.220 282.635 C 344.679 284.847, 365.103 284.056, 374.313 281.081 C 389.602 276.143, 395.302 264.109, 386.890 254.528 C 382.951 250.041, 376.448 247.698, 360.591 245.054 C 346.489 242.702, 342 240.999, 342 238 C 342 232.215, 357.580 230.603, 367.340 235.378 L 373 238.147 378.250 235.170 L 383.500 232.193 399.317 257.495 L 415.133 282.797 411.317 288.903 C 408.800 292.930, 406.321 295.569, 404.039 296.652 C 400.438 298.361, 390.104 298.859, 384.418 297.598 L 381.336 296.915 380.065 304.022 C 379.367 307.931, 379.104 311.437, 379.482 311.814 C 379.860 312.191, 387.218 312.500, 395.834 312.500 C 410.982 312.500, 411.689 312.407, 417.224 309.689 C 420.373 308.143, 424.425 305.154, 426.229 303.046 C 428.033 300.938, 436.909 286.357, 445.953 270.643 L 462.397 242.072 464.448 245.786 C 467.567 251.432, 474.681 254.470, 491.738 257.439 C 499.569 258.802, 506.806 260.361, 507.820 260.904 C 511.114 262.667, 512.239 264.684, 511.108 266.799 C 509.504 269.796, 504.164 271.500, 496.380 271.500 C 490.169 271.500, 488.363 271.040, 482.232 267.894 L 475.204 264.288 467.457 269.281 L 459.710 274.273 462.105 276.125 C 468.605 281.152, 480.881 284.007, 495.886 283.983 C 520.423 283.942, 535.006 276.529, 534.996 264.102 C 534.989 254.714, 528.425 249.487, 512.905 246.513 C 508.282 245.627, 501.148 244.260, 497.052 243.475 C 492.551 242.613, 488.838 241.282, 487.668 240.112 C 485.754 238.198, 485.759 238.150, 488.179 235.730 C 492.761 231.149, 507.347 231.339, 513.347 236.058 C 516.272 238.359, 517.823 238.449, 520.441 236.468 C 521.825 235.421, 525.054 235, 531.691 235 L 541 235 541.006 248.250 C 541.019 278.556, 544.536 283.018, 569 283.766 C 575.875 283.976, 583.300 283.759, 585.500 283.283 L 589.500 282.417 589.796 275.680 L 590.093 268.942 594.366 272.444 C 603.685 280.080, 616.853 283.954, 633.590 283.983 C 648.660 284.009, 664.949 279.134, 670.578 272.914 C 672.108 271.223, 671.732 270.888, 663.893 266.946 C 657.301 263.632, 655.269 263.006, 654.044 263.911 C 653.195 264.538, 650.025 266.269, 647 267.758 C 642.204 270.117, 640.284 270.466, 632 270.482 C 623.677 270.498, 621.817 270.165, 616.992 267.795 C 612.310 265.495, 608 261.086, 608 258.596 C 608 258.268, 623.286 258, 641.969 258 L 675.938 258 676.219 270.250 L 676.500 282.500 688.191 282.781 L 699.883 283.062 700.191 263.109 C 700.496 243.413, 700.532 243.121, 703 240.446 C 710.381 232.445, 728.151 231.667, 733.369 239.117 C 734.750 241.088, 735 244.632, 735 262.223 L 735 283 747 283 L 759 283 759 264.234 C 759 242.452, 759.656 240.184, 767.105 236.199 C 772.871 233.115, 784.283 233.334, 788.699 236.613 C 793.630 240.274, 793.969 241.989, 793.985 263.282 L 794 283.063 805.750 282.782 L 817.500 282.500 817.815 279.763 L 818.130 277.026 822.044 279.022 C 829.597 282.876, 838.438 284.222, 853 283.738 C 870.298 283.163, 878.476 280.787, 884.749 274.515 C 888.821 270.442, 889 270.006, 889 264.166 C 889 258.791, 888.638 257.657, 885.940 254.584 C 881.946 250.036, 875.515 247.710, 859.591 245.054 C 845.489 242.702, 841 240.999, 841 238 C 841 232.202, 856.581 230.603, 866.377 235.396 L 872.075 238.184 878.988 234.077 C 882.790 231.818, 886.159 229.552, 886.475 229.041 C 887.288 227.724, 878.636 222.879, 872.592 221.267 C 859.385 217.744, 840.642 218.805, 829.751 223.692 C 823.538 226.480, 818 231.826, 818 235.035 C 818 238.117, 816.525 237.340, 815.148 233.533 C 814.458 231.626, 812.055 228.491, 809.806 226.566 C 803.583 221.239, 797.412 219.521, 784.500 219.521 C 771.896 219.521, 765.631 221.189, 758.942 226.324 L 754.774 229.523 751.409 226.349 C 746.203 221.440, 739.291 219.500, 727 219.500 C 714.902 219.500, 707.869 221.420, 702.409 226.214 L 699 229.207 699 225.104 L 699 221 687.500 221 L 676 221 675.990 232.750 L 675.980 244.500 673.605 239.398 C 666.015 223.098, 644.836 215.802, 618.658 220.467 C 610.376 221.944, 598.844 226.990, 593.250 231.586 L 590 234.256 590 227.628 L 590 221 577.500 221 L 565 221 565 212 L 565 203 553 203 L 541 203 541 212 M 618.500 233.446 C 614.233 235.014, 608 240.974, 608 243.485 C 608 244.793, 611.070 245, 630.500 245 C 642.875 245, 653 244.617, 653 244.148 C 653 242.171, 648.235 236.457, 645.021 234.580 C 640.457 231.915, 624.520 231.233, 618.500 233.446 M 565 248.953 C 565 264.305, 565.745 267.237, 570.104 269.043 C 573.021 270.251, 587.281 270.052, 588.548 268.786 C 588.923 268.410, 588.053 265.742, 586.615 262.855 C 582.442 254.481, 583.385 242.652, 588.693 236.787 C 590.238 235.080, 589.743 235, 577.655 235 L 565 235 565 248.953 M 818 257.923 C 818 265.115, 818.344 271, 818.763 271 C 819.183 271, 821.920 269.388, 824.845 267.419 C 829.691 264.155, 830.314 263.974, 831.868 265.380 C 834.754 267.993, 842.386 270.910, 848.079 271.578 C 860.865 273.078, 871.389 265.838, 862.845 261.420 C 861.110 260.523, 853.540 258.729, 846.023 257.435 C 830.371 254.740, 824.489 252.559, 820.686 248.038 L 818 244.847 818 257.923" stroke="none" fill="#0474c4" fill-rule="evenodd"/><path d="M 426 8.500 C 391.218 16.240, 364.246 41.911, 355.301 75.790 C 353.196 83.762, 352.730 87.827, 352.697 98.500 C 352.634 118.876, 356.816 133.236, 367.660 149.880 C 394.943 191.755, 451.060 203.984, 493.772 177.363 C 512.865 165.463, 526.659 147.123, 533.696 124.282 C 536.179 116.222, 536.399 114.144, 536.376 99 C 536.353 83.991, 536.108 81.705, 533.666 73.703 C 527.706 54.172, 516.237 37.324, 501.054 25.793 C 493.222 19.846, 477.019 11.840, 468 9.461 C 459.040 7.098, 434.795 6.543, 426 8.500 M 433.814 12.019 C 423.412 13.653, 415.591 16.076, 406.388 20.515 C 376.434 34.964, 356.960 66.053, 357.013 99.338 C 357.070 134.537, 379.311 167.216, 412.129 180.320 C 457.465 198.422, 508.339 176.387, 526.355 130.845 C 530.299 120.874, 532 111.148, 532 98.563 C 532 58.307, 505.101 24.128, 465.436 13.984 C 456.674 11.743, 441.551 10.803, 433.814 12.019 M 393.260 75.107 C 381.603 77.050, 374.727 82.626, 374.727 90.136 C 374.727 98.059, 381.039 101.771, 400 104.996 C 414.035 107.383, 418.344 109.271, 418.811 113.238 C 419.487 118.987, 411.441 122.541, 399.500 121.769 C 393.005 121.349, 388.247 119.650, 382.910 115.846 C 381.691 114.977, 380.226 115.130, 376.626 116.505 C 374.045 117.491, 372.091 118.793, 372.285 119.399 C 372.917 121.377, 383.094 126.854, 388.154 127.940 C 390.873 128.523, 397.270 129, 402.368 129 C 417.502 129, 427.490 124.857, 430.663 117.265 C 432.682 112.432, 431.556 108.632, 426.931 104.673 C 422.404 100.798, 419.085 99.675, 406 97.588 C 389.879 95.017, 386.037 92.975, 387.365 87.684 C 388.172 84.468, 390.517 83.137, 397.327 82.028 C 404.141 80.919, 411.422 82.322, 415.669 85.561 C 419.198 88.253, 420.609 88.218, 426.340 85.301 C 429.121 83.886, 429.141 83.814, 427.340 81.822 C 421.664 75.545, 407.442 72.743, 393.260 75.107 M 453.205 75.461 C 434.881 79.629, 430.043 93.536, 444.492 100.505 C 447.323 101.871, 454.529 103.769, 461.068 104.871 C 475.377 107.283, 479.704 108.972, 480.587 112.489 C 483.086 122.449, 458.116 125.627, 445.872 116.909 C 442.958 114.834, 442.754 114.822, 438.438 116.471 C 435.997 117.403, 434 118.575, 434 119.076 C 434 121.008, 442.281 125.854, 448.422 127.516 C 457.673 130.020, 475.390 129.256, 482.773 126.035 C 489.838 122.952, 493 119.094, 493 113.558 C 493 104.730, 486.994 100.972, 467.397 97.535 C 451.698 94.783, 448.740 93.345, 449.191 88.688 C 449.623 84.229, 454.934 81.706, 463.887 81.706 C 470.201 81.706, 474.420 83.115, 480 87.089 C 481.116 87.884, 482.781 87.602, 486.500 85.992 L 491.500 83.826 488.082 80.949 C 486.202 79.368, 482.621 77.377, 480.124 76.526 C 473.482 74.264, 460.694 73.757, 453.205 75.461 M 504 102 L 504 128 509.500 128 L 515 128 515 102 L 515 76 509.500 76 L 504 76 504 102 M 76.667 205.667 C 76.300 206.033, 76 209.858, 76 214.167 L 76 222 67 222 C 59.808 222, 58 222.291, 58 223.449 C 58 224.686, 57.451 224.663, 54.250 223.289 C 51.852 222.261, 46.399 221.511, 39.123 221.210 C 22.030 220.502, 12.580 223.158, 6.155 230.476 C 2.559 234.572, 1.932 240.035, 4.491 244.983 C 6.850 249.545, 16.438 253.636, 30.108 255.913 C 45.205 258.428, 49.680 259.680, 52.053 262.053 C 59.721 269.721, 44.176 277.831, 27.408 274.911 C 22.928 274.130, 19.249 272.686, 15.759 270.338 L 10.659 266.906 5.290 269.085 C 2.337 270.284, 0.087 271.767, 0.289 272.382 C 1.041 274.668, 8.844 279.680, 14.577 281.559 C 22.758 284.240, 44.826 284.326, 53.291 281.710 C 63.379 278.592, 70.111 270.335, 68.510 263.043 C 66.709 254.845, 59.395 250.929, 39.328 247.420 C 23.459 244.645, 19.504 243.201, 17.854 239.578 C 15.254 233.872, 22.295 229.655, 34.500 229.608 C 42.831 229.575, 46.989 230.939, 51.707 235.251 L 53.914 237.267 59.474 235.011 C 62.532 233.769, 65.278 232.359, 65.576 231.877 C 65.874 231.395, 68.302 231, 70.972 231 L 75.825 231 76.163 251.750 C 76.545 275.287, 77.011 276.952, 84.361 281.083 C 91.488 285.088, 114.655 285.035, 115.708 281.010 C 116.159 279.285, 116.417 279.301, 120.841 281.332 C 124.835 283.166, 127.357 283.473, 138.500 283.486 C 153.212 283.502, 157.519 282.534, 164.928 277.548 C 169.769 274.291, 170.001 274.235, 170.014 276.318 C 170.051 282.314, 170.813 283, 177.431 283 L 183.629 283 183.314 271.500 C 183.141 265.175, 182.863 254.930, 182.695 248.732 C 182.336 235.522, 180.524 231.088, 173.658 226.624 C 166.234 221.798, 160.296 220.701, 144.579 221.252 C 131.326 221.717, 125.546 222.803, 116.750 226.482 C 115.344 227.070, 115 226.702, 115 224.607 L 115 222 102.500 222 L 90 222 90 213.500 L 90 205 83.667 205 C 80.183 205, 77.033 205.300, 76.667 205.667 M 199.709 205.624 C 199.319 206.014, 199 209.858, 199 214.167 L 199 222 190 222 L 181 222 181 226.500 L 181 231 190 231 L 199 231 199 250.788 C 199 269.338, 199.141 270.852, 201.250 274.980 C 204.740 281.812, 208.951 283.500, 222.500 283.500 C 236.667 283.500, 239 282.873, 239 279.063 C 239 274.348, 238.128 273.003, 235.665 273.921 C 231.249 275.566, 224.008 276.079, 220.091 275.024 C 213.312 273.199, 213 272.110, 213 250.277 L 213 231 225.500 231 L 238 231 238 226.500 L 238 222 225.540 222 L 213.081 222 212.790 213.750 L 212.500 205.500 206.459 205.208 C 203.136 205.047, 200.099 205.234, 199.709 205.624 M 260.348 222.420 C 252.720 224.270, 244.145 228.802, 239.534 233.419 C 221.832 251.145, 232.987 275.847, 261.750 282.618 C 271.262 284.856, 290.107 284.027, 298.799 280.986 C 305.072 278.792, 314.097 273.404, 314.688 271.500 C 314.858 270.950, 312.801 269.266, 310.115 267.758 C 305.735 265.298, 305.098 265.177, 303.929 266.586 C 301.689 269.285, 293.050 273.097, 285.700 274.630 C 269.775 277.950, 253.088 271.836, 247.506 260.637 L 244.946 255.500 281.973 255.238 L 319 254.976 319 251.669 C 319 237.594, 307.526 225.826, 290.201 222.130 C 283.331 220.665, 266.926 220.824, 260.348 222.420 M 135.317 230.438 C 131.917 231.213, 127.014 232.785, 124.422 233.931 L 119.710 236.016 116.422 233.508 C 113.349 231.165, 112.374 231, 101.567 231 L 90 231 90 250.277 C 90 272.079, 90.319 273.201, 97.026 275.007 C 99.201 275.593, 103.181 275.780, 105.872 275.423 L 110.764 274.774 109.388 272.137 C 106.405 266.420, 108.262 259.482, 114.085 254.582 C 120.806 248.926, 132.233 246.279, 153.989 245.337 C 167.963 244.733, 169 244.554, 169 242.745 C 169 238.643, 165.845 234.103, 161.549 232.024 C 155.912 229.295, 143.597 228.550, 135.317 230.438 M 266.387 230.347 C 259.299 232.156, 250.933 237.069, 248.250 241 C 244.019 247.197, 243.139 247, 275 247 C 302.561 247, 304 246.908, 304 245.148 C 304 240.372, 296.266 233.019, 289.118 230.999 C 283.007 229.272, 271.855 228.952, 266.387 230.347 M 143.106 254.082 C 129.879 255.795, 123 259.709, 123 265.519 C 123 271.572, 130.426 275.314, 142.500 275.345 C 158.993 275.387, 169 268.246, 169 256.435 L 169 253 159.250 253.127 C 153.887 253.197, 146.623 253.626, 143.106 254.082 M 562 293.500 C 562 295.056, 562.567 296, 563.500 296 C 564.433 296, 565 295.056, 565 293.500 C 565 291.944, 564.433 291, 563.500 291 C 562.567 291, 562 291.944, 562 293.500 M 621 305.500 C 621 317.722, 621.236 320, 622.500 320 C 623.764 320, 624 317.722, 624 305.500 C 624 293.278, 623.764 291, 622.500 291 C 621.236 291, 621 293.278, 621 305.500 M 628 293.500 C 628 295.056, 628.567 296, 629.500 296 C 630.433 296, 631 295.056, 631 293.500 C 631 291.944, 630.433 291, 629.500 291 C 628.567 291, 628 291.944, 628 293.500 M 639.230 292.042 C 637.834 292.601, 636.727 294.115, 636.355 295.975 C 636.022 297.639, 635.131 299, 634.375 299 C 633.619 299, 633 299.675, 633 300.500 C 633 301.325, 633.657 302, 634.461 302 C 635.609 302, 635.984 303.874, 636.211 310.750 C 636.442 317.733, 636.803 319.500, 638 319.500 C 639.197 319.500, 639.558 317.733, 639.789 310.750 C 640.051 302.823, 640.262 302, 642.039 302 C 643.118 302, 644 301.325, 644 300.500 C 644 299.667, 643.111 299, 642 299 C 640.667 299, 640 298.333, 640 297 C 640 295.643, 640.667 295, 642.073 295 C 643.471 295, 644.041 294.457, 643.823 293.333 C 643.418 291.243, 642.131 290.881, 639.230 292.042 M 682.500 291.806 C 681.400 292.031, 679.938 292.672, 679.250 293.230 C 677.661 294.520, 677.623 300.223, 679.193 301.793 C 680.118 302.718, 679.805 303.608, 677.806 305.743 C 674.460 309.317, 673.591 312.366, 675.108 315.212 C 677.736 320.146, 682.530 321.329, 688.141 318.427 C 690.906 316.997, 691.339 316.997, 692.920 318.427 C 694.738 320.073, 697.016 320.535, 696.978 319.250 C 696.966 318.837, 696.108 317.398, 695.073 316.051 C 693.747 314.325, 693.349 312.626, 693.726 310.301 C 694.149 307.697, 693.917 307, 692.631 307 C 691.734 307, 691 307.777, 691 308.727 C 691 310.123, 690.482 309.937, 688.300 307.755 L 685.600 305.055 687.925 302.580 C 692.902 297.282, 689.430 290.387, 682.500 291.806 M 502 296 C 502 298.333, 501.556 299, 500 299 C 498.889 299, 498 299.667, 498 300.500 C 498 301.333, 498.889 302, 500 302 C 501.841 302, 502 302.667, 502 310.393 C 502 319.206, 502.420 320, 507.082 320 C 509.619 320, 509.554 317.378, 507 316.710 C 505.237 316.249, 505 315.346, 505 309.094 C 505 302.667, 505.188 302, 507 302 C 508.111 302, 509 301.333, 509 300.500 C 509 299.667, 508.111 299, 507 299 C 505.444 299, 505 298.333, 505 296 C 505 294, 504.500 293, 503.500 293 C 502.500 293, 502 294, 502 296 M 552 296 C 552 298, 551.500 299, 550.500 299 C 549.675 299, 549 299.675, 549 300.500 C 549 301.325, 549.675 302, 550.500 302 C 551.709 302, 552 303.558, 552 310.021 C 552 317.551, 552.149 318.111, 554.436 319.153 C 556.956 320.301, 560 319.751, 560 318.148 C 560 317.645, 559.100 316.998, 558 316.710 C 556.237 316.249, 556 315.346, 556 309.094 C 556 302.667, 556.188 302, 558 302 C 559.111 302, 560 301.333, 560 300.500 C 560 299.667, 559.111 299, 558 299 C 556.444 299, 556 298.333, 556 296 C 556 293.667, 555.556 293, 554 293 C 552.444 293, 552 293.667, 552 296 M 818 296 C 818 298.807, 817.756 299, 814.200 299 C 812.110 299, 809.860 299.540, 809.200 300.200 C 808.267 301.133, 808 301.133, 808 300.200 C 808 299.540, 807.084 299, 805.965 299 C 804.032 299, 803.944 299.515, 804.215 309.250 C 804.446 317.568, 804.783 319.500, 806 319.500 C 807.151 319.500, 807.616 317.796, 808 312.168 C 808.552 304.069, 810.015 302, 815.191 302 L 818 302 818 309.800 C 818 318.137, 818.858 320, 822.700 320 C 825.533 320, 825.767 317.434, 823 316.710 C 821.237 316.249, 821 315.346, 821 309.094 C 821 302.667, 821.188 302, 823 302 C 824.100 302, 825.023 301.438, 825.050 300.750 C 825.078 300.063, 826.895 303.940, 829.089 309.367 C 832.839 318.647, 832.983 319.376, 831.515 321.617 C 830.656 322.928, 829.289 324, 828.477 324 C 827.665 324, 827 324.675, 827 325.500 C 827 327.593, 831.314 327.416, 833.281 325.242 C 834.662 323.716, 837.211 317.533, 842.556 302.750 C 843.796 299.318, 843.761 299, 842.141 299 C 840.851 299, 839.736 300.835, 838.040 305.750 C 836.759 309.462, 835.424 312.829, 835.074 313.231 C 834.724 313.633, 833.186 310.595, 831.656 306.481 L 828.874 299 824.937 299 C 821.229 299, 821 298.825, 821 296 C 821 294, 820.500 293, 819.500 293 C 818.500 293, 818 294, 818 296 M 681.392 296.422 C 680.766 298.053, 682.612 302, 684 302 C 685.388 302, 687.234 298.053, 686.608 296.422 C 686.308 295.640, 685.135 295, 684 295 C 682.865 295, 681.692 295.640, 681.392 296.422 M 451.750 299.447 C 450.238 300.236, 449 300.458, 449 299.941 C 449 299.423, 448.325 299, 447.500 299 C 446.238 299, 446 301.222, 446 313 C 446 324.778, 446.238 327, 447.500 327 C 448.636 327, 449 325.771, 449 321.943 C 449 316.918, 449.014 316.896, 451.223 318.443 C 457.073 322.541, 465 317.699, 465 310.027 C 465 304.851, 462.924 300.742, 459.528 299.195 C 456.166 297.663, 455.104 297.697, 451.750 299.447 M 485 298.669 C 477.678 301.527, 475.764 311.855, 481.495 317.586 C 485.206 321.297, 492.370 320.540, 495.679 316.087 C 498.747 311.958, 497.752 303.525, 493.810 300.256 C 491.995 298.751, 487.065 297.863, 485 298.669 M 516.465 298.952 C 511.866 300.816, 509.434 307.185, 511.043 313.158 C 512.274 317.732, 515.262 320.011, 519.973 319.968 C 523.863 319.933, 526.074 318.625, 527.837 315.316 C 529.412 312.358, 529.321 312, 527 312 C 525.900 312, 525 312.659, 525 313.465 C 525 317.120, 517.890 318.108, 515.557 314.777 C 512.654 310.633, 513.442 310, 521.500 310 C 529.696 310, 529.881 309.827, 527.865 304.042 C 527.095 301.834, 525.656 300.336, 523.397 299.392 C 519.643 297.824, 519.301 297.802, 516.465 298.952 M 537 298.669 C 526.620 302.720, 528.645 320, 539.500 320 C 543.336 320, 548 316.458, 548 313.545 C 548 311.232, 546.040 311.680, 543.821 314.500 C 539.796 319.618, 534 316.284, 534 308.850 C 534 306.039, 534.635 304.645, 536.635 303.073 C 539.996 300.429, 540.601 300.467, 543.412 303.500 C 545.972 306.262, 548 306.753, 548 304.611 C 548 300.752, 541.147 297.050, 537 298.669 M 574.750 299.422 C 573.237 300.225, 572 300.458, 572 299.941 C 572 299.423, 571.325 299, 570.500 299 C 569.262 299, 569 300.833, 569 309.500 C 569 318.167, 569.262 320, 570.500 320 C 571.672 320, 572.003 318.632, 572.015 313.750 C 572.035 305.319, 573.542 302.500, 578.030 302.500 L 581.500 302.500 582 310.990 C 582.415 318.044, 582.796 319.537, 584.250 319.813 C 585.805 320.110, 586 319.204, 586 311.684 C 586 305.079, 585.616 302.768, 584.250 301.153 C 581.880 298.353, 578.073 297.659, 574.750 299.422 M 594.500 298.945 C 590.518 300.575, 588.615 303.833, 588.615 309.022 C 588.615 312.840, 589.153 314.534, 590.982 316.481 C 593.504 319.166, 598.513 319.866, 601.968 318.017 C 603.543 317.174, 603.726 317.352, 603.257 319.267 C 602.378 322.861, 600.971 324, 597.413 324 C 595.094 324, 593.743 323.388, 593 322 C 591.799 319.756, 589 319.284, 589 321.326 C 589 322.055, 590.042 323.630, 591.314 324.826 C 594.309 327.639, 600.822 327.774, 604.139 325.091 C 606.345 323.306, 606.522 322.389, 606.834 311.091 C 607.124 300.585, 606.960 299, 605.584 299 C 604.713 299, 604 299.423, 604 299.941 C 604 300.458, 602.763 300.236, 601.250 299.447 C 598.163 297.837, 597.355 297.777, 594.500 298.945 M 649.110 299.355 C 645.773 301.261, 644.077 304.761, 644.035 309.827 C 643.964 318.532, 653.709 323.382, 659.545 317.545 C 662.239 314.852, 662.789 312, 660.615 312 C 659.853 312, 658.493 313.125, 657.592 314.500 C 655.422 317.812, 651.738 317.754, 649.073 314.365 C 647.933 312.916, 647 311.341, 647 310.865 C 647 310.389, 650.375 310, 654.500 310 L 662 310 662 307.056 C 662 300.929, 654.352 296.360, 649.110 299.355 M 714.750 299.422 C 713.237 300.225, 712 300.458, 712 299.941 C 712 299.423, 711.325 299, 710.500 299 C 709.238 299, 709 301.222, 709 313 C 709 324.778, 709.238 327, 710.500 327 C 711.611 327, 712 325.833, 712 322.500 C 712 318.274, 713.100 316.734, 714.500 319 C 715.725 320.982, 721.995 320.096, 724.505 317.586 C 732.643 309.448, 724.485 294.257, 714.750 299.422 M 746.476 299.396 C 740.358 302.061, 738.914 312.068, 743.923 317.077 C 750.346 323.500, 760 318.957, 760 309.511 C 760 303.587, 758.677 301.181, 754.452 299.415 C 750.401 297.723, 750.316 297.723, 746.476 299.396 M 768.750 299.447 C 767.237 300.236, 766 300.458, 766 299.941 C 766 299.423, 765.325 299, 764.500 299 C 763.238 299, 763 301.222, 763 313 C 763 324.778, 763.238 327, 764.500 327 C 765.636 327, 766 325.771, 766 321.943 C 766 316.918, 766.014 316.896, 768.223 318.443 C 773.718 322.293, 780.712 318.567, 781.691 311.267 C 782.465 305.499, 780.494 301.105, 776.360 299.377 C 772.295 297.679, 772.137 297.680, 768.750 299.447 M 789.357 298.954 C 786.007 300.365, 784 304.050, 784 308.788 C 784 316.242, 787.054 319.916, 793.295 319.968 C 797.338 320.002, 802 316.562, 802 313.545 C 802 311.158, 799.415 311.718, 797.592 314.500 C 794.877 318.644, 789.045 317.340, 787.534 312.250 C 786.881 310.054, 787.049 310, 794.563 310 L 802.262 310 801.663 306.310 C 801.333 304.280, 800.261 301.816, 799.279 300.834 C 797.097 298.653, 792.252 297.734, 789.357 298.954 M 468 309.500 C 468 318.167, 468.262 320, 469.500 320 C 470.676 320, 471 318.626, 471 313.635 C 471 306.996, 473.393 302, 476.573 302 C 477.358 302, 478 301.325, 478 300.500 C 478 298.760, 475.710 298.549, 472.934 300.035 C 471.601 300.749, 471 300.749, 471 300.035 C 471 299.466, 470.325 299, 469.500 299 C 468.262 299, 468 300.833, 468 309.500 M 562 309.500 C 562 318.167, 562.262 320, 563.500 320 C 564.738 320, 565 318.167, 565 309.500 C 565 300.833, 564.738 299, 563.500 299 C 562.262 299, 562 300.833, 562 309.500 M 628 309.500 C 628 318.167, 628.262 320, 629.500 320 C 630.738 320, 631 318.167, 631 309.500 C 631 300.833, 630.738 299, 629.500 299 C 628.262 299, 628 300.833, 628 309.500 M 731 309.500 C 731 318.167, 731.262 320, 732.500 320 C 733.690 320, 734 318.556, 734 313 C 734 307.333, 734.381 305.619, 736 304 C 737.100 302.900, 738.675 302, 739.500 302 C 740.325 302, 741 301.325, 741 300.500 C 741 298.760, 738.710 298.549, 735.934 300.035 C 734.601 300.749, 734 300.749, 734 300.035 C 734 299.466, 733.325 299, 732.500 299 C 731.262 299, 731 300.833, 731 309.500 M 453.043 302.273 C 450.315 303.653, 448.983 307.193, 449.759 311 C 451.383 318.966, 459.505 318.868, 461.503 310.858 C 462.259 307.829, 459.960 302.582, 457.455 301.621 C 455.481 300.864, 455.970 300.791, 453.043 302.273 M 484.635 303.073 C 479.813 306.866, 481.939 317, 487.557 317 C 493.693 317, 496.286 308.195, 491.545 303.455 C 488.561 300.470, 487.984 300.438, 484.635 303.073 M 594.635 303.073 C 590.023 306.700, 592.014 316, 597.402 316 C 602.667 316, 605.124 307.124, 601 303 C 598.500 300.500, 597.897 300.507, 594.635 303.073 M 714.517 303.392 C 711.417 306.492, 711.244 310.769, 714.073 314.365 C 718.151 319.550, 724 316.603, 724 309.362 C 724 302.193, 718.916 298.993, 714.517 303.392 M 748.372 302.058 C 745.759 303.025, 743.601 308.141, 744.527 311.176 C 746.381 317.249, 751.439 318.800, 754.927 314.365 C 759.721 308.272, 755.087 299.574, 748.372 302.058 M 770.235 302.037 C 765.870 303.790, 765.033 311.145, 768.733 315.250 C 771.906 318.771, 776.957 316.619, 778.283 311.182 C 779.029 308.123, 777.254 303.206, 774.961 301.979 C 772.862 300.856, 773.184 300.852, 770.235 302.037 M 515.655 303.829 C 513.118 306.632, 513.565 307, 519.500 307 C 525.389 307, 525.547 306.891, 523.965 303.934 C 522.632 301.444, 517.868 301.384, 515.655 303.829 M 649.245 303.155 C 646.551 305.849, 647.861 307, 653.622 307 C 659.226 307, 659.239 306.993, 657.758 304.750 C 656.068 302.189, 651.135 301.265, 649.245 303.155 M 788.570 304.194 L 786.948 306.500 792.085 306.806 C 797.879 307.151, 798.896 306.650, 797.364 304.202 C 795.651 301.466, 790.492 301.462, 788.570 304.194 M 680.164 308.062 C 678.974 309.171, 678 311.170, 678 312.504 C 678 316.694, 684.296 318.562, 687.252 315.250 C 688.686 313.643, 688.548 313.195, 685.571 309.773 L 682.328 306.046 680.164 308.062" stroke="none" fill="#afb0b5" fill-rule="evenodd"/></svg>