<svg version="1.1" id="Layer_1" xmlns="http://www.w3.org/2000/svg" xmlns:xlink="http://www.w3.org/1999/xlink" x="0px" y="0px"
	 width="100%" viewBox="0 0 295 52" enable-background="new 0 0 295 52" xml:space="preserve">
<path fill="#47704C" opacity="1.000000" stroke="none" 
	d="
M296.000000,33.000000 
	C296.000000,39.656239 296.000000,46.312473 296.000000,53.000000 
	C209.645767,53.000000 123.291542,53.000000 36.653053,52.709045 
	C40.245575,49.615475 44.122353,46.812855 48.169411,43.872257 
	C48.561802,43.522224 48.685890,43.263206 48.930202,42.674377 
	C55.150913,34.532078 55.570248,22.392460 50.825760,13.729930 
	C47.402222,7.479187 41.505634,4.575353 36.000000,1.000000 
	C122.666679,1.000000 209.333359,1.000000 296.000000,1.000000 
	C296.000000,6.745190 296.000000,12.402886 295.609558,18.490927 
	C290.868225,18.479473 286.331482,17.080065 282.221100,17.877741 
	C278.460785,18.607485 275.416687,19.027706 271.705322,17.594887 
	C269.355988,16.687901 266.246582,17.662333 263.491699,17.932043 
	C262.214386,18.057096 260.941772,18.859665 259.714600,18.761354 
	C253.847641,18.291334 248.005859,17.433687 242.134064,17.150898 
	C240.730759,17.083313 239.246765,18.690903 237.386581,19.767157 
	C232.473007,16.003595 226.584991,17.078308 220.366165,18.075130 
	C217.495422,18.535286 213.526566,17.211941 211.280334,15.276123 
	C208.156998,12.584444 205.652161,12.135289 202.825119,15.434999 
	C201.893570,16.522314 200.112259,17.432928 198.701828,17.458757 
	C193.810257,17.548336 188.890472,17.429285 184.021347,16.968061 
	C180.470581,16.631714 178.408279,17.988430 177.079086,21.097113 
	C176.224701,23.095373 175.184219,25.014069 174.227127,26.968426 
	C173.803436,27.266138 173.379745,27.563850 172.956055,27.861563 
	C170.567764,16.192444 162.442444,16.208578 153.965988,17.025253 
	C152.331985,17.182682 150.492355,17.224415 149.163177,18.016724 
	C147.495193,19.010988 146.255585,20.723877 144.554779,21.924477 
	C139.653427,17.126713 134.328888,16.691326 128.230408,18.350718 
	C124.281799,19.425131 120.051842,19.726173 117.597939,14.829431 
	C117.271843,14.178710 114.704010,14.651396 113.174347,14.603818 
	C113.255905,18.757854 109.638397,18.377579 107.450951,18.502884 
	C102.105957,18.809059 96.705063,18.522402 91.351456,18.133308 
	C88.684525,17.939478 84.946808,19.070766 84.357513,14.444601 
	C84.344009,14.338608 80.704681,14.277925 80.607979,14.662118 
	C79.335999,19.715372 75.436066,17.637379 72.445679,17.858248 
	C70.348961,18.013107 67.973473,17.384619 66.203751,18.178631 
	C64.228661,19.064791 62.797935,21.164259 61.130283,22.735643 
	C62.752495,24.389215 64.115227,26.533121 66.066139,27.565548 
	C68.240974,28.716471 70.950577,28.856882 73.427406,29.437145 
	C73.335793,30.138712 73.244179,30.840279 73.152565,31.541847 
	C68.942162,31.265808 64.731758,30.989771 60.521351,30.713734 
	C66.122505,36.939079 72.931046,36.901676 78.350708,33.037132 
	C82.668777,33.950787 85.740646,34.738216 88.860535,35.204071 
	C90.469170,35.444271 92.162598,35.071686 93.818771,35.047066 
	C98.370323,34.979401 102.934128,35.106522 107.464272,34.769394 
	C108.351944,34.703331 109.645470,32.981560 109.818733,31.877060 
	C110.201530,29.436743 109.846680,26.888794 110.095612,24.415232 
	C110.189102,23.486341 111.122108,22.641941 111.672371,21.759022 
	C112.110962,21.913418 112.549545,22.067814 112.988136,22.222210 
	C112.988136,24.179323 112.965652,26.136745 112.992294,28.093494 
	C113.077782,34.372509 116.083061,36.612404 122.233772,35.139229 
	C124.060493,34.701706 126.211166,33.910007 127.794380,34.468487 
	C133.557739,36.501522 138.796234,35.390121 144.306152,32.993301 
	C149.500275,36.297314 154.869293,36.068481 159.961304,34.534466 
	C162.363800,33.810692 164.179474,31.138964 166.263840,29.347475 
	C171.071655,35.599400 170.963516,35.684544 163.035599,38.194267 
	C161.736771,38.605434 160.964264,40.679176 159.832169,42.134022 
	C175.570465,47.246296 176.690048,33.330513 182.742966,26.396606 
	C186.746490,27.530462 190.591858,28.619524 195.008743,29.870449 
	C190.750381,32.965366 185.363861,25.689192 182.006393,33.137913 
	C184.764191,33.917347 187.440140,34.673649 190.373016,35.567070 
	C191.178894,36.119995 191.727859,36.535793 193.092468,37.569374 
	C189.284637,37.878021 186.523529,38.203297 183.754181,38.305603 
	C177.602661,38.532856 176.560272,40.315697 179.161682,46.395584 
	C182.750763,45.437447 185.959854,41.860416 190.140915,44.832275 
	C190.453339,45.054352 191.110199,44.755829 191.606293,44.761028 
	C197.507950,44.822937 203.414841,45.056206 209.307373,44.858059 
	C210.834488,44.806705 212.316528,43.414322 213.882767,42.605114 
	C213.726715,42.189442 213.760941,42.818268 214.077927,43.036579 
	C215.953659,44.328434 217.895020,45.524994 219.814301,46.753616 
	C220.512375,44.755638 221.713501,42.778072 221.795609,40.755096 
	C221.933334,37.361565 219.133621,38.493408 217.102188,38.165211 
	C215.148483,37.849567 213.332321,36.682514 211.497711,35.873154 
	C211.539688,35.856747 211.573151,35.940460 211.874786,35.913261 
	C212.746582,35.731644 213.316727,35.577221 214.231476,35.282276 
	C218.429764,32.470051 222.209869,34.760914 225.737671,35.556480 
	C225.099289,38.436153 224.337982,41.122345 224.665909,43.668243 
	C224.746017,44.290348 228.387772,44.506435 230.407547,44.803112 
	C231.376266,44.945404 232.471710,45.094589 233.347290,44.783459 
	C234.466492,44.385754 236.094467,43.676945 236.284119,42.829418 
	C236.544846,41.664261 236.038651,39.869995 235.187927,39.015198 
	C233.717041,37.537247 231.728699,36.574287 230.348480,35.270195 
	C236.009827,34.870502 241.280136,34.595901 247.012939,34.297199 
	C247.012939,31.629229 247.127960,29.154131 246.982910,26.694366 
	C246.813660,23.824282 248.164886,21.738743 250.825058,22.318993 
	C252.450150,22.673462 254.296997,24.980661 254.804047,26.763535 
	C255.486420,29.162922 254.973312,31.902302 254.973312,34.574963 
	C257.702148,34.574963 259.583374,34.574963 262.023773,34.574963 
	C262.023773,31.726267 261.420288,29.048788 262.207062,26.874348 
	C262.885468,24.999395 265.146973,23.697235 266.708557,22.141840 
	C267.801636,23.658840 269.485382,25.047754 269.848663,26.723001 
	C270.386658,29.203913 269.987793,31.887981 269.987793,35.078014 
	C274.537720,35.078014 278.316772,35.342243 282.042969,35.011238 
	C286.717957,34.595951 291.349640,33.692673 296.000000,33.000000 
M260.565277,44.875778 
	C262.775574,46.174843 273.904877,44.599285 275.454590,42.935028 
	C277.178040,44.331501 278.886505,45.715828 281.300629,47.671932 
	C282.649902,44.212776 283.659882,41.623466 284.675507,39.019714 
	C281.497345,38.309963 279.200714,37.360100 276.906158,37.365139 
	C269.498474,37.381413 262.092834,37.811836 254.683990,37.963142 
	C247.650070,38.106789 247.197647,38.633762 248.538666,45.407925 
	C252.398956,45.224598 256.177002,45.045181 260.565277,44.875778 
M242.330231,36.392479 
	C237.202209,36.074757 240.343643,40.682640 238.720581,42.452606 
	C240.755768,43.414246 242.790939,44.375885 244.826126,45.337524 
	C245.170746,44.865353 245.515381,44.393185 245.860016,43.921017 
	C244.878220,41.540585 243.896408,39.160152 242.330231,36.392479 
z"/>
<path fill="#0177C0" opacity="1.000000" stroke="none" 
	d="
M211.573151,35.940460 
	C211.573151,35.940460 211.539688,35.856747 211.167984,35.699211 
	C210.556702,35.478584 210.317108,35.415489 209.763245,35.242569 
	C207.321411,34.238403 205.193848,33.344070 203.267868,32.534477 
	C200.331146,33.435364 197.148453,34.411701 193.582489,35.384789 
	C192.171509,35.397675 191.143799,35.413815 190.116089,35.429947 
	C187.440140,34.673649 184.764191,33.917347 182.006393,33.137913 
	C185.363861,25.689192 190.750381,32.965366 195.008743,29.870449 
	C190.591858,28.619524 186.746490,27.530462 182.742966,26.396606 
	C176.690048,33.330513 175.570465,47.246296 159.832169,42.134022 
	C160.964264,40.679176 161.736771,38.605434 163.035599,38.194267 
	C170.963516,35.684544 171.071655,35.599400 166.263840,29.347475 
	C164.179474,31.138964 162.363800,33.810692 159.961304,34.534466 
	C154.869293,36.068481 149.500275,36.297314 144.318787,32.692360 
	C144.054901,31.806620 144.105057,31.408085 144.503555,30.964813 
	C147.080414,30.748150 149.306717,30.533148 151.538193,30.419209 
	C153.064041,30.341299 154.597076,30.404291 156.126907,30.404291 
	C156.108902,30.105108 156.090912,29.805927 156.072922,29.506744 
	C152.759674,28.662325 149.446426,27.817905 146.056168,26.618179 
	C145.596466,24.884127 145.213776,23.505377 144.831085,22.126629 
	C146.255585,20.723877 147.495193,19.010988 149.163177,18.016724 
	C150.492355,17.224415 152.331985,17.182682 153.965988,17.025253 
	C162.442444,16.208578 170.567764,16.192444 172.956055,27.861563 
	C173.379745,27.563850 173.803436,27.266138 174.227127,26.968426 
	C175.184219,25.014069 176.224701,23.095373 177.079086,21.097113 
	C178.408279,17.988430 180.470581,16.631714 184.021347,16.968061 
	C188.890472,17.429285 193.810257,17.548336 198.701828,17.458757 
	C200.112259,17.432928 201.893570,16.522314 202.825119,15.434999 
	C205.652161,12.135289 208.156998,12.584444 211.280334,15.276123 
	C213.526566,17.211941 217.495422,18.535286 220.366165,18.075130 
	C226.584991,17.078308 232.473007,16.003595 237.386581,19.767157 
	C239.246765,18.690903 240.730759,17.083313 242.134064,17.150898 
	C248.005859,17.433687 253.847641,18.291334 259.714600,18.761354 
	C260.941772,18.859665 262.214386,18.057096 263.491699,17.932043 
	C266.246582,17.662333 269.355988,16.687901 271.705322,17.594887 
	C275.416687,19.027706 278.460785,18.607485 282.221100,17.877741 
	C286.331482,17.080065 290.868225,18.479473 295.609558,18.960636 
	C296.000000,19.444445 296.000000,19.888889 295.664368,20.803238 
	C292.048615,21.758093 288.768494,22.243044 284.756317,22.836229 
	C288.927826,24.010015 292.463928,25.005005 296.000000,25.999996 
	C296.000000,28.041666 296.000000,30.083334 296.000000,32.562500 
	C291.349640,33.692673 286.717957,34.595951 282.042969,35.011238 
	C278.316772,35.342243 274.537720,35.078014 269.987793,35.078014 
	C269.987793,31.887981 270.386658,29.203913 269.848663,26.723001 
	C269.485382,25.047754 267.801636,23.658840 266.708557,22.141840 
	C265.146973,23.697235 262.885468,24.999395 262.207062,26.874348 
	C261.420288,29.048788 262.023773,31.726267 262.023773,34.574963 
	C259.583374,34.574963 257.702148,34.574963 254.973312,34.574963 
	C254.973312,31.902302 255.486420,29.162922 254.804047,26.763535 
	C254.296997,24.980661 252.450150,22.673462 250.825058,22.318993 
	C248.164886,21.738743 246.813660,23.824282 246.982910,26.694366 
	C247.127960,29.154131 247.012939,31.629229 247.012939,34.297199 
	C241.280136,34.595901 236.009827,34.870502 229.955566,35.258656 
	C228.119659,35.351917 227.067719,35.331635 226.015778,35.311348 
	C222.209869,34.760914 218.429764,32.470051 213.934265,35.292801 
	C212.719345,35.609383 212.146255,35.774921 211.573151,35.940460 
M214.702728,29.021626 
	C214.703003,26.470497 216.589783,22.899960 211.023499,22.938372 
	C212.042847,25.433132 208.306686,29.526569 214.702728,29.021626 
z"/>
<path fill="#097CC2" opacity="1.000000" stroke="none" 
	d="
M47.999130,44.010235 
	C44.122353,46.812855 40.245575,49.615475 36.184395,52.709045 
	C30.311960,53.000000 24.623919,53.000000 18.284317,52.709595 
	C14.394893,49.964333 11.157031,47.509472 8.317421,45.044624 
	C9.776628,45.060307 10.837584,45.085983 11.986645,45.289886 
	C12.422793,45.595528 12.770839,45.722942 13.118883,45.850353 
	C12.792971,45.523228 12.467058,45.196102 12.028605,44.561539 
	C10.845850,42.985641 9.775638,41.717190 7.942289,39.544239 
	C7.942289,42.298546 7.942289,43.687569 7.646354,44.914642 
	C5.233612,41.835133 3.116806,38.917568 0.999999,36.000000 
	C1.000000,30.311960 1.000000,24.623919 1.289945,18.285191 
	C3.860450,14.696898 6.141011,11.759296 8.632280,9.073441 
	C9.187428,9.857279 9.531865,10.389368 9.735302,11.034752 
	C9.518242,11.482211 9.442183,11.816377 9.366126,12.150542 
	C9.630988,11.822719 9.895851,11.494894 10.416979,11.074796 
	C11.203196,10.532416 11.733148,10.082312 12.817832,9.161056 
	C10.858374,8.966478 9.653859,8.846869 8.571104,8.397066 
	C12.128576,5.711249 15.564288,3.355624 19.000000,1.000000 
	C24.354929,1.000000 29.709860,1.000000 35.532394,1.000000 
	C41.505634,4.575353 47.402222,7.479187 50.825760,13.729930 
	C55.570248,22.392460 55.150913,34.532078 48.758209,42.679626 
	C48.367970,42.967712 48.023842,42.977573 48.054321,42.615334 
	C48.792736,39.471142 49.500675,36.689190 50.362144,33.704529 
	C50.812695,32.760906 51.109715,32.019993 51.406734,31.279081 
	C50.913879,31.214550 50.421024,31.150019 49.928169,31.085487 
	C49.928169,32.069965 49.928169,33.054440 49.700756,34.280617 
	C45.648846,39.014828 41.824345,43.507339 37.729195,48.080101 
	C36.972343,48.440186 36.486145,48.720016 35.769150,49.021751 
	C35.142143,49.232037 34.745930,49.420422 34.349720,49.608807 
	C34.496658,49.817364 34.643597,50.025925 34.790531,50.234486 
	C35.193737,49.823071 35.596947,49.411655 36.213879,49.044559 
	C36.951786,48.725967 37.475971,48.363060 38.273689,48.038368 
	C41.690735,46.393276 44.834244,44.709969 47.980461,43.272610 
	C47.983170,43.518562 47.999130,44.010235 47.999130,44.010235 
M43.966530,8.825858 
	C43.966530,8.825858 43.882999,9.055127 43.925556,9.772151 
	C45.542641,12.627326 47.159721,15.482501 48.776802,18.337677 
	C49.344803,17.953020 49.912804,17.568365 50.480804,17.183708 
	C48.339249,14.419831 46.197689,11.655954 43.966530,8.825858 
M14.863591,20.589321 
	C12.829142,21.919655 10.794692,23.249990 8.760244,24.580326 
	C10.821692,25.899900 12.797083,27.390965 14.972813,28.482805 
	C16.605906,29.302332 18.496531,29.608669 21.533251,30.523136 
	C18.991564,32.070976 17.661211,32.881138 15.779722,34.026932 
	C19.504410,35.247829 22.245550,34.572079 23.321524,31.725441 
	C24.575895,28.406828 21.542664,27.639782 19.122641,26.968082 
	C16.763678,26.313332 14.365250,25.800768 11.984148,25.225777 
	C12.082542,24.586613 12.180936,23.947449 12.279329,23.308285 
	C15.630970,23.308285 18.982611,23.308285 22.334251,23.308285 
	C22.383055,22.821541 22.431860,22.334795 22.480663,21.848051 
	C20.199617,21.416824 17.918571,20.985600 14.863591,20.589321 
M31.941250,21.684357 
	C32.078228,21.521433 32.215206,21.358509 32.352180,21.195585 
	C32.030529,21.273939 31.662006,21.276773 31.394690,21.442677 
	C29.379608,22.693287 24.929903,20.462080 25.393091,24.563509 
	C25.569885,26.128981 29.465988,27.379267 31.774950,28.562792 
	C33.353840,29.372095 35.119331,29.817358 37.606258,30.716305 
	C35.492424,32.151749 34.403652,32.891102 33.314880,33.630459 
	C33.601986,34.123215 33.889088,34.615974 34.176189,35.108730 
	C36.069351,33.947544 37.962509,32.786358 39.855667,31.625172 
	C38.494438,30.090611 37.404854,28.025679 35.703869,27.154461 
	C33.531269,26.041687 30.865200,25.892366 27.214718,25.052336 
	C29.434322,23.434877 30.458500,22.688543 31.941250,21.684357 
M45.988503,31.945065 
	C45.323277,28.324947 47.471100,24.152666 43.741802,21.013248 
	C42.964573,25.079504 42.544762,29.152287 43.124252,33.077541 
	C43.464184,35.380112 45.186275,35.262890 45.988503,31.945065 
M28.737495,4.951384 
	C28.984823,4.088248 29.232153,3.225113 29.479483,2.361978 
	C27.405926,2.531887 25.332369,2.701796 23.258812,2.871704 
	C23.308392,3.472233 23.357969,4.072761 23.407547,4.673289 
	C24.950197,4.776106 26.492849,4.878922 28.737495,4.951384 
M30.441904,50.760555 
	C28.486450,50.540737 26.530998,50.320915 24.575544,50.101097 
	C24.588207,50.744255 24.600870,51.387413 24.613533,52.030567 
	C26.544981,51.791035 28.476429,51.551502 30.441904,50.760555 
M2.348135,24.895731 
	C2.348135,26.443972 2.348135,27.992214 2.348135,29.540455 
	C2.980156,29.449465 3.612177,29.358473 4.244198,29.267481 
	C3.742238,27.685240 3.240278,26.102997 2.348135,24.895731 
M6.388182,18.170630 
	C6.354552,17.477598 6.320921,16.784567 6.287292,16.091536 
	C5.954461,16.007952 5.621631,15.924367 5.288800,15.840783 
	C4.691466,17.196234 4.094133,18.551687 3.496799,19.907139 
	C4.074961,20.361856 4.653123,20.816574 5.231285,21.271294 
	C5.553134,20.421057 5.874983,19.570822 6.388182,18.170630 
M6.538839,36.428616 
	C5.976573,35.407696 5.414307,34.386780 4.235743,32.246838 
	C4.450469,37.616150 4.450469,37.616150 6.538839,36.428616 
M19.211895,49.765305 
	C19.348112,49.684906 19.509996,49.628365 19.613237,49.517311 
	C19.713808,49.409126 19.754375,49.245152 19.821289,49.105675 
	C18.570610,48.696995 17.319931,48.288315 16.069252,47.879635 
	C15.977301,48.257648 15.885349,48.635662 15.793398,49.013680 
	C16.771168,49.301670 17.748940,49.589661 19.211895,49.765305 
M35.845181,6.214414 
	C36.298725,6.139618 36.752266,6.064822 37.205811,5.990028 
	C36.331249,5.206366 35.456688,4.422704 34.582130,3.639042 
	C34.357655,3.900192 34.133179,4.161341 33.908707,4.422491 
	C34.406166,4.959384 34.903622,5.496278 35.845181,6.214414 
M18.294788,4.473679 
	C18.651331,4.886516 19.007875,5.299353 19.364418,5.712191 
	C19.690689,5.228219 20.016960,4.744247 20.343231,4.260275 
	C19.776367,4.249531 19.209501,4.238786 18.294788,4.473679 
M49.636517,22.212011 
	C50.150681,22.409304 50.664848,22.606596 51.179016,22.803888 
	C51.193459,22.400053 51.207905,21.996220 51.222347,21.592384 
	C50.654938,21.662415 50.087524,21.732445 49.636517,22.212011 
M41.106739,7.817903 
	C40.998646,7.875677 40.890549,7.933452 40.782455,7.991227 
	C40.862255,8.081228 40.942055,8.171229 41.021854,8.261230 
	C41.090767,8.159286 41.159679,8.057344 41.106739,7.817903 
M15.214955,6.167440 
	C14.962321,6.138366 14.709716,6.098615 14.457006,6.097948 
	C14.433628,6.097887 14.409595,6.346380 14.385866,6.479462 
	C14.645361,6.460148 14.904856,6.440835 15.214955,6.167440 
M39.503468,5.529661 
	C39.503468,5.529661 39.490395,5.489108 39.503468,5.529661 
M6.506832,13.528768 
	C6.506832,13.528768 6.490829,13.485723 6.506832,13.528768 
z"/>
<path fill="#47704C" opacity="1.000000" stroke="none" 
	d="
M18.530293,1.000000 
	C15.564288,3.355624 12.128576,5.711249 8.563654,8.420609 
	C8.434443,8.774343 8.421572,8.821693 8.421572,8.821693 
	C6.141011,11.759296 3.860450,14.696898 1.289945,17.817249 
	C1.000000,12.405508 1.000000,6.811016 1.000000,1.000000 
	C6.685597,1.000000 12.373091,1.000000 18.530293,1.000000 
z"/>
<path fill="#47704C" opacity="1.000000" stroke="none" 
	d="
M7.919169,45.054615 
	C11.157031,47.509472 14.394893,49.964333 17.816378,52.709595 
	C12.407914,53.000000 6.815829,53.000000 1.000000,53.000000 
	C1.000000,47.649025 1.000000,42.294968 0.999999,36.470451 
	C3.116806,38.917568 5.233612,41.835133 7.668626,44.879471 
	C7.986833,45.006248 7.919170,45.054615 7.919169,45.054615 
z"/>
<path fill="#47704C" opacity="1.000000" stroke="none" 
	d="
M296.000000,25.583332 
	C292.463928,25.005005 288.927826,24.010015 284.756317,22.836229 
	C288.768494,22.243044 292.048615,21.758093 295.664368,21.136572 
	C296.000000,22.388889 296.000000,23.777779 296.000000,25.583332 
z"/>
<path fill="#909397" opacity="1.000000" stroke="none" 
	d="
M144.155212,31.009550 
	C144.105057,31.408085 144.054901,31.806620 143.992096,32.506096 
	C138.796234,35.390121 133.557739,36.501522 127.794380,34.468487 
	C126.211166,33.910007 124.060493,34.701706 122.233772,35.139229 
	C116.083061,36.612404 113.077782,34.372509 112.992294,28.093494 
	C112.965652,26.136745 112.988136,24.179323 112.988136,22.222210 
	C112.549545,22.067814 112.110962,21.913418 111.672371,21.759022 
	C111.122108,22.641941 110.189102,23.486341 110.095612,24.415232 
	C109.846680,26.888794 110.201530,29.436743 109.818733,31.877060 
	C109.645470,32.981560 108.351944,34.703331 107.464272,34.769394 
	C102.934128,35.106522 98.370323,34.979401 93.818771,35.047066 
	C92.162598,35.071686 90.469170,35.444271 88.860535,35.204071 
	C85.740646,34.738216 82.668777,33.950787 78.350708,33.037132 
	C72.931046,36.901676 66.122505,36.939079 60.521351,30.713734 
	C64.731758,30.989771 68.942162,31.265808 73.152565,31.541847 
	C73.244179,30.840279 73.335793,30.138712 73.427406,29.437145 
	C70.950577,28.856882 68.240974,28.716471 66.066139,27.565548 
	C64.115227,26.533121 62.752495,24.389215 61.130283,22.735643 
	C62.797935,21.164259 64.228661,19.064791 66.203751,18.178631 
	C67.973473,17.384619 70.348961,18.013107 72.445679,17.858248 
	C75.436066,17.637379 79.335999,19.715372 80.607979,14.662118 
	C80.704681,14.277925 84.344009,14.338608 84.357513,14.444601 
	C84.946808,19.070766 88.684525,17.939478 91.351456,18.133308 
	C96.705063,18.522402 102.105957,18.809059 107.450951,18.502884 
	C109.638397,18.377579 113.255905,18.757854 113.174347,14.603818 
	C114.704010,14.651396 117.271843,14.178710 117.597939,14.829431 
	C120.051842,19.726173 124.281799,19.425131 128.230408,18.350718 
	C134.328888,16.691326 139.653427,17.126713 144.554779,21.924475 
	C145.213776,23.505377 145.596466,24.884127 145.722748,26.884571 
	C139.685242,27.764675 133.904160,28.023087 127.371742,28.315083 
	C131.417709,33.328472 135.464752,31.923391 139.633026,30.743967 
	C141.005493,30.355619 142.640335,30.894602 144.155212,31.009550 
M89.320190,27.973997 
	C94.098602,26.124657 98.877014,24.275316 103.655434,22.425976 
	C103.706665,22.095257 103.757904,21.764538 103.809135,21.433819 
	C97.735504,21.738522 91.661880,22.043226 85.072517,22.373802 
	C85.072517,24.507290 84.845612,26.667967 85.167488,28.743536 
	C85.330353,29.793745 86.485085,30.690136 87.191360,31.656067 
	C87.832794,30.676399 88.474228,29.696730 89.320190,27.973997 
M69.826538,21.100674 
	C68.824188,21.563982 67.821846,22.027290 65.860306,22.933958 
	C71.300980,24.555988 75.489693,25.804771 80.001831,27.149981 
	C79.892334,25.766390 79.758865,24.079920 79.690773,23.219507 
	C76.116577,22.401045 73.335831,21.764275 69.826538,21.100674 
M95.062866,30.812212 
	C100.325394,32.891930 102.686333,32.009701 104.287025,25.823959 
	C100.416824,27.594997 97.499985,28.929766 95.062866,30.812212 
M118.498238,22.173882 
	C117.108734,30.189240 117.608643,31.549545 121.588402,31.400108 
	C121.588402,28.815666 121.751328,26.245316 121.477264,23.722435 
	C121.406097,23.067280 119.969002,22.560505 118.498238,22.173882 
M128.682785,22.336180 
	C128.764374,22.842295 128.835770,23.788696 128.929016,23.790857 
	C132.216736,23.867014 135.506516,23.854527 139.903152,23.854527 
	C135.873962,20.039949 132.603043,20.957567 128.682785,22.336180 
z"/>
<path fill="#828589" opacity="1.000000" stroke="none" 
	d="
M210.077515,35.352398 
	C210.317108,35.415489 210.556702,35.478584 211.126007,35.715618 
	C213.332321,36.682514 215.148483,37.849567 217.102188,38.165211 
	C219.133621,38.493408 221.933334,37.361565 221.795609,40.755096 
	C221.713501,42.778072 220.512375,44.755638 219.814301,46.753616 
	C217.895020,45.524994 215.953659,44.328434 214.077927,43.036579 
	C213.760941,42.818268 213.726715,42.189442 213.882767,42.605114 
	C212.316528,43.414322 210.834488,44.806705 209.307373,44.858059 
	C203.414841,45.056206 197.507950,44.822937 191.606293,44.761028 
	C191.110199,44.755829 190.453339,45.054352 190.140915,44.832275 
	C185.959854,41.860416 182.750763,45.437447 179.161682,46.395584 
	C176.560272,40.315697 177.602661,38.532856 183.754181,38.305603 
	C186.523529,38.203297 189.284637,37.878021 193.092468,37.569374 
	C191.727859,36.535793 191.178894,36.119995 190.373016,35.567070 
	C191.143799,35.413815 192.171509,35.397675 193.785583,35.653595 
	C198.487671,39.485649 205.262314,39.238377 210.077515,35.352398 
z"/>
<path fill="#848588" opacity="1.000000" stroke="none" 
	d="
M260.260132,44.870770 
	C256.177002,45.045181 252.398956,45.224598 248.538666,45.407925 
	C247.197647,38.633762 247.650070,38.106789 254.683990,37.963142 
	C262.092834,37.811836 269.498474,37.381413 276.906158,37.365139 
	C279.200714,37.360100 281.497345,38.309963 284.675507,39.019714 
	C283.659882,41.623466 282.649902,44.212776 281.300629,47.671932 
	C278.886505,45.715828 277.178040,44.331501 275.454590,42.935028 
	C273.904877,44.599285 262.775574,46.174843 260.260132,44.870770 
z"/>
<path fill="#82868B" opacity="1.000000" stroke="none" 
	d="
M225.737671,35.556480 
	C227.067719,35.331635 228.119659,35.351917 229.564514,35.383743 
	C231.728699,36.574287 233.717041,37.537247 235.187927,39.015198 
	C236.038651,39.869995 236.544846,41.664261 236.284119,42.829418 
	C236.094467,43.676945 234.466492,44.385754 233.347290,44.783459 
	C232.471710,45.094589 231.376266,44.945404 230.407547,44.803112 
	C228.387772,44.506435 224.746017,44.290348 224.665909,43.668243 
	C224.337982,41.122345 225.099289,38.436153 225.737671,35.556480 
z"/>
<path fill="#838588" opacity="1.000000" stroke="none" 
	d="
M242.622421,36.586098 
	C243.896408,39.160152 244.878220,41.540585 245.860016,43.921017 
	C245.515381,44.393185 245.170746,44.865353 244.826126,45.337524 
	C242.790939,44.375885 240.755768,43.414246 238.720581,42.452606 
	C240.343643,40.682640 237.202209,36.074757 242.622421,36.586098 
z"/>
<path fill="#828589" opacity="1.000000" stroke="none" 
	d="
M211.874786,35.913261 
	C212.146255,35.774921 212.719345,35.609383 213.589661,35.433319 
	C213.316727,35.577221 212.746582,35.731644 211.874786,35.913261 
z"/>
<path fill="#1380C4" opacity="1.000000" stroke="none" 
	d="
M48.023842,42.977573 
	C48.023842,42.977573 48.367970,42.967712 48.539963,42.962467 
	C48.685890,43.263206 48.561802,43.522224 48.169411,43.872257 
	C47.999130,44.010235 47.983170,43.518562 47.991676,43.259727 
	C48.000179,43.000893 48.023842,42.977573 48.023842,42.977573 
z"/>
<path fill="#47704C" opacity="1.000000" stroke="none" 
	d="
M144.503555,30.964813 
	C142.640335,30.894602 141.005493,30.355619 139.633026,30.743967 
	C135.464752,31.923391 131.417709,33.328472 127.371742,28.315083 
	C133.904160,28.023087 139.685242,27.764675 145.799744,27.239874 
	C149.446426,27.817905 152.759674,28.662325 156.072922,29.506744 
	C156.090912,29.805927 156.108902,30.105108 156.126907,30.404291 
	C154.597076,30.404291 153.064041,30.341299 151.538193,30.419209 
	C149.306717,30.533148 147.080414,30.748150 144.503555,30.964813 
z"/>
<path fill="#47704C" opacity="1.000000" stroke="none" 
	d="
M209.763245,35.242569 
	C205.262314,39.238377 198.487671,39.485649 194.168854,35.656845 
	C197.148453,34.411701 200.331146,33.435364 203.267868,32.534477 
	C205.193848,33.344070 207.321411,34.238403 209.763245,35.242569 
z"/>
<path fill="#47704C" opacity="1.000000" stroke="none" 
	d="
M214.451447,29.341141 
	C208.306686,29.526569 212.042847,25.433132 211.023499,22.938372 
	C216.589783,22.899960 214.703003,26.470497 214.451447,29.341141 
z"/>
<path fill="#D9EAF6" opacity="1.000000" stroke="none" 
	d="
M15.250559,20.571848 
	C17.918571,20.985600 20.199617,21.416824 22.480663,21.848051 
	C22.431860,22.334795 22.383055,22.821541 22.334251,23.308285 
	C18.982611,23.308285 15.630970,23.308285 12.279329,23.308285 
	C12.180936,23.947449 12.082542,24.586613 11.984148,25.225777 
	C14.365250,25.800768 16.763678,26.313332 19.122641,26.968082 
	C21.542664,27.639782 24.575895,28.406828 23.321524,31.725441 
	C22.245550,34.572079 19.504410,35.247829 15.779722,34.026932 
	C17.661211,32.881138 18.991564,32.070976 21.533251,30.523136 
	C18.496531,29.608669 16.605906,29.302332 14.972813,28.482805 
	C12.797083,27.390965 10.821692,25.899900 8.760244,24.580326 
	C10.794692,23.249990 12.829142,21.919655 15.250559,20.571848 
z"/>
<path fill="#DCECF7" opacity="1.000000" stroke="none" 
	d="
M31.711964,21.813282 
	C30.458500,22.688543 29.434322,23.434877 27.214718,25.052336 
	C30.865200,25.892366 33.531269,26.041687 35.703869,27.154461 
	C37.404854,28.025679 38.494438,30.090611 39.855667,31.625172 
	C37.962509,32.786358 36.069351,33.947544 34.176189,35.108730 
	C33.889088,34.615974 33.601986,34.123215 33.314880,33.630459 
	C34.403652,32.891102 35.492424,32.151749 37.606258,30.716305 
	C35.119331,29.817358 33.353840,29.372095 31.774950,28.562792 
	C29.465988,27.379267 25.569885,26.128981 25.393091,24.563509 
	C24.929903,20.462080 29.379608,22.693287 31.394690,21.442677 
	C31.662006,21.276773 32.030529,21.273939 32.352180,21.195587 
	C32.215206,21.358509 32.078228,21.521433 31.711964,21.813282 
z"/>
<path fill="#DEEDF7" opacity="1.000000" stroke="none" 
	d="
M45.974152,32.379936 
	C45.186275,35.262890 43.464184,35.380112 43.124252,33.077541 
	C42.544762,29.152287 42.964573,25.079504 43.741802,21.013248 
	C47.471100,24.152666 45.323277,28.324947 45.974152,32.379936 
z"/>
<path fill="#1380C4" opacity="1.000000" stroke="none" 
	d="
M50.208614,33.907242 
	C49.500675,36.689190 48.792736,39.471142 48.054321,42.615334 
	C48.023842,42.977573 48.000179,43.000893 47.988968,43.013775 
	C44.834244,44.709969 41.690735,46.393276 38.273613,48.038292 
	C38.000000,48.000000 37.999847,47.999847 37.999847,47.999847 
	C41.824345,43.507339 45.648846,39.014828 49.770496,34.246910 
	C50.067650,33.971504 50.208614,33.907242 50.208614,33.907242 
z"/>
<path fill="#1380C4" opacity="1.000000" stroke="none" 
	d="
M28.386497,4.966561 
	C26.492849,4.878922 24.950197,4.776106 23.407547,4.673289 
	C23.357969,4.072761 23.308392,3.472233 23.258812,2.871704 
	C25.332369,2.701796 27.405926,2.531887 29.479483,2.361978 
	C29.232153,3.225113 28.984823,4.088248 28.386497,4.966561 
z"/>
<path fill="#1380C4" opacity="1.000000" stroke="none" 
	d="
M44.056133,8.892076 
	C46.197689,11.655954 48.339249,14.419831 50.480804,17.183708 
	C49.912804,17.568365 49.344803,17.953020 48.776802,18.337677 
	C47.159721,15.482501 45.542641,12.627326 43.949669,9.375115 
	C43.973782,8.978080 44.056133,8.892077 44.056133,8.892076 
z"/>
<path fill="#1380C4" opacity="1.000000" stroke="none" 
	d="
M30.424891,51.036263 
	C28.476429,51.551502 26.544981,51.791035 24.613533,52.030567 
	C24.600870,51.387413 24.588207,50.744255 24.575544,50.101097 
	C26.530998,50.320915 28.486450,50.540737 30.424891,51.036263 
z"/>
<path fill="#1380C4" opacity="1.000000" stroke="none" 
	d="
M2.543226,24.708242 
	C3.240278,26.102997 3.742238,27.685240 4.244198,29.267481 
	C3.612177,29.358473 2.980156,29.449465 2.348135,29.540455 
	C2.348135,27.992214 2.348135,26.443972 2.543226,24.708242 
z"/>
<path fill="#1380C4" opacity="1.000000" stroke="none" 
	d="
M11.898540,45.111664 
	C10.837584,45.085983 9.776628,45.060307 8.317421,45.044624 
	C7.919170,45.054615 7.986833,45.006248 7.964561,45.041420 
	C7.942289,43.687569 7.942289,42.298546 7.942289,39.544239 
	C9.775638,41.717190 10.845850,42.985641 11.967378,44.621632 
	C12.018692,44.989166 11.898540,45.111664 11.898540,45.111664 
z"/>
<path fill="#1380C4" opacity="1.000000" stroke="none" 
	d="
M6.292507,18.445606 
	C5.874983,19.570822 5.553134,20.421057 5.231285,21.271294 
	C4.653123,20.816574 4.074961,20.361856 3.496799,19.907139 
	C4.094133,18.551687 4.691466,17.196234 5.288800,15.840783 
	C5.621631,15.924367 5.954461,16.007952 6.287292,16.091536 
	C6.320921,16.784567 6.354552,17.477598 6.292507,18.445606 
z"/>
<path fill="#1380C4" opacity="1.000000" stroke="none" 
	d="
M6.560178,36.701481 
	C4.450469,37.616150 4.450469,37.616150 4.235743,32.246838 
	C5.414307,34.386780 5.976573,35.407696 6.560178,36.701481 
z"/>
<path fill="#1380C4" opacity="1.000000" stroke="none" 
	d="
M18.969303,49.821480 
	C17.748940,49.589661 16.771168,49.301670 15.793398,49.013680 
	C15.885349,48.635662 15.977301,48.257648 16.069252,47.879635 
	C17.319931,48.288315 18.570610,48.696995 19.821289,49.105675 
	C19.754375,49.245152 19.713808,49.409126 19.613237,49.517311 
	C19.509996,49.628365 19.348112,49.684906 18.969303,49.821480 
z"/>
<path fill="#1380C4" opacity="1.000000" stroke="none" 
	d="
M35.623131,6.123793 
	C34.903622,5.496278 34.406166,4.959384 33.908707,4.422491 
	C34.133179,4.161341 34.357655,3.900192 34.582130,3.639042 
	C35.456688,4.422704 36.331249,5.206366 37.205811,5.990027 
	C36.752266,6.064822 36.298725,6.139618 35.623131,6.123793 
z"/>
<path fill="#1380C4" opacity="1.000000" stroke="none" 
	d="
M18.468712,4.350860 
	C19.209501,4.238786 19.776367,4.249531 20.343231,4.260275 
	C20.016960,4.744247 19.690689,5.228219 19.364418,5.712191 
	C19.007875,5.299353 18.651331,4.886516 18.468712,4.350860 
z"/>
<path fill="#1380C4" opacity="1.000000" stroke="none" 
	d="
M49.578316,22.007244 
	C50.087524,21.732445 50.654938,21.662415 51.222351,21.592384 
	C51.207905,21.996220 51.193459,22.400053 51.179016,22.803888 
	C50.664848,22.606596 50.150681,22.409304 49.578316,22.007244 
z"/>
<path fill="#1380C4" opacity="1.000000" stroke="none" 
	d="
M49.997910,34.005211 
	C49.928169,33.054440 49.928169,32.069965 49.928169,31.085487 
	C50.421024,31.150019 50.913879,31.214550 51.406734,31.279081 
	C51.109715,32.019993 50.812695,32.760906 50.362144,33.704529 
	C50.208614,33.907242 50.067650,33.971504 49.997910,34.005211 
z"/>
<path fill="#1380C4" opacity="1.000000" stroke="none" 
	d="
M8.441894,8.750801 
	C9.653859,8.846869 10.858374,8.966478 12.817832,9.161056 
	C11.733148,10.082312 11.203196,10.532416 10.346817,11.012302 
	C10.020391,11.042085 9.876304,10.921457 9.876304,10.921457 
	C9.531865,10.389368 9.187428,9.857279 8.632280,9.073441 
	C8.421572,8.821693 8.434443,8.774343 8.441894,8.750801 
z"/>
<path fill="#1380C4" opacity="1.000000" stroke="none" 
	d="
M36.000153,49.000240 
	C35.596947,49.411655 35.193737,49.823071 34.790531,50.234486 
	C34.643597,50.025925 34.496658,49.817364 34.349720,49.608807 
	C34.745930,49.420422 35.142143,49.232037 35.769176,49.021828 
	C36.000000,49.000000 36.000153,49.000240 36.000153,49.000240 
z"/>
<path fill="#1380C4" opacity="1.000000" stroke="none" 
	d="
M41.167664,7.886652 
	C41.159679,8.057344 41.090767,8.159286 41.021854,8.261230 
	C40.942055,8.171229 40.862255,8.081228 40.782455,7.991227 
	C40.890549,7.933452 40.998646,7.875677 41.167664,7.886652 
z"/>
<path fill="#1380C4" opacity="1.000000" stroke="none" 
	d="
M15.189653,6.294481 
	C14.904856,6.440835 14.645361,6.460148 14.385866,6.479462 
	C14.409595,6.346380 14.433628,6.097887 14.457006,6.097948 
	C14.709716,6.098615 14.962321,6.138366 15.189653,6.294481 
z"/>
<path fill="#1380C4" opacity="1.000000" stroke="none" 
	d="
M12.079919,44.929070 
	C12.467058,45.196102 12.792971,45.523228 13.118883,45.850353 
	C12.770839,45.722942 12.422793,45.595528 11.986645,45.289890 
	C11.898540,45.111664 12.018692,44.989166 12.079919,44.929070 
z"/>
<path fill="#1380C4" opacity="1.000000" stroke="none" 
	d="
M10.090551,11.104578 
	C9.895851,11.494894 9.630988,11.822719 9.366126,12.150542 
	C9.442183,11.816377 9.518242,11.482211 9.735302,11.034752 
	C9.876304,10.921457 10.020391,11.042085 10.090551,11.104578 
z"/>
<path fill="#1380C4" opacity="1.000000" stroke="none" 
	d="
M38.000076,48.000076 
	C37.475971,48.363060 36.951786,48.725967 36.213879,49.044559 
	C36.000153,49.000240 36.000000,49.000000 35.999977,48.999924 
	C36.486145,48.720016 36.972343,48.440186 37.729195,48.080101 
	C37.999847,47.999847 38.000000,48.000000 38.000076,48.000076 
z"/>
<path fill="#1380C4" opacity="1.000000" stroke="none" 
	d="
M39.496933,5.509384 
	C39.490395,5.489108 39.503468,5.529661 39.496933,5.509384 
z"/>
<path fill="#1380C4" opacity="1.000000" stroke="none" 
	d="
M43.928391,9.016603 
	C43.882999,9.055127 43.966530,8.825858 44.011330,8.858968 
	C44.056133,8.892077 43.973782,8.978080 43.928391,9.016603 
z"/>
<path fill="#1380C4" opacity="1.000000" stroke="none" 
	d="
M6.498831,13.507245 
	C6.490829,13.485723 6.506832,13.528768 6.498831,13.507245 
z"/>
<path fill="#47704C" opacity="1.000000" stroke="none" 
	d="
M89.217926,28.345528 
	C88.474228,29.696730 87.832794,30.676399 87.191360,31.656069 
	C86.485085,30.690136 85.330353,29.793745 85.167488,28.743536 
	C84.845612,26.667967 85.072517,24.507290 85.072517,22.373802 
	C91.661880,22.043226 97.735504,21.738522 103.809135,21.433819 
	C103.757904,21.764538 103.706665,22.095257 103.655434,22.425976 
	C98.877014,24.275316 94.098602,26.124657 89.217926,28.345528 
z"/>
<path fill="#47704C" opacity="1.000000" stroke="none" 
	d="
M70.190811,21.114090 
	C73.335831,21.764275 76.116577,22.401045 79.690773,23.219507 
	C79.758865,24.079920 79.892334,25.766390 80.001831,27.149981 
	C75.489693,25.804771 71.300980,24.555988 65.860306,22.933958 
	C67.821846,22.027290 68.824188,21.563982 70.190811,21.114090 
z"/>
<path fill="#47704C" opacity="1.000000" stroke="none" 
	d="
M94.823013,30.538372 
	C97.499985,28.929766 100.416824,27.594997 104.287025,25.823959 
	C102.686333,32.009701 100.325394,32.891930 94.823013,30.538372 
z"/>
<path fill="#47704C" opacity="1.000000" stroke="none" 
	d="
M118.828773,22.079727 
	C119.969002,22.560505 121.406097,23.067280 121.477264,23.722435 
	C121.751328,26.245316 121.588402,28.815666 121.588402,31.400108 
	C117.608643,31.549545 117.108734,30.189240 118.828773,22.079727 
z"/>
<path fill="#47704C" opacity="1.000000" stroke="none" 
	d="
M128.997711,22.201042 
	C132.603043,20.957567 135.873962,20.039949 139.903152,23.854527 
	C135.506516,23.854527 132.216736,23.867014 128.929016,23.790857 
	C128.835770,23.788696 128.764374,22.842295 128.997711,22.201042 
z"/>
</svg>