<?xml version="1.0" encoding="UTF-8"?>
<svg version="1.1" xmlns="http://www.w3.org/2000/svg" width="914" height="914">
<path d="M0 0 C301.62 0 603.24 0 914 0 C914 301.62 914 603.24 914 914 C612.38 914 310.76 914 0 914 C0 612.38 0 310.76 0 0 Z " fill="#57BBBF" transform="translate(0,0)"/>
<path d="M0 0 C2.5378486 0.36723129 3.70709135 0.65720088 5.40039062 2.63891602 C5.81482422 3.33686279 6.22925781 4.03480957 6.65625 4.75390625 C7.12160156 5.52669922 7.58695312 6.29949219 8.06640625 7.09570312 C8.53949219 7.90974609 9.01257813 8.72378906 9.5 9.5625 C10.20962891 10.74295898 10.20962891 10.74295898 10.93359375 11.94726562 C14.38590255 17.74733568 17.70626023 23.62190172 20.125 29.9375 C20.81156559 32.1760887 20.81156559 32.1760887 23 33 C23 33.99 23 34.98 23 36 C23.66 36 24.32 36 25 36 C25.40992188 36.92683594 25.81984375 37.85367188 26.2421875 38.80859375 C26.78101563 40.00613281 27.31984375 41.20367187 27.875 42.4375 C28.40867187 43.63246094 28.94234375 44.82742187 29.4921875 46.05859375 C30.67727235 49.08527631 30.67727235 49.08527631 33 50 C36.34188389 55.33066806 39.3523657 60.90375311 41 67 C41.66 67 42.32 67 43 67 C43.33 68.98 43.66 70.96 44 73 C44.66 73 45.32 73 46 73 C47.53723278 75.09595196 48.93770077 77.1754904 50.3125 79.375 C50.71694336 80.01187744 51.12138672 80.64875488 51.53808594 81.30493164 C54.28204661 85.68590178 56.66565581 90.15289897 58.8828125 94.82421875 C60.29039444 97.5655584 62.01958558 99.94214416 63.86328125 102.40234375 C65.92339509 105.29783021 68 108.38482634 68 112 C68.66 112 69.32 112 70 112 C72.39542583 116.58154261 74.50829734 121.0276578 76 126 C76.66 126 77.32 126 78 126 C78.45439453 126.8353125 78.45439453 126.8353125 78.91796875 127.6875 C80.99304402 131.46732941 83.0910708 135.19381861 85.4375 138.8125 C89.23682409 144.79492777 92.75631373 151.26894119 95 158 C95.99 158.66 96.98 159.32 98 160 C98 160.99 98 161.98 98 163 C98.66 163 99.32 163 100 163 C100.24234375 163.50789062 100.4846875 164.01578125 100.734375 164.5390625 C102.30553218 167.76597763 103.88085781 170.82128671 105.875 173.8125 C107.73133036 176.59699554 109.30250415 179.36407029 110.875 182.3125 C112.78130652 185.86581695 114.77337177 189.2435583 117.0625 192.5625 C119.71745641 196.42739749 121.74641956 200.42986184 123.77734375 204.6484375 C125.23299106 207.44811698 126.97552358 209.8833485 128.86328125 212.40234375 C130.92339509 215.29783021 133 218.38482634 133 222 C133.66 222 134.32 222 135 222 C137.39542583 226.58154261 139.50829734 231.0276578 141 236 C141.66 236 142.32 236 143 236 C143.30292969 236.556875 143.60585938 237.11375 143.91796875 237.6875 C146.0221088 241.52027203 148.15554085 245.30840718 150.5 249 C161 265.5754717 161 265.5754717 161 270 C161.66 270 162.32 270 163 270 C169.51936219 281.52164009 169.51936219 281.52164009 171 287 C171.66 287 172.32 287 173 287 C173.83848804 288.45537568 174.67063934 289.91440373 175.5 291.375 C175.9640625 292.18710937 176.428125 292.99921875 176.90625 293.8359375 C178 296 178 296 178 298 C178.66 298 179.32 298 180 298 C180.4125 298.87140625 180.825 299.7428125 181.25 300.640625 C184.74340335 307.88969307 188.56619385 314.54737299 193.15234375 321.18359375 C195.37920849 324.5780324 197.10822004 328.09347652 198.84765625 331.75390625 C200.26803662 334.52244425 202.00180813 336.9184222 203.86328125 339.40234375 C205.92339509 342.29783021 208 345.38482634 208 349 C208.66 349 209.32 349 210 349 C211 351 212 353 213 355 C213.8353125 356.60875 213.8353125 356.60875 214.6875 358.25 C216 361 216 361 216 363 C216.66 363 217.32 363 218 363 C221.17161748 368.58744526 224.13546745 374.22404857 226.88671875 380.03125 C227.84628541 382.15582508 227.84628541 382.15582508 230 383 C230.9296875 384.6015625 230.9296875 384.6015625 231.875 386.625 C233.22799057 389.45305547 234.65202599 392.17771054 236.25 394.875 C238 398 238 398 238 400 C238.66 400 239.32 400 240 400 C240.53625 401.134375 241.0725 402.26875 241.625 403.4375 C243.64150798 407.49204451 246.05707998 411.15123242 248.60546875 414.88671875 C253 421.54621849 253 421.54621849 253 425 C253.66 425 254.32 425 255 425 C255.67354499 426.43429001 256.33859701 427.87257057 257 429.3125 C257.37125 430.11300781 257.7425 430.91351563 258.125 431.73828125 C259 434 259 434 259 437 C259.66 437 260.32 437 261 437 C262.55544274 439.13798307 263.97895777 441.26094669 265.375 443.5 C265.98661987 444.46522583 265.98661987 444.46522583 266.6105957 445.44995117 C268.99093581 449.24863113 271.14487236 453.06312741 273.03125 457.1328125 C274.63494831 460.22381166 276.69470272 463.00506934 278.73046875 465.82421875 C280.13127952 468.2249929 280.60241316 470.26479412 281 473 C281.66 473 282.32 473 283 473 C283.96087136 474.89454824 284.91858969 476.79069581 285.875 478.6875 C286.40867187 479.74324219 286.94234375 480.79898437 287.4921875 481.88671875 C288.78688105 484.55995905 289.94023254 487.2271133 291 490 C291.66 490 292.32 490 293 490 C299.51936219 501.52164009 299.51936219 501.52164009 301 507 C301.66 507 302.32 507 303 507 C303.96189997 508.72718516 304.91936508 510.45684058 305.875 512.1875 C306.40867187 513.15042969 306.94234375 514.11335937 307.4921875 515.10546875 C309 518 309 518 310.0703125 520.80078125 C310.78918065 523.16530122 310.78918065 523.16530122 313 524 C313 524.66 313 525.32 313 526 C313.66 526 314.32 526 315 526 C315.433125 527.010625 315.86625 528.02125 316.3125 529.0625 C316.58707031 529.69800781 316.86164062 530.33351563 317.14453125 530.98828125 C317.6988421 532.29179763 318.2388888 533.60150974 318.76171875 534.91796875 C320.10305998 538.24648217 321.34102571 540.59426135 324 543 C324 543.66 324 544.32 324 545 C111.48 545 -101.04 545 -320 545 C-317.13910319 537.84775797 -314.34206814 531.38539432 -310 525 C-309.05069373 523.25637623 -308.11447524 521.50559766 -307.1875 519.75 C-305.14993997 515.94758369 -302.96784403 512.43047491 -300.4375 508.9375 C-297.56724753 504.96185489 -295.42081286 500.94598451 -293.328125 496.5234375 C-291.38586633 492.83314602 -288.94958542 489.55879446 -286.453125 486.2265625 C-285.05637251 484.08637724 -284.43313001 482.49619666 -284 480 C-283.34 480 -282.68 480 -282 480 C-281.7834375 479.03707031 -281.566875 478.07414062 -281.34375 477.08203125 C-279.92580026 472.12544814 -277.23158305 468.01780027 -274.5 463.6875 C-274.00113281 462.87732422 -273.50226563 462.06714844 -272.98828125 461.23242188 C-269.30887706 455.30887706 -269.30887706 455.30887706 -267 453 C-266.505 451.824375 -266.01 450.64875 -265.5 449.4375 C-264 446 -264 446 -262 445 C-261.2665351 443.33303432 -260.53869309 441.66315578 -259.8515625 439.9765625 C-258.23471361 436.22369306 -256.40637853 432.35012338 -253.4375 429.5 C-251.55743358 427.53819156 -250.80923116 425.29924065 -249.8046875 422.80859375 C-248.54943121 419.98731384 -246.7221675 417.55864886 -245 415 C-244.09371472 413.31809019 -243.19909672 411.62987108 -242.3125 409.9375 C-239.26116976 404.22603571 -235.65035698 399.07913533 -231.85546875 393.84765625 C-230.26645017 391.40893089 -229.4164566 389.83327032 -229 387 C-228.34 387 -227.68 387 -227 387 C-226.76216797 386.1646875 -226.76216797 386.1646875 -226.51953125 385.3125 C-224.45876951 378.572329 -222.0311309 372.02075394 -216 368 C-215.13262717 366.01996343 -215.13262717 366.01996343 -214.5625 363.75 C-213.60002836 360.53493517 -212.83851353 358.77853285 -210.8125 356 C-208.35930986 351.93954736 -208.62999345 348.62508184 -209 344 C-209.66 344 -210.32 344 -211 344 C-211.33 342.02 -211.66 340.04 -212 338 C-212.66 338 -213.32 338 -214 338 C-214.33 336.35 -214.66 334.7 -215 333 C-215.66 333 -216.32 333 -217 333 C-217 332.01 -217 331.02 -217 330 C-217.66 330 -218.32 330 -219 330 C-219.33 328.02 -219.66 326.04 -220 324 C-220.66 324 -221.32 324 -222 324 C-222.66 322.35 -223.32 320.7 -224 319 C-224.66 319 -225.32 319 -226 319 C-226.33 317.02 -226.66 315.04 -227 313 C-227.66 313 -228.32 313 -229 313 C-232 307.375 -232 307.375 -232 304 C-232.66 304 -233.32 304 -234 304 C-234.33 302.02 -234.66 300.04 -235 298 C-235.66 298 -236.32 298 -237 298 C-237 297.01 -237 296.02 -237 295 C-237.66 295 -238.32 295 -239 295 C-239 294.34 -239 293.68 -239 293 C-239.66 293 -240.32 293 -241 293 C-241.39832031 292.18015625 -241.79664063 291.3603125 -242.20703125 290.515625 C-242.73683594 289.43796875 -243.26664062 288.3603125 -243.8125 287.25 C-244.33457031 286.18265625 -244.85664063 285.1153125 -245.39453125 284.015625 C-246.86005268 281.04388904 -246.86005268 281.04388904 -248.69921875 278.859375 C-250 277 -250 277 -250 273 C-250.66 273 -251.32 273 -252 273 C-252 272.01 -252 271.02 -252 270 C-252.66 270 -253.32 270 -254 270 C-254.33 268.02 -254.66 266.04 -255 264 C-255.66 264 -256.32 264 -257 264 C-257.66 262.35 -258.32 260.7 -259 259 C-259.66 259 -260.32 259 -261 259 C-261.33 257.02 -261.66 255.04 -262 253 C-262.66 253 -263.32 253 -264 253 C-264 252.01 -264 251.02 -264 250 C-264.66 250 -265.32 250 -266 250 C-268.125 245.375 -268.125 245.375 -267 242 C-254.54951709 245.00276352 -242.22891987 248.46984103 -229.9375 252.0625 C-223.98939648 253.78176535 -217.99840494 255.21536062 -211.94702148 256.51782227 C-208.60905907 257.26319251 -205.74593252 258.11117271 -202.58984375 259.4921875 C-198.28267744 261.30129109 -194.07154508 262.18502334 -189.5 263.0625 C-183.91195321 264.16157081 -178.46033963 265.3777752 -173 267 C-171.33753959 267.35371498 -169.67225729 267.69595322 -168 268 C-168 268.66 -168 269.32 -168 270 C-164.92664061 270.35461839 -162.06093994 270.51279996 -159 270 C-156.44638212 267.1844726 -155.27549435 264.68873589 -153.875 261.1875 C-153 259 -153 259 -151 258 C-150.23516702 256.08566722 -150.23516702 256.08566722 -149.625 253.8125 C-147.90743649 248.36487431 -145.85167967 244.23445311 -141 241 C-139.87553529 238.76127976 -139.87553529 238.76127976 -139 236.1875 C-135.40975936 226.70487968 -135.40975936 226.70487968 -132 225 C-131.29799089 223.0945467 -130.59916443 221.1878168 -129.921875 219.2734375 C-128.26694223 215.19220499 -126.0592729 210.02963645 -122 208 C-121.27334339 206.0512391 -120.55007561 204.10103826 -119.85546875 202.140625 C-118.40803431 198.51873427 -116.58741091 194.79370546 -113 193 C-112.29357564 191.33485688 -111.59076144 189.66804954 -110.91015625 187.9921875 C-109.03251069 183.88231954 -106.2571305 180.29325968 -103.671875 176.60546875 C-100.88477168 172.55073711 -98.8533704 168.58576789 -97 164 C-92.15826649 154.13133006 -92.15826649 154.13133006 -88.3125 150.375 C-85.49962218 147.48609845 -84.86695275 145.01827202 -83.74609375 141.21875 C-82.21478797 136.66491919 -79.95626941 133.63751294 -76 131 C-74.88570915 129.2922509 -74.88570915 129.2922509 -74 127.3125 C-73.49146484 126.24902344 -73.49146484 126.24902344 -72.97265625 125.1640625 C-72.08391848 123.1867102 -71.25356907 121.19562807 -70.4375 119.1875 C-69.10309351 116.22859864 -68.19181888 115.19181888 -66 113 C-64.96898053 110.68020619 -63.97063483 108.34570085 -63 106 C-61.66269863 103.54828081 -60.53914398 101.50273426 -58.49609375 99.59765625 C-56.83109956 97.81963373 -56.29447545 96.4925407 -55.5625 94.1875 C-54.06221486 89.90773924 -52.24609268 85.12304634 -48 83 C-47.29225684 81.33039818 -46.58802492 79.65917877 -45.90576172 77.97900391 C-44.36539678 74.61345184 -42.19177284 71.70154277 -40.0625 68.6875 C-36.51334357 63.56320628 -33.72364682 58.78313172 -31.9140625 52.7578125 C-31 51 -31 51 -28.8984375 50.2421875 C-28.27195312 50.16226563 -27.64546875 50.08234375 -27 50 C-26.87625 48.906875 -26.7525 47.81375 -26.625 46.6875 C-26 43 -26 43 -24 40 C-23.34 40 -22.68 40 -22 40 C-21.92523438 39.15566406 -21.85046875 38.31132813 -21.7734375 37.44140625 C-20.84946187 33.33018133 -18.96798385 30.35929446 -16.625 26.9375 C-15.82492534 25.73867846 -15.02543513 24.53946663 -14.2265625 23.33984375 C-13.8440332 22.77249512 -13.46150391 22.20514648 -13.06738281 21.62060547 C-12.11328912 20.17200667 -11.22011167 18.6837096 -10.3359375 17.19140625 C-9 15 -9 15 -7 13 C-6.28023496 11.29873718 -5.56229451 9.59661272 -4.86328125 7.88671875 C-3.55106899 5.01885213 -1.81888855 2.57153209 0 0 Z " fill="#F9FCFC" transform="translate(455,71)"/>
<path d="M0 0 C3.34910484 1.36626662 4.63101838 2.52950679 6.125 5.8125 C6.455 6.52148438 6.785 7.23046875 7.125 7.9609375 C7.83000996 9.6038625 8.48559694 11.26794757 9.125 12.9375 C9.81156559 15.1760887 9.81156559 15.1760887 12 16 C13.0589197 17.71498952 14.04952637 19.47261431 15 21.25 C15.515625 22.20390625 16.03125 23.1578125 16.5625 24.140625 C18 27 18 27 19.0625 29.796875 C19.78900302 32.1644609 19.78900302 32.1644609 22 33 C22.970025 34.63618674 23.87688937 36.31010847 24.75 38 C26.73541205 41.74267161 28.79765055 45.31414183 31.1875 48.8125 C37 57.32529528 37 57.32529528 37 61 C37.66 61 38.32 61 39 61 C39.5775 62.175625 40.155 63.35125 40.75 64.5625 C42.1590871 67.39577157 43.6432675 70.14929308 45.25 72.875 C47 76 47 76 47 78 C47.66 78 48.32 78 49 78 C52.77981651 85.39449541 52.77981651 85.39449541 54 88.75 C54.89529777 91.12713842 54.89529777 91.12713842 56.9375 92.9375 C59.3983052 95.3983052 60.49802661 97.87088877 62 101 C62.721875 101.99 63.44375 102.98 64.1875 104 C66.21066902 107.34869354 66.36549912 109.16225919 66 113 C66.66 113 67.32 113 68 113 C68 113.66 68 114.32 68 115 C68.66 115 69.32 115 70 115 C70.4021875 116.0828125 70.4021875 116.0828125 70.8125 117.1875 C72.89232621 122.46469972 72.89232621 122.46469972 77 126 C78.59189312 128.76253318 80.01691694 131.59328719 81.46484375 134.43359375 C82.89377158 137.23923153 82.89377158 137.23923153 86 139 C86.70492569 140.87980185 87.40317362 142.76252624 88.05859375 144.66015625 C89.47677543 148.18501444 91.47344662 151.29049834 93.47265625 154.51171875 C94.8318098 156.72599192 96.08523841 158.96109343 97.3125 161.25 C99.89762394 165.97395612 102.82456837 170.46101356 105.7902832 174.95214844 C112 184.43333237 112 184.43333237 112 188 C112.66 188 113.32 188 114 188 C114.5775 189.175625 115.155 190.35125 115.75 191.5625 C117.1590871 194.39577157 118.6432675 197.14929308 120.25 199.875 C122 203 122 203 122 205 C122.66 205 123.32 205 124 205 C125 207 126 209 127 211 C127.8353125 212.60875 127.8353125 212.60875 128.6875 214.25 C130 217 130 217 130 219 C130.66 219 131.32 219 132 219 C140 233.22924901 140 233.22924901 140 236 C140.66 236 141.32 236 142 236 C142.38671875 236.72445312 142.7734375 237.44890625 143.171875 238.1953125 C146.40147811 244.2070676 146.40147811 244.2070676 150 250 C152.4491066 253.6736599 154.47299761 257.51977555 156.5625 261.40625 C158.01714051 264.11436645 158.01714051 264.11436645 160 267 C161.81120302 269.71680452 163.33877995 272.4350723 164.875 275.3125 C167.24452626 279.72761729 169.85256899 283.85740418 172.67578125 287.9921875 C177 294.54867257 177 294.54867257 177 298 C177.66 298 178.32 298 179 298 C179.97109641 299.94219282 180.94181732 301.88455505 181.91015625 303.828125 C182.84177505 305.68468432 183.79383293 307.5309635 184.75 309.375 C186 312 186 312 186 314 C180.4656563 313.72328281 176.31168184 312.85102636 171.25 310.5625 C164.95690677 307.75655894 158.81641847 306.73661296 152 306 C152 305.34 152 304.68 152 304 C150.07942708 304.06510417 148.15885417 304.13020833 146.23828125 304.1953125 C143.52445449 303.95850388 141.51589853 303.04245869 139 302 C136.67613548 301.36037864 134.34115841 300.76059607 132 300.1875 C131.31574951 300.01863281 130.63149902 299.84976562 129.92651367 299.67578125 C125.86998385 298.68002607 121.80611312 297.71797406 117.73828125 296.76953125 C109.1207931 294.75616487 100.61215571 292.68693383 92.18359375 289.96875 C88.4020368 288.8180431 84.59010012 287.8699502 80.75 286.9375 C76.613782 285.93254149 72.51777082 284.91848779 68.5 283.5 C63.23766974 281.65321995 57.81986234 280.41831574 52.41015625 279.08984375 C42.42272825 276.63464732 32.48264065 273.99316421 22.5859375 271.1953125 C21.4837085 270.88376221 20.38147949 270.57221191 19.24584961 270.2512207 C17.09715355 269.64154346 14.9494644 269.02830221 12.80297852 268.41088867 C7.3051352 266.84799817 1.84488185 265.48164638 -3.78051758 264.46142578 C-8.93000625 263.39085779 -13.82297889 261.48105427 -18.6796875 259.49609375 C-23.21022495 257.79253157 -27.71810504 257.1217231 -32.5 256.5 C-37.99388447 255.78570684 -42.87254929 254.8211712 -48.01708984 252.74462891 C-51.44402382 251.45773545 -54.99334134 250.7223919 -58.5625 249.9375 C-62.65966566 249.01923335 -66.71391688 248.0825469 -70.75 246.91796875 C-74.53947453 245.84762438 -78.09291401 245.41127221 -82 245 C-82 244.34 -82 243.68 -82 243 C-82.64324219 242.87367188 -83.28648437 242.74734375 -83.94921875 242.6171875 C-87.91028429 241.81584518 -91.86260258 240.9795608 -95.8125 240.125 C-96.58142578 239.96386719 -97.35035156 239.80273438 -98.14257812 239.63671875 C-104.2494961 238.30711129 -109.88466369 236.33713392 -115.62109375 233.875 C-119.36742569 232.49703883 -123.22261073 232.11862244 -127.16015625 231.5625 C-129.79232859 231.04113437 -131.68980517 230.32960853 -134 229 C-132.16230258 220.94383151 -129.10027781 211.73351854 -122 207 C-120.49764159 204.40586225 -120.49764159 204.40586225 -119.125 201.375 C-117.01181374 196.98567033 -114.79163549 192.85953688 -112.078125 188.81640625 C-110.91369274 186.96865698 -110.91369274 186.96865698 -110.09375 184.66015625 C-108.78907662 181.4870042 -107.08665821 178.77236392 -105.25 175.875 C-102.60977041 171.67021215 -100.09787967 167.44081642 -97.75 163.0625 C-92.10329341 152.55164671 -92.10329341 152.55164671 -89 151 C-88.01575675 149.32093872 -88.01575675 149.32093872 -87.125 147.3125 C-85.8789863 144.70510096 -84.66213143 142.51431392 -83 140.125 C-80.73049447 136.57889761 -79.45687165 133.05199613 -78.125 129.07421875 C-77 127 -77 127 -74.875 126.20703125 C-74.25625 126.13871094 -73.6375 126.07039063 -73 126 C-72.87625 124.906875 -72.7525 123.81375 -72.625 122.6875 C-72 119 -72 119 -70 116 C-69.34 116 -68.68 116 -68 116 C-67.90460938 115.12859375 -67.80921875 114.2571875 -67.7109375 113.359375 C-66.93124648 109.67512074 -65.67942345 107.38798013 -63.625 104.25 C-63.01914062 103.30640625 -62.41328125 102.3628125 -61.7890625 101.390625 C-60 99 -60 99 -57 97 C-55.88570915 95.2922509 -55.88570915 95.2922509 -55 93.3125 C-54.49146484 92.24902344 -54.49146484 92.24902344 -53.97265625 91.1640625 C-53.08391848 89.1867102 -52.25356907 87.19562807 -51.4375 85.1875 C-50.10309351 82.22859864 -49.19181888 81.19181888 -47 79 C-46.28047142 77.29967309 -45.56204289 75.59886227 -44.85205078 73.89453125 C-43.555631 71.01194744 -41.88355614 68.41284159 -40.1875 65.75 C-37.04869207 60.76500429 -34.15320906 55.69404302 -31.375 50.5 C-29.73429056 47.51689193 -27.93435011 44.66039453 -26.1015625 41.79296875 C-24.55756762 39.27987069 -23.2645981 36.6623118 -22 34 C-21.34 34 -20.68 34 -20 34 C-19.89042969 33.26007813 -19.78085937 32.52015625 -19.66796875 31.7578125 C-18.96609056 28.85999962 -18.04822288 27.27129983 -16.3125 24.875 C-13.91054219 21.43870629 -11.87242622 17.96946957 -9.9375 14.25 C-7.6966083 10.03288885 -5.49283402 7.20176452 -2 4 C-0.70480005 1.83379456 -0.70480005 1.83379456 0 0 Z " fill="#58BBBF" transform="translate(456,120)"/>
<path d="M0 0 C2.25 0.125 2.25 0.125 5 1 C7.87701732 4.5163545 9.46799297 7.47794021 10 12 C10.66 12 11.32 12 12 12 C20 26.22924901 20 26.22924901 20 29 C20.66 29 21.32 29 22 29 C28.51936219 40.52164009 28.51936219 40.52164009 30 46 C30.66 46 31.32 46 32 46 C32.54527344 47.03447266 32.54527344 47.03447266 33.1015625 48.08984375 C35.57866437 52.72011878 38.07847866 57.23760674 41.0625 61.5625 C43.71745641 65.42739749 45.74641956 69.42986184 47.77734375 73.6484375 C49.23299106 76.44811698 50.97552358 78.8833485 52.86328125 81.40234375 C54.92339509 84.29783021 57 87.38482634 57 91 C57.66 91 58.32 91 59 91 C59.86625 92.7634375 59.86625 92.7634375 60.75 94.5625 C62.1590871 97.39577157 63.6432675 100.14929308 65.25 102.875 C67 106 67 106 67 108 C67.66 108 68.32 108 69 108 C69.391875 108.825 69.78375 109.65 70.1875 110.5 C71.87148015 113.75182374 73.71723436 116.77858694 75.6796875 119.86328125 C77.02554217 122.041336 78.27083 124.2542523 79.5 126.5 C81.08533156 129.39323009 82.73168848 132.21490936 84.5 135 C86.29422025 137.85031191 88.05587813 140.71383655 89.75 143.625 C90.36101562 144.66527344 90.36101562 144.66527344 90.984375 145.7265625 C92 148 92 148 93 154 C-23.16 154 -139.32 154 -259 154 C-256.73197503 149.46395007 -255.52310498 148.88462708 -251 147 C-250.34 147 -249.68 147 -249 147 C-249 146.34 -249 145.68 -249 145 C-247.02 144.67 -245.04 144.34 -243 144 C-243 143.34 -243 142.68 -243 142 C-242.01 142 -241.02 142 -240 142 C-240 141.34 -240 140.68 -240 140 C-238.35 139.67 -236.7 139.34 -235 139 C-235 138.34 -235 137.68 -235 137 C-233.56705502 136.15885829 -232.12845595 135.32734313 -230.6875 134.5 C-229.88699219 134.0359375 -229.08648437 133.571875 -228.26171875 133.09375 C-226 132 -226 132 -223 132 C-223 131.34 -223 130.68 -223 130 C-221.865625 129.54625 -220.73125 129.0925 -219.5625 128.625 C-215.95278308 127.42904194 -215.95278308 127.42904194 -215 125 C-213.29296875 124.25390625 -213.29296875 124.25390625 -211.1875 123.5625 C-207.97215899 122.43713065 -205.69668536 121.09742195 -203 119 C-202.01 119 -201.02 119 -200 119 C-200 118.34 -200 117.68 -200 117 C-197.09451118 114.95830515 -195.59857954 114 -192 114 C-192 113.34 -192 112.68 -192 112 C-189.03 111.01 -186.06 110.02 -183 109 C-183 108.34 -183 107.68 -183 107 C-180.09451118 104.95830515 -178.59857954 104 -175 104 C-175 103.34 -175 102.68 -175 102 C-174.01 102 -173.02 102 -172 102 C-172 101.34 -172 100.68 -172 100 C-166.375 97 -166.375 97 -163 97 C-163 96.34 -163 95.68 -163 95 C-161.865625 94.54625 -160.73125 94.0925 -159.5625 93.625 C-155.95278308 92.42904194 -155.95278308 92.42904194 -155 90 C-153.29296875 89.18359375 -153.29296875 89.18359375 -151.1875 88.4375 C-150.50042969 88.18871094 -149.81335938 87.93992187 -149.10546875 87.68359375 C-147.08508011 87.02762341 -145.06680486 86.48767306 -143 86 C-143 85.34 -143 84.68 -143 84 C-142.01 84 -141.02 84 -140 84 C-140 83.34 -140 82.68 -140 82 C-138.54462432 81.16151196 -137.08559627 80.32936066 -135.625 79.5 C-134.81289063 79.0359375 -134.00078125 78.571875 -133.1640625 78.09375 C-131 77 -131 77 -129 77 C-129 76.34 -129 75.68 -129 75 C-126.03 74.505 -126.03 74.505 -123 74 C-123 73.34 -123 72.68 -123 72 C-122.01 72 -121.02 72 -120 72 C-120 71.34 -120 70.68 -120 70 C-117.525 69.505 -117.525 69.505 -115 69 C-115 68.34 -115 67.68 -115 67 C-113.56705502 66.15885829 -112.12845595 65.32734313 -110.6875 64.5 C-109.88699219 64.0359375 -109.08648438 63.571875 -108.26171875 63.09375 C-106 62 -106 62 -103 62 C-103 61.34 -103 60.68 -103 60 C-101.2984375 59.319375 -101.2984375 59.319375 -99.5625 58.625 C-95.95278308 57.42904194 -95.95278308 57.42904194 -95 55 C-93.29296875 54.18359375 -93.29296875 54.18359375 -91.1875 53.4375 C-90.50042969 53.18871094 -89.81335938 52.93992187 -89.10546875 52.68359375 C-87.08508011 52.02762341 -85.06680486 51.48767306 -83 51 C-83 50.34 -83 49.68 -83 49 C-82.01 49 -81.02 49 -80 49 C-80 48.34 -80 47.68 -80 47 C-79.24074219 46.59007812 -78.48148438 46.18015625 -77.69921875 45.7578125 C-76.70535156 45.21898437 -75.71148438 44.68015625 -74.6875 44.125 C-73.70136719 43.59132813 -72.71523438 43.05765625 -71.69921875 42.5078125 C-68.90413542 40.99277874 -68.90413542 40.99277874 -66 39 C-65.01 39 -64.02 39 -63 39 C-63 38.34 -63 37.68 -63 37 C-62.01 37 -61.02 37 -60 37 C-60 36.34 -60 35.68 -60 35 C-57.525 34.505 -57.525 34.505 -55 34 C-55 33.34 -55 32.68 -55 32 C-53.56705502 31.15885829 -52.12845595 30.32734313 -50.6875 29.5 C-49.88699219 29.0359375 -49.08648438 28.571875 -48.26171875 28.09375 C-46 27 -46 27 -43 27 C-43 26.34 -43 25.68 -43 25 C-41.2984375 24.319375 -41.2984375 24.319375 -39.5625 23.625 C-35.95278308 22.42904194 -35.95278308 22.42904194 -35 20 C-33.29296875 19.18359375 -33.29296875 19.18359375 -31.1875 18.4375 C-30.50042969 18.18871094 -29.81335938 17.93992187 -29.10546875 17.68359375 C-27.08508011 17.02762341 -25.06680486 16.48767306 -23 16 C-23 15.34 -23 14.68 -23 14 C-22.01 14 -21.02 14 -20 14 C-20 13.34 -20 12.68 -20 12 C-19.24074219 11.59007812 -18.48148438 11.18015625 -17.69921875 10.7578125 C-16.70535156 10.21898437 -15.71148438 9.68015625 -14.6875 9.125 C-13.70136719 8.59132813 -12.71523438 8.05765625 -11.69921875 7.5078125 C-8.90413542 5.99277874 -8.90413542 5.99277874 -6 4 C-5.01 4 -4.02 4 -3 4 C-3 3.34 -3 2.68 -3 2 C-2.01 2 -1.02 2 0 2 C0 1.34 0 0.68 0 0 Z " fill="#58BBBF" transform="translate(641,437)"/>
<path d="M0 0 C0.495 1.485 0.495 1.485 1 3 C1.66 3 2.32 3 3 3 C3.99 5.475 3.99 5.475 5 8 C5.66 8 6.32 8 7 8 C7.495 10.97 7.495 10.97 8 14 C8.66 14 9.32 14 10 14 C10 14.99 10 15.98 10 17 C10.66 17 11.32 17 12 17 C12.495 19.475 12.495 19.475 13 22 C13.66 22 14.32 22 15 22 C15.495 24.97 15.495 24.97 16 28 C16.66 28 17.32 28 18 28 C18.28875 28.804375 18.5775 29.60875 18.875 30.4375 C19.73262568 33.1326468 19.73262568 33.1326468 22 34 C23 36.33333333 24 38.66666667 25 41 C25.66 41.33 26.32 41.66 27 42 C27.625 45.0625 27.625 45.0625 28 48 C28.66 48 29.32 48 30 48 C33 53.625 33 53.625 33 57 C33.66 57 34.32 57 35 57 C35.495 59.97 35.495 59.97 36 63 C36.66 63 37.32 63 38 63 C38.66 64.65 39.32 66.3 40 68 C40.66 68 41.32 68 42 68 C42.33 69.98 42.66 71.96 43 74 C43.66 74 44.32 74 45 74 C45 74.99 45 75.98 45 77 C45.66 77 46.32 77 47 77 C47.12375 77.639375 47.2475 78.27875 47.375 78.9375 C47.58125 79.618125 47.7875 80.29875 48 81 C48.66 81.33 49.32 81.66 50 82 C51.09424665 84.51189412 51.98497667 87.07108819 52.90234375 89.65234375 C53.89513027 92.30477045 53.89513027 92.30477045 57 94 C58.01965427 96.32481174 59.02059602 98.65794699 60 101 C60.66 101.33 61.32 101.66 62 102 C62.625 105.0625 62.625 105.0625 63 108 C63.66 108 64.32 108 65 108 C68 113.625 68 113.625 68 117 C68.66 117 69.32 117 70 117 C70 117.66 70 118.32 70 119 C70.66 119 71.32 119 72 119 C72.99 121.97 73.98 124.94 75 128 C75.66 128 76.32 128 77 128 C77.33 129.98 77.66 131.96 78 134 C78.66 134 79.32 134 80 134 C80 134.99 80 135.98 80 137 C80.66 137 81.32 137 82 137 C82.99 140.465 82.99 140.465 84 144 C28.56 144 -26.88 144 -84 144 C-80.625 133.875 -80.625 133.875 -78 129 C-77.01 129 -76.02 129 -75 129 C-74.938125 127.948125 -74.87625 126.89625 -74.8125 125.8125 C-73.83782013 121.23900217 -72.2428249 120.2428249 -69 117 C-68.09093518 114.77092325 -67.42695221 112.52674477 -66.74609375 110.21875 C-65.21478797 105.66491919 -62.95626941 102.63751294 -59 100 C-57.49764159 97.40586225 -57.49764159 97.40586225 -56.125 94.375 C-53.9892556 89.93881449 -51.69971163 85.79708735 -49.0234375 81.671875 C-47.72256794 79.54679037 -46.88011983 77.32603097 -46 75 C-44.66642224 72.56477104 -43.51395337 70.48216244 -41.484375 68.578125 C-39.463084 66.42917352 -38.89312552 63.95707841 -37.92578125 61.21875 C-36.60906152 58.06306727 -34.75967886 55.42797586 -32.8125 52.62890625 C-30.58941747 49.40447836 -28.48218311 46.11337761 -26.375 42.8125 C-24.22113005 39.44223923 -22.05724392 36.08443478 -19.8125 32.7734375 C-18.17210298 30.26334724 -17.03934332 27.82358777 -15.90625 25.05859375 C-12.85265815 18.12220191 -9.52823626 12.22941268 -4 7 C-2.93988057 5.03120677 -1.92529151 3.03564133 -1 1 C-0.67 0.67 -0.34 0.34 0 0 Z " fill="#58BBBF" transform="translate(263,447)"/>
<path d="M0 0 C9.69462664 1.92459325 19.20050125 3.91744585 28.60546875 6.99609375 C33.5557862 8.46011169 38.58676577 9.50395421 43.64672852 10.51757812 C48.43862817 11.51368618 52.53901016 12.98776353 57 15 C58.6558041 15.5543987 60.32197403 16.07951555 62 16.5625 C62.85851562 16.81 63.71703125 17.0575 64.6015625 17.3125 C65.39304687 17.539375 66.18453125 17.76625 67 18 C68.11375 18.350625 69.2275 18.70125 70.375 19.0625 C74.50355851 20.13023065 78.61856624 20.75465992 82.83984375 21.33984375 C85.37451476 21.86933621 87.42861718 22.49971931 89.8125 23.4375 C94.14643232 25.13199691 98.51322983 26.12486416 103.0625 27.0625 C108.4449574 28.19349738 113.7205267 29.44056144 119 31 C120.34037724 31.37386037 121.68156874 31.74481014 123.0234375 32.11328125 C130.78179488 34.25029785 138.52859769 36.42015818 146.25 38.6875 C146.94013184 38.88964111 147.63026367 39.09178223 148.34130859 39.30004883 C152.25578656 40.45592135 156.13369635 41.69268869 160 43 C165.92214994 44.85792939 171.89243251 45.96182397 178 47 C177 50 177 50 175.06640625 51.140625 C174.24011719 51.50671875 173.41382813 51.8728125 172.5625 52.25 C168.6839395 54.07846423 165.28090542 56.10349054 161.8125 58.625 C159.00160386 60.66488231 156.41869909 62.40760945 153.1875 63.6875 C149.9754442 64.82247516 149.9754442 64.82247516 147.6875 66.9375 C145.15189436 68.88342991 143.32925338 69.723846 140.375 70.8125 C132.44605567 73.82408716 125.7504785 78.7190368 118.9375 83.6875 C114.85932243 86.60326708 110.86693061 88.33525298 106.17578125 90.03515625 C103.13224707 91.38480247 101.30427966 93.6350814 99 96 C97.10013338 96.74062597 95.19594691 97.47561242 93.2578125 98.109375 C89.6316606 99.53976018 86.46546952 101.68554479 83.19921875 103.79296875 C81 105 81 105 78 105 C77.814375 105.598125 77.62875 106.19625 77.4375 106.8125 C75.67200069 109.49912938 73.85711384 109.97986073 70.9543457 111.15893555 C67.78547347 112.52267881 64.84966588 114.26096456 61.875 116 C61.28074219 116.34289062 60.68648438 116.68578125 60.07421875 117.0390625 C56.04885894 119.36719555 52.0553291 121.7458298 48.0859375 124.16796875 C43.33333333 127 43.33333333 127 40 127 C40 126.01 40 125.02 40 124 C39.34 124 38.68 124 38 124 C36.19678027 118.69853399 34.51375913 113.3927669 33 108 C32.73960937 107.18144531 32.47921875 106.36289062 32.2109375 105.51953125 C31.79714844 104.21048828 31.79714844 104.21048828 31.375 102.875 C31.11460937 102.06804687 30.85421875 101.26109375 30.5859375 100.4296875 C29.96828521 97.86848932 29.89725917 95.62456122 30 93 C29.34 93 28.68 93 28 93 C27 88 26 83 25 78 C24.34 78 23.68 78 23 78 C22.49193553 76.27318563 21.99389533 74.54342021 21.5 72.8125 C21.2215625 71.84957031 20.943125 70.88664062 20.65625 69.89453125 C20.03322392 67.14654124 19.87697188 64.80401584 20 62 C19.34 62 18.68 62 18 62 C17.34375 59.8125 17.34375 59.8125 16.6875 57.625 C16.41421875 56.71492188 16.1409375 55.80484375 15.859375 54.8671875 C15.30536414 53.01880581 14.75314394 51.16988599 14.203125 49.3203125 C13.95046875 48.47210938 13.6978125 47.62390625 13.4375 46.75 C13.19257813 45.92628906 12.94765625 45.10257812 12.6953125 44.25390625 C12.1179081 42.38220771 11.47349798 40.53133647 10.8125 38.6875 C9.99178422 35.97282471 9.83426452 33.8175031 10 31 C9.34 31 8.68 31 8 31 C6.5 23.5 6.5 23.5 5 16 C4.34 16 3.68 16 3 16 C2.49193553 14.27318563 1.99389533 12.54342021 1.5 10.8125 C1.08234375 9.36810547 1.08234375 9.36810547 0.65625 7.89453125 C0.03322392 5.14654124 -0.12302812 2.80401584 0 0 Z " fill="#58BBBF" transform="translate(438,392)"/>
<path d="M0 0 C4.90688269 0.29707641 9.54553492 0.68298601 14.1875 2.375 C18.04350672 3.77473717 21.84348259 4.6144994 25.875 5.375 C34.307796 6.98528265 42.54119403 9.18849293 50.82617188 11.42431641 C54.75036588 12.46354029 58.70033609 13.39734501 62.65234375 14.32421875 C65 15 65 15 66.89160156 15.97973633 C68.9843564 16.99242999 70.81327972 17.524324 73.08203125 18 C73.84966797 18.165 74.61730469 18.33 75.40820312 18.5 C76.20162109 18.665 76.99503906 18.83 77.8125 19 C83.27763666 20.15340065 88.63523461 21.42920683 94 23 C97.04010561 23.75813107 100.08541995 24.49054191 103.1328125 25.21875 C105.86273712 25.96259867 108.39828532 26.89450951 111 28 C110.82701599 30.33528415 110.29774631 31.69177582 108.66796875 33.37890625 C104.42788462 37 104.42788462 37 102 37 C102 37.66 102 38.32 102 39 C101.34 39 100.68 39 100 39 C100 39.66 100 40.32 100 41 C98.30096977 42.51740976 96.53927277 43.965128 94.75 45.375 C91.94686688 47.59229313 89.26298803 49.7305752 86.765625 52.2890625 C85 54 85 54 83 54 C83 54.66 83 55.32 83 56 C81.48848454 57.35097374 79.91186687 58.62927345 78.3125 59.875 C73.03995337 64.07249492 68.10491567 68.52502725 63.24145508 73.18896484 C59.21057633 77 59.21057633 77 57 77 C57 77.66 57 78.32 57 79 C55.56640625 80.4453125 55.56640625 80.4453125 53.5625 82.125 C49.58378677 85.49378571 45.7229439 88.9703982 41.8828125 92.49609375 C40 94 40 94 38 94 C38 94.66 38 95.32 38 96 C36.48848454 97.35097374 34.91186687 98.62927345 33.3125 99.875 C28.03995337 104.07249492 23.10491567 108.52502725 18.24145508 113.18896484 C14.21057633 117 14.21057633 117 12 117 C12 117.66 12 118.32 12 119 C10.3623728 120.45402342 8.66265804 121.83848678 6.9375 123.1875 C2.75992615 126.50056306 -0.96972351 129.8602956 -4.46484375 133.8828125 C-6 135 -6 135 -8.08203125 134.890625 C-10 134 -10 134 -11.75 130.625 C-13 127 -13 127 -13 124 C-13.66 124 -14.32 124 -15 124 C-15.66 122.35 -16.32 120.7 -17 119 C-17.66 119 -18.32 119 -19 119 C-19.26554687 118.38511719 -19.53109375 117.77023437 -19.8046875 117.13671875 C-20.15789062 116.32847656 -20.51109375 115.52023437 -20.875 114.6875 C-21.22304688 113.88699219 -21.57109375 113.08648437 -21.9296875 112.26171875 C-23.02571894 109.8038166 -23.02571894 109.8038166 -25 107 C-25 106.01 -25 105.02 -25 104 C-26.485 103.505 -26.485 103.505 -28 103 C-28.69244647 101.44199543 -29.37139701 99.87697922 -29.9921875 98.2890625 C-33.18417277 91.03904945 -37.65910613 84.18656401 -42.34765625 77.81640625 C-43 76 -43 76 -42.3046875 73.578125 C-41.0082597 71.01632156 -39.60115614 68.61098131 -38.0625 66.1875 C-36.16443438 63.09452624 -34.5659827 60.17818778 -33.375 56.75 C-31.79167745 52.43184758 -29.84752909 48.77054871 -26.5 45.5625 C-23.36363302 42.29545106 -21.49711491 38.04870818 -19.57421875 33.9921875 C-15.9245648 26.34446394 -11.80555076 19.45722525 -6.82006836 12.59399414 C-3.90385362 8.53504406 -1.80635704 4.66642236 0 0 Z " fill="#58BBBF" transform="translate(313,360)"/>
<path d="M0 0 C0.81639505 2.38015174 1.44354159 4.62130064 2 7.0625 C3.35195221 12.54484614 4.8990609 17.76333091 7 23 C9.23278939 28.95120908 11.30886292 34.86962808 13 41 C14.88068982 47.54268149 16.87644275 53.8900722 19.625 60.125 C21.68702907 64.87772554 22.80173542 69.29676788 23.4453125 74.4296875 C24.1309893 77.60697859 25.52362696 80.10953268 27 83 C27.73446674 85.13021491 28.42192883 87.27719319 29.0625 89.4375 C29.4028125 90.57574219 29.743125 91.71398437 30.09375 92.88671875 C30.75894537 95.17189422 31.41369948 97.4601158 32.0625 99.75 C33.01582246 103.05485119 34.13393859 106.26728311 35.31640625 109.49609375 C36.26555509 112.97269036 36.604536 116.41822605 37 120 C33.03047101 119.88201056 29.06119219 119.75778201 25.09204102 119.62768555 C23.74085853 119.58428777 22.38961947 119.5426163 21.03833008 119.50268555 C19.09963299 119.44510048 17.16113724 119.38085702 15.22265625 119.31640625 C14.05484619 119.27974854 12.88703613 119.24309082 11.68383789 119.20532227 C9 119 9 119 8 118 C6.05643557 117.80647673 4.10658604 117.67558956 2.15625 117.5703125 C0.93897217 117.49876953 -0.27830566 117.42722656 -1.5324707 117.35351562 C-2.84175537 117.27810547 -4.15104004 117.20269531 -5.5 117.125 C-13.51899122 116.63611829 -21.43138653 116.13399002 -29.3125 114.5 C-39.17213873 112.4977349 -49.19820319 112.16862082 -59.22387695 111.64648438 C-60.25435402 111.59133163 -60.25435402 111.59133163 -61.3056488 111.5350647 C-63.20075631 111.43516612 -65.09622241 111.34213931 -66.99169922 111.24951172 C-70 111 -70 111 -73 110 C-76.64593517 109.69116784 -80.29240545 109.49041441 -83.9453125 109.28125 C-87 109 -87 109 -88 108 C-93.48289225 107.01885086 -98.94217832 106.73706348 -104.5 106.5 C-110.06673935 106.26255614 -115.4961996 105.88770974 -121 105 C-120.44053572 101.38318166 -119.23677077 99.98279247 -116.4375 97.6875 C-115.36435547 96.79417969 -115.36435547 96.79417969 -114.26953125 95.8828125 C-113.52058594 95.26148438 -112.77164062 94.64015625 -112 94 C-109.88276542 92.10077037 -107.77148136 90.19526697 -105.6640625 88.28515625 C-104 87 -104 87 -102 87 C-102 86.34 -102 85.68 -102 85 C-101.34 85 -100.68 85 -100 85 C-100 84.34 -100 83.68 -100 83 C-98.30096977 81.48259024 -96.53927277 80.034872 -94.75 78.625 C-91.94686688 76.40770687 -89.26298803 74.2694248 -86.765625 71.7109375 C-85 70 -85 70 -83 70 C-83 69.34 -83 68.68 -83 68 C-81.48848454 66.64902626 -79.91186687 65.37072655 -78.3125 64.125 C-73.03995337 59.92750508 -68.10491567 55.47497275 -63.24145508 50.81103516 C-59.21057633 47 -59.21057633 47 -57 47 C-57 46.34 -57 45.68 -57 45 C-55.30096977 43.48259024 -53.53927277 42.034872 -51.75 40.625 C-48.94686688 38.40770687 -46.26298803 36.2694248 -43.765625 33.7109375 C-42 32 -42 32 -40 32 C-40 31.34 -40 30.68 -40 30 C-34.52380952 25 -34.52380952 25 -32 25 C-32 24.34 -32 23.68 -32 23 C-30.35546875 21.30859375 -30.35546875 21.30859375 -28.1875 19.4375 C-27.47980469 18.81746094 -26.77210938 18.19742187 -26.04296875 17.55859375 C-24 16 -24 16 -21 15 C-21 14.34 -21 13.68 -21 13 C-17.53846154 10 -17.53846154 10 -15 10 C-14.67 9.01 -14.34 8.02 -14 7 C-12.2578125 5.2109375 -12.2578125 5.2109375 -10.125 3.375 C-9.07699219 2.45847656 -9.07699219 2.45847656 -8.0078125 1.5234375 C-4.96252754 -0.78718727 -3.67318407 -1.22439469 0 0 Z " fill="#58BBBF" transform="translate(433,394)"/>
<path d="M0 0 C9.82504645 -0.20257828 19.25712149 -0.03587261 29 1.4296875 C33.58903865 2.11202944 38.19432697 2.56460939 42.8125 3 C43.67649414 3.08161377 44.54048828 3.16322754 45.43066406 3.24731445 C54.10154073 4.04331655 62.78435875 4.69037913 71.4699707 5.30273438 C72.52273193 5.37943359 73.57549316 5.45613281 74.66015625 5.53515625 C75.59480713 5.600979 76.52945801 5.66680176 77.49243164 5.73461914 C79.75970967 5.97456961 81.79836319 6.43483756 84 7 C86.64829145 7.17844103 89.28664985 7.32206686 91.9375 7.4375 C98.23837678 7.75878927 104.35069639 8.41919342 110.578125 9.46484375 C114.60506749 10.09462814 118.63603142 10.56079882 122.6875 11 C123.44635498 11.08241943 124.20520996 11.16483887 124.98706055 11.24975586 C127.32450996 11.50171565 129.66222255 11.75110375 132 12 C142.70024204 13.14493708 153.35740197 14.3916331 164 16 C164 16.99 164 17.98 164 19 C161.8828125 20.53515625 161.8828125 20.53515625 159.125 22.0625 C155.30544968 24.18803738 155.30544968 24.18803738 152 27 C149.43229715 28.05527888 146.83127811 28.97514248 144.21484375 29.90234375 C143.48394531 30.26457031 142.75304687 30.62679687 142 31 C141.67 31.99 141.34 32.98 141 34 C139.1796875 34.80859375 139.1796875 34.80859375 136.875 35.4375 C131.55852853 37.0603339 126.94546313 38.99374114 123 43.0625 C120.80394782 45.18992555 118.67722512 46.05131728 115.85546875 47.15234375 C113.85165853 48.06776863 112.25813376 49.1764611 110.5 50.5 C107.20386959 52.96288044 103.82933075 54.4682677 100 56 C95.25244105 58.0889723 95.25244105 58.0889723 92 62 C89.68191636 63.03485877 87.34824702 64.0355414 85 65 C84.34 65.66 83.68 66.32 83 67 C81.28600311 67.72515253 79.57136422 68.44888023 77.8515625 69.16015625 C75.00210715 70.45263072 72.55998254 72.20801222 70 74 C64.79848358 77.6267454 59.88942158 80.64423137 54 83 C53.01 83.66 52.02 84.32 51 85 C50.01 85 49.02 85 48 85 C47.67 83.35 47.34 81.7 47 80 C46.01 79.67 45.02 79.34 44 79 C43.31101728 77.44978888 42.63632419 75.8919429 42.02734375 74.30859375 C40.20871688 70.22186949 37.7602532 66.48049591 35.42578125 62.671875 C34 60 34 60 34 57 C33.34 57 32.68 57 32 57 C31.59007812 56.24074219 31.18015625 55.48148438 30.7578125 54.69921875 C30.21898437 53.70535156 29.68015625 52.71148438 29.125 51.6875 C28.59132813 50.70136719 28.05765625 49.71523438 27.5078125 48.69921875 C25.99277874 45.90413542 25.99277874 45.90413542 24 43 C24 42.01 24 41.02 24 40 C23.34 40 22.68 40 22 40 C21.34 38.35 20.68 36.7 20 35 C19.34 35 18.68 35 18 35 C17.73445313 34.38511719 17.46890625 33.77023437 17.1953125 33.13671875 C16.84210938 32.32847656 16.48890625 31.52023437 16.125 30.6875 C15.77695312 29.88699219 15.42890625 29.08648438 15.0703125 28.26171875 C13.97428106 25.8038166 13.97428106 25.8038166 12 23 C12 22.01 12 21.02 12 20 C11.01 19.67 10.02 19.34 9 19 C8.23812275 17.34374511 7.4870343 15.68031455 6.828125 13.98046875 C5.97112788 11.93095205 4.94818489 10.09497074 3.8125 8.1875 C2 5 2 5 2 3 C1.34 3 0.68 3 0 3 C0 2.01 0 1.02 0 0 Z " fill="#59BBBF" transform="translate(311,504)"/>
<path d="M0 0 C10.89 0 21.78 0 33 0 C33 0.66 33 1.32 33 2 C34.98 2 36.96 2 39 2 C39 2.66 39 3.32 39 4 C39.5775 4.2475 40.155 4.495 40.75 4.75 C44.48597363 6.82554091 46.64391315 8.93173944 48 13 C48.06802967 14.72795352 48.08495645 16.45835365 48.0625 18.1875 C48.05347656 19.08855469 48.04445313 19.98960937 48.03515625 20.91796875 C48.02355469 21.60503906 48.01195312 22.29210937 48 23 C47.34 23 46.68 23 46 23 C45.79375 23.5775 45.5875 24.155 45.375 24.75 C43.50249112 27.81410544 41.03041481 29.15539968 38 31 C39.9254644 33.2236068 39.9254644 33.2236068 43 34 C43 34.66 43 35.32 43 36 C43.5775 36.020625 44.155 36.04125 44.75 36.0625 C47.73014276 37.30422615 48.78453049 39.22887956 50.2421875 42.03515625 C51.84081699 46.18005642 51.22416794 49.87916031 50.375 54.125 C47.82737207 59.45185841 42.98843871 62.1494636 38 65 C37.67 65.33 37.34 65.66 37 66 C34.34543807 66.10095564 31.71744824 66.13970998 29.0625 66.1328125 C27.86959351 66.13424759 27.86959351 66.13424759 26.65258789 66.13571167 C24.9679354 66.13639343 23.28328029 66.13453943 21.59863281 66.13037109 C19.01100803 66.12502275 16.42355684 66.13031619 13.8359375 66.13671875 C12.20312461 66.13605797 10.57031184 66.1347768 8.9375 66.1328125 C8.15834229 66.13483673 7.37918457 66.13686096 6.57641602 66.13894653 C1.11495105 66.11495105 1.11495105 66.11495105 0 65 C-0.09409479 62.97505769 -0.11743122 60.9468013 -0.11352539 58.91967773 C-0.11344986 57.61840439 -0.11337433 56.31713104 -0.11329651 54.97642517 C-0.10818909 53.54548098 -0.10297308 52.11453718 -0.09765625 50.68359375 C-0.09579203 49.2277074 -0.09436815 47.77182043 -0.09336853 46.31593323 C-0.08954365 42.47720621 -0.07971364 38.63851681 -0.06866455 34.79980469 C-0.05665498 30.19764229 -0.05204804 25.59546734 -0.04621124 20.99329376 C-0.03650185 13.99550298 -0.01734513 6.9977948 0 0 Z " fill="#F8FCFC" transform="translate(290,682)"/>
<path d="M0 0 C1.47968324 0.14049518 2.95874516 0.28754826 4.4375 0.4375 C5.67306641 0.55931641 5.67306641 0.55931641 6.93359375 0.68359375 C9 1 9 1 10 2 C11.51165654 2.39148761 13.03469632 2.73972457 14.5625 3.0625 C15.38878906 3.23910156 16.21507812 3.41570312 17.06640625 3.59765625 C17.70449219 3.73042969 18.34257812 3.86320312 19 4 C19 4.66 19 5.32 19 6 C19.95132813 6.12955078 19.95132813 6.12955078 20.921875 6.26171875 C27.83472634 7.30246571 34.58786643 8.7729772 41.375 10.4375 C42.23061523 10.64270264 43.08623047 10.84790527 43.96777344 11.05932617 C47.62249389 11.97443783 50.7920077 12.89523541 54.171875 14.59765625 C57.47140444 16.23374889 60.22318862 16.60960591 63.875 17 C69.38233185 17.68841648 73.93223037 18.77018136 79 21 C78.46987003 25.39928751 76.90733033 27.79848989 74.1875 31.25 C71.05883594 35.39547987 68.73842735 39.28880488 66.7890625 44.0859375 C65.76876883 46.56090729 64.41774107 48.73161429 63 51 C61.75344989 53.33370529 60.50993683 55.66854995 59.28125 58.01171875 C58 60 58 60 55 62 C51.67862552 66.97193558 49.23502837 72.47124561 47 78 C46.01 78 45.02 78 44 78 C43.67 76.35 43.34 74.7 43 73 C42.01 72.67 41.02 72.34 40 72 C39.30755353 70.44199543 38.62860299 68.87697922 38.0078125 67.2890625 C35.15659984 60.81305234 31.15005416 54.78568696 27.375 48.8125 C25.58540885 45.9705579 23.85941352 43.10046977 22.1875 40.1875 C21.76855469 39.45917969 21.34960938 38.73085938 20.91796875 37.98046875 C20 36 20 36 20 33 C19.34 33 18.68 33 18 33 C17.34 31.35 16.68 29.7 16 28 C15.34 28 14.68 28 14 28 C13.73445312 27.38511719 13.46890625 26.77023437 13.1953125 26.13671875 C12.84210938 25.32847656 12.48890625 24.52023437 12.125 23.6875 C11.77695313 22.88699219 11.42890625 22.08648437 11.0703125 21.26171875 C9.97428106 18.8038166 9.97428106 18.8038166 8 16 C8 15.01 8 14.02 8 13 C7.34 13 6.68 13 6 13 C5.9175 12.21625 5.835 11.4325 5.75 10.625 C5.5025 9.75875 5.255 8.8925 5 8 C4.34 7.690625 3.68 7.38125 3 7.0625 C2.34 6.711875 1.68 6.36125 1 6 C0.25 2.875 0.25 2.875 0 0 Z " fill="#5ABCC0" transform="translate(210,331)"/>
<path d="M0 0 C4.29 0 8.58 0 13 0 C15.76458993 3.45573741 17.79691691 6.34988467 19.89306641 10.13525391 C22.3114954 14.20935197 25.31964891 17.90203849 28.19726562 21.65820312 C28.67228516 22.29048828 29.14730469 22.92277344 29.63671875 23.57421875 C30.06686279 24.13713623 30.49700684 24.70005371 30.94018555 25.2800293 C32.1041126 27.16896412 32.48684983 28.85635206 33 31 C33.515625 31.495 34.03125 31.99 34.5625 32.5 C36 34 36 34 36 38 C37.65 38.33 39.3 38.66 41 39 C41 26.13 41 13.26 41 0 C45.29 0 49.58 0 54 0 C54 21.45 54 42.9 54 65 C50.04 65 46.08 65 42 65 C41.4225 63.948125 40.845 62.89625 40.25 61.8125 C38.87614824 59.38372635 37.53546135 57.43223053 35.75 55.25 C34 53 34 53 34 50 C33.34 50 32.68 50 32 50 C22 38.92857143 22 38.92857143 22 33 C21.34 33 20.68 33 20 33 C18.61876037 31.03277992 17.28511874 29.03131672 16 27 C15.67 26.67 15.34 26.34 15 26 C14.67 38.87 14.34 51.74 14 65 C9.38 65 4.76 65 0 65 C0 43.55 0 22.1 0 0 Z " fill="#F6FBFB" transform="translate(441,683)"/>
<path d="M0 0 C4.62 0 9.24 0 14 0 C14.01458252 1.39758545 14.02916504 2.7951709 14.04418945 4.23510742 C14.10220831 9.42563322 14.17944163 14.61572685 14.26245117 19.8059082 C14.29568351 22.0512795 14.32372069 24.296734 14.34643555 26.54223633 C14.38001202 29.77200743 14.43233073 33.00101727 14.48828125 36.23046875 C14.49467117 37.23272995 14.5010611 38.23499115 14.50764465 39.2676239 C14.62382016 46.13374082 14.62382016 46.13374082 18 52 C22.15915539 54.07957769 27.45911564 53.33745816 32 53 C35.61003531 51.91205029 35.61003531 51.91205029 38 50 C38.9465414 47.16037579 39.14994224 45.29593471 39.20532227 42.3449707 C39.22526749 41.40422195 39.24521271 40.46347321 39.26576233 39.49421692 C39.28247482 38.48163315 39.29918732 37.46904938 39.31640625 36.42578125 C39.33718735 35.38681198 39.35796844 34.34784271 39.37937927 33.27738953 C39.44480656 29.95582747 39.50372821 26.63418584 39.5625 23.3125 C39.60569169 21.0618407 39.64930619 18.81118948 39.69335938 16.56054688 C39.80048103 11.04044631 39.90176789 5.52026563 40 0 C44.62 0 49.24 0 54 0 C54.12384892 7.27736238 54.2144603 14.55410761 54.2746582 21.83227539 C54.29976003 24.30666799 54.33384869 26.78098675 54.37719727 29.25512695 C54.43803586 32.81740567 54.46625431 36.37870173 54.48828125 39.94140625 C54.51408768 41.04271378 54.5398941 42.1440213 54.56648254 43.27870178 C54.56900825 50.23775036 53.73707923 53.81952274 49 59 C40.69134312 65.58547885 31.48856737 68.14906598 21 67 C16.57937687 65.89604417 12.29103571 64.52812718 8 63 C8 62.34 8 61.68 8 61 C7.34 61 6.68 61 6 61 C5.505 59.515 5.505 59.515 5 58 C4.34 57.505 3.68 57.01 3 56.5 C1 55 1 55 0 52 C-0.08770177 50.29716578 -0.11765393 48.59107252 -0.11352539 46.88598633 C-0.11344986 45.84513382 -0.11337433 44.80428131 -0.11329651 43.73188782 C-0.10813522 42.60993515 -0.10297394 41.48798248 -0.09765625 40.33203125 C-0.0962413 39.18208176 -0.09482635 38.03213226 -0.09336853 36.84733582 C-0.08776429 33.16903092 -0.07521104 29.49078655 -0.0625 25.8125 C-0.05748555 23.32096442 -0.05292255 20.82942789 -0.04882812 18.33789062 C-0.03779347 12.22523704 -0.02052595 6.11262879 0 0 Z " fill="#F5FBFB" transform="translate(226,682)"/>
<path d="M0 0 C4.62 0 9.24 0 14 0 C14.01981934 1.37776611 14.03963867 2.75553223 14.06005859 4.17504883 C14.13604788 9.27972908 14.22477559 14.38412178 14.31738281 19.48852539 C14.35570017 21.69907968 14.39054814 23.90969692 14.421875 26.12036133 C14.46746552 29.29531371 14.52547003 32.46983172 14.5859375 35.64453125 C14.59748871 36.63524124 14.60903992 37.62595123 14.62094116 38.64668274 C14.64081085 39.56741074 14.66068054 40.48813873 14.68115234 41.43676758 C14.69447601 42.2472908 14.70779968 43.05781403 14.7215271 43.89289856 C14.88223777 46.30100191 14.88223777 46.30100191 17 49 C17 49.99 17 50.98 17 52 C19.37625177 52.10883596 21.74743976 52.18766696 24.125 52.25 C24.79015625 52.28351562 25.4553125 52.31703125 26.140625 52.3515625 C31.26914595 52.45212173 34.0675566 51.22723319 38 48 C39.17559215 45.6488157 39.15516463 44.17282086 39.20532227 41.55029297 C39.22526749 40.62948944 39.24521271 39.70868591 39.26576233 38.75997925 C39.28247482 37.76410797 39.29918732 36.76823669 39.31640625 35.7421875 C39.33718735 34.72399933 39.35796844 33.70581116 39.37937927 32.6567688 C39.44489466 29.39624945 39.50376902 26.13564794 39.5625 22.875 C39.60568332 20.66796017 39.64929755 18.46092872 39.69335938 16.25390625 C39.8005781 10.83602225 39.90183996 5.41805539 40 0 C44.62 0 49.24 0 54 0 C54.17375293 6.95584514 54.30040654 13.91041229 54.38452148 20.86791992 C54.41960467 23.23175069 54.46728523 25.59543086 54.52807617 27.95874023 C54.61352613 31.36740358 54.65281144 34.77405038 54.68359375 38.18359375 C54.71972275 39.23083115 54.75585175 40.27806854 54.79307556 41.35704041 C54.79676733 48.34204437 53.2354014 52.1218868 48.70252991 57.44667053 C47 59 47 59 45 59 C44.74863281 59.62390625 44.49726562 60.2478125 44.23828125 60.890625 C42.36030391 64.08970311 40.20502794 64.45226674 36.7578125 65.4609375 C27.5874882 67.25343715 17.28591027 66.87542349 9.15625 61.86328125 C4.39572868 58.16454288 1.96618971 53.57597761 0 48 C-0.24050903 45.57646179 -0.24050903 45.57646179 -0.22705078 43.02612305 C-0.22689972 42.06550461 -0.22674866 41.10488617 -0.22659302 40.11515808 C-0.21627045 39.0910231 -0.20594788 38.06688812 -0.1953125 37.01171875 C-0.1924826 35.95338333 -0.18965271 34.89504791 -0.18673706 33.80464172 C-0.1755629 30.43214502 -0.15046307 27.05991613 -0.125 23.6875 C-0.11496664 21.3977903 -0.10584141 19.10807643 -0.09765625 16.81835938 C-0.07563255 11.21213676 -0.04112141 5.60611375 0 0 Z " fill="#F5FAFB" transform="translate(633,683)"/>
<path d="M0 0 C1.09731445 0.01353516 1.09731445 0.01353516 2.21679688 0.02734375 C3.99884298 0.05063847 5.78071759 0.0864981 7.5625 0.125 C7.5625 0.785 7.5625 1.445 7.5625 2.125 C8.3978125 2.2796875 8.3978125 2.2796875 9.25 2.4375 C13.34577978 3.65516426 16.8404691 5.82715487 19.5625 9.125 C20.29296875 11.60546875 20.29296875 11.60546875 20.75 14.3125 C20.90855469 15.21355469 21.06710937 16.11460937 21.23046875 17.04296875 C21.34003906 17.73003906 21.44960938 18.41710937 21.5625 19.125 C19.62690687 19.26004138 17.688628 19.35701129 15.75 19.4375 C14.67105469 19.49550781 13.59210937 19.55351563 12.48046875 19.61328125 C9.5625 19.125 9.5625 19.125 7.80078125 16.66796875 C7.39214844 15.82878906 6.98351562 14.98960937 6.5625 14.125 C3.71754507 12.70252253 1.2313204 12.91706399 -1.9375 12.875 C-3.1028125 12.84921875 -4.268125 12.8234375 -5.46875 12.796875 C-6.93828125 12.95929687 -6.93828125 12.95929687 -8.4375 13.125 C-10.49675681 16.21388522 -10.6765374 16.83435927 -10.5625 20.3125 C-10.52125 21.570625 -10.48 22.82875 -10.4375 24.125 C-9.69886719 24.30675781 -8.96023438 24.48851562 -8.19921875 24.67578125 C-1.25104225 26.39737517 5.66501836 28.21054151 12.5625 30.125 C12.5625 30.785 12.5625 31.445 12.5625 32.125 C13.305 32.393125 14.0475 32.66125 14.8125 32.9375 C17.47041524 34.08523613 19.40890096 35.20214371 21.5625 37.125 C23.29198476 42.31345429 23.04951662 47.71444547 22.5625 53.125 C20.8125 56.625 20.8125 56.625 18.5625 59.125 C18.02625 60.011875 17.49 60.89875 16.9375 61.8125 C11.89707949 66.72027786 5.17010272 67.29826735 -1.625 67.375 C-10.27088239 67.10931347 -16.07816747 66.60787637 -22.3671875 60.140625 C-25.56615426 56.41492074 -27.88396852 53.61177756 -27.875 48.5625 C-27.730625 47.428125 -27.58625 46.29375 -27.4375 45.125 C-23.1475 45.125 -18.8575 45.125 -14.4375 45.125 C-13.880625 46.5171875 -13.880625 46.5171875 -13.3125 47.9375 C-11.04407407 51.79382407 -9.64397071 52.69638731 -5.4375 54.125 C-0.75618688 54.70327986 3.32753155 54.30665041 7.5625 52.125 C8.97827477 50.94075674 8.97827477 50.94075674 8.625 47.5625 C8.604375 46.428125 8.58375 45.29375 8.5625 44.125 C2.547881 40.99618305 -3.01596368 39.47834714 -9.73828125 38.6171875 C-12.32989821 38.14462059 -14.16767375 37.42974573 -16.4375 36.125 C-16.4375 35.465 -16.4375 34.805 -16.4375 34.125 C-16.994375 33.898125 -17.55125 33.67125 -18.125 33.4375 C-22.12188886 31.16899551 -24.97716649 28.50600054 -26.4375 24.125 C-26.71440465 18.58690705 -26.18710184 14.37380553 -24.4375 9.125 C-23.7775 9.125 -23.1175 9.125 -22.4375 9.125 C-22.4375 8.465 -22.4375 7.805 -22.4375 7.125 C-21.7775 7.125 -21.1175 7.125 -20.4375 7.125 C-20.4375 6.465 -20.4375 5.805 -20.4375 5.125 C-14.17042724 0.5671289 -7.48803628 -0.17812346 0 0 Z " fill="#F7FBFB" transform="translate(723.4375,681.875)"/>
<path d="M0 0 C1.09731445 0.01353516 1.09731445 0.01353516 2.21679688 0.02734375 C3.99884298 0.05063847 5.78071759 0.0864981 7.5625 0.125 C7.5625 0.785 7.5625 1.445 7.5625 2.125 C8.3978125 2.2796875 8.3978125 2.2796875 9.25 2.4375 C13.34577978 3.65516426 16.8404691 5.82715487 19.5625 9.125 C20.29296875 11.60546875 20.29296875 11.60546875 20.75 14.3125 C20.90855469 15.21355469 21.06710938 16.11460937 21.23046875 17.04296875 C21.34003906 17.73003906 21.44960937 18.41710937 21.5625 19.125 C19.62690687 19.26004138 17.688628 19.35701129 15.75 19.4375 C14.67105469 19.49550781 13.59210938 19.55351563 12.48046875 19.61328125 C9.5625 19.125 9.5625 19.125 7.80078125 16.66796875 C7.39214844 15.82878906 6.98351562 14.98960937 6.5625 14.125 C3.71754507 12.70252253 1.2313204 12.91706399 -1.9375 12.875 C-3.1028125 12.84921875 -4.268125 12.8234375 -5.46875 12.796875 C-6.93828125 12.95929687 -6.93828125 12.95929687 -8.4375 13.125 C-10.49675681 16.21388522 -10.6765374 16.83435927 -10.5625 20.3125 C-10.52125 21.570625 -10.48 22.82875 -10.4375 24.125 C-9.69886719 24.30675781 -8.96023437 24.48851562 -8.19921875 24.67578125 C-1.25104225 26.39737517 5.66501836 28.21054151 12.5625 30.125 C12.5625 30.785 12.5625 31.445 12.5625 32.125 C13.305 32.393125 14.0475 32.66125 14.8125 32.9375 C17.47041524 34.08523613 19.40890096 35.20214371 21.5625 37.125 C23.29198476 42.31345429 23.04951662 47.71444547 22.5625 53.125 C20.8125 56.625 20.8125 56.625 18.5625 59.125 C18.02625 60.011875 17.49 60.89875 16.9375 61.8125 C11.89707949 66.72027786 5.17010272 67.29826735 -1.625 67.375 C-10.27088239 67.10931347 -16.07816747 66.60787637 -22.3671875 60.140625 C-25.56615426 56.41492074 -27.88396852 53.61177756 -27.875 48.5625 C-27.730625 47.428125 -27.58625 46.29375 -27.4375 45.125 C-23.1475 45.125 -18.8575 45.125 -14.4375 45.125 C-13.880625 46.5171875 -13.880625 46.5171875 -13.3125 47.9375 C-11.04407407 51.79382407 -9.64397071 52.69638731 -5.4375 54.125 C-0.75618688 54.70327986 3.32753155 54.30665041 7.5625 52.125 C8.97827477 50.94075674 8.97827477 50.94075674 8.625 47.5625 C8.604375 46.428125 8.58375 45.29375 8.5625 44.125 C2.547881 40.99618305 -3.01596368 39.47834714 -9.73828125 38.6171875 C-12.32989821 38.14462059 -14.16767375 37.42974573 -16.4375 36.125 C-16.4375 35.465 -16.4375 34.805 -16.4375 34.125 C-16.994375 33.898125 -17.55125 33.67125 -18.125 33.4375 C-22.12188886 31.16899551 -24.97716649 28.50600054 -26.4375 24.125 C-26.71440465 18.58690705 -26.18710184 14.37380553 -24.4375 9.125 C-23.7775 9.125 -23.1175 9.125 -22.4375 9.125 C-22.4375 8.465 -22.4375 7.805 -22.4375 7.125 C-21.7775 7.125 -21.1175 7.125 -20.4375 7.125 C-20.4375 6.465 -20.4375 5.805 -20.4375 5.125 C-14.17042724 0.5671289 -7.48803628 -0.17812346 0 0 Z " fill="#F7FBFB" transform="translate(193.4375,681.875)"/>
<path d="M0 0 C0.845625 -0.00322266 1.69125 -0.00644531 2.5625 -0.00976562 C6.79066775 0.02691406 9.63314685 0.18901683 13.375 2.3125 C13.375 2.9725 13.375 3.6325 13.375 4.3125 C13.91125 4.374375 14.4475 4.43625 15 4.5 C18.57872005 5.72429896 20.63495524 7.69700273 23.375 10.3125 C23.375 11.3025 23.375 12.2925 23.375 13.3125 C24.035 13.3125 24.695 13.3125 25.375 13.3125 C25.684375 14.116875 25.99375 14.92125 26.3125 15.75 C27.13835345 18.20330405 27.13835345 18.20330405 28.375 19.3125 C28.41563832 20.97867115 28.417721 22.64638095 28.375 24.3125 C23.62454941 24.77533145 19.10722237 25.02608909 14.375 24.3125 C10.82331082 21.34815242 9.79878255 17.58384766 8.375 13.3125 C-1.05688086 12.26529402 -1.05688086 12.26529402 -9.4375 15.625 C-11.77507563 18.17335624 -11.77507563 18.17335624 -12.625 21.3125 C-13.285 21.3125 -13.945 21.3125 -14.625 21.3125 C-15.285 27.9125 -15.945 34.5125 -16.625 41.3125 C-15.965 41.3125 -15.305 41.3125 -14.625 41.3125 C-14.356875 42.240625 -14.08875 43.16875 -13.8125 44.125 C-12.67559563 47.17669067 -11.87740693 48.1624752 -9.625 50.3125 C-9.625 51.3025 -9.625 52.2925 -9.625 53.3125 C-6.8541017 53.33946009 -4.0834655 53.35931952 -1.3125 53.375 C-0.13397461 53.38756836 -0.13397461 53.38756836 1.06835938 53.40039062 C2.2043457 53.40522461 2.2043457 53.40522461 3.36328125 53.41015625 C4.05977783 53.41539307 4.75627441 53.42062988 5.47387695 53.42602539 C8.41604732 53.25033395 10.02462398 52.70330402 12 50.5 C13.63625788 48.14847283 13.63625788 48.14847283 14.375 44.3125 C18.665 44.3125 22.955 44.3125 27.375 44.3125 C27.375 50.3125 27.375 50.3125 25.375 53.3125 C24.715 53.3125 24.055 53.3125 23.375 53.3125 C23.271875 53.910625 23.16875 54.50875 23.0625 55.125 C22.27675967 57.62508286 21.40581147 58.68785082 19.375 60.3125 C18.715 60.3125 18.055 60.3125 17.375 60.3125 C16.715 61.6325 16.055 62.9525 15.375 64.3125 C14.055 64.3125 12.735 64.3125 11.375 64.3125 C11.375 64.9725 11.375 65.6325 11.375 66.3125 C4.445 66.3125 -2.485 66.3125 -9.625 66.3125 C-9.625 65.6525 -9.625 64.9925 -9.625 64.3125 C-10.635625 64.27125 -11.64625 64.23 -12.6875 64.1875 C-17.48002899 63.47785575 -20.58838235 61.0037651 -23.625 57.3125 C-24.89586597 54.68444508 -25.72628766 52.1032383 -26.625 49.3125 C-27.285 48.9825 -27.945 48.6525 -28.625 48.3125 C-32.09280998 36.56047729 -31.79532365 24.29954715 -26.01953125 13.33203125 C-19.51672086 3.91479604 -11.14288019 -0.21428616 0 0 Z " fill="#F7FBFB" transform="translate(535.625,681.6875)"/>
<path d="M0 0 C3.08119332 2.01913871 4.83288714 4.26317448 6.94921875 7.27734375 C7.50609375 7.79296875 8.06296875 8.30859375 8.63671875 8.83984375 C11.85665581 12.36644148 11.94921875 15.59278098 11.94921875 20.27734375 C7.65921875 20.27734375 3.36921875 20.27734375 -1.05078125 20.27734375 C-1.58703125 19.20484375 -2.12328125 18.13234375 -2.67578125 17.02734375 C-4.88950814 13.22467004 -6.99288425 11.19144611 -11.05078125 9.27734375 C-16.41409365 8.51665851 -21.02673584 9.21619692 -26.05078125 11.27734375 C-26.05078125 11.93734375 -26.05078125 12.59734375 -26.05078125 13.27734375 C-26.71078125 13.27734375 -27.37078125 13.27734375 -28.05078125 13.27734375 C-28.05078125 13.93734375 -28.05078125 14.59734375 -28.05078125 15.27734375 C-28.71078125 15.27734375 -29.37078125 15.27734375 -30.05078125 15.27734375 C-31.10433334 19.57516736 -31.20044744 23.75354036 -31.17578125 28.15234375 C-31.17964844 28.83425781 -31.18351562 29.51617188 -31.1875 30.21875 C-31.17902544 34.66789623 -30.77296513 38.8869243 -30.05078125 43.27734375 C-29.39078125 43.27734375 -28.73078125 43.27734375 -28.05078125 43.27734375 C-28.05078125 43.93734375 -28.05078125 44.59734375 -28.05078125 45.27734375 C-27.24640625 45.54546875 -26.44203125 45.81359375 -25.61328125 46.08984375 C-24.34484375 46.67765625 -24.34484375 46.67765625 -23.05078125 47.27734375 C-22.72078125 48.26734375 -22.39078125 49.25734375 -22.05078125 50.27734375 C-14.0320967 50.62508462 -14.0320967 50.62508462 -6.921875 47.65234375 C-5.34723669 45.76165383 -5.34723669 45.76165383 -4.1015625 43.7734375 C-3.75480469 43.27972656 -3.40804687 42.78601563 -3.05078125 42.27734375 C-2.39078125 42.27734375 -1.73078125 42.27734375 -1.05078125 42.27734375 C-1.05078125 41.61734375 -1.05078125 40.95734375 -1.05078125 40.27734375 C2.90921875 40.27734375 6.86921875 40.27734375 10.94921875 40.27734375 C10.14770834 47.09018222 9.25942816 51.70466342 3.94921875 56.27734375 C-1.49522569 60.27734375 -1.49522569 60.27734375 -5.05078125 60.27734375 C-5.05078125 60.93734375 -5.05078125 61.59734375 -5.05078125 62.27734375 C-14.8918989 64.40515297 -22.40412644 63.95493272 -31.30078125 59.06640625 C-35.03729388 56.63555002 -38.50400227 53.9809343 -41.05078125 50.27734375 C-41.05078125 49.28734375 -41.05078125 48.29734375 -41.05078125 47.27734375 C-41.71078125 47.27734375 -42.37078125 47.27734375 -43.05078125 47.27734375 C-47.06177946 37.56022308 -47.83770571 25.40905797 -44.98828125 15.21484375 C-41.7602564 7.50923605 -35.71100683 2.06685073 -28.34375 -1.65234375 C-19.37920833 -4.56608564 -8.52638717 -4.06776705 0 0 Z " fill="#F5FBFB" transform="translate(394.05078125,685.72265625)"/>
<path d="M0 0 C17.49 0 34.98 0 53 0 C53 3.63 53 7.26 53 11 C46.4 11 39.8 11 33 11 C33 28.49 33 45.98 33 64 C28.71 64 24.42 64 20 64 C20 46.51 20 29.02 20 11 C13.4 11 6.8 11 0 11 C0 7.37 0 3.74 0 0 Z " fill="#F8FCFC" transform="translate(571,683)"/>
<path d="M0 0 C4.62 0 9.24 0 14 0 C14 21.78 14 43.56 14 66 C9.38 66 4.76 66 0 66 C0 44.22 0 22.44 0 0 Z " fill="#F1F9F9" transform="translate(416,682)"/>
<path d="M0 0 C0.99 0.66 1.98 1.32 3 2 C3 3.32 3 4.64 3 6 C-115.14 6 -233.28 6 -355 6 C-354.34 4.68 -353.68 3.36 -353 2 C-352.34 2 -351.68 2 -351 2 C-351 2.66 -351 3.32 -351 4 C-234.84 4 -118.68 4 1 4 C0.67 2.68 0.34 1.36 0 0 Z " fill="#D3EDEE" transform="translate(733,587)"/>
<path d="M0 0 C0.99 0.33 1.98 0.66 3 1 C3.79265639 6.32212148 4.42978066 11.6496441 5 17 C5.66 17 6.32 17 7 17 C9.4021604 21.8043208 9.61122229 26.73103895 10 32 C10.66 32 11.32 32 12 32 C12.10957031 32.65226562 12.21914063 33.30453125 12.33203125 33.9765625 C13.34823959 39.59412664 13.34823959 39.59412664 15.4375 44.875 C18.17485605 50.3497121 20 56.85517535 20 63 C20.66 63 21.32 63 22 63 C22.50588147 64.91512272 23.00448391 66.83216922 23.5 68.75 C23.7784375 69.81734375 24.056875 70.8846875 24.34375 71.984375 C25 75 25 75 25 79 C25.66 79 26.32 79 27 79 C29.4021604 83.8043208 29.61122229 88.73103895 30 94 C30.66 94 31.32 94 32 94 C32.39832031 95.50240234 32.39832031 95.50240234 32.8046875 97.03515625 C33.16142431 98.37761321 33.51819707 99.72006061 33.875 101.0625 C34.04902344 101.71927734 34.22304688 102.37605469 34.40234375 103.05273438 C34.57636719 103.70693359 34.75039063 104.36113281 34.9296875 105.03515625 C35.19168945 106.02104736 35.19168945 106.02104736 35.45898438 107.02685547 C35.99123881 108.96804696 36.56951064 110.8964317 37.1484375 112.82421875 C38.03580264 116.13352086 38.071536 117.78539201 37 121 C36.34 121.99 35.68 122.98 35 124 C30.71 123.67 26.42 123.34 22 123 C22 122.67 22 122.34 22 122 C23.85625 121.9690625 23.85625 121.9690625 25.75 121.9375 C26.44609375 121.92589844 27.1421875 121.91429687 27.859375 121.90234375 C30.03645901 122.00166328 31.89974195 122.44416248 34 123 C33.66226563 121.85402344 33.32453125 120.70804687 32.9765625 119.52734375 C32.52602697 117.99740016 32.07550696 116.467452 31.625 114.9375 C31.40328125 114.18533203 31.1815625 113.43316406 30.953125 112.65820312 C29.61462063 108.11122504 28.30145545 103.55775012 27 99 C26.36284919 96.8099553 25.71717251 94.6223709 25.0625 92.4375 C24.74410156 91.36371094 24.42570312 90.28992188 24.09765625 89.18359375 C23.06728746 85.95452929 23.06728746 85.95452929 21.42578125 82.91796875 C20.03866849 80.07913797 19.51446394 77.9812124 19.125 74.875 C18.25934432 69.53678998 16.47406676 65.0510541 14.30078125 60.12109375 C11.65688047 53.7773198 9.83882813 47.13162502 8.0625 40.5 C7.04447802 37.14651583 5.83875585 33.95030886 4.5625 30.6875 C-1 16.41919379 -1 16.41919379 -1 11 C-0.34 11 0.32 11 1 11 C0.67 7.37 0.34 3.74 0 0 Z " fill="#E4F4F4" transform="translate(436,391)"/>
<path d="M0 0 C5.28 0 10.56 0 16 0 C16 0.66 16 1.32 16 2 C16.928125 2.185625 16.928125 2.185625 17.875 2.375 C20 3 20 3 22 5 C22.26991906 7.68839385 22.08737357 10.29141936 22 13 C21.34 13 20.68 13 20 13 C20 13.66 20 14.32 20 15 C16.95318939 17.03120707 16.39881676 17.24659875 12.98828125 17.1953125 C12.30548096 17.19031738 11.62268066 17.18532227 10.91918945 17.18017578 C10.05898193 17.16196777 9.19877441 17.14375977 8.3125 17.125 C4.1978125 17.063125 4.1978125 17.063125 0 17 C0 11.39 0 5.78 0 0 Z " fill="#60BEC2" transform="translate(304,719)"/>
<path d="M0 0 C2.60478883 -0.0809313 5.20706653 -0.14045434 7.8125 -0.1875 C8.55048828 -0.21263672 9.28847656 -0.23777344 10.04882812 -0.26367188 C15.45912279 -0.33711479 15.45912279 -0.33711479 17.98046875 1.234375 C19.24574542 3.42558211 19.465902 4.90998603 19.5 7.4375 C19.5309375 8.19933594 19.561875 8.96117187 19.59375 9.74609375 C18.68691337 13.18849334 17.00331095 14.19801343 14 16 C10.703125 16.42578125 10.703125 16.42578125 7.25 16.3125 C6.10015625 16.28800781 4.9503125 16.26351562 3.765625 16.23828125 C1 16 1 16 0 15 C-0.07313567 12.46950598 -0.09247527 9.96695163 -0.0625 7.4375 C-0.05798828 6.72658203 -0.05347656 6.01566406 -0.04882812 5.28320312 C-0.03700864 3.52209987 -0.01907263 1.76103964 0 0 Z " fill="#61BFC2" transform="translate(304,694)"/>
<path d="M0 0 C10.89 0 21.78 0 33 0 C33 0.66 33 1.32 33 2 C34.98 2 36.96 2 39 2 C39 2.66 39 3.32 39 4 C34.0519151 3.88189912 29.10403724 3.7576616 24.15625 3.62768555 C22.47237358 3.58432183 20.78845277 3.5426478 19.10449219 3.50268555 C16.68671276 3.44501766 14.26915705 3.3813135 11.8515625 3.31640625 C11.0963028 3.29969376 10.34104309 3.28298126 9.56289673 3.26576233 C4.22774341 3.11387171 4.22774341 3.11387171 2 2 C2 22.79 2 43.58 2 65 C13.88 64.67 25.76 64.34 38 64 C37.67 64.66 37.34 65.32 37 66 C31.89136104 66.0246501 26.78275641 66.04283607 21.67407227 66.05493164 C19.93480832 66.05997204 18.19554864 66.0668043 16.45629883 66.07543945 C13.96174063 66.08751792 11.46723827 66.09323108 8.97265625 66.09765625 C8.19036148 66.10281754 7.40806671 66.10797882 6.60206604 66.11329651 C4.73432886 66.11349226 2.86670796 66.06199694 1 66 C0 65 0 65 -0.12025452 62.41209412 C-0.11803391 61.25959671 -0.11581329 60.1070993 -0.11352539 58.91967773 C-0.11344986 57.61840439 -0.11337433 56.31713104 -0.11329651 54.97642517 C-0.10818909 53.54548098 -0.10297308 52.11453718 -0.09765625 50.68359375 C-0.09579203 49.2277074 -0.09436815 47.77182043 -0.09336853 46.31593323 C-0.08954365 42.47720621 -0.07971364 38.63851681 -0.06866455 34.79980469 C-0.05665498 30.19764229 -0.05204804 25.59546734 -0.04621124 20.99329376 C-0.03650185 13.99550298 -0.01734513 6.9977948 0 0 Z " fill="#BDE4E5" transform="translate(290,682)"/>
<path d="M0 0 C10.16839438 0.41593002 20.14172497 1.04761466 30.21484375 2.52734375 C35.25651875 3.15690275 40.29356966 3.43546521 45.36767578 3.65820312 C50.61384497 3.90308266 50.61384497 3.90308266 52.9921875 4.5 C56.25282823 5.31198835 59.59320609 5.29204752 62.9375 5.4375 C70.3904947 5.81474542 77.64678202 6.70177669 85 8 C86.99981136 8.33446322 88.99976025 8.66810837 91 9 C91 9.33 91 9.66 91 10 C77.9055178 9.62850391 64.92087093 9.20910156 51.9296875 7.47265625 C46.93079373 6.87139766 41.93778931 6.57200285 36.90966797 6.34179688 C32.10080018 6.10080018 32.10080018 6.10080018 31 5 C28.16292912 4.7889782 25.34102354 4.62392187 22.5 4.5 C14.13513514 4.13513514 14.13513514 4.13513514 13 3 C10.81980521 2.60333773 8.6303537 2.25684763 6.4375 1.9375 C4.64119141 1.67259766 4.64119141 1.67259766 2.80859375 1.40234375 C1.88175781 1.26957031 0.95492188 1.13679688 0 1 C0 0.67 0 0.34 0 0 Z " fill="#A4D9DC" transform="translate(340,506)"/>
<path d="M0 0 C4.62 0 9.24 0 14 0 C14 15.51 14 31.02 14 47 C13.67 47 13.34 47 13 47 C13 32.15 13 17.3 13 2 C9.04 2 5.08 2 1 2 C1.09371837 8.58390607 1.19985429 15.1674524 1.31738281 21.75097656 C1.35560988 23.98952791 1.39047361 26.22813937 1.421875 28.46679688 C1.46766148 31.68902026 1.52563414 34.91083207 1.5859375 38.1328125 C1.59748871 39.12991241 1.60903992 40.12701233 1.62094116 41.15432739 C1.72771495 46.20841312 2.21645574 50.21490457 4 55 C3.67 55.66 3.34 56.32 3 57 C0.53755299 53.39273582 -0.37240514 51.01950427 -0.34057617 46.65893555 C-0.34034958 45.6182341 -0.34012299 44.57753265 -0.33988953 43.5052948 C-0.32440567 42.3936647 -0.30892181 41.28203461 -0.29296875 40.13671875 C-0.28872391 38.98959915 -0.28447906 37.84247955 -0.28010559 36.66059875 C-0.26333484 33.00265879 -0.22568435 29.345273 -0.1875 25.6875 C-0.17245114 23.20508609 -0.15876309 20.72266353 -0.14648438 18.24023438 C-0.11343636 12.15994325 -0.06166395 6.08006554 0 0 Z " fill="#BBE3E5" transform="translate(226,682)"/>
<path d="M0 0 C2.62506802 -0.02690844 5.24986173 -0.04679404 7.875 -0.0625 C8.62136719 -0.07087891 9.36773437 -0.07925781 10.13671875 -0.08789062 C15.7734375 -0.11328125 15.7734375 -0.11328125 18 1 C20.26847457 1.20157213 22.54207607 1.34639358 24.81640625 1.46484375 C26.22770887 1.54227068 27.63900418 1.6198311 29.05029297 1.69750977 C30.15748688 1.75613693 30.15748688 1.75613693 31.28704834 1.81594849 C63.63118382 3.54372794 63.63118382 3.54372794 71 6 C73.28878326 6.20244766 75.58129605 6.36422048 77.875 6.5 C82.01187126 6.74592865 85.95633937 7.07749187 90 8 C90 8.33 90 8.66 90 9 C67.01358063 8.47461272 67.01358063 8.47461272 56.10913086 6.16137695 C46.79701935 4.34985865 37.2331225 4.13928404 27.77734375 3.64672852 C26.74660233 3.5915229 26.74660233 3.5915229 25.69503784 3.53520203 C23.7997048 3.43519571 21.9040082 3.34215058 20.00830078 3.24951172 C17 3 17 3 14 2 C11.60745424 1.77439324 9.21071877 1.59151405 6.8125 1.4375 C5.54019531 1.35371094 4.26789063 1.26992188 2.95703125 1.18359375 C1.98121094 1.12300781 1.00539063 1.06242187 0 1 C0 0.67 0 0.34 0 0 Z " fill="#A7DBDD" transform="translate(346,502)"/>
<path d="M0 0 C3.96 0 7.92 0 12 0 C12.33 0.99 12.66 1.98 13 3 C9.04 2.67 5.08 2.34 1 2 C1 22.13 1 42.26 1 63 C0.67 63 0.34 63 0 63 C0 42.21 0 21.42 0 0 Z " fill="#F4FAFA" transform="translate(442,683)"/>
<path d="M0 0 C1.65 1.32 3.3 2.64 5 4 C4.67 4.66 4.34 5.32 4 6 C3.67 5.67 3.34 5.34 3 5 C2.67 16.55 2.34 28.1 2 40 C1.34 40 0.68 40 0 40 C0 26.8 0 13.6 0 0 Z " fill="#78C8CB" transform="translate(455,708)"/>
<path d="M0 0 C0.87914062 0.01353516 1.75828125 0.02707031 2.6640625 0.04101562 C4.81797552 0.07613377 6.97157004 0.12993306 9.125 0.1875 C9.62 1.1775 9.62 1.1775 10.125 2.1875 C8.990625 2.14109375 7.85625 2.0946875 6.6875 2.046875 C-4.82747327 1.38190045 -4.82747327 1.38190045 -14.875 6.1875 C-17.33140615 8.51188433 -19.69461664 10.87767825 -21.9921875 13.359375 C-23.875 15.1875 -23.875 15.1875 -25.875 15.1875 C-26.205 16.5075 -26.535 17.8275 -26.875 19.1875 C-27.205 18.5275 -27.535 17.8675 -27.875 17.1875 C-22.5021025 5.2736838 -12.7636675 -0.37483662 0 0 Z " fill="#BFE4E6" transform="translate(535.875,681.8125)"/>
<path d="M0 0 C4.95 0 9.9 0 15 0 C15.97435577 4.87177883 16.16856246 5.89114481 14 10 C13.34 10.33 12.68 10.66 12 11 C12.66 8.03 13.32 5.06 14 2 C9.71 2 5.42 2 1 2 C0.67 3.65 0.34 5.3 0 7 C-1.86843073 10.0574321 -2.52837986 10.84279329 -6 12 C-8.33175914 12.09528823 -10.66629974 12.12986188 -13 12.125 C-14.2375 12.12757813 -15.475 12.13015625 -16.75 12.1328125 C-20 12 -20 12 -23 11 C-22.67 10.34 -22.34 9.68 -22 9 C-21.01 9.33 -20.02 9.66 -19 10 C-17.00179272 10.09435979 -15.00042797 10.12990301 -13 10.125 C-11.948125 10.12757813 -10.89625 10.13015625 -9.8125 10.1328125 C-6.51806448 9.97724193 -4.65856216 9.70922078 -2.375 7.25 C-0.64304175 4.70579513 -0.64304175 4.70579513 0 0 Z " fill="#8CD0D3" transform="translate(549,724)"/>
<path d="M0 0 C0.99 0.33 1.98 0.66 3 1 C3.79265639 6.32212148 4.42978066 11.6496441 5 17 C5.66 17 6.32 17 7 17 C8.60355101 20.50776784 9.22036864 23.14354879 9 27 C7.97354726 24.94709452 6.95439587 22.90024097 6 20.8125 C5.12855431 18.82798477 5.12855431 18.82798477 3 18 C3.33 20.64 3.66 23.28 4 26 C1.68994131 23.68994131 1.27825897 22.16916343 0.375 19.0625 C0.11460937 18.18722656 -0.14578125 17.31195313 -0.4140625 16.41015625 C-1 14 -1 14 -1 11 C-0.34 11 0.32 11 1 11 C0.67 7.37 0.34 3.74 0 0 Z " fill="#D3EDEE" transform="translate(436,391)"/>
<path d="M0 0 C32.32210999 1.32210999 32.32210999 1.32210999 35 4 C37.01594582 4.23427778 39.038474 4.41336124 41.0625 4.5625 C42.71958984 4.68818359 42.71958984 4.68818359 44.41015625 4.81640625 C45.26480469 4.87699219 46.11945313 4.93757813 47 5 C47 5.33 47 5.66 47 6 C44.52076199 6.02685095 42.0418116 6.04676547 39.5625 6.0625 C38.85544922 6.07087891 38.14839844 6.07925781 37.41992188 6.08789062 C35.61306441 6.09653588 33.80612397 6.05220011 32 6 C31.67 5.67 31.34 5.34 31 5 C28.16292912 4.7889782 25.34102354 4.62392187 22.5 4.5 C14.13513514 4.13513514 14.13513514 4.13513514 13 3 C10.81980521 2.60333773 8.6303537 2.25684763 6.4375 1.9375 C4.64119141 1.67259766 4.64119141 1.67259766 2.80859375 1.40234375 C1.88175781 1.26957031 0.95492188 1.13679688 0 1 C0 0.67 0 0.34 0 0 Z " fill="#91D2D5" transform="translate(340,506)"/>
<path d="M0 0 C2.39763185 2.39763185 2.34280586 3.33273498 2.625 6.625 C2.69976562 7.44226563 2.77453125 8.25953125 2.8515625 9.1015625 C2.92503906 10.04128906 2.92503906 10.04128906 3 11 C3.66 11 4.32 11 5 11 C6.60355101 14.50776784 7.22036864 17.14354879 7 21 C5.97354726 18.94709452 4.95439587 16.90024097 4 14.8125 C3.12855431 12.82798477 3.12855431 12.82798477 1 12 C1.33 13.98 1.66 15.96 2 18 C0 17 0 17 -0.88671875 14.78515625 C-1.15097656 13.88667969 -1.41523438 12.98820312 -1.6875 12.0625 C-1.95949219 11.16660156 -2.23148437 10.27070313 -2.51171875 9.34765625 C-3 7 -3 7 -2 5 C-1.34 5.33 -0.68 5.66 0 6 C0 4.02 0 2.04 0 0 Z " fill="#D8EFF0" transform="translate(458,459)"/>
<path d="M0 0 C1.5 1.3125 1.5 1.3125 3 3 C3 3.99 3 4.98 3 6 C3.66 6 4.32 6 5 6 C5 9.63 5 13.26 5 17 C2 16 2 16 1.05078125 14.36328125 C-0.48198562 10.10559549 -1.43768483 6.59569067 -1 2 C-0.67 1.34 -0.34 0.68 0 0 Z " fill="#F0F9F9" transform="translate(453,448)"/>
<path d="M0 0 C-0.53109375 0.38671875 -1.0621875 0.7734375 -1.609375 1.171875 C-2.31578125 1.69265625 -3.0221875 2.2134375 -3.75 2.75 C-4.44609375 3.26046875 -5.1421875 3.7709375 -5.859375 4.296875 C-6.56578125 4.85890625 -7.2721875 5.4209375 -8 6 C-8.7425 6.5671875 -9.485 7.134375 -10.25 7.71875 C-12.71701401 10.93467898 -12.44025573 13.87902767 -12.25 17.75 C-12.23195313 18.44738281 -12.21390625 19.14476562 -12.1953125 19.86328125 C-12.14838554 21.57611539 -12.07664605 23.28823824 -12 25 C-14 24 -14 24 -15 21 C-15.27690465 15.46190705 -14.74960184 11.24880553 -13 6 C-12.34 6 -11.68 6 -11 6 C-11 5.34 -11 4.68 -11 4 C-10.34 4 -9.68 4 -9 4 C-9 3.34 -9 2.68 -9 2 C-5.59159007 -0.55630744 -4.03546861 -1.28479663 0 0 Z " fill="#C9E9EA" transform="translate(712,685)"/>
<path d="M0 0 C-0.53109375 0.38671875 -1.0621875 0.7734375 -1.609375 1.171875 C-2.31578125 1.69265625 -3.0221875 2.2134375 -3.75 2.75 C-4.44609375 3.26046875 -5.1421875 3.7709375 -5.859375 4.296875 C-6.56578125 4.85890625 -7.2721875 5.4209375 -8 6 C-8.7425 6.5671875 -9.485 7.134375 -10.25 7.71875 C-12.71701401 10.93467898 -12.44025573 13.87902767 -12.25 17.75 C-12.23195312 18.44738281 -12.21390625 19.14476562 -12.1953125 19.86328125 C-12.14838554 21.57611539 -12.07664605 23.28823824 -12 25 C-14 24 -14 24 -15 21 C-15.27690465 15.46190705 -14.74960184 11.24880553 -13 6 C-12.34 6 -11.68 6 -11 6 C-11 5.34 -11 4.68 -11 4 C-10.34 4 -9.68 4 -9 4 C-9 3.34 -9 2.68 -9 2 C-5.59159007 -0.55630744 -4.03546861 -1.28479663 0 0 Z " fill="#C9E9EA" transform="translate(182,685)"/>
<path d="M0 0 C6.875 0.875 6.875 0.875 8 2 C11.20038909 2.25288599 14.41581342 2.18523682 17.625 2.1875 C18.51574219 2.19974609 19.40648437 2.21199219 20.32421875 2.22460938 C25.61913376 2.23630654 29.99156991 1.73579838 35 0 C34 2 34 2 32.13671875 2.8515625 C22.87273966 5.77702958 10.98467373 7.05600361 2.0625 2.5 C1.381875 2.005 0.70125 1.51 0 1 C0 0.67 0 0.34 0 0 Z " fill="#BAE3E4" transform="translate(704,744)"/>
<path d="M0 0 C6.875 0.875 6.875 0.875 8 2 C11.20038909 2.25288599 14.41581342 2.18523682 17.625 2.1875 C18.51574219 2.19974609 19.40648437 2.21199219 20.32421875 2.22460938 C25.61913376 2.23630654 29.99156991 1.73579838 35 0 C34 2 34 2 32.13671875 2.8515625 C22.87273966 5.77702958 10.98467373 7.05600361 2.0625 2.5 C1.381875 2.005 0.70125 1.51 0 1 C0 0.67 0 0.34 0 0 Z " fill="#BAE3E4" transform="translate(174,744)"/>
<path d="M0 0 C0.66 0.33 1.32 0.66 2 1 C-0.64 3.97 -3.28 6.94 -6 10 C-5.01 10.33 -4.02 10.66 -3 11 C-3 11.66 -3 12.32 -3 13 C-0.36 13 2.28 13 5 13 C5 13.33 5 13.66 5 14 C-0.45769811 14.11138159 -5.61509359 13.91657981 -11 13 C-10.45677238 9.205764 -8.9784232 7.7689044 -6.0625 5.375 C-5.35222656 4.78460938 -4.64195312 4.19421875 -3.91015625 3.5859375 C-3.27980469 3.06257813 -2.64945312 2.53921875 -2 2 C-1.34 1.34 -0.68 0.68 0 0 Z " fill="#91D2D5" transform="translate(323,486)"/>
<path d="M0 0 C2 3 2 3 3 11 C-10.86 10.505 -10.86 10.505 -25 10 C-25.33 9.34 -25.66 8.68 -26 8 C-12.635 8.495 -12.635 8.495 1 9 C0.67 6.03 0.34 3.06 0 0 Z " fill="#94D3D6" transform="translate(467,503)"/>
<path d="M0 0 C-5.50635883 3.61846437 -9.97935574 4.14023515 -16.5 4.125 C-17.6034375 4.12757813 -18.706875 4.13015625 -19.84375 4.1328125 C-22.68492244 4.01325821 -25.23807642 3.64925815 -28 3 C-28 2.67 -28 2.34 -28 2 C-21.07 2 -14.14 2 -7 2 C-7 1.34 -7 0.68 -7 0 C-2.25 -1.125 -2.25 -1.125 0 0 Z " fill="#BAE3E4" transform="translate(677,745)"/>
<path d="M0 0 C3.3 0.33 6.6 0.66 10 1 C10 1.66 10 2.32 10 3 C10.99580078 3.07347656 10.99580078 3.07347656 12.01171875 3.1484375 C20.78207381 3.89103691 20.78207381 3.89103691 25 6 C25 6.33 25 6.66 25 7 C20.22962983 7.23270098 16.54095456 6.43796895 12 5 C10.71416016 4.63841797 10.71416016 4.63841797 9.40234375 4.26953125 C8.50644531 4.01558594 7.61054687 3.76164062 6.6875 3.5 C5.42486328 3.14421875 5.42486328 3.14421875 4.13671875 2.78125 C2 2 2 2 0 0 Z " fill="#ACDDDF" transform="translate(586,431)"/>
<path d="M0 0 C3.3 0.33 6.6 0.66 10 1 C10 1.66 10 2.32 10 3 C10.99580078 3.07347656 10.99580078 3.07347656 12.01171875 3.1484375 C20.78207381 3.89103691 20.78207381 3.89103691 25 6 C25 6.33 25 6.66 25 7 C20.22962983 7.23270098 16.54095456 6.43796895 12 5 C10.71416016 4.63841797 10.71416016 4.63841797 9.40234375 4.26953125 C8.50644531 4.01558594 7.61054688 3.76164062 6.6875 3.5 C5.42486328 3.14421875 5.42486328 3.14421875 4.13671875 2.78125 C2 2 2 2 0 0 Z " fill="#AFDEE0" transform="translate(493,406)"/>
<path d="M0 0 C0.99 0.495 0.99 0.495 2 1 C2 1.99 2 2.98 2 4 C5.96 4 9.92 4 14 4 C14.33 2.68 14.66 1.36 15 0 C16 1 16 1 16 6 C11.38 6 6.76 6 2 6 C1.34 4.02 0.68 2.04 0 0 Z " fill="#C9E9EA" transform="translate(548,700)"/>
<path d="M0 0 C4.29 0 8.58 0 13 0 C13.33 1.65 13.66 3.3 14 5 C13.34 4.34 12.68 3.68 12 3 C9.33757179 2.53709779 9.33757179 2.53709779 6.375 2.375 C4.87066406 2.26285156 4.87066406 2.26285156 3.3359375 2.1484375 C2.56507813 2.09945312 1.79421875 2.05046875 1 2 C1.33 4.31 1.66 6.62 2 9 C1.34 8.67 0.68 8.34 0 8 C0 5.36 0 2.72 0 0 Z " fill="#C7E8E9" transform="translate(696,727)"/>
<path d="M0 0 C4.29 0 8.58 0 13 0 C13.33 1.65 13.66 3.3 14 5 C13.34 4.34 12.68 3.68 12 3 C9.33757179 2.53709779 9.33757179 2.53709779 6.375 2.375 C4.87066406 2.26285156 4.87066406 2.26285156 3.3359375 2.1484375 C2.56507813 2.09945312 1.79421875 2.05046875 1 2 C1.33 4.31 1.66 6.62 2 9 C1.34 8.67 0.68 8.34 0 8 C0 5.36 0 2.72 0 0 Z " fill="#C7E8E9" transform="translate(166,727)"/>
<path d="M0 0 C0 0.66 0 1.32 0 2 C-1.60032137 2.84069415 -3.20541171 3.67231505 -4.8125 4.5 C-6.15248047 5.19609375 -6.15248047 5.19609375 -7.51953125 5.90625 C-10 7 -10 7 -13 7 C-13 6.67 -13 6.34 -13 6 C-15.31 5.67 -17.62 5.34 -20 5 C-20 4.67 -20 4.34 -20 4 C-17.03 4 -14.06 4 -11 4 C-10.67 3.01 -10.34 2.02 -10 1 C-10 1.99 -10 2.98 -10 4 C-9.16855469 3.566875 -9.16855469 3.566875 -8.3203125 3.125 C-7.23363281 2.568125 -7.23363281 2.568125 -6.125 2 C-5.40570313 1.62875 -4.68640625 1.2575 -3.9453125 0.875 C-2 0 -2 0 0 0 Z " fill="#B6E1E3" transform="translate(488,515)"/>
<path d="M0 0 C1.47968324 0.14049518 2.95874516 0.28754826 4.4375 0.4375 C5.67306641 0.55931641 5.67306641 0.55931641 6.93359375 0.68359375 C9 1 9 1 10 2 C11.51165654 2.39148761 13.03469632 2.73972457 14.5625 3.0625 C15.38878906 3.23910156 16.21507812 3.41570312 17.06640625 3.59765625 C17.70449219 3.73042969 18.34257812 3.86320312 19 4 C13.14131896 5.73542222 7.44105846 4.55049615 2 2 C2.66 3.98 3.32 5.96 4 8 C1 6 1 6 0.3125 2.875 C0.209375 1.92625 0.10625 0.9775 0 0 Z " fill="#A8DBDD" transform="translate(210,331)"/>
<path d="M0 0 C0.99 0.33 1.98 0.66 3 1 C2.43410156 1.47050781 1.86820312 1.94101562 1.28515625 2.42578125 C0.18494141 3.35970703 0.18494141 3.35970703 -0.9375 4.3125 C-2.03384766 5.23482422 -2.03384766 5.23482422 -3.15234375 6.17578125 C-5.23820366 7.95975519 -5.23820366 7.95975519 -6 11 C-6.66 11 -7.32 11 -8 11 C-8.33 11.66 -8.66 12.32 -9 13 C-8.41273335 9.37036582 -6.95905107 7.49830783 -4.5 4.8125 C-3.8709375 4.11769531 -3.241875 3.42289063 -2.59375 2.70703125 C-1.74091381 1.79357681 -0.88366526 0.88366526 0 0 Z " fill="#C3E6E8" transform="translate(359,688)"/>
<path d="M0 0 C3 1 3 1 4.25 2.75 C5.17574966 5.52724898 4.77341204 7.21571665 4 10 C3.01 9.67 2.02 9.34 1 9 C0.67 6.03 0.34 3.06 0 0 Z " fill="#F9FCFC" transform="translate(459,471)"/>
<path d="M0 0 C3 1 3 1 4.25 2.75 C5.17574966 5.52724898 4.77341204 7.21571665 4 10 C3.01 9.67 2.02 9.34 1 9 C0.67 6.03 0.34 3.06 0 0 Z " fill="#F9FCFC" transform="translate(439,409)"/>
<path d="M0 0 C0.33 0.66 0.66 1.32 1 2 C1.66 2 2.32 2 3 2 C3 2.99 3 3.98 3 5 C3.66 5 4.32 5 5 5 C5 5.99 5 6.98 5 8 C5.66 8 6.32 8 7 8 C7.99 10.97 8.98 13.94 10 17 C6.78097174 14.85398116 5.70544246 13.41088492 4 10 C4 8.68 4 7.36 4 6 C3.34 6 2.68 6 2 6 C2 5.34 2 4.68 2 4 C1.34 4 0.68 4 0 4 C0 2.68 0 1.36 0 0 Z " fill="#B4E0E2" transform="translate(522,229)"/>
<path d="M0 0 C0.33 0.99 0.66 1.98 1 3 C0.319375 3.53625 -0.36125 4.0725 -1.0625 4.625 C-4.43384168 7.35076561 -7.72065543 10.16483178 -11 13 C-11.66 12.67 -12.32 12.34 -13 12 C-8.71 8.04 -4.42 4.08 0 0 Z " fill="#89CFD2" transform="translate(391,426)"/>
<path d="M0 0 C1.24546405 2.49092811 0.7767578 3.41080733 0 6 C-0.66 6 -1.32 6 -2 6 C-3.86551426 9.58752742 -5.42535928 13.27812193 -7 17 C-7.66 17 -8.32 17 -9 17 C-7.57997238 13.24069983 -5.87350167 9.77000304 -3.9375 6.25 C-3.14666016 4.80367188 -3.14666016 4.80367188 -2.33984375 3.328125 C-1 1 -1 1 0 0 Z " fill="#9AD6D8" transform="translate(362,277)"/>
<path d="M0 0 C0.33 0 0.66 0 1 0 C1.26404456 6.86515862 0.25841946 13.25846717 -1 20 C-1.33 20 -1.66 20 -2 20 C-2.3690205 6.3667426 -2.3690205 6.3667426 0 0 Z " fill="#9CD6D8" transform="translate(521,703)"/>
<path d="M0 0 C0.625 1.8125 0.625 1.8125 1 4 C0.01 5.485 0.01 5.485 -1 7 C-1.66 7 -2.32 7 -3 7 C-3 7.99 -3 8.98 -3 10 C-3.66 10 -4.32 10 -5 10 C-5.12375 10.639375 -5.2475 11.27875 -5.375 11.9375 C-5.58125 12.618125 -5.7875 13.29875 -6 14 C-6.99 14.495 -6.99 14.495 -8 15 C-6.51194289 9.19657726 -3.40902445 4.82409121 0 0 Z " fill="#B2DFE1" transform="translate(183,531)"/>
<path d="M0 0 C1.24546405 2.49092811 0.7767578 3.41080733 0 6 C-0.66 6 -1.32 6 -2 6 C-2.4021875 6.8353125 -2.4021875 6.8353125 -2.8125 7.6875 C-4.10122647 10.19712523 -5.52926478 12.59334236 -7 15 C-7 11.30283301 -5.86113449 9.58291751 -4.0625 6.375 C-3.51722656 5.39273437 -2.97195312 4.41046875 -2.41015625 3.3984375 C-1 1 -1 1 0 0 Z " fill="#9ED7D9" transform="translate(232,497)"/>
<path d="M0 0 C0.66 0 1.32 0 2 0 C5.44419134 10.37357631 5.44419134 10.37357631 5 16 C2.79334596 12.69001895 2.21737905 10.17978564 1.375 6.3125 C1.11460937 5.13300781 0.85421875 3.95351563 0.5859375 2.73828125 C0.39257812 1.83464844 0.19921875 0.93101562 0 0 Z " fill="#83CCCF" transform="translate(452,438)"/>
<path d="M0 0 C2.97 0.33 5.94 0.66 9 1 C9 1.66 9 2.32 9 3 C10.98 3 12.96 3 15 3 C15 3.66 15 4.32 15 5 C11.7 4.67 8.4 4.34 5 4 C5 3.34 5 2.68 5 2 C3.35 1.67 1.7 1.34 0 1 C0 0.67 0 0.34 0 0 Z " fill="#A4DADC" transform="translate(369,361)"/>
<path d="M0 0 C4.95 0.99 4.95 0.99 10 2 C8.68 2.33 7.36 2.66 6 3 C5.01 3.33 4.02 3.66 3 4 C3 4.99 3 5.98 3 7 C3.66 7 4.32 7 5 7 C4.67 8.32 4.34 9.64 4 11 C4 10.01 4 9.02 4 8 C3.34 8 2.68 8 2 8 C0.74335022 5.09399739 0 3.20395416 0 0 Z " fill="#C6E8E9" transform="translate(187,313)"/>
<path d="M0 0 C2.77141717 -0.08089542 5.54047819 -0.14044062 8.3125 -0.1875 C9.09818359 -0.21263672 9.88386719 -0.23777344 10.69335938 -0.26367188 C11.45068359 -0.27333984 12.20800781 -0.28300781 12.98828125 -0.29296875 C14.03302612 -0.31653442 14.03302612 -0.31653442 15.09887695 -0.34057617 C17 0 17 0 20 3 C13.4 2.34 6.8 1.68 0 1 C0 0.67 0 0.34 0 0 Z " fill="#A7DBDD" transform="translate(372,682)"/>
<path d="M0 0 C0.66 0.33 1.32 0.66 2 1 C2.73075648 3.3140622 3.40138258 5.64828869 4 8 C2.54077307 7.88590407 1.08259402 7.75834456 -0.375 7.625 C-1.59316406 7.52058594 -1.59316406 7.52058594 -2.8359375 7.4140625 C-5 7 -5 7 -7 5 C-4.36 5 -1.72 5 1 5 C0.67 3.35 0.34 1.7 0 0 Z " fill="#91D2D5" transform="translate(638,426)"/>
<path d="M0 0 C6.20970773 -0.33266291 10.28264895 0.54970669 16 3 C12.23331402 4.3805087 9.55210827 3.59568159 5.75 2.5625 C4.13351562 2.13130859 4.13351562 2.13130859 2.484375 1.69140625 C1.25460937 1.34916016 1.25460937 1.34916016 0 1 C0 0.67 0 0.34 0 0 Z " fill="#B5E1E2" transform="translate(425,377)"/>
<path d="M0 0 C2.65613616 1.32806808 2.93232069 2.22403378 4 5 C4.45362392 7.66567762 4.7305884 10.30588399 5 13 C4.34 13 3.68 13 3 13 C2.49689942 11.2092015 1.99761372 9.41733089 1.5 7.625 C1.2215625 6.62726563 0.943125 5.62953125 0.65625 4.6015625 C0 2 0 2 0 0 Z " fill="#8ED1D4" transform="translate(441,424)"/>
<path d="M0 0 C3.63 0.33 7.26 0.66 11 1 C11 1.66 11 2.32 11 3 C11.66 3.33 12.32 3.66 13 4 C8.51474352 3.343621 4.33085971 2.29925791 0 1 C0 0.67 0 0.34 0 0 Z " fill="#8FD1D4" transform="translate(522,402)"/>
<path d="M0 0 C0.66 0.33 1.32 0.66 2 1 C1 2.9375 1 2.9375 -1 5 C-3.69924572 5.66549451 -6.20631637 5.81680763 -9 6 C-6 4 -3 2 0 0 Z " fill="#88CED1" transform="translate(271,742)"/>
<path d="M0 0 C1.5 1.25 1.5 1.25 3 3 C3 4.32 3 5.64 3 7 C1.68 6.67 0.36 6.34 -1 6 C-1.042721 4.33388095 -1.04063832 2.66617115 -1 1 C-0.67 0.67 -0.34 0.34 0 0 Z " fill="#F9FCFC" transform="translate(468,495)"/>
<path d="M0 0 C1 2 1 2 0.0625 5.125 C-0.288125 6.07375 -0.63875 7.0225 -1 8 C-1.66 8 -2.32 8 -3 8 C-3.66 9.32 -4.32 10.64 -5 12 C-5 8.55639368 -4.20408468 7.25204608 -2.5 4.3125 C-2.0359375 3.50425781 -1.571875 2.69601562 -1.09375 1.86328125 C-0.7328125 1.24839844 -0.371875 0.63351562 0 0 Z " fill="#B5E1E2" transform="translate(340,265)"/>
<path d="M0 0 C0.99 0.33 1.98 0.66 3 1 C3.33 4.3 3.66 7.6 4 11 C1.54176828 7.31265242 0.98757384 4.30300029 0 0 Z " fill="#8CD0D3" transform="translate(473,505)"/>
<path d="M0 0 C0.33 1.32 0.66 2.64 1 4 C0.34 4 -0.32 4 -1 4 C-1.103125 4.78375 -1.20625 5.5675 -1.3125 6.375 C-2 9 -2 9 -5 11 C-3.77472971 6.94718288 -2.30119506 3.55639236 0 0 Z " fill="#B4E0E2" transform="translate(321,297)"/>
<path d="M0 0 C3.96 0 7.92 0 12 0 C12.33 0.99 12.66 1.98 13 3 C8.71 2.34 4.42 1.68 0 1 C0 0.67 0 0.34 0 0 Z " fill="#D6EDEF" transform="translate(442,683)"/>
<path d="M0 0 C0.99 0.33 1.98 0.66 3 1 C2.34 1 1.68 1 1 1 C1 1.66 1 2.32 1 3 C0.34 3 -0.32 3 -1 3 C-1 3.66 -1 4.32 -1 5 C-3.31 5.33 -5.62 5.66 -8 6 C-3.375 2 -3.375 2 0 2 C0 1.34 0 0.68 0 0 Z " fill="#8DD0D3" transform="translate(598,462)"/>
<path d="M0 0 C0.66 0.33 1.32 0.66 2 1 C-1.5 5.875 -1.5 5.875 -6 7 C-4.02 4.69 -2.04 2.38 0 0 Z " fill="#85CDD0" transform="translate(348,464)"/>
<path d="M0 0 C7.38461538 -0.36923077 7.38461538 -0.36923077 10.5 1.5 C10.995 1.995 11.49 2.49 12 3 C7.53160785 3.21278058 4.17737474 2.59138085 0 1 C0 0.67 0 0.34 0 0 Z " fill="#B4E0E2" transform="translate(613,427)"/>
<path d="M0 0 C1.4391134 0.28359887 2.87625518 0.57721399 4.3125 0.875 C5.11300781 1.03742188 5.91351563 1.19984375 6.73828125 1.3671875 C9 2 9 2 12 4 C7.12335991 4.34833144 4.22949995 3.41685712 0 1 C0 0.67 0 0.34 0 0 Z " fill="#B1DFE1" transform="translate(261,344)"/>
<path d="M0 0 C0.66 0.33 1.32 0.66 2 1 C-1.44615385 5.8 -1.44615385 5.8 -4.25 6.8125 C-5.11625 6.9053125 -5.11625 6.9053125 -6 7 C-4.71937515 5.2925002 -3.38232443 3.62626404 -2 2 C-1.34 2 -0.68 2 0 2 C0 1.34 0 0.68 0 0 Z " fill="#85CDD0" transform="translate(331,479)"/>
<path d="M0 0 C1.8125 0.1875 1.8125 0.1875 4 1 C5.8125 3.4375 5.8125 3.4375 7 6 C6.67 6.66 6.34 7.32 6 8 C5.34 7.34 4.68 6.68 4 6 C4 5.01 4 4.02 4 3 C2.68 2.67 1.36 2.34 0 2 C0 1.34 0 0.68 0 0 Z " fill="#BEE4E6" transform="translate(455,71)"/>
</svg>
